g ShapeshifterCol
v -0.0950906277 -0.0652009621 3.66958737
v -1.65273297 -0.0652012601 2.50427532
v -0.646568477 -0.0652010292 5.52336121
v 1.85393405 -0.0652009323 4.47694683
v 1.31651556 -0.0652006343 2.92070532
v 0.448980004 -0.0652009174 0.296451807
v 1.67638063E-08 -0.0652009547 0.286494732
v -1.58324838E-07 0.0662669018 0.286494732
v 0.448979944 0.066266939 0.296451807
v 1.3165158 0.0662672222 2.92070532
v -0.0950906873 0.0662668943 3.66958737
v 1.85393405 0.066266939 4.47694683
v -0.646568477 0.0662668422 5.52336121
v -1.65273297 0.0662665963 2.50427532
v 1.67638063E-08 -0.0652009547 0.286494732
v -1.10181892 -0.0652010515 0.286494732
v -1.65273297 -0.0652012601 2.50427532
v -1.65273297 0.0662665963 2.50427532
v -1.10181892 0.0662668049 0.286494732
v -1.58324838E-07 0.0662669018 0.286494732
v -0.646568477 -0.0652010292 5.52336121
v -1.65273297 -0.0652012601 2.50427532
v -1.65273297 0.0662665963 2.50427532
v -0.646568477 0.0662668422 5.52336121
v 1.85393405 -0.0652009323 4.47694683
v 0.195366293 -0.0652010068 6.15556049
v 0.195366025 0.0662668571 6.15556049
v 1.85393405 0.066266939 4.47694683
v -1.65273297 -0.0652012601 2.50427532
v -1.10181892 -0.0652010515 0.286494732
v -1.10181892 0.0662668049 0.286494732
v -1.65273297 0.0662665963 2.50427532
v 1.3165158 0.0662672222 2.92070532
v 0.448979944 0.066266939 0.296451807
v 0.448980004 -0.0652009174 0.296451807
v 1.31651556 -0.0652006343 2.92070532
v 1.85393405 -0.0652009323 4.47694683
v 1.85393405 0.066266939 4.47694683
v -0.646568477 -0.0652010292 5.52336121
v -0.646568477 0.0662668422 5.52336121
v 0.195366025 0.0662668571 6.15556049
v 0.195366293 -0.0652010068 6.15556049
v 1.67638063E-08 -0.0652009547 0.286494732
v 0.448980004 -0.0652009174 0.296451807
v 0.448979944 0.066266939 0.296451807
v -1.58324838E-07 0.0662669018 0.286494732
v -1.10181892 -0.0652010515 0.286494732
v -1.10181892 0.0662668049 0.286494732
v -0.0950906277 -0.0652009621 3.66958737
v -0.646568477 -0.0652010292 5.52336121
v 0.195366293 -0.0652010068 6.15556049
v 1.85393405 -0.0652009323 4.47694683
v -0.0950906873 0.0662668943 3.66958737
v 1.85393405 0.066266939 4.47694683
v 0.195366025 0.0662668571 6.15556049
v -0.646568477 0.0662668422 5.52336121
v -1.58324838E-07 0.0662669018 0.286494732
v 1.3165158 0.0662672222 2.92070532
v -0.0950906873 0.0662668943 3.66958737
v -1.65273297 0.0662665963 2.50427532
v 1.67638063E-08 -0.0652009547 0.286494732
v -1.65273297 -0.0652012601 2.50427532
v -0.0950906277 -0.0652009621 3.66958737
v 1.31651556 -0.0652006343 2.92070532
vt 0.438839018 0.37499997
vt 0.438839048 0.5
vt 0.625 0.5
vt 0.625 0.25
vt 0.438839048 0.249999985
vt 0.375 0.25
vt 0.375 0.375
vt 0.375 0.875
vt 0.375 1
vt 0.438839048 1
vt 0.438839078 0.875
vt 0.625 1
vt 0.625 0.75
vt 0.438839048 0.75
vt 0.375 0.375
vt 0.375 0.5
vt 0.438839048 0.5
vt 0.438839048 0.75
vt 0.375 0.75
vt 0.375 0.875
vt 0.625 0.5
vt 0.438839048 0.5
vt 0.438839048 0.75
vt 0.625 0.75
vt 0.875 0.5
vt 0.75 0.5
vt 0.75 0.75
vt 0.875 0.75
vt 0.438839048 0.5
vt 0.375 0.5
vt 0.375 0.75
vt 0.438839048 0.75
vt 0.438839078 0
vt 0.375 0
vt 0.375 0.25
vt 0.438839048 0.249999985
vt 0.625 0.25
vt 0.625 0
vt 0.625 0.5
vt 0.625 0.75
vt 0.75 0.75
vt 0.75 0.5
vt 0.24999997 0.49999994
vt 0.125 0.5
vt 0.125 0.75
vt 0.24999997 0.74999994
vt 0.375 0.5
vt 0.375 0.75
vt 0.438839018 0.37499997
vt 0.625 0.5
vt 0.625 0.375
vt 0.625 0.25
vt 0.438839078 0.875
vt 0.625 1
vt 0.625 0.875
vt 0.625 0.75
vt 0.375 0.875
vt 0.438839048 1
vt 0.438839078 0.875
vt 0.438839048 0.75
vt 0.375 0.375
vt 0.438839048 0.5
vt 0.438839018 0.37499997
vt 0.438839048 0.249999985
vn -0 -1 0
vn -0 -1 0
vn -0 -1 0
vn -0 -1 0
vn -0 -1 0
vn -0 -1 0
vn -0 -1 0
vn -0 1 0
vn -0 1 0
vn -0 1 0
vn -0 1 0
vn -0 1 0
vn -0 1 0
vn -0 1 0
vn -0 -1 0
vn -0 -1 0
vn -0 -1 0
vn -0 1 0
vn -0 1 0
vn -0 1 0
vn -0.948701859 0 0.316171914
vn -0.948701859 0 0.316171914
vn -0.948701859 0 0.316171914
vn -0.948701859 0 0.316171855
vn 0.711341321 0 0.702846706
vn 0.711341321 0 0.702846706
vn 0.711341321 0 0.702846706
vn 0.711341321 0 0.702846706
vn -0.970505059 0 -0.241081074
vn -0.970505059 0 -0.241081074
vn -0.970505059 0 -0.241081074
vn -0.970505059 0 -0.241081059
vn 0.945226252 0 -0.326415956
vn 0.949463546 0 -0.313877314
vn 0.949463546 0 -0.313877314
vn 0.945226252 0 -0.326415956
vn 0.945226252 0 -0.326415956
vn 0.945226371 0 -0.326415658
vn -0.600454092 0 0.799659193
vn -0.600454092 0 0.799659193
vn -0.600454092 0 0.799659193
vn -0.600455403 0 0.799658298
vn -0 0 -1
vn 0.0221716817 0 -0.999754131
vn 0.0221716817 0 -0.999754131
vn -0 0 -1
vn -0 0 -1
vn -0 0 -1
vn -0 -1 0
vn -0 -1 0
vn -0 -1 0
vn -0 -1 0
vn -0 1 0
vn -0 1 0
vn -0 1 0
vn -0 1 0
vn -0 1 0
vn -0 1 0
vn -0 1 0
vn -0 1 0
vn -0 -1 0
vn -0 -1 0
vn -0 -1 0
vn -0 -1 0
g ShapeshifterCol_0
f 3/3/3 2/2/2 1/1/1
f 1/1/1 5/5/5 4/4/4
f 7/7/7 6/6/6 5/5/5
f 10/10/10 9/9/9 8/8/8
f 12/12/12 10/10/10 11/11/11
f 11/11/11 14/14/14 13/13/13
f 17/17/17 16/16/16 15/15/15
f 20/20/20 19/19/19 18/18/18
f 23/23/23 22/22/22 21/21/21
f 24/24/24 23/23/23 21/21/21
f 27/27/27 26/26/26 25/25/25
f 28/28/28 27/27/27 25/25/25
f 31/31/31 30/30/30 29/29/29
f 32/32/32 31/31/31 29/29/29
f 35/35/35 34/34/34 33/33/33
f 36/36/36 35/35/35 33/33/33
f 37/37/37 36/36/36 33/33/33
f 38/38/38 37/37/37 33/33/33
f 41/41/41 40/40/40 39/39/39
f 42/42/42 41/41/41 39/39/39
f 45/45/45 44/44/44 43/43/43
f 46/46/46 45/45/45 43/43/43
f 46/46/46 43/43/43 47/47/47
f 48/48/48 46/46/46 47/47/47
f 51/51/51 50/50/50 49/49/49
f 51/51/51 49/49/49 52/52/52
f 55/55/55 54/54/54 53/53/53
f 55/55/55 53/53/53 56/56/56
f 59/59/59 58/58/58 57/57/57
f 59/59/59 57/57/57 60/60/60
f 63/63/63 62/62/62 61/61/61
f 63/63/63 61/61/61 64/64/64
