g MulklaCol
v -2.07973671 -0.111287542 3.29610133
v -2.07973671 0.111287303 3.29610133
v -1.96994948 0.111287497 4.1572361
v -1.96994948 -0.111287355 4.1572361
v -0.311886489 0.111287594 1.20255458
v 2.59096956 0.111286946 5.02806139
v 1.11612988 0.111287564 6.1816473
v -0.739786506 0.111287586 5.86800718
v -2.07973671 0.111287303 3.29610133
v -0.739786506 0.111287586 5.86800718
v -1.96994948 0.111287497 4.1572361
v 2.59096956 0.111286946 5.02806139
v 2.59096956 -0.111287899 5.02806139
v 1.11612988 -0.111287296 6.1816473
v 1.11612988 0.111287564 6.1816473
v -0.311886489 -0.111287251 1.20255458
v -2.07973671 -0.111287542 3.29610133
v -1.96994948 -0.111287355 4.1572361
v -0.739786386 -0.111287266 5.86800718
v 2.59096956 -0.111287899 5.02806139
v -0.311886489 -0.111287251 1.20255458
v 1.11612988 -0.111287296 6.1816473
v 0.0176954102 0.111287422 0.309901953
v 1.47348583 -0.111287422 0.309901953
v 1.47348583 0.111287422 0.309901953
v 0.0176954847 -0.111287422 0.309901953
v -1.63154471 0.111287422 0.309901953
v -1.63154471 -0.111287422 0.309901953
v -0.739786506 0.111287586 5.86800718
v -0.739786386 -0.111287266 5.86800718
v -1.96994948 -0.111287355 4.1572361
v -1.96994948 0.111287497 4.1572361
v 0.0176954847 -0.111287422 0.309901953
v -1.63154471 -0.111287422 0.309901953
v -2.07973671 -0.111287542 3.29610133
v -0.311886489 -0.111287251 1.20255458
v 1.47348583 -0.111287422 0.309901953
v 0.0176954847 -0.111287422 0.309901953
v 2.59096956 -0.111287899 5.02806139
v 1.47348583 0.111287422 0.309901953
v 1.47348583 -0.111287422 0.309901953
v 2.59096956 -0.111287899 5.02806139
v 2.59096956 0.111286946 5.02806139
v 0.0176954102 0.111287422 0.309901953
v 1.47348583 0.111287422 0.309901953
v 2.59096956 0.111286946 5.02806139
v -0.311886489 0.111287594 1.20255458
v -1.63154471 -0.111287422 0.309901953
v -1.63154471 0.111287422 0.309901953
v -2.07973671 0.111287303 3.29610133
v -2.07973671 -0.111287542 3.29610133
v -1.63154471 0.111287422 0.309901953
v 0.0176954102 0.111287422 0.309901953
v -0.311886489 0.111287594 1.20255458
v -2.07973671 0.111287303 3.29610133
v 1.11612988 0.111287564 6.1816473
v 1.11612988 -0.111287296 6.1816473
v -0.739786386 -0.111287266 5.86800718
v -0.739786506 0.111287586 5.86800718
vt 0.438839078 0
vt 0.438839048 0.249999985
vt 0.625 0.25
vt 0.625 0
vt 0.438839018 0.37499997
vt 0.438839048 0.5
vt 0.625 0.5
vt 0.625 0.375
vt 0.438839048 0.249999985
vt 0.625 0.375
vt 0.625 0.25
vt 0.438839048 0.5
vt 0.438839048 0.75
vt 0.625 0.75
vt 0.625 0.5
vt 0.438839078 0.875
vt 0.438839048 1
vt 0.625 1
vt 0.625 0.875
vt 0.438839048 0.75
vt 0.438839078 0.875
vt 0.625 0.75
vt 0.24999997 0.49999994
vt 0.375 0.75
vt 0.375 0.5
vt 0.24999997 0.74999994
vt 0.125 0.5
vt 0.125 0.75
vt 0.75 0.5
vt 0.75 0.75
vt 0.875 0.75
vt 0.875 0.5
vt 0.375 0.875
vt 0.375 1
vt 0.438839048 1
vt 0.438839078 0.875
vt 0.375 0.75
vt 0.375 0.875
vt 0.438839048 0.75
vt 0.375 0.5
vt 0.375 0.75
vt 0.438839048 0.75
vt 0.438839048 0.5
vt 0.375 0.375
vt 0.375 0.5
vt 0.438839048 0.5
vt 0.438839018 0.37499997
vt 0.375 0
vt 0.375 0.25
vt 0.438839048 0.249999985
vt 0.438839078 0
vt 0.375 0.25
vt 0.375 0.375
vt 0.438839018 0.37499997
vt 0.438839048 0.249999985
vt 0.625 0.5
vt 0.625 0.75
vt 0.75 0.75
vt 0.75 0.5
vn -0.991970658 0 0.126467615
vn -0.991970658 0 0.126467615
vn -0.991970658 0 0.126467615
vn -0.991970658 0 0.126467615
vn -0 1 0
vn -0 1 0
vn -0 1 0
vn -0 1 0
vn -0 1 0
vn -0 1 0
vn -0 1 0
vn 0.61609745 0 0.787669957
vn 0.61609745 0 0.787669957
vn 0.61609745 0 0.787669957
vn 0.61609745 0 0.787669957
vn -0 -1 0
vn -0 -1 0
vn -0 -1 0
vn -0 -1 0
vn -0 -1 0
vn -0 -1 0
vn -0 -1 0
vn -0 0 -1
vn -0 0 -1
vn -0 0 -1
vn -0 0 -1
vn -0 0 -1
vn -0 0 -1
vn -0.811892509 0 0.583806992
vn -0.811892509 0 0.583806992
vn -0.811892509 0 0.583806992
vn -0.811892509 0 0.583806992
vn -0 -1 0
vn -0 -1 0
vn -0 -1 0
vn -0 -1 0
vn -0 -1 0
vn -0 -1 0
vn -0 -1 0
vn 0.973079145 0 -0.230471253
vn 0.973079145 0 -0.230471253
vn 0.973079145 0 -0.230471253
vn 0.973079145 0 -0.230471253
vn -0 1 0
vn -0 1 0
vn -0 1 0
vn -0 1 0
vn -0.988923609 0 -0.148425326
vn -0.988923609 0 -0.148425326
vn -0.988923609 0 -0.148425326
vn -0.988923609 0 -0.148425326
vn -0 1 0
vn -0 1 0
vn -0 1 0
vn -0 1 0
vn -0.166631848 0 0.986019254
vn -0.166631848 0 0.986019254
vn -0.166631848 0 0.986019254
vn -0.166631848 0 0.986019254
g MulklaCol_0
f 3/3/3 2/2/2 1/1/1
f 4/4/4 3/3/3 1/1/1
f 7/7/7 6/6/6 5/5/5
f 8/8/8 7/7/7 5/5/5
f 10/10/10 5/5/5 9/9/9
f 11/11/11 10/10/10 9/9/9
f 14/14/14 13/13/13 12/12/12
f 15/15/15 14/14/14 12/12/12
f 18/18/18 17/17/17 16/16/16
f 19/19/19 18/18/18 16/16/16
f 19/19/19 21/21/21 20/20/20
f 22/22/22 19/19/19 20/20/20
f 25/25/25 24/24/24 23/23/23
f 24/24/24 26/26/26 23/23/23
f 23/23/23 26/26/26 27/27/27
f 26/26/26 28/28/28 27/27/27
f 31/31/31 30/30/30 29/29/29
f 32/32/32 31/31/31 29/29/29
f 35/35/35 34/34/34 33/33/33
f 36/36/36 35/35/35 33/33/33
f 36/36/36 38/38/38 37/37/37
f 39/39/39 36/36/36 37/37/37
f 42/42/42 41/41/41 40/40/40
f 43/43/43 42/42/42 40/40/40
f 46/46/46 45/45/45 44/44/44
f 47/47/47 46/46/46 44/44/44
f 50/50/50 49/49/49 48/48/48
f 51/51/51 50/50/50 48/48/48
f 54/54/54 53/53/53 52/52/52
f 55/55/55 54/54/54 52/52/52
f 58/58/58 57/57/57 56/56/56
f 59/59/59 58/58/58 56/56/56
