g Skeletons_col
v -0.647356272 -0.1112874 2.41201043
v -0.647356272 0.111287437 2.41201091
v 0.0417227447 0.11128737 3.77844381
v 0.0417227447 -0.11128749 3.77844381
v 0.70482862 0.11128749 2.01073146
v 0.760832548 -0.111287475 3.78844953
v 0.760832548 0.11128737 3.78844953
v 0.70482862 -0.111287341 2.01073146
v 0.639087141 0.111287422 0.309901953
v 0.639087141 -0.111287422 0.309901953
v 0.0196704064 -0.111287363 2.21233249
v -0.647356272 -0.1112874 2.41201043
v 0.0417227447 -0.11128749 3.77844381
v 0.327505201 -0.111287475 3.81267142
v 0.70482862 -0.111287341 2.01073146
v 0.760832548 -0.111287475 3.78844953
v 0.0196704064 -0.111287363 2.21233249
v 0.639087141 -0.111287422 0.309901953
v -0.047273539 -0.111287422 0.309901953
v -0.748388648 -0.111287422 0.309901953
v -0.647356272 -0.1112874 2.41201043
v -0.047273539 0.111287422 0.309901953
v 0.639087141 -0.111287422 0.309901953
v 0.639087141 0.111287422 0.309901953
v -0.047273539 -0.111287422 0.309901953
v -0.748388648 0.111287422 0.309901953
v -0.748388648 -0.111287422 0.309901953
v 0.327505201 0.111287385 3.81267142
v 0.327505201 -0.111287475 3.81267142
v 0.0417227447 -0.11128749 3.77844381
v 0.0417227447 0.11128737 3.77844381
v -0.748388648 -0.111287422 0.309901953
v -0.748388648 0.111287422 0.309901953
v -0.647356272 0.111287437 2.41201091
v -0.647356272 -0.1112874 2.41201043
v -0.748388648 0.111287422 0.309901953
v 0.0196704064 0.111287475 2.21233249
v -0.647356272 0.111287437 2.41201091
v -0.047273539 0.111287422 0.309901953
v 0.639087141 0.111287422 0.309901953
v 0.70482862 0.11128749 2.01073146
v 0.760832548 0.11128737 3.78844953
v 0.327505201 0.111287385 3.81267142
v -0.647356272 0.111287437 2.41201091
v 0.0196704064 0.111287475 2.21233249
v 0.0417227447 0.11128737 3.77844381
v 0.760832548 0.11128737 3.78844953
v 0.760832548 -0.111287475 3.78844953
v 0.327505201 -0.111287475 3.81267142
v 0.327505201 0.111287385 3.81267142
vt 0.555512011 0
vt 0.555512071 0.25
vt 0.625 0.25
vt 0.625 0
vt 0.555512071 0.5
vt 0.625 0.75
vt 0.625 0.5
vt 0.555512011 0.75
vt 0.375 0.5
vt 0.375 0.75
vt 0.555512071 0.875
vt 0.555512071 1
vt 0.625 1
vt 0.625 0.875
vt 0.555512011 0.75
vt 0.625 0.75
vt 0.555512071 0.875
vt 0.375 0.75
vt 0.375 0.875
vt 0.375 1
vt 0.555512071 1
vt 0.25 0.5
vt 0.375 0.75
vt 0.375 0.5
vt 0.25 0.75
vt 0.125 0.5
vt 0.125 0.75
vt 0.75 0.5
vt 0.75 0.75
vt 0.875 0.75
vt 0.875 0.5
vt 0.375 0
vt 0.375 0.25
vt 0.555512071 0.25
vt 0.555512011 0
vt 0.375 0.25
vt 0.555512071 0.375
vt 0.555512071 0.25
vt 0.375 0.375
vt 0.375 0.5
vt 0.555512071 0.5
vt 0.625 0.5
vt 0.625 0.375
vt 0.555512071 0.25
vt 0.555512071 0.375
vt 0.625 0.25
vt 0.625 0.5
vt 0.625 0.75
vt 0.75 0.75
vt 0.75 0.5
vn -0.892889619 0 0.45027557
vn -0.892889619 0 0.45027557
vn -0.892889619 0 0.45027557
vn -0.892889619 0 0.45027557
vn 0.999504209 0 -0.0314876474
vn 0.999504209 0 -0.0314876474
vn 0.999504209 0 -0.0314876474
vn 0.999504209 0 -0.0314876474
vn 0.999253809 0 -0.0386237614
vn 0.999253809 0 -0.0386237614
vn -0 -1 0
vn -0 -1 0
vn -0 -1 0
vn -0 -1 0
vn -0 -1 0
vn -0 -1 0
vn -0 -1 0
vn -0 -1 0
vn -0 -1 0
vn -0 -1 0
vn -0 -1 0
vn -0 0 -1
vn -0 0 -1
vn -0 0 -1
vn -0 0 -1
vn -0 0 -1
vn -0 0 -1
vn -0.11891789 0 0.992904127
vn -0.11891789 0 0.992904127
vn -0.11891789 0 0.992904127
vn -0.11891789 0 0.992904127
vn -0.998847008 0 0.0480069816
vn -0.998847008 0 0.0480069816
vn -0.998847008 0 0.0480069816
vn -0.998847008 0 0.0480069816
vn -0 1 0
vn -0 1 0
vn -0 1 0
vn -0 1 0
vn -0 1 0
vn -0 1 0
vn -0 1 0
vn -0 1 0
vn -0 1 0
vn -0 1 0
vn -0 1 0
vn 0.0558102876 0 0.998441398
vn 0.0558102876 0 0.998441398
vn 0.0558102876 0 0.998441398
vn 0.0558102876 0 0.998441398
g Skeletons_col_0
f 3/3/3 2/2/2 1/1/1
f 4/4/4 3/3/3 1/1/1
f 7/7/7 6/6/6 5/5/5
f 6/6/6 8/8/8 5/5/5
f 5/5/5 8/8/8 9/9/9
f 8/8/8 10/10/10 9/9/9
f 13/13/13 12/12/12 11/11/11
f 14/14/14 13/13/13 11/11/11
f 16/16/16 14/14/14 15/15/15
f 14/14/14 17/17/17 15/15/15
f 15/15/15 17/17/17 18/18/18
f 17/17/17 19/19/19 18/18/18
f 20/20/20 19/19/19 17/17/17
f 21/21/21 20/20/20 17/17/17
f 24/24/24 23/23/23 22/22/22
f 23/23/23 25/25/25 22/22/22
f 22/22/22 25/25/25 26/26/26
f 25/25/25 27/27/27 26/26/26
f 30/30/30 29/29/29 28/28/28
f 31/31/31 30/30/30 28/28/28
f 34/34/34 33/33/33 32/32/32
f 35/35/35 34/34/34 32/32/32
f 38/38/38 37/37/37 36/36/36
f 37/37/37 39/39/39 36/36/36
f 40/40/40 39/39/39 37/37/37
f 41/41/41 40/40/40 37/37/37
f 42/42/42 41/41/41 37/37/37
f 43/43/43 42/42/42 37/37/37
f 43/43/43 45/45/45 44/44/44
f 46/46/46 43/43/43 44/44/44
f 49/49/49 48/48/48 47/47/47
f 50/50/50 49/49/49 47/47/47
