g MjorCol
v -2.39787531 -0.111287825 3.95651293
v -2.39787531 0.11128702 3.95651293
v -2.10378695 0.111287221 4.75182533
v -2.10378695 -0.111287631 4.75182533
v -0.0354349613 0.111287504 1.87393677
v 1.16001105 0.111287281 6.37472439
v -0.118867502 0.111287266 6.3309536
v 1.66727042 0.111287333 2.13409662
v -0 0.111287422 0.309901953
v 1.61279333 0.111287422 0.309901953
v -2.39787531 0.11128702 3.95651293
v -0.118867502 0.111287266 6.3309536
v -2.10378695 0.111287221 4.75182533
v -1.50084007 0.111287422 0.309901953
v -0.0354349613 0.111287504 1.87393677
v -2.39787531 0.11128702 3.95651293
v 1.66727042 0.111287333 2.13409662
v 1.66727042 -0.111287512 2.13409662
v 1.16001105 -0.111287579 6.37472439
v 1.16001105 0.111287281 6.37472439
v -0.0354349613 -0.111287341 1.87393677
v -2.39787531 -0.111287825 3.95651293
v -2.10378695 -0.111287631 4.75182533
v -0.118867442 -0.111287586 6.3309536
v 1.66727042 -0.111287512 2.13409662
v -0.0354349613 -0.111287341 1.87393677
v 1.16001105 -0.111287579 6.37472439
v -0 0.111287422 0.309901953
v 1.61279333 -0.111287422 0.309901953
v 1.61279333 0.111287422 0.309901953
v 1.41937576E-07 -0.111287422 0.309901953
v -1.50084007 0.111287422 0.309901953
v -1.50084007 -0.111287422 0.309901953
v -0.118867502 0.111287266 6.3309536
v -0.118867442 -0.111287586 6.3309536
v -2.10378695 -0.111287631 4.75182533
v -2.10378695 0.111287221 4.75182533
v 1.41937576E-07 -0.111287422 0.309901953
v -1.50084007 -0.111287422 0.309901953
v -2.39787531 -0.111287825 3.95651293
v -0.0354349613 -0.111287341 1.87393677
v 1.61279333 -0.111287422 0.309901953
v 1.41937576E-07 -0.111287422 0.309901953
v 1.66727042 -0.111287512 2.13409662
v 1.61279333 0.111287422 0.309901953
v 1.61279333 -0.111287422 0.309901953
v 1.66727042 -0.111287512 2.13409662
v 1.66727042 0.111287333 2.13409662
v -1.50084007 -0.111287422 0.309901953
v -1.50084007 0.111287422 0.309901953
v -2.39787531 0.11128702 3.95651293
v -2.39787531 -0.111287825 3.95651293
v 1.16001105 0.111287281 6.37472439
v 1.16001105 -0.111287579 6.37472439
v -0.118867442 -0.111287586 6.3309536
v -0.118867502 0.111287266 6.3309536
vt 0.438839078 0
vt 0.438839048 0.249999985
vt 0.625 0.25
vt 0.625 0
vt 0.438839018 0.37499997
vt 0.625 0.5
vt 0.625 0.375
vt 0.438839048 0.5
vt 0.375 0.375
vt 0.375 0.5
vt 0.438839048 0.249999985
vt 0.625 0.375
vt 0.625 0.25
vt 0.375 0.25
vt 0.438839018 0.37499997
vt 0.438839048 0.249999985
vt 0.438839048 0.5
vt 0.438839048 0.75
vt 0.625 0.75
vt 0.625 0.5
vt 0.438839078 0.875
vt 0.438839048 1
vt 0.625 1
vt 0.625 0.875
vt 0.438839048 0.75
vt 0.438839078 0.875
vt 0.625 0.75
vt 0.24999997 0.49999994
vt 0.375 0.75
vt 0.375 0.5
vt 0.24999997 0.74999994
vt 0.125 0.5
vt 0.125 0.75
vt 0.75 0.5
vt 0.75 0.75
vt 0.875 0.75
vt 0.875 0.5
vt 0.375 0.875
vt 0.375 1
vt 0.438839048 1
vt 0.438839078 0.875
vt 0.375 0.75
vt 0.375 0.875
vt 0.438839048 0.75
vt 0.375 0.5
vt 0.375 0.75
vt 0.438839048 0.75
vt 0.438839048 0.5
vt 0.375 0
vt 0.375 0.25
vt 0.438839048 0.249999985
vt 0.438839078 0
vt 0.625 0.5
vt 0.625 0.75
vt 0.75 0.75
vt 0.75 0.5
vn -0.937929809 0 0.346824944
vn -0.937929809 0 0.346824944
vn -0.937929809 0 0.346824944
vn -0.937929809 0 0.346824944
vn -0 1 0
vn -0 1 0
vn -0 1 0
vn -0 1 0
vn -0 1 0
vn -0 1 0
vn -0 1 0
vn -0 1 0
vn -0 1 0
vn -0 1 0
vn -0 1 0
vn -0 1 0
vn 0.992921531 0 0.118772216
vn 0.992921531 0 0.118772216
vn 0.992921531 0 0.118772216
vn 0.992921531 0 0.118772216
vn -0 -1 0
vn -0 -1 0
vn -0 -1 0
vn -0 -1 0
vn -0 -1 0
vn -0 -1 0
vn -0 -1 0
vn -0 0 -1
vn -0 0 -1
vn -0 0 -1
vn -0 0 -1
vn -0 0 -1
vn -0 0 -1
vn -0.622575581 0 0.782559693
vn -0.622575581 0 0.782559693
vn -0.622575581 0 0.782559693
vn -0.622575581 0 0.782559693
vn -0 -1 0
vn -0 -1 0
vn -0 -1 0
vn -0 -1 0
vn -0 -1 0
vn -0 -1 0
vn -0 -1 0
vn 0.999554336 0 -0.0298503321
vn 0.999554336 0 -0.0298503321
vn 0.999554336 0 -0.0298503321
vn 0.999554336 0 -0.0298503321
vn -0.971051514 0 -0.238870397
vn -0.971051514 0 -0.238870397
vn -0.971051514 0 -0.238870397
vn -0.971051514 0 -0.238870397
vn -0.0342055745 0 0.999414802
vn -0.0342055745 0 0.999414802
vn -0.0342055745 0 0.999414802
vn -0.0342055745 0 0.999414802
g MjorCol_0
f 3/3/3 2/2/2 1/1/1
f 4/4/4 3/3/3 1/1/1
f 7/7/7 6/6/6 5/5/5
f 6/6/6 8/8/8 5/5/5
f 5/5/5 8/8/8 9/9/9
f 8/8/8 10/10/10 9/9/9
f 12/12/12 5/5/5 11/11/11
f 13/13/13 12/12/12 11/11/11
f 15/15/15 9/9/9 14/14/14
f 16/16/16 15/15/15 14/14/14
f 19/19/19 18/18/18 17/17/17
f 20/20/20 19/19/19 17/17/17
f 23/23/23 22/22/22 21/21/21
f 24/24/24 23/23/23 21/21/21
f 24/24/24 26/26/26 25/25/25
f 27/27/27 24/24/24 25/25/25
f 30/30/30 29/29/29 28/28/28
f 29/29/29 31/31/31 28/28/28
f 28/28/28 31/31/31 32/32/32
f 31/31/31 33/33/33 32/32/32
f 36/36/36 35/35/35 34/34/34
f 37/37/37 36/36/36 34/34/34
f 40/40/40 39/39/39 38/38/38
f 41/41/41 40/40/40 38/38/38
f 41/41/41 43/43/43 42/42/42
f 44/44/44 41/41/41 42/42/42
f 47/47/47 46/46/46 45/45/45
f 48/48/48 47/47/47 45/45/45
f 51/51/51 50/50/50 49/49/49
f 52/52/52 51/51/51 49/49/49
f 55/55/55 54/54/54 53/53/53
f 56/56/56 55/55/55 53/53/53
