g XaidineCol
v 0.0731143802 -0.0652010068 2.96131253
v -1.28658462 -0.0652012751 1.99971557
v -1.46148288 -0.0652013198 3.44020295
v 1.08661985 -0.0652008653 3.27989101
v 0.831909299 -0.0652006343 5.30707121
v 0.821236074 -0.0652008802 0.286494732
v -0.681306481 -0.0652010143 0.286494732
v -1.28658462 -0.0652012751 1.99971557
v -1.28658462 0.0662665814 1.99971557
v -0.681306481 0.0662668422 0.286494732
v 0.821235955 0.0662669763 0.286494732
v -1.46148288 0.0662665516 3.44020295
v -1.28658462 0.0662665814 1.99971557
v 0.0731142312 0.0662668496 2.96131253
v 1.08661985 0.0662669912 3.27989101
v 0.831909537 0.0662672222 5.30707121
v -1.06946969 0.066266641 5.19965029
v 0.831909537 0.0662672222 5.30707121
v -0.165735334 0.066266939 6.62381268
v 0.831909299 -0.0652006343 5.30707121
v -1.06946945 -0.0652012303 5.19965029
v -0.165735304 -0.0652009249 6.62381268
v -0.165735334 0.066266939 6.62381268
v 0.831909537 0.0662672222 5.30707121
v 0.831909299 -0.0652006343 5.30707121
v -0.165735304 -0.0652009249 6.62381268
v -1.46148288 -0.0652013198 3.44020295
v -1.28658462 -0.0652012751 1.99971557
v -1.28658462 0.0662665814 1.99971557
v -1.46148288 0.0662665516 3.44020295
v -1.06946969 0.066266641 5.19965029
v 0.0731142312 0.0662668496 2.96131253
v 0.831909537 0.0662672222 5.30707121
v -1.46148288 0.0662665516 3.44020295
v 0.821236074 -0.0652008802 0.286494732
v 0.821235955 0.0662669763 0.286494732
v -0.681306481 0.0662668422 0.286494732
v -0.681306481 -0.0652010143 0.286494732
v -1.06946945 -0.0652012303 5.19965029
v -1.06946969 0.066266641 5.19965029
v -0.165735334 0.066266939 6.62381268
v -0.165735304 -0.0652009249 6.62381268
v 0.0731142312 0.0662668496 2.96131253
v 0.821235955 0.0662669763 0.286494732
v 1.08661985 0.0662669912 3.27989101
v -1.28658462 0.0662665814 1.99971557
v -1.28658462 -0.0652012751 1.99971557
v -0.681306481 -0.0652010143 0.286494732
v -0.681306481 0.0662668422 0.286494732
v -1.28658462 0.0662665814 1.99971557
v 1.08661985 0.0662669912 3.27989101
v 1.08661985 -0.0652008653 3.27989101
v 0.831909299 -0.0652006343 5.30707121
v 0.831909537 0.0662672222 5.30707121
v 1.08661985 -0.0652008653 3.27989101
v 0.821236074 -0.0652008802 0.286494732
v 0.0731143802 -0.0652010068 2.96131253
v -1.28658462 -0.0652012751 1.99971557
v -1.06946945 -0.0652012303 5.19965029
v -1.46148288 -0.0652013198 3.44020295
v -1.46148288 0.0662665516 3.44020295
v -1.06946969 0.066266641 5.19965029
v 0.821236074 -0.0652008802 0.286494732
v 1.08661985 -0.0652008653 3.27989101
v 1.08661985 0.0662669912 3.27989101
v 0.821235955 0.0662669763 0.286494732
v 0.831909299 -0.0652006343 5.30707121
v 0.0731143802 -0.0652010068 2.96131253
v -1.06946945 -0.0652012303 5.19965029
v -1.46148288 -0.0652013198 3.44020295
vt 0.438839018 0.37499997
vt 0.438839048 0.5
vt 0.625 0.5
vt 0.375 0.25
vt 0.438839048 0.249999985
vt 0.375 0.375
vt 0.375 0.5
vt 0.438839048 0.5
vt 0.438839048 0.75
vt 0.375 0.75
vt 0.375 0.875
vt 0.625 0.75
vt 0.438839048 0.75
vt 0.438839078 0.875
vt 0.375 1
vt 0.438839048 1
vt 0.625 0.875
vt 0.438839048 1
vt 0.625 1
vt 0.438839048 0.249999985
vt 0.625 0.375
vt 0.625 0.25
vt 0.625 0
vt 0.438839078 0
vt 0.438839048 0.249999985
vt 0.625 0.25
vt 0.625 0.5
vt 0.438839048 0.5
vt 0.438839048 0.75
vt 0.625 0.75
vt 0.625 0.875
vt 0.438839078 0.875
vt 0.438839048 1
vt 0.625 0.75
vt 0.24999997 0.49999994
vt 0.24999997 0.74999994
vt 0.375 0.75
vt 0.375 0.5
vt 0.75 0.5
vt 0.75 0.75
vt 0.875 0.75
vt 0.875 0.5
vt 0.438839078 0.875
vt 0.375 0.875
vt 0.375 1
vt 0.438839048 0.75
vt 0.438839048 0.5
vt 0.375 0.5
vt 0.375 0.75
vt 0.438839048 0.75
vt 0.375 0
vt 0.375 0.25
vt 0.438839048 0.249999985
vt 0.438839078 0
vt 0.375 0.25
vt 0.375 0.375
vt 0.438839018 0.37499997
vt 0.438839048 0.5
vt 0.75 0.5
vt 0.625 0.5
vt 0.625 0.75
vt 0.75 0.75
vt 0.24999997 0.49999994
vt 0.125 0.5
vt 0.125 0.75
vt 0.24999997 0.74999994
vt 0.438839048 0.249999985
vt 0.438839018 0.37499997
vt 0.625 0.375
vt 0.625 0.5
vn -0 -1 0
vn -0 -1 0
vn -0 -1 0
vn -0 -1 0
vn -0 -1 0
vn -0 -1 0
vn -0 -1 0
vn -0 -1 0
vn -0 1 0
vn -0 1 0
vn -0 1 0
vn -0 1 0
vn -0 1 0
vn -0 1 0
vn -0 1 0
vn -0 1 0
vn -0 1 0
vn -0 1 0
vn -0 1 0
vn -0 -1 0
vn -0 -1 0
vn -0 -1 0
vn 0.797059119 0 0.603901386
vn 0.797059119 0 0.603901386
vn 0.797059119 0 0.603901386
vn 0.797059119 0 0.603901267
vn -0.992709517 0 -0.120530792
vn -0.992709517 0 -0.120530792
vn -0.992709517 0 -0.120530792
vn -0.992709517 0 -0.120530881
vn -0 1 0
vn -0 1 0
vn -0 1 0
vn -0 1 0
vn -0 0 -1
vn -0 0 -1
vn -0 0 -1
vn -0 0 -1
vn -0.844345748 0 0.535798669
vn -0.844345748 0 0.535798669
vn -0.844345748 0 0.535798669
vn -0.844345689 0 0.535798848
vn -0 1 0
vn -0 1 0
vn -0 1 0
vn -0 1 0
vn -0.942884564 0 -0.333119601
vn -0.942884564 0 -0.333119601
vn -0.942884564 0 -0.333119601
vn -0.942884564 0 -0.333119661
vn 0.992198527 0 0.124667473
vn 0.992198527 0 0.124667473
vn 0.992198527 0 0.124667473
vn 0.992198527 0 0.124667354
vn -0 -1 0
vn -0 -1 0
vn -0 -1 0
vn -0 -1 0
vn -0.97606647 0 0.21747233
vn -0.97606647 0 0.21747233
vn -0.97606647 0 0.21747233
vn -0.97606647 0 0.217472255
vn 0.996093094 0 -0.0883100629
vn 0.996093094 0 -0.0883100629
vn 0.996093094 0 -0.0883100629
vn 0.996093094 0 -0.0883100778
vn -0 -1 0
vn -0 -1 0
vn -0 -1 0
vn -0 -1 0
g XaidineCol_0
f 3/3/3 2/2/2 1/1/1
f 5/5/5 1/1/1 4/4/4
f 8/8/8 7/7/7 6/6/6
f 11/11/11 10/10/10 9/9/9
f 14/14/14 13/13/13 12/12/12
f 16/16/16 15/15/15 14/14/14
f 19/19/19 18/18/18 17/17/17
f 22/22/22 21/21/21 20/20/20
f 25/25/25 24/24/24 23/23/23
f 26/26/26 25/25/25 23/23/23
f 29/29/29 28/28/28 27/27/27
f 30/30/30 29/29/29 27/27/27
f 33/33/33 32/32/32 31/31/31
f 31/31/31 32/32/32 34/34/34
f 37/37/37 36/36/36 35/35/35
f 38/38/38 37/37/37 35/35/35
f 41/41/41 40/40/40 39/39/39
f 42/42/42 41/41/41 39/39/39
f 45/45/45 44/44/44 43/43/43
f 43/43/43 44/44/44 46/46/46
f 49/49/49 48/48/48 47/47/47
f 50/50/50 49/49/49 47/47/47
f 53/53/53 52/52/52 51/51/51
f 54/54/54 53/53/53 51/51/51
f 57/57/57 56/56/56 55/55/55
f 57/57/57 58/58/58 56/56/56
f 61/61/61 60/60/60 59/59/59
f 62/62/62 61/61/61 59/59/59
f 65/65/65 64/64/64 63/63/63
f 66/66/66 65/65/65 63/63/63
f 69/69/69 68/68/68 67/67/67
f 69/69/69 70/70/70 68/68/68
