g MotherofnightCol
v -0.0950906277 -0.0652009621 3.66958737
v -1.90207195 -0.0652012005 3.26416612
v -2.26133633 -0.0652011409 5.6064744
v 1.67638063E-08 -0.0652009547 0.286494732
v -1.52925742 -0.0652010888 0.286494732
v -0.0950906873 0.0662668943 3.66958737
v 1.83894062 0.0662672967 4.72544575
v 0.298532754 0.0662669465 7.18405724
v -1.90207195 0.0662666559 3.26416612
v -1.52925742 0.0662667677 0.286494732
v -1.58324838E-07 0.0662669018 0.286494732
v -2.26133633 0.066266723 5.6064744
v -0.0950906873 0.0662668943 3.66958737
v 0.298532814 -0.0652009174 7.18405724
v 1.83894038 -0.0652005672 4.72544575
v -0.0950906277 -0.0652009621 3.66958737
v -0.0950906873 0.0662668943 3.66958737
v 1.50570309 0.0662670359 0.296451807
v 1.83894062 0.0662672967 4.72544575
v 1.50570309 -0.0652008206 0.296451807
v -0.0950906277 -0.0652009621 3.66958737
v 1.83894038 -0.0652005672 4.72544575
v 0.298532754 0.0662669465 7.18405724
v 1.83894062 0.0662672967 4.72544575
v 1.83894038 -0.0652005672 4.72544575
v 0.298532814 -0.0652009174 7.18405724
v -1.22942889 -0.0652010515 7.14104366
v -1.22942913 0.0662668124 7.14104366
v 0.298532754 0.0662669465 7.18405724
v 0.298532814 -0.0652009174 7.18405724
v -0.0950906873 0.0662668943 3.66958737
v -1.58324838E-07 0.0662669018 0.286494732
v 1.50570309 0.0662670359 0.296451807
v -1.90207195 0.0662666559 3.26416612
v -1.90207195 -0.0652012005 3.26416612
v -1.52925742 -0.0652010888 0.286494732
v -1.52925742 0.0662667677 0.286494732
v -1.90207195 0.0662666559 3.26416612
v -2.26133633 -0.0652011409 5.6064744
v -2.26133633 0.066266723 5.6064744
v 1.83894062 0.0662672967 4.72544575
v 1.50570309 0.0662670359 0.296451807
v 1.50570309 -0.0652008206 0.296451807
v 1.83894038 -0.0652005672 4.72544575
v 1.50570309 -0.0652008206 0.296451807
v 1.67638063E-08 -0.0652009547 0.286494732
v -0.0950906277 -0.0652009621 3.66958737
v -1.90207195 -0.0652012005 3.26416612
v -1.22942889 -0.0652010515 7.14104366
v -2.26133633 -0.0652011409 5.6064744
v -2.26133633 0.066266723 5.6064744
v -1.22942913 0.0662668124 7.14104366
v 1.67638063E-08 -0.0652009547 0.286494732
v 1.50570309 -0.0652008206 0.296451807
v 1.50570309 0.0662670359 0.296451807
v -1.58324838E-07 0.0662669018 0.286494732
v -1.52925742 -0.0652010888 0.286494732
v -1.52925742 0.0662667677 0.286494732
v -0.0950906277 -0.0652009621 3.66958737
v -2.26133633 -0.0652011409 5.6064744
v -1.22942889 -0.0652010515 7.14104366
v 0.298532814 -0.0652009174 7.18405724
v -0.0950906873 0.0662668943 3.66958737
v 0.298532754 0.0662669465 7.18405724
v -1.22942913 0.0662668124 7.14104366
v -2.26133633 0.066266723 5.6064744
vt 0.438839018 0.37499997
vt 0.438839048 0.5
vt 0.625 0.5
vt 0.375 0.375
vt 0.375 0.5
vt 0.438839078 0.875
vt 0.438839048 1
vt 0.625 1
vt 0.438839048 0.75
vt 0.375 0.75
vt 0.375 0.875
vt 0.625 0.75
vt 0.438839078 0.875
vt 0.625 0.25
vt 0.438839048 0.249999985
vt 0.438839018 0.37499997
vt 0.438839078 0.875
vt 0.375 1
vt 0.438839048 1
vt 0.375 0.25
vt 0.438839018 0.37499997
vt 0.438839048 0.249999985
vt 0.625 0
vt 0.438839078 0
vt 0.438839048 0.249999985
vt 0.625 0.25
vt 0.75 0.5
vt 0.75 0.75
vt 0.875 0.75
vt 0.875 0.5
vt 0.438839078 0.875
vt 0.375 0.875
vt 0.375 1
vt 0.438839048 0.75
vt 0.438839048 0.5
vt 0.375 0.5
vt 0.375 0.75
vt 0.438839048 0.75
vt 0.625 0.5
vt 0.625 0.75
vt 0.438839078 0
vt 0.375 0
vt 0.375 0.25
vt 0.438839048 0.249999985
vt 0.375 0.25
vt 0.375 0.375
vt 0.438839018 0.37499997
vt 0.438839048 0.5
vt 0.75 0.5
vt 0.625 0.5
vt 0.625 0.75
vt 0.75 0.75
vt 0.24999997 0.49999994
vt 0.125 0.5
vt 0.125 0.75
vt 0.24999997 0.74999994
vt 0.375 0.5
vt 0.375 0.75
vt 0.438839018 0.37499997
vt 0.625 0.5
vt 0.625 0.375
vt 0.625 0.25
vt 0.438839078 0.875
vt 0.625 1
vt 0.625 0.875
vt 0.625 0.75
vn -0 -1 0
vn -0 -1 0
vn -0 -1 0
vn -0 -1 0
vn -0 -1 0
vn -0 1 0
vn -0 1 0
vn -0 1 0
vn -0 1 0
vn -0 1 0
vn -0 1 0
vn -0 1 0
vn -0 1 0
vn -0 -1 0
vn -0 -1 0
vn -0 -1 0
vn -0 1 0
vn -0 1 0
vn -0 1 0
vn -0 -1 0
vn -0 -1 0
vn -0 -1 0
vn 0.847413003 0 0.530934334
vn 0.847413003 0 0.530934334
vn 0.847413003 0 0.530934334
vn 0.847412884 0 0.530934393
vn -0.0281398743 0 0.999604046
vn -0.0281398743 0 0.999604046
vn -0.0281398743 0 0.999604046
vn -0.0281399433 0 0.999604046
vn -0 1 0
vn -0 1 0
vn -0 1 0
vn -0 1 0
vn -0.988440752 0 -0.151607573
vn -0.992253006 0 -0.12423344
vn -0.992253006 0 -0.12423344
vn -0.988440752 0 -0.151607573
vn -0.988440752 0 -0.151607573
vn -0.988440752 0 -0.151607469
vn 0.997181535 0 -0.0750279576
vn 0.997181535 0 -0.0750279576
vn 0.997181535 0 -0.0750279576
vn 0.997181535 0 -0.0750278905
vn -0 -1 0
vn -0 -1 0
vn -0 -1 0
vn -0 -1 0
vn -0.829832315 0 0.558012903
vn -0.829832315 0 0.558012903
vn -0.829832315 0 0.558012903
vn -0.829831898 0 0.55801332
vn -0 0 -1
vn 0.00661269762 0 -0.999978185
vn 0.00661269762 0 -0.999978185
vn -0 0 -1
vn -0 0 -1
vn -0 0 -1
vn -0 -1 0
vn -0 -1 0
vn -0 -1 0
vn -0 -1 0
vn -0 1 0
vn -0 1 0
vn -0 1 0
vn -0 1 0
g MotherofnightCol_0
f 3/3/3 2/2/2 1/1/1
f 2/2/2 5/5/5 4/4/4
f 8/8/8 7/7/7 6/6/6
f 11/11/11 10/10/10 9/9/9
f 13/13/13 9/9/9 12/12/12
f 16/16/16 15/15/15 14/14/14
f 19/19/19 18/18/18 17/17/17
f 22/22/22 21/21/21 20/20/20
f 25/25/25 24/24/24 23/23/23
f 26/26/26 25/25/25 23/23/23
f 29/29/29 28/28/28 27/27/27
f 30/30/30 29/29/29 27/27/27
f 33/33/33 32/32/32 31/31/31
f 31/31/31 32/32/32 34/34/34
f 37/37/37 36/36/36 35/35/35
f 38/38/38 37/37/37 35/35/35
f 38/38/38 35/35/35 39/39/39
f 40/40/40 38/38/38 39/39/39
f 43/43/43 42/42/42 41/41/41
f 44/44/44 43/43/43 41/41/41
f 47/47/47 46/46/46 45/45/45
f 47/47/47 48/48/48 46/46/46
f 51/51/51 50/50/50 49/49/49
f 52/52/52 51/51/51 49/49/49
f 55/55/55 54/54/54 53/53/53
f 56/56/56 55/55/55 53/53/53
f 56/56/56 53/53/53 57/57/57
f 58/58/58 56/56/56 57/57/57
f 61/61/61 60/60/60 59/59/59
f 61/61/61 59/59/59 62/62/62
f 65/65/65 64/64/64 63/63/63
f 65/65/65 63/63/63 66/66/66
