g WarpigCol
v -1.31915462 -0.111287825 2.25615644
v -1.31915462 0.11128702 2.25615644
v -0.266305149 0.111287221 3.71881342
v -0.266305149 -0.111287631 3.71881342
v 1.26503563 0.111287333 1.77757025
v 1.26503563 -0.111287512 1.77757025
v 1.18743622 -0.111287579 2.3249507
v 1.18743622 0.111287281 2.3249507
v -0.0354349613 -0.111287341 1.87393677
v -1.31915462 -0.111287825 2.25615644
v -0.266305149 -0.111287631 3.71881342
v 0.173667014 -0.111287586 3.68900204
v 1.26503563 -0.111287512 1.77757025
v -0.0354349613 -0.111287341 1.87393677
v 1.18743622 -0.111287579 2.3249507
v -0 0.111287422 0.309901953
v 0.88145721 -0.111287422 0.309901953
v 0.88145721 0.111287422 0.309901953
v 1.41937576E-07 -0.111287422 0.309901953
v -0.723795414 0.111287422 0.309901953
v -0.723795414 -0.111287422 0.309901953
v 0.173666954 0.111287266 3.68900204
v 0.173667014 -0.111287586 3.68900204
v -0.266305149 -0.111287631 3.71881342
v -0.266305149 0.111287221 3.71881342
v 1.41937576E-07 -0.111287422 0.309901953
v -0.723795414 -0.111287422 0.309901953
v -1.31915462 -0.111287825 2.25615644
v -0.0354349613 -0.111287341 1.87393677
v 0.88145721 -0.111287422 0.309901953
v 1.41937576E-07 -0.111287422 0.309901953
v 1.26503563 -0.111287512 1.77757025
v 0.88145721 0.111287422 0.309901953
v 0.88145721 -0.111287422 0.309901953
v 1.26503563 -0.111287512 1.77757025
v 1.26503563 0.111287333 1.77757025
v -0 0.111287422 0.309901953
v 0.88145721 0.111287422 0.309901953
v 1.26503563 0.111287333 1.77757025
v -0.0354349613 0.111287504 1.87393677
v -0.0354349613 0.111287504 1.87393677
v 1.18743622 0.111287281 2.3249507
v 0.173666954 0.111287266 3.68900204
v -1.31915462 0.11128702 2.25615644
v -0.0354349613 0.111287504 1.87393677
v -0.266305149 0.111287221 3.71881342
v -0.723795414 -0.111287422 0.309901953
v -0.723795414 0.111287422 0.309901953
v -1.31915462 0.11128702 2.25615644
v -1.31915462 -0.111287825 2.25615644
v -0.723795414 0.111287422 0.309901953
v -0 0.111287422 0.309901953
v -0.0354349613 0.111287504 1.87393677
v -1.31915462 0.11128702 2.25615644
v 1.18743622 0.111287281 2.3249507
v 1.18743622 -0.111287579 2.3249507
v 0.173667014 -0.111287586 3.68900204
v 0.173666954 0.111287266 3.68900204
vt 0.438839078 0
vt 0.438839048 0.249999985
vt 0.625 0.25
vt 0.625 0
vt 0.438839048 0.5
vt 0.438839048 0.75
vt 0.625 0.75
vt 0.625 0.5
vt 0.438839078 0.875
vt 0.438839048 1
vt 0.625 1
vt 0.625 0.875
vt 0.438839048 0.75
vt 0.438839078 0.875
vt 0.625 0.75
vt 0.24999997 0.49999994
vt 0.375 0.75
vt 0.375 0.5
vt 0.24999997 0.74999994
vt 0.125 0.5
vt 0.125 0.75
vt 0.75 0.5
vt 0.75 0.75
vt 0.875 0.75
vt 0.875 0.5
vt 0.375 0.875
vt 0.375 1
vt 0.438839048 1
vt 0.438839078 0.875
vt 0.375 0.75
vt 0.375 0.875
vt 0.438839048 0.75
vt 0.375 0.5
vt 0.375 0.75
vt 0.438839048 0.75
vt 0.438839048 0.5
vt 0.375 0.375
vt 0.375 0.5
vt 0.438839048 0.5
vt 0.438839018 0.37499997
vt 0.438839018 0.37499997
vt 0.625 0.5
vt 0.625 0.375
vt 0.438839048 0.249999985
vt 0.438839018 0.37499997
vt 0.625 0.25
vt 0.375 0
vt 0.375 0.25
vt 0.438839048 0.249999985
vt 0.438839078 0
vt 0.375 0.25
vt 0.375 0.375
vt 0.438839018 0.37499997
vt 0.438839048 0.249999985
vt 0.625 0.5
vt 0.625 0.75
vt 0.75 0.75
vt 0.75 0.5
vn -0.811603725 0 0.58420831
vn -0.811603725 0 0.58420831
vn -0.811603725 0 0.58420831
vn -0.811603725 0 0.58420831
vn 0.990100324 0 0.140361622
vn 0.990100324 0 0.140361622
vn 0.990100324 0 0.140361622
vn 0.990100324 0 0.140361622
vn -0 -1 0
vn -0 -1 0
vn -0 -1 0
vn -0 -1 0
vn -0 -1 0
vn -0 -1 0
vn -0 -1 0
vn -0 0 -1
vn -0 0 -1
vn -0 0 -1
vn -0 0 -1
vn -0 0 -1
vn -0 0 -1
vn 0.0676024035 0 0.997712374
vn 0.0676024035 0 0.997712374
vn 0.0676024035 0 0.997712374
vn 0.0676024035 0 0.997712374
vn -0 -1 0
vn -0 -1 0
vn -0 -1 0
vn -0 -1 0
vn -0 -1 0
vn -0 -1 0
vn -0 -1 0
vn 0.96750313 0 -0.252859145
vn 0.96750313 0 -0.252859145
vn 0.96750313 0 -0.252859145
vn 0.96750313 0 -0.252859145
vn -0 1 0
vn -0 1 0
vn -0 1 0
vn -0 1 0
vn -0 1 0
vn -0 1 0
vn -0 1 0
vn -0 1 0
vn -0 1 0
vn -0 1 0
vn -0.956259549 0 -0.292519808
vn -0.956259549 0 -0.292519808
vn -0.956259549 0 -0.292519808
vn -0.956259549 0 -0.292519808
vn -0 1 0
vn -0 1 0
vn -0 1 0
vn -0 1 0
vn 0.802610397 0 0.596503496
vn 0.802610397 0 0.596503496
vn 0.802610397 0 0.596503496
vn 0.802610397 0 0.596503496
g WarpigCol_0
f 3/3/3 2/2/2 1/1/1
f 4/4/4 3/3/3 1/1/1
f 7/7/7 6/6/6 5/5/5
f 8/8/8 7/7/7 5/5/5
f 11/11/11 10/10/10 9/9/9
f 12/12/12 11/11/11 9/9/9
f 12/12/12 14/14/14 13/13/13
f 15/15/15 12/12/12 13/13/13
f 18/18/18 17/17/17 16/16/16
f 17/17/17 19/19/19 16/16/16
f 16/16/16 19/19/19 20/20/20
f 19/19/19 21/21/21 20/20/20
f 24/24/24 23/23/23 22/22/22
f 25/25/25 24/24/24 22/22/22
f 28/28/28 27/27/27 26/26/26
f 29/29/29 28/28/28 26/26/26
f 29/29/29 31/31/31 30/30/30
f 32/32/32 29/29/29 30/30/30
f 35/35/35 34/34/34 33/33/33
f 36/36/36 35/35/35 33/33/33
f 39/39/39 38/38/38 37/37/37
f 40/40/40 39/39/39 37/37/37
f 42/42/42 39/39/39 41/41/41
f 43/43/43 42/42/42 41/41/41
f 43/43/43 45/45/45 44/44/44
f 46/46/46 43/43/43 44/44/44
f 49/49/49 48/48/48 47/47/47
f 50/50/50 49/49/49 47/47/47
f 53/53/53 52/52/52 51/51/51
f 54/54/54 53/53/53 51/51/51
f 57/57/57 56/56/56 55/55/55
f 58/58/58 57/57/57 55/55/55
