g GMidCol1
v -0.402841717 0.00559710711 -0.402841717
v -0.449798912 0.203871071 -0.449798882
v -0.449798912 0.203871071 0.449798942
v -0.402841717 0.00559710711 0.402841717
v -0.449798912 0.203871071 0.449798942
v -0.443185389 0.318089962 0.443185419
v 0.443185389 0.318089962 0.443185419
v 0.449798912 0.203871071 0.449798942
v 0.449798912 0.203871071 -0.449798882
v 0.402841717 0.00559710711 -0.402841717
v 0.402841717 0.00559710711 0.402841717
v 0.449798912 0.203871071 0.449798942
v 0.402841717 0.00559710711 -0.402841717
v -0.402841717 0.00559710711 -0.402841717
v -0.402841717 0.00559710711 0.402841717
v 0.402841717 0.00559710711 0.402841717
v -0.449798912 0.203871071 -0.449798882
v -0.402841717 0.00559710711 -0.402841717
v 0.402841717 0.00559710711 -0.402841717
v 0.449798912 0.203871071 -0.449798882
v 0.449798912 0.203871071 0.449798942
v 0.402841717 0.00559710711 0.402841717
v -0.402841717 0.00559710711 0.402841717
v -0.449798912 0.203871071 0.449798942
v -0.443185389 0.318089962 -0.443185359
v 0.443185389 0.318089962 -0.443185359
v 0.443185389 0.318089962 0.443185419
v -0.443185389 0.318089962 0.443185419
v -0.449798912 0.203871071 -0.449798882
v -0.443185389 0.318089962 -0.443185359
v -0.443185389 0.318089962 0.443185419
v -0.449798912 0.203871071 0.449798942
v 0.449798912 0.203871071 0.449798942
v 0.443185389 0.318089962 0.443185419
v 0.443185389 0.318089962 -0.443185359
v 0.449798912 0.203871071 -0.449798882
v 0.449798912 0.203871071 -0.449798882
v 0.443185389 0.318089962 -0.443185359
v -0.443185389 0.318089962 -0.443185359
v -0.449798912 0.203871071 -0.449798882
vt 0.375 0
vt 0.375 0.25
vt 0.625 0.25
vt 0.625 0
vt 0.875 0.5
vt 0.875 0.5
vt 0.625 0.5
vt 0.625 0.5
vt 0.375 0.5
vt 0.375 0.75
vt 0.625 0.75
vt 0.625 0.5
vt 0.375 0.75
vt 0.375 1
vt 0.625 1
vt 0.625 0.75
vt 0.125 0.5
vt 0.125 0.75
vt 0.375 0.75
vt 0.375 0.5
vt 0.625 0.5
vt 0.625 0.75
vt 0.875 0.75
vt 0.875 0.5
vt 0.375 0.25
vt 0.375 0.5
vt 0.625 0.5
vt 0.625 0.25
vt 0.375 0.25
vt 0.375 0.25
vt 0.625 0.25
vt 0.625 0.25
vt 0.625 0.5
vt 0.625 0.5
vt 0.375 0.5
vt 0.375 0.5
vt 0.375 0.5
vt 0.375 0.5
vt 0.125 0.5
vt 0.125 0.5
vn -0.973083019 -0.230455056 0
vn -0.973083019 -0.230455056 0
vn -0.973083019 -0.230455056 0
vn -0.973083019 -0.230455056 0
vn -0 0.0578053594 0.998327911
vn -0 0.0578053594 0.998327911
vn -0 0.0578053594 0.998327911
vn -0 0.0578053594 0.998327911
vn 0.973083019 -0.230455056 0
vn 0.973083019 -0.230455056 0
vn 0.973083019 -0.230455056 0
vn 0.973083019 -0.230455056 0
vn -0 -1 0
vn -0 -1 0
vn -0 -1 0
vn -0 -1 0
vn -0 -0.230454981 -0.973083019
vn -0 -0.230454981 -0.973083019
vn -0 -0.230454981 -0.973083019
vn -0 -0.230454981 -0.973083019
vn -0 -0.230455235 0.9730829
vn -0 -0.230455235 0.9730829
vn -0 -0.230455235 0.9730829
vn -0 -0.230455235 0.9730829
vn -0 1 0
vn -0 1 0
vn -0 1 0
vn -0 1 0
vn -0.998327911 0.0578054152 0
vn -0.998327911 0.0578054152 0
vn -0.998327911 0.0578054152 0
vn -0.998327911 0.0578054152 0
vn 0.998327911 0.0578054152 0
vn 0.998327911 0.0578054152 0
vn 0.998327911 0.0578054152 0
vn 0.998327911 0.0578054152 0
vn -0 0.0578053594 -0.998327911
vn -0 0.0578053594 -0.998327911
vn -0 0.0578053594 -0.998327911
vn -0 0.0578053594 -0.998327911
g GMidCol1_0
f 3/3/3 2/2/2 1/1/1
f 4/4/4 3/3/3 1/1/1
f 7/7/7 6/6/6 5/5/5
f 8/8/8 7/7/7 5/5/5
f 11/11/11 10/10/10 9/9/9
f 12/12/12 11/11/11 9/9/9
f 15/15/15 14/14/14 13/13/13
f 16/16/16 15/15/15 13/13/13
f 19/19/19 18/18/18 17/17/17
f 20/20/20 19/19/19 17/17/17
f 23/23/23 22/22/22 21/21/21
f 24/24/24 23/23/23 21/21/21
f 27/27/27 26/26/26 25/25/25
f 28/28/28 27/27/27 25/25/25
f 31/31/31 30/30/30 29/29/29
f 32/32/32 31/31/31 29/29/29
f 35/35/35 34/34/34 33/33/33
f 36/36/36 35/35/35 33/33/33
f 39/39/39 38/38/38 37/37/37
f 40/40/40 39/39/39 37/37/37
