g GMidCol6
v -0.407152385 0.800800085 -0.409716308
v 0.00254442473 1.1498673 -0.341003239
v 0.00254451367 1.15464056 7.21112201E-08
v 0.414236814 0.800800085 -0.409716427
v 0.00254451367 1.15464056 7.21112201E-08
v 0.00254442473 1.1498673 -0.341003239
v 0.414236814 0.800800085 -0.409716427
v 4.27122648E-09 0.819986522 5.76360328E-08
v 0.00254451367 1.15464056 7.21112201E-08
v -0.407152385 0.800800085 -0.409716308
v 0.00254451367 1.15464056 7.21112201E-08
v 4.27122648E-09 0.819986522 5.76360328E-08
v 0.414236814 0.800800085 -0.409716427
v -0.407152385 0.800800085 -0.409716308
v 4.27122648E-09 0.819986522 5.76360328E-08
v -0.407152385 0.800800085 -0.409716308
v 0.414236814 0.800800085 -0.409716427
v 0.00254442473 1.1498673 -0.341003239
vt 0.5 0.75
vt 0.595095277 0.690190434
vt 0.5 0.5
vt 0.75 0.75
vt 0.75 0.5
vt 0.654904783 0.690190434
vt 0.625 0.875
vt 0.5 0.875
vt 0.5 0.375
vt 0.5 0.75
vt 0.5 0.5
vt 0.5 0.875
vt 0.75 0.75
vt 0.5 0.75
vt 0.5 0.875
vt 0.5 0.75
vt 0.75 0.75
vt 0.654904783 0.690190434
vn -0.647463858 0.762021601 -0.0106662922
vn -0.647463858 0.762021601 -0.0106662922
vn -0.647463858 0.762021601 -0.0106662922
vn 0.645635366 0.763571024 -0.0106883245
vn 0.645635366 0.763571024 -0.0106883245
vn 0.645635366 0.763571024 -0.0106883245
vn 0.703081906 -0.0053458279 0.711088836
vn 0.703081906 -0.0053458279 0.711088836
vn 0.703081906 -0.0053458279 0.711088836
vn -0.709438741 0.00539416261 0.704746425
vn -0.709438741 0.00539416261 0.704746425
vn -0.709438741 0.00539416261 0.704746425
vn -0 -0.998905301 0.0467774756
vn -0 -0.998905301 0.0467774756
vn -0 -0.998905301 0.0467774756
vn -0 0.193141371 -0.981170893
vn -0 0.193141371 -0.981170893
vn -0 0.193141371 -0.981170893
g GMidCol6_0
f 3/3/3 2/2/2 1/1/1
f 6/6/6 5/5/5 4/4/4
f 9/9/9 8/8/8 7/7/7
f 12/12/12 11/11/11 10/10/10
f 15/15/15 14/14/14 13/13/13
f 18/18/18 17/17/17 16/16/16
