g GMidCol4
v 0.407152325 0.800799966 0.409716487
v -0.00254447618 1.1498673 0.341003418
v -0.00254451367 1.15464056 1.01850446E-07
v -0.414236873 0.800799966 0.409716487
v -0.00254451367 1.15464056 1.01850446E-07
v -0.00254447618 1.1498673 0.341003418
v -0.414236873 0.800799966 0.409716487
v -4.27122693E-09 0.819986522 6.61784867E-08
v -0.00254451367 1.15464056 1.01850446E-07
v 0.407152325 0.800799966 0.409716487
v -0.00254451367 1.15464056 1.01850446E-07
v -4.27122693E-09 0.819986522 6.61784867E-08
v -0.414236873 0.800799966 0.409716487
v 0.407152325 0.800799966 0.409716487
v -4.27122693E-09 0.819986522 6.61784867E-08
v 0.407152325 0.800799966 0.409716487
v -0.414236873 0.800799966 0.409716487
v -0.00254447618 1.1498673 0.341003418
vt 0.5 0.75
vt 0.595095277 0.690190434
vt 0.5 0.5
vt 0.75 0.75
vt 0.75 0.5
vt 0.654904783 0.690190434
vt 0.625 0.875
vt 0.5 0.875
vt 0.5 0.375
vt 0.5 0.75
vt 0.5 0.5
vt 0.5 0.875
vt 0.75 0.75
vt 0.5 0.75
vt 0.5 0.875
vt 0.5 0.75
vt 0.75 0.75
vt 0.654904783 0.690190434
vn 0.647463918 0.762021482 0.0106666107
vn 0.647463918 0.762021482 0.0106666107
vn 0.647463918 0.762021482 0.0106666107
vn -0.645635545 0.763570964 0.0106880022
vn -0.645635545 0.763570964 0.0106880022
vn -0.645635545 0.763570964 0.0106880022
vn -0.703081727 -0.00534575153 -0.711089075
vn -0.703081727 -0.00534575153 -0.711089075
vn -0.703081727 -0.00534575153 -0.711089075
vn 0.709438741 0.00539424038 -0.704746425
vn 0.709438741 0.00539424038 -0.704746425
vn 0.709438741 0.00539424038 -0.704746425
vn -0 -0.998905301 -0.0467776507
vn -0 -0.998905301 -0.0467776507
vn -0 -0.998905301 -0.0467776507
vn -0 0.193141147 0.981171012
vn -0 0.193141147 0.981171012
vn -0 0.193141147 0.981171012
g GMidCol4_0
f 3/3/3 2/2/2 1/1/1
f 6/6/6 5/5/5 4/4/4
f 9/9/9 8/8/8 7/7/7
f 12/12/12 11/11/11 10/10/10
f 15/15/15 14/14/14 13/13/13
f 18/18/18 17/17/17 16/16/16
