g Oda_col
v -1.64750993 -0.111287355 3.31183791
v -1.64750993 0.111287504 3.31183791
v -0.928278625 0.111287393 5.63394308
v -0.928278625 -0.111287452 5.63394308
v -0.202290148 0.111287542 3.12836766
v 1.12262964 0.111287557 2.90900159
v 0.533094287 0.111287393 5.7224021
v -0.363314718 0.111287333 6.353477
v -1.64750993 0.111287504 3.31183791
v -0.202290148 0.111287542 3.12836766
v -0.928278625 0.111287393 5.63394308
v 1.12262964 0.111287557 2.90900159
v 0.533094287 -0.11128746 5.7224021
v 0.533094287 0.111287393 5.7224021
v 1.12262964 -0.111287281 2.90900159
v 1.54934847 0.111287422 0.309901953
v 1.54934847 -0.111287422 0.309901953
v -0.202290148 -0.111287303 3.12836766
v -1.64750993 -0.111287355 3.31183791
v -0.928278625 -0.111287452 5.63394308
v -0.363314718 -0.111287527 6.353477
v 1.12262964 -0.111287281 2.90900159
v -0.202290148 -0.111287303 3.12836766
v 0.533094287 -0.11128746 5.7224021
v 0.0191216879 0.111287422 0.309901953
v 1.54934847 -0.111287422 0.309901953
v 1.54934847 0.111287422 0.309901953
v 0.0191216879 -0.111287422 0.309901953
v -1.53660083 0.111287422 0.309901953
v -1.53660083 -0.111287422 0.309901953
v -0.363314718 0.111287333 6.353477
v -0.363314718 -0.111287527 6.353477
v -0.928278625 -0.111287452 5.63394308
v -0.928278625 0.111287393 5.63394308
v -1.53660083 -0.111287422 0.309901953
v -1.53660083 0.111287422 0.309901953
v -1.64750993 0.111287504 3.31183791
v -1.64750993 -0.111287355 3.31183791
v -1.53660083 0.111287422 0.309901953
v 0.0191216879 0.111287422 0.309901953
v -0.202290148 0.111287542 3.12836766
v -1.64750993 0.111287504 3.31183791
v 0.0191216879 0.111287422 0.309901953
v 1.54934847 0.111287422 0.309901953
v 1.12262964 0.111287557 2.90900159
v 0.533094287 0.111287393 5.7224021
v 0.533094287 -0.11128746 5.7224021
v -0.363314718 -0.111287527 6.353477
v -0.363314718 0.111287333 6.353477
v 1.54934847 -0.111287422 0.309901953
v 0.0191216879 -0.111287422 0.309901953
v -0.202290148 -0.111287303 3.12836766
v 1.12262964 -0.111287281 2.90900159
v 0.0191216879 -0.111287422 0.309901953
v -1.53660083 -0.111287422 0.309901953
v -1.64750993 -0.111287355 3.31183791
vt 0.555512011 0
vt 0.555512071 0.25
vt 0.625 0.25
vt 0.625 0
vt 0.555512071 0.375
vt 0.555512071 0.5
vt 0.625 0.5
vt 0.625 0.375
vt 0.555512071 0.25
vt 0.555512071 0.375
vt 0.625 0.25
vt 0.555512071 0.5
vt 0.625 0.75
vt 0.625 0.5
vt 0.555512011 0.75
vt 0.375 0.5
vt 0.375 0.75
vt 0.555512071 0.875
vt 0.555512071 1
vt 0.625 1
vt 0.625 0.875
vt 0.555512011 0.75
vt 0.555512071 0.875
vt 0.625 0.75
vt 0.25 0.5
vt 0.375 0.75
vt 0.375 0.5
vt 0.25 0.75
vt 0.125 0.5
vt 0.125 0.75
vt 0.75 0.5
vt 0.75 0.75
vt 0.875 0.75
vt 0.875 0.5
vt 0.375 0
vt 0.375 0.25
vt 0.555512071 0.25
vt 0.555512011 0
vt 0.375 0.25
vt 0.375 0.375
vt 0.555512071 0.375
vt 0.555512071 0.25
vt 0.375 0.375
vt 0.375 0.5
vt 0.555512071 0.5
vt 0.625 0.5
vt 0.625 0.75
vt 0.75 0.75
vt 0.75 0.5
vt 0.375 0.75
vt 0.375 0.875
vt 0.555512071 0.875
vt 0.555512011 0.75
vt 0.375 0.875
vt 0.375 1
vt 0.555512071 1
vn -0.95522964 0 0.295865566
vn -0.95522964 0 0.295865566
vn -0.95522964 0 0.295865566
vn -0.95522964 0 0.295865566
vn -0 1 0
vn -0 1 0
vn -0 1 0
vn -0 1 0
vn -0 1 0
vn -0 1 0
vn -0 1 0
vn 0.978742838 0 0.205091119
vn 0.978742838 0 0.205091119
vn 0.978742838 0 0.205091119
vn 0.978742838 0 0.205091119
vn 0.986789048 0 0.162010521
vn 0.986789048 0 0.162010521
vn -0 -1 0
vn -0 -1 0
vn -0 -1 0
vn -0 -1 0
vn -0 -1 0
vn -0 -1 0
vn -0 -1 0
vn -0 0 -1
vn -0 0 -1
vn -0 0 -1
vn -0 0 -1
vn -0 0 -1
vn -0 0 -1
vn -0.786522388 0 0.617561758
vn -0.786522388 0 0.617561758
vn -0.786522388 0 0.617561758
vn -0.786522388 0 0.617561758
vn -0.999318242 0 -0.0369206741
vn -0.999318242 0 -0.0369206741
vn -0.999318242 0 -0.0369206741
vn -0.999318242 0 -0.0369206741
vn -0 1 0
vn -0 1 0
vn -0 1 0
vn -0 1 0
vn -0 1 0
vn -0 1 0
vn -0 1 0
vn 0.575657189 0 0.817691088
vn 0.575657189 0 0.817691088
vn 0.575657189 0 0.817691088
vn 0.575657189 0 0.817691088
vn -0 -1 0
vn -0 -1 0
vn -0 -1 0
vn -0 -1 0
vn -0 -1 0
vn -0 -1 0
vn -0 -1 0
g Oda_col_0
f 3/3/3 2/2/2 1/1/1
f 4/4/4 3/3/3 1/1/1
f 7/7/7 6/6/6 5/5/5
f 8/8/8 7/7/7 5/5/5
f 8/8/8 10/10/10 9/9/9
f 11/11/11 8/8/8 9/9/9
f 14/14/14 13/13/13 12/12/12
f 13/13/13 15/15/15 12/12/12
f 12/12/12 15/15/15 16/16/16
f 15/15/15 17/17/17 16/16/16
f 20/20/20 19/19/19 18/18/18
f 21/21/21 20/20/20 18/18/18
f 21/21/21 23/23/23 22/22/22
f 24/24/24 21/21/21 22/22/22
f 27/27/27 26/26/26 25/25/25
f 26/26/26 28/28/28 25/25/25
f 25/25/25 28/28/28 29/29/29
f 28/28/28 30/30/30 29/29/29
f 33/33/33 32/32/32 31/31/31
f 34/34/34 33/33/33 31/31/31
f 37/37/37 36/36/36 35/35/35
f 38/38/38 37/37/37 35/35/35
f 41/41/41 40/40/40 39/39/39
f 42/42/42 41/41/41 39/39/39
f 44/44/44 43/43/43 41/41/41
f 45/45/45 44/44/44 41/41/41
f 48/48/48 47/47/47 46/46/46
f 49/49/49 48/48/48 46/46/46
f 52/52/52 51/51/51 50/50/50
f 53/53/53 52/52/52 50/50/50
f 55/55/55 54/54/54 52/52/52
f 56/56/56 55/55/55 52/52/52
