g HavenBottom_Collision3
v 0.0128547456 0.704441011 -0.233150244
v 0.0128547456 1.01326501 -0.233150199
v -0.0763678253 1.01326489 -0.215402618
v -0.0763678253 0.704440951 -0.215402663
v 0.102077425 0.704440951 -0.215402633
v 0.0128547456 0.704441011 -0.233150244
v -0.0763678253 0.704440951 -0.215402663
v -0.152007207 0.704441011 -0.164862126
v 0.177716732 0.704441011 -0.164862111
v -0.202547848 0.704441011 -0.0892227963
v 0.228257298 0.704441011 -0.089222759
v -0.22029537 0.704441011 -7.35844452E-08
v 0.24600476 0.704441011 -6.16439522E-08
v -0.202547818 0.704441011 0.0892226174
v 0.228257298 0.704441011 0.0892226249
v -0.152007222 0.704441011 0.164861977
v 0.177716747 0.704441011 0.164861932
v 0.102077425 0.704441011 0.215402514
v -0.0763678476 0.704441011 0.215402484
v 0.0128547819 0.704441011 0.233150065
v -0.152007207 1.01326501 -0.164862081
v -0.000676970929 1.19564283 -0.013531791
v -0.00482530706 1.19564283 -0.00732338196
v -0.202547848 1.01326501 -0.0892227516
v -0.0763678476 0.704441011 0.215402484
v -0.0763678476 1.01326501 0.215402529
v 0.0128547819 1.01326501 0.23315011
v 0.0128547819 0.704441011 0.233150065
v 0.177716732 0.704441011 -0.164862111
v 0.177716732 1.01326501 -0.164862067
v 0.102077425 1.01326489 -0.215402588
v 0.102077425 0.704440951 -0.215402633
v -0.152007222 0.704441011 0.164861977
v -0.152007222 1.01326501 0.164862022
v -0.0763678476 1.01326501 0.215402529
v -0.0763678476 0.704441011 0.215402484
v 0.228257298 0.704441011 -0.089222759
v 0.228257298 1.01326501 -0.0892227143
v 0.177716732 1.01326501 -0.164862067
v 0.177716732 0.704441011 -0.164862111
v -0.202547818 0.704441011 0.0892226174
v -0.202547818 1.01326501 0.0892226622
v -0.152007222 1.01326501 0.164862022
v -0.152007222 0.704441011 0.164861977
v 0.24600476 0.704441011 -6.16439522E-08
v 0.24600476 1.01326501 -1.22083215E-08
v 0.228257298 1.01326501 -0.0892227143
v 0.228257298 0.704441011 -0.089222759
v -0.22029537 0.704441011 -7.35844452E-08
v -0.22029537 1.01326501 -2.41488145E-08
v -0.202547818 1.01326501 0.0892226622
v -0.202547818 0.704441011 0.0892226174
v 0.228257298 0.704441011 0.0892226249
v 0.228257298 1.01326501 0.0892226696
v 0.24600476 1.01326501 -1.22083215E-08
v 0.24600476 0.704441011 -6.16439522E-08
v -0.202547848 0.704441011 -0.0892227963
v -0.202547848 1.01326501 -0.0892227516
v -0.22029537 1.01326501 -2.41488145E-08
v -0.22029537 0.704441011 -7.35844452E-08
v 0.177716747 0.704441011 0.164861932
v 0.177716747 1.01326501 0.164861977
v 0.228257298 1.01326501 0.0892226696
v 0.228257298 0.704441011 0.0892226249
v -0.152007207 0.704441011 -0.164862126
v -0.152007207 1.01326501 -0.164862081
v -0.202547848 1.01326501 -0.0892227516
v -0.202547848 0.704441011 -0.0892227963
v 0.102077425 0.704441011 0.215402514
v 0.102077425 1.01326501 0.215402558
v 0.177716747 1.01326501 0.164861977
v 0.177716747 0.704441011 0.164861932
v -0.0763678253 0.704440951 -0.215402663
v -0.0763678253 1.01326489 -0.215402618
v -0.152007207 1.01326501 -0.164862081
v -0.152007207 0.704441011 -0.164862126
v 0.0128547819 0.704441011 0.233150065
v 0.0128547819 1.01326501 0.23315011
v 0.102077425 1.01326501 0.215402558
v 0.102077425 0.704441011 0.215402514
v 0.102077425 0.704440951 -0.215402633
v 0.102077425 1.01326489 -0.215402588
v 0.0128547456 1.01326501 -0.233150199
v 0.0128547456 0.704441011 -0.233150244
v 0.00553144328 1.19564283 -0.017680116
v 0.0128547587 1.19564283 -0.0191368274
v 0.0201780815 1.19564283 -0.017680116
v -0.000676970929 1.19564283 -0.013531791
v 0.026386492 1.19564283 -0.013531791
v -0.00482530706 1.19564283 -0.00732338196
v 0.0305348225 1.19564283 -0.00732337823
v -0.00628200546 1.19564283 -5.60029534E-08
v 0.0319915153 1.19564283 -5.50228876E-08
v -0.00482530147 1.19564283 0.00732326554
v 0.0305348225 1.19564283 0.00732326834
v -0.000676978379 1.19564283 0.013531683
v 0.026386492 1.19564283 0.0135316774
v 0.0201780815 1.19564283 0.017680008
v 0.00553144328 1.19564283 0.017680008
v 0.0128547605 1.19564283 0.019136712
v 0.102077425 1.01326501 0.215402558
v 0.0201780815 1.19564283 0.017680008
v 0.026386492 1.19564283 0.0135316774
v 0.177716747 1.01326501 0.164861977
v -0.0763678253 1.01326489 -0.215402618
v 0.00553144328 1.19564283 -0.017680116
v -0.000676970929 1.19564283 -0.013531791
v -0.152007207 1.01326501 -0.164862081
v 0.0128547819 1.01326501 0.23315011
v 0.0128547605 1.19564283 0.019136712
v 0.0201780815 1.19564283 0.017680008
v 0.102077425 1.01326501 0.215402558
v 0.102077425 1.01326489 -0.215402588
v 0.0201780815 1.19564283 -0.017680116
v 0.0128547587 1.19564283 -0.0191368274
v 0.0128547456 1.01326501 -0.233150199
v 0.0128547456 1.01326501 -0.233150199
v 0.0128547587 1.19564283 -0.0191368274
v 0.00553144328 1.19564283 -0.017680116
v -0.0763678253 1.01326489 -0.215402618
v -0.0763678476 1.01326501 0.215402529
v 0.00553144328 1.19564283 0.017680008
v 0.0128547605 1.19564283 0.019136712
v 0.0128547819 1.01326501 0.23315011
v 0.177716732 1.01326501 -0.164862067
v 0.026386492 1.19564283 -0.013531791
v 0.0201780815 1.19564283 -0.017680116
v 0.102077425 1.01326489 -0.215402588
v -0.152007222 1.01326501 0.164862022
v -0.000676978379 1.19564283 0.013531683
v 0.00553144328 1.19564283 0.017680008
v -0.0763678476 1.01326501 0.215402529
v 0.228257298 1.01326501 -0.0892227143
v 0.0305348225 1.19564283 -0.00732337823
v 0.026386492 1.19564283 -0.013531791
v 0.177716732 1.01326501 -0.164862067
v -0.202547818 1.01326501 0.0892226622
v -0.00482530147 1.19564283 0.00732326554
v -0.000676978379 1.19564283 0.013531683
v -0.152007222 1.01326501 0.164862022
v 0.24600476 1.01326501 -1.22083215E-08
v 0.0319915153 1.19564283 -5.50228876E-08
v 0.0305348225 1.19564283 -0.00732337823
v 0.228257298 1.01326501 -0.0892227143
v -0.22029537 1.01326501 -2.41488145E-08
v -0.00628200546 1.19564283 -5.60029534E-08
v -0.00482530147 1.19564283 0.00732326554
v -0.202547818 1.01326501 0.0892226622
v 0.228257298 1.01326501 0.0892226696
v 0.0305348225 1.19564283 0.00732326834
v 0.0319915153 1.19564283 -5.50228876E-08
v 0.24600476 1.01326501 -1.22083215E-08
v -0.202547848 1.01326501 -0.0892227516
v -0.00482530706 1.19564283 -0.00732338196
v -0.00628200546 1.19564283 -5.60029534E-08
v -0.22029537 1.01326501 -2.41488145E-08
v 0.177716747 1.01326501 0.164861977
v 0.026386492 1.19564283 0.0135316774
v 0.0305348225 1.19564283 0.00732326834
v 0.228257298 1.01326501 0.0892226696
vt 0.25 0.49000001
vt 0.25 0.49000001
vt 0.158156097 0.471731126
vt 0.158156097 0.471731126
vt 0.341844022 0.471731067
vt 0.25 0.49000001
vt 0.158156097 0.471731126
vt 0.0802944303 0.419705689
vt 0.419705629 0.419705629
vt 0.0282689333 0.341844052
vt 0.471731067 0.341844022
vt 0.0100000054 0.25
vt 0.49000001 0.249999985
vt 0.0282689184 0.158155948
vt 0.471731067 0.158155948
vt 0.0802944154 0.0802943259
vt 0.419705629 0.0802943856
vt 0.341844022 0.0282689184
vt 0.158156037 0.0282688886
vt 0.25000003 0.0100000054
vt 0.0802944303 0.419705689
vt 0.0802944303 0.419705689
vt 0.0282689333 0.341844052
vt 0.0282689333 0.341844052
vt 0.158156037 0.0282688886
vt 0.158156037 0.0282688886
vt 0.25000003 0.0100000054
vt 0.25000003 0.0100000054
vt 0.419705629 0.419705629
vt 0.419705629 0.419705629
vt 0.341844022 0.471731067
vt 0.341844022 0.471731067
vt 0.0802944154 0.0802943259
vt 0.0802944154 0.0802943259
vt 0.158156037 0.0282688886
vt 0.158156037 0.0282688886
vt 0.471731067 0.341844022
vt 0.471731067 0.341844022
vt 0.419705629 0.419705629
vt 0.419705629 0.419705629
vt 0.0282689184 0.158155948
vt 0.0282689184 0.158155948
vt 0.0802944154 0.0802943259
vt 0.0802944154 0.0802943259
vt 0.49000001 0.249999985
vt 0.49000001 0.249999985
vt 0.471731067 0.341844022
vt 0.471731067 0.341844022
vt 0.0100000054 0.25
vt 0.0100000054 0.25
vt 0.0282689184 0.158155948
vt 0.0282689184 0.158155948
vt 0.471731067 0.158155948
vt 0.471731067 0.158155948
vt 0.49000001 0.249999985
vt 0.49000001 0.249999985
vt 0.0282689333 0.341844052
vt 0.0282689333 0.341844052
vt 0.0100000054 0.25
vt 0.0100000054 0.25
vt 0.419705629 0.0802943856
vt 0.419705629 0.0802943856
vt 0.471731067 0.158155948
vt 0.471731067 0.158155948
vt 0.0802944303 0.419705689
vt 0.0802944303 0.419705689
vt 0.0282689333 0.341844052
vt 0.0282689333 0.341844052
vt 0.341844022 0.0282689184
vt 0.341844022 0.0282689184
vt 0.419705629 0.0802943856
vt 0.419705629 0.0802943856
vt 0.158156097 0.471731126
vt 0.158156097 0.471731126
vt 0.0802944303 0.419705689
vt 0.0802944303 0.419705689
vt 0.25000003 0.0100000054
vt 0.25000003 0.0100000054
vt 0.341844022 0.0282689184
vt 0.341844022 0.0282689184
vt 0.341844022 0.471731067
vt 0.341844022 0.471731067
vt 0.25 0.49000001
vt 0.25 0.49000001
vt 0.158156097 0.471731126
vt 0.25 0.49000001
vt 0.341844022 0.471731067
vt 0.0802944303 0.419705689
vt 0.419705629 0.419705629
vt 0.0282689333 0.341844052
vt 0.471731067 0.341844022
vt 0.0100000054 0.25
vt 0.49000001 0.249999985
vt 0.0282689184 0.158155948
vt 0.471731067 0.158155948
vt 0.0802944154 0.0802943259
vt 0.419705629 0.0802943856
vt 0.341844022 0.0282689184
vt 0.158156037 0.0282688886
vt 0.25000003 0.0100000054
vt 0.341844022 0.0282689184
vt 0.341844022 0.0282689184
vt 0.419705629 0.0802943856
vt 0.419705629 0.0802943856
vt 0.158156097 0.471731126
vt 0.158156097 0.471731126
vt 0.0802944303 0.419705689
vt 0.0802944303 0.419705689
vt 0.25000003 0.0100000054
vt 0.25000003 0.0100000054
vt 0.341844022 0.0282689184
vt 0.341844022 0.0282689184
vt 0.341844022 0.471731067
vt 0.341844022 0.471731067
vt 0.25 0.49000001
vt 0.25 0.49000001
vt 0.25 0.49000001
vt 0.25 0.49000001
vt 0.158156097 0.471731126
vt 0.158156097 0.471731126
vt 0.158156037 0.0282688886
vt 0.158156037 0.0282688886
vt 0.25000003 0.0100000054
vt 0.25000003 0.0100000054
vt 0.419705629 0.419705629
vt 0.419705629 0.419705629
vt 0.341844022 0.471731067
vt 0.341844022 0.471731067
vt 0.0802944154 0.0802943259
vt 0.0802944154 0.0802943259
vt 0.158156037 0.0282688886
vt 0.158156037 0.0282688886
vt 0.471731067 0.341844022
vt 0.471731067 0.341844022
vt 0.419705629 0.419705629
vt 0.419705629 0.419705629
vt 0.0282689184 0.158155948
vt 0.0282689184 0.158155948
vt 0.0802944154 0.0802943259
vt 0.0802944154 0.0802943259
vt 0.49000001 0.249999985
vt 0.49000001 0.249999985
vt 0.471731067 0.341844022
vt 0.471731067 0.341844022
vt 0.0100000054 0.25
vt 0.0100000054 0.25
vt 0.0282689184 0.158155948
vt 0.0282689184 0.158155948
vt 0.471731067 0.158155948
vt 0.471731067 0.158155948
vt 0.49000001 0.249999985
vt 0.49000001 0.249999985
vt 0.0282689333 0.341844052
vt 0.0282689333 0.341844052
vt 0.0100000054 0.25
vt 0.0100000054 0.25
vt 0.419705629 0.0802943856
vt 0.419705629 0.0802943856
vt 0.471731067 0.158155948
vt 0.471731067 0.158155948
vn -0.195091605 0 -0.980785012
vn -0.195091605 0 -0.980785012
vn -0.195091605 0 -0.980785012
vn -0.195091605 0 -0.980785012
vn -0 -1 0
vn -0 -1 0
vn -0 -1 0
vn -0 -1 0
vn -0 -1 0
vn -0 -1 0
vn -0 -1 0
vn -0 -1 0
vn -0 -1 0
vn -0 -1 0
vn -0 -1 0
vn -0 -1 0
vn -0 -1 0
vn -0 -1 0
vn -0 -1 0
vn -0 -1 0
vn -0.545345604 0.754863322 -0.364389151
vn -0.545345604 0.754863322 -0.364389151
vn -0.545345604 0.754863322 -0.364389151
vn -0.545345604 0.754863322 -0.364389151
vn -0.195091352 0 0.980785131
vn -0.195091352 0 0.980785131
vn -0.195091352 0 0.980785131
vn -0.195091352 0 0.980785131
vn 0.555569828 0 -0.831469893
vn 0.555569828 0 -0.831469893
vn 0.555569828 0 -0.831469893
vn 0.555569828 0 -0.831469893
vn -0.55556947 0 0.831470132
vn -0.55556947 0 0.831470132
vn -0.55556947 0 0.831470132
vn -0.55556947 0 0.831470132
vn 0.831469774 0 -0.555569947
vn 0.831469774 0 -0.555569947
vn 0.831469774 0 -0.555569947
vn 0.831469774 0 -0.555569947
vn -0.831469595 0 0.555570185
vn -0.831469595 0 0.555570185
vn -0.831469595 0 0.555570185
vn -0.831469595 0 0.555570185
vn 0.98078537 0 -0.195089921
vn 0.98078537 0 -0.195089921
vn 0.98078537 0 -0.195089921
vn 0.98078537 0 -0.195089921
vn -0.980785131 0 0.19509089
vn -0.980785131 0 0.19509089
vn -0.980785131 0 0.19509089
vn -0.980785131 0 0.19509089
vn 0.98078537 0 0.195089966
vn 0.98078537 0 0.195089966
vn 0.98078537 0 0.195089966
vn 0.98078537 0 0.195089966
vn -0.980785251 0 -0.195090547
vn -0.980785251 0 -0.195090547
vn -0.980785251 0 -0.195090547
vn -0.980785251 0 -0.195090547
vn 0.831469715 0 0.555570185
vn 0.831469715 0 0.555570185
vn 0.831469715 0 0.555570185
vn 0.831469715 0 0.555570185
vn -0.831469297 0 -0.555570662
vn -0.831469297 0 -0.555570662
vn -0.831469297 0 -0.555570662
vn -0.831469297 0 -0.555570662
vn 0.555570364 0 0.831469536
vn 0.555570364 0 0.831469536
vn 0.555570364 0 0.831469536
vn 0.555570364 0 0.831469536
vn -0.555569589 0 -0.831470132
vn -0.555569589 0 -0.831470132
vn -0.555569589 0 -0.831470132
vn -0.555569589 0 -0.831470132
vn 0.195091024 0 0.980785131
vn 0.195091024 0 0.980785131
vn 0.195091024 0 0.980785131
vn 0.195091024 0 0.980785131
vn 0.19509159 0 -0.980785012
vn 0.19509159 0 -0.980785012
vn 0.19509159 0 -0.980785012
vn 0.19509159 0 -0.980785012
vn -0 1 0
vn -0 1 0
vn -0 1 0
vn -0 1 0
vn -0 1 0
vn -0 1 0
vn -0 1 0
vn -0 1 0
vn -0 1 0
vn -0 1 0
vn -0 1 0
vn -0 1 0
vn -0 1 0
vn -0 1 0
vn -0 1 0
vn -0 1 0
vn 0.364388555 0.754863501 0.545345783
vn 0.364388555 0.754863501 0.545345783
vn 0.364388555 0.754863501 0.545345783
vn 0.364388555 0.754863501 0.545345783
vn -0.364387542 0.754863322 -0.545346856
vn -0.364387542 0.754863322 -0.545346856
vn -0.364387542 0.754863322 -0.545346856
vn -0.364387542 0.754863322 -0.545346856
vn 0.127956569 0.754863501 0.643279314
vn 0.127956569 0.754863501 0.643279314
vn 0.127956569 0.754863501 0.643279314
vn 0.127956569 0.754863501 0.643279314
vn 0.12795788 0.754863322 -0.643279195
vn 0.12795788 0.754863322 -0.643279195
vn 0.12795788 0.754863322 -0.643279195
vn 0.12795788 0.754863322 -0.643279195
vn -0.127957761 0.754863322 -0.643279314
vn -0.127957761 0.754863322 -0.643279314
vn -0.127957761 0.754863322 -0.643279314
vn -0.127957761 0.754863322 -0.643279314
vn -0.127956897 0.754863501 0.643279254
vn -0.127956897 0.754863501 0.643279254
vn -0.127956897 0.754863501 0.643279254
vn -0.127956897 0.754863501 0.643279254
vn 0.364387721 0.754863441 -0.545346498
vn 0.364387721 0.754863441 -0.545346498
vn 0.364387721 0.754863441 -0.545346498
vn 0.364387721 0.754863441 -0.545346498
vn -0.364387959 0.754863501 0.545346081
vn -0.364387959 0.754863501 0.545346081
vn -0.364387959 0.754863501 0.545346081
vn -0.364387959 0.754863501 0.545346081
vn 0.545345664 0.754863083 -0.364389718
vn 0.545345664 0.754863083 -0.364389718
vn 0.545345664 0.754863083 -0.364389718
vn 0.545345664 0.754863083 -0.364389718
vn -0.545345783 0.754863322 0.364389062
vn -0.545345783 0.754863322 0.364389062
vn -0.545345783 0.754863322 0.364389062
vn -0.545345783 0.754863322 0.364389062
vn 0.643279552 0.754863322 -0.127955973
vn 0.643279552 0.754863322 -0.127955973
vn 0.643279552 0.754863322 -0.127955973
vn 0.643279552 0.754863322 -0.127955973
vn -0.643279314 0.75486356 0.127955839
vn -0.643279314 0.75486356 0.127955839
vn -0.643279314 0.75486356 0.127955839
vn -0.643279314 0.75486356 0.127955839
vn 0.643279493 0.754863381 0.127956003
vn 0.643279493 0.754863381 0.127956003
vn 0.643279493 0.754863381 0.127956003
vn 0.643279493 0.754863381 0.127956003
vn -0.643279254 0.754863501 -0.127956375
vn -0.643279254 0.754863501 -0.127956375
vn -0.643279254 0.754863501 -0.127956375
vn -0.643279254 0.754863501 -0.127956375
vn 0.545345843 0.754863322 0.364388883
vn 0.545345843 0.754863322 0.364388883
vn 0.545345843 0.754863322 0.364388883
vn 0.545345843 0.754863322 0.364388883
g HavenBottom_Collision3_0
f 3/3/3 2/2/2 1/1/1
f 4/4/4 3/3/3 1/1/1
f 7/7/7 6/6/6 5/5/5
f 5/5/5 8/8/8 7/7/7
f 5/5/5 9/9/9 8/8/8
f 9/9/9 10/10/10 8/8/8
f 9/9/9 11/11/11 10/10/10
f 11/11/11 12/12/12 10/10/10
f 11/11/11 13/13/13 12/12/12
f 13/13/13 14/14/14 12/12/12
f 13/13/13 15/15/15 14/14/14
f 15/15/15 16/16/16 14/14/14
f 15/15/15 17/17/17 16/16/16
f 17/17/17 18/18/18 16/16/16
f 18/18/18 19/19/19 16/16/16
f 18/18/18 20/20/20 19/19/19
f 23/23/23 22/22/22 21/21/21
f 24/24/24 23/23/23 21/21/21
f 27/27/27 26/26/26 25/25/25
f 28/28/28 27/27/27 25/25/25
f 31/31/31 30/30/30 29/29/29
f 32/32/32 31/31/31 29/29/29
f 35/35/35 34/34/34 33/33/33
f 36/36/36 35/35/35 33/33/33
f 39/39/39 38/38/38 37/37/37
f 40/40/40 39/39/39 37/37/37
f 43/43/43 42/42/42 41/41/41
f 44/44/44 43/43/43 41/41/41
f 47/47/47 46/46/46 45/45/45
f 48/48/48 47/47/47 45/45/45
f 51/51/51 50/50/50 49/49/49
f 52/52/52 51/51/51 49/49/49
f 55/55/55 54/54/54 53/53/53
f 56/56/56 55/55/55 53/53/53
f 59/59/59 58/58/58 57/57/57
f 60/60/60 59/59/59 57/57/57
f 63/63/63 62/62/62 61/61/61
f 64/64/64 63/63/63 61/61/61
f 67/67/67 66/66/66 65/65/65
f 68/68/68 67/67/67 65/65/65
f 71/71/71 70/70/70 69/69/69
f 72/72/72 71/71/71 69/69/69
f 75/75/75 74/74/74 73/73/73
f 76/76/76 75/75/75 73/73/73
f 79/79/79 78/78/78 77/77/77
f 80/80/80 79/79/79 77/77/77
f 83/83/83 82/82/82 81/81/81
f 84/84/84 83/83/83 81/81/81
f 87/87/87 86/86/86 85/85/85
f 85/85/85 88/88/88 87/87/87
f 88/88/88 89/89/89 87/87/87
f 88/88/88 90/90/90 89/89/89
f 90/90/90 91/91/91 89/89/89
f 90/90/90 92/92/92 91/91/91
f 92/92/92 93/93/93 91/91/91
f 92/92/92 94/94/94 93/93/93
f 94/94/94 95/95/95 93/93/93
f 94/94/94 96/96/96 95/95/95
f 96/96/96 97/97/97 95/95/95
f 96/96/96 98/98/98 97/97/97
f 96/96/96 99/99/99 98/98/98
f 99/99/99 100/100/100 98/98/98
f 103/103/103 102/102/102 101/101/101
f 104/104/104 103/103/103 101/101/101
f 107/107/107 106/106/106 105/105/105
f 108/108/108 107/107/107 105/105/105
f 111/111/111 110/110/110 109/109/109
f 112/112/112 111/111/111 109/109/109
f 115/115/115 114/114/114 113/113/113
f 116/116/116 115/115/115 113/113/113
f 119/119/119 118/118/118 117/117/117
f 120/120/120 119/119/119 117/117/117
f 123/123/123 122/122/122 121/121/121
f 124/124/124 123/123/123 121/121/121
f 127/127/127 126/126/126 125/125/125
f 128/128/128 127/127/127 125/125/125
f 131/131/131 130/130/130 129/129/129
f 132/132/132 131/131/131 129/129/129
f 135/135/135 134/134/134 133/133/133
f 136/136/136 135/135/135 133/133/133
f 139/139/139 138/138/138 137/137/137
f 140/140/140 139/139/139 137/137/137
f 143/143/143 142/142/142 141/141/141
f 144/144/144 143/143/143 141/141/141
f 147/147/147 146/146/146 145/145/145
f 148/148/148 147/147/147 145/145/145
f 151/151/151 150/150/150 149/149/149
f 152/152/152 151/151/151 149/149/149
f 155/155/155 154/154/154 153/153/153
f 156/156/156 155/155/155 153/153/153
f 159/159/159 158/158/158 157/157/157
f 160/160/160 159/159/159 157/157/157
