g FootmanCol
v -1.29217339 -0.111287586 2.50945902
v -1.29217339 0.111287259 2.50945902
v -0.821182251 0.111287363 3.77762651
v -0.821182251 -0.11128749 3.77762651
v -0.132790476 0.111287422 2.37539864
v 1.15198445 0.111287691 1.6240232
v 0.440494061 0.111287415 3.70666695
v -0.292976558 0.111287355 4.20829058
v -0.982876658 0.111287422 0.309901953
v 2.46501379E-08 0.111287422 0.309901953
v -1.29217339 0.111287259 2.50945902
v 2.46501379E-08 0.111287422 0.309901953
v 1.15198445 0.111287691 1.6240232
v 0.953940153 0.111287422 0.309901953
v 1.15198445 0.111287691 1.6240232
v 1.15198445 -0.111287154 1.6240232
v 0.440494061 -0.111287437 3.70666695
v 0.440494061 0.111287415 3.70666695
v -0.132790476 -0.111287422 2.37539864
v -1.29217339 -0.111287586 2.50945902
v -0.821182251 -0.11128749 3.77762651
v -0.292976439 -0.111287497 4.20829058
v 1.15198445 -0.111287154 1.6240232
v -0.132790476 -0.111287422 2.37539864
v 0.440494061 -0.111287437 3.70666695
v 2.46501379E-08 0.111287422 0.309901953
v 0.953940153 -0.111287422 0.309901953
v 0.953940153 0.111287422 0.309901953
v 1.11395536E-07 -0.111287422 0.309901953
v -0.982876658 0.111287422 0.309901953
v -0.982876658 -0.111287422 0.309901953
v -0.292976558 0.111287355 4.20829058
v -0.292976439 -0.111287497 4.20829058
v -0.821182251 -0.11128749 3.77762651
v -0.821182251 0.111287363 3.77762651
v 1.11395536E-07 -0.111287422 0.309901953
v -0.982876658 -0.111287422 0.309901953
v -1.29217339 -0.111287586 2.50945902
v -0.132790476 -0.111287422 2.37539864
v 0.953940153 -0.111287422 0.309901953
v 1.11395536E-07 -0.111287422 0.309901953
v 1.15198445 -0.111287154 1.6240232
v 0.953940153 0.111287422 0.309901953
v 0.953940153 -0.111287422 0.309901953
v 1.15198445 -0.111287154 1.6240232
v 1.15198445 0.111287691 1.6240232
v -0.982876658 -0.111287422 0.309901953
v -0.982876658 0.111287422 0.309901953
v -1.29217339 0.111287259 2.50945902
v -1.29217339 -0.111287586 2.50945902
v 0.440494061 0.111287415 3.70666695
v 0.440494061 -0.111287437 3.70666695
v -0.292976439 -0.111287497 4.20829058
v -0.292976558 0.111287355 4.20829058
v -1.29217339 0.111287259 2.50945902
v -0.132790476 0.111287422 2.37539864
v -0.292976558 0.111287355 4.20829058
v -0.821182251 0.111287363 3.77762651
vt 0.438839078 0
vt 0.438839048 0.249999985
vt 0.625 0.25
vt 0.625 0
vt 0.438839018 0.37499997
vt 0.438839048 0.5
vt 0.625 0.5
vt 0.625 0.375
vt 0.375 0.25
vt 0.375 0.375
vt 0.438839048 0.249999985
vt 0.375 0.375
vt 0.438839048 0.5
vt 0.375 0.5
vt 0.438839048 0.5
vt 0.438839048 0.75
vt 0.625 0.75
vt 0.625 0.5
vt 0.438839078 0.875
vt 0.438839048 1
vt 0.625 1
vt 0.625 0.875
vt 0.438839048 0.75
vt 0.438839078 0.875
vt 0.625 0.75
vt 0.24999997 0.49999994
vt 0.375 0.75
vt 0.375 0.5
vt 0.24999997 0.74999994
vt 0.125 0.5
vt 0.125 0.75
vt 0.75 0.5
vt 0.75 0.75
vt 0.875 0.75
vt 0.875 0.5
vt 0.375 0.875
vt 0.375 1
vt 0.438839048 1
vt 0.438839078 0.875
vt 0.375 0.75
vt 0.375 0.875
vt 0.438839048 0.75
vt 0.375 0.5
vt 0.375 0.75
vt 0.438839048 0.75
vt 0.438839048 0.5
vt 0.375 0
vt 0.375 0.25
vt 0.438839048 0.249999985
vt 0.438839078 0
vt 0.625 0.5
vt 0.625 0.75
vt 0.75 0.75
vt 0.75 0.5
vt 0.438839048 0.249999985
vt 0.438839018 0.37499997
vt 0.625 0.375
vt 0.625 0.25
vn -0.937435508 0 0.348158836
vn -0.937435508 0 0.348158836
vn -0.937435508 0 0.348158836
vn -0.937435508 0 0.348158836
vn -0 1 0
vn -0 1 0
vn -0 1 0
vn -0 1 0
vn -0 1 0
vn -0 1 0
vn -0 1 0
vn -0 1 0
vn -0 1 0
vn -0 1 0
vn 0.946302176 0 0.323283672
vn 0.946302176 0 0.323283672
vn 0.946302176 0 0.323283672
vn 0.946302176 0 0.323283672
vn -0 -1 0
vn -0 -1 0
vn -0 -1 0
vn -0 -1 0
vn -0 -1 0
vn -0 -1 0
vn -0 -1 0
vn -0 0 -1
vn -0 0 -1
vn -0 0 -1
vn -0 0 -1
vn -0 0 -1
vn -0 0 -1
vn -0.631914675 0 0.775038064
vn -0.631914675 0 0.775038064
vn -0.631914675 0 0.775038064
vn -0.631914675 0 0.775038064
vn -0 -1 0
vn -0 -1 0
vn -0 -1 0
vn -0 -1 0
vn -0 -1 0
vn -0 -1 0
vn -0 -1 0
vn 0.988833845 0 -0.149021938
vn 0.988833845 0 -0.149021938
vn 0.988833845 0 -0.149021938
vn 0.988833845 0 -0.149021938
vn -0.990257502 0 -0.139247745
vn -0.990257502 0 -0.139247745
vn -0.990257502 0 -0.139247745
vn -0.990257502 0 -0.139247745
vn 0.564511657 0 0.825425088
vn 0.564511657 0 0.825425088
vn 0.564511657 0 0.825425088
vn 0.564511657 0 0.825425088
vn -0 1 0
vn -0 1 0
vn -0 1 0
vn -0 1 0
g FootmanCol_0
f 3/3/3 2/2/2 1/1/1
f 4/4/4 3/3/3 1/1/1
f 7/7/7 6/6/6 5/5/5
f 8/8/8 7/7/7 5/5/5
f 5/5/5 10/10/10 9/9/9
f 11/11/11 5/5/5 9/9/9
f 5/5/5 13/13/13 12/12/12
f 13/13/13 14/14/14 12/12/12
f 17/17/17 16/16/16 15/15/15
f 18/18/18 17/17/17 15/15/15
f 21/21/21 20/20/20 19/19/19
f 22/22/22 21/21/21 19/19/19
f 22/22/22 24/24/24 23/23/23
f 25/25/25 22/22/22 23/23/23
f 28/28/28 27/27/27 26/26/26
f 27/27/27 29/29/29 26/26/26
f 26/26/26 29/29/29 30/30/30
f 29/29/29 31/31/31 30/30/30
f 34/34/34 33/33/33 32/32/32
f 35/35/35 34/34/34 32/32/32
f 38/38/38 37/37/37 36/36/36
f 39/39/39 38/38/38 36/36/36
f 39/39/39 41/41/41 40/40/40
f 42/42/42 39/39/39 40/40/40
f 45/45/45 44/44/44 43/43/43
f 46/46/46 45/45/45 43/43/43
f 49/49/49 48/48/48 47/47/47
f 50/50/50 49/49/49 47/47/47
f 53/53/53 52/52/52 51/51/51
f 54/54/54 53/53/53 51/51/51
f 57/57/57 56/56/56 55/55/55
f 58/58/58 57/57/57 55/55/55
