g EyvindCol
v 0.344221234 -0.0652009249 2.37539864
v -1.60523951 -0.0652011707 2.12432981
v -1.16899335 -0.0652010441 3.82548046
v 0.344221145 0.0662669316 2.37539864
v 0.948443711 0.0662672147 6.62517262
v -0.0220461655 0.0662669241 6.30543375
v 1.67638063E-08 -0.0652009547 0.286494732
v -1.57675064 -0.0652010962 0.286494732
v -1.60523951 -0.0652011707 2.12432981
v -1.60523951 0.0662666857 2.12432981
v -1.57675064 0.0662667602 0.286494732
v -1.58324838E-07 0.0662669018 0.286494732
v -1.16899335 0.0662668198 3.82548046
v -1.60523951 0.0662666857 2.12432981
v 0.344221145 0.0662669316 2.37539864
v -0.022046132 -0.0652009398 6.30543375
v 0.948443472 -0.0652006418 6.62517262
v 0.344221234 -0.0652009249 2.37539864
v 0.344221145 0.0662669316 2.37539864
v 1.50570309 0.0662670359 0.296451807
v 0.948443711 0.0662672147 6.62517262
v 1.50570309 -0.0652008206 0.296451807
v 0.344221234 -0.0652009249 2.37539864
v 0.948443472 -0.0652006418 6.62517262
v -0.0220461655 0.0662669241 6.30543375
v 0.948443711 0.0662672147 6.62517262
v 0.948443472 -0.0652006418 6.62517262
v -0.022046132 -0.0652009398 6.30543375
v -1.16899335 -0.0652010441 3.82548046
v -1.60523951 -0.0652011707 2.12432981
v -1.60523951 0.0662666857 2.12432981
v -1.16899335 0.0662668198 3.82548046
v -0.861356735 -0.0652010143 5.84685469
v -0.861356974 0.0662668496 5.84685469
v -0.0220461655 0.0662669241 6.30543375
v -0.022046132 -0.0652009398 6.30543375
v 0.344221145 0.0662669316 2.37539864
v -1.58324838E-07 0.0662669018 0.286494732
v 1.50570309 0.0662670359 0.296451807
v -1.60523951 0.0662666857 2.12432981
v -1.60523951 -0.0652011707 2.12432981
v -1.57675064 -0.0652010962 0.286494732
v -1.57675064 0.0662667602 0.286494732
v -1.60523951 0.0662666857 2.12432981
v 1.50570309 0.0662670359 0.296451807
v 1.50570309 -0.0652008206 0.296451807
v 0.948443472 -0.0652006418 6.62517262
v 0.948443711 0.0662672147 6.62517262
v 1.50570309 -0.0652008206 0.296451807
v 1.67638063E-08 -0.0652009547 0.286494732
v 0.344221234 -0.0652009249 2.37539864
v -1.60523951 -0.0652011707 2.12432981
v -0.861356735 -0.0652010143 5.84685469
v -1.16899335 -0.0652010441 3.82548046
v -1.16899335 0.0662668198 3.82548046
v -0.861356974 0.0662668496 5.84685469
v 1.67638063E-08 -0.0652009547 0.286494732
v 1.50570309 -0.0652008206 0.296451807
v 1.50570309 0.0662670359 0.296451807
v -1.58324838E-07 0.0662669018 0.286494732
v -1.57675064 -0.0652010962 0.286494732
v -1.57675064 0.0662667602 0.286494732
v 0.344221234 -0.0652009249 2.37539864
v -1.16899335 -0.0652010441 3.82548046
v -0.861356735 -0.0652010143 5.84685469
v -0.022046132 -0.0652009398 6.30543375
v 0.344221145 0.0662669316 2.37539864
v -0.0220461655 0.0662669241 6.30543375
v -0.861356974 0.0662668496 5.84685469
v -1.16899335 0.0662668198 3.82548046
vt 0.438839018 0.37499997
vt 0.438839048 0.5
vt 0.625 0.5
vt 0.438839078 0.875
vt 0.438839048 1
vt 0.625 1
vt 0.375 0.375
vt 0.375 0.5
vt 0.438839048 0.5
vt 0.438839048 0.75
vt 0.375 0.75
vt 0.375 0.875
vt 0.625 0.75
vt 0.438839048 0.75
vt 0.438839078 0.875
vt 0.625 0.25
vt 0.438839048 0.249999985
vt 0.438839018 0.37499997
vt 0.438839078 0.875
vt 0.375 1
vt 0.438839048 1
vt 0.375 0.25
vt 0.438839018 0.37499997
vt 0.438839048 0.249999985
vt 0.625 0
vt 0.438839078 0
vt 0.438839048 0.249999985
vt 0.625 0.25
vt 0.625 0.5
vt 0.438839048 0.5
vt 0.438839048 0.75
vt 0.625 0.75
vt 0.75 0.5
vt 0.75 0.75
vt 0.875 0.75
vt 0.875 0.5
vt 0.438839078 0.875
vt 0.375 0.875
vt 0.375 1
vt 0.438839048 0.75
vt 0.438839048 0.5
vt 0.375 0.5
vt 0.375 0.75
vt 0.438839048 0.75
vt 0.375 0
vt 0.375 0.25
vt 0.438839048 0.249999985
vt 0.438839078 0
vt 0.375 0.25
vt 0.375 0.375
vt 0.438839018 0.37499997
vt 0.438839048 0.5
vt 0.75 0.5
vt 0.625 0.5
vt 0.625 0.75
vt 0.75 0.75
vt 0.24999997 0.49999994
vt 0.125 0.5
vt 0.125 0.75
vt 0.24999997 0.74999994
vt 0.375 0.5
vt 0.375 0.75
vt 0.438839018 0.37499997
vt 0.625 0.5
vt 0.625 0.375
vt 0.625 0.25
vt 0.438839078 0.875
vt 0.625 1
vt 0.625 0.875
vt 0.625 0.75
vn -0 -1 0
vn -0 -1 0
vn -0 -1 0
vn -0 1 0
vn -0 1 0
vn -0 1 0
vn -0 -1 0
vn -0 -1 0
vn -0 -1 0
vn -0 1 0
vn -0 1 0
vn -0 1 0
vn -0 1 0
vn -0 1 0
vn -0 1 0
vn -0 -1 0
vn -0 -1 0
vn -0 -1 0
vn -0 1 0
vn -0 1 0
vn -0 1 0
vn -0 -1 0
vn -0 -1 0
vn -0 -1 0
vn -0.312914103 0 0.949781418
vn -0.312914103 0 0.949781418
vn -0.312914103 0 0.949781418
vn -0.312916845 0 0.949780524
vn -0.96865654 0 0.248404026
vn -0.96865654 0 0.248404026
vn -0.96865654 0 0.248404026
vn -0.96865654 0 0.248404056
vn -0.479475468 0 0.877555311
vn -0.479475468 0 0.877555311
vn -0.479475468 0 0.877555311
vn -0.47947523 0 0.87755537
vn -0 1 0
vn -0 1 0
vn -0 1 0
vn -0 1 0
vn -0.999879837 0 -0.0154994586
vn -0.999879837 0 -0.0154994586
vn -0.999879837 0 -0.0154994586
vn -0.999879837 0 -0.0154994614
vn 0.996145725 0 0.0877131149
vn 0.996145725 0 0.0877131149
vn 0.996145725 0 0.0877131149
vn 0.996145725 0 0.0877130702
vn -0 -1 0
vn -0 -1 0
vn -0 -1 0
vn -0 -1 0
vn -0.988616168 0 0.150459364
vn -0.988616168 0 0.150459364
vn -0.988616168 0 0.150459364
vn -0.988616288 0 0.150459141
vn -0 0 -1
vn 0.00661269762 0 -0.999978185
vn 0.00661269762 0 -0.999978185
vn -0 0 -1
vn -0 0 -1
vn -0 0 -1
vn -0 -1 0
vn -0 -1 0
vn -0 -1 0
vn -0 -1 0
vn -0 1 0
vn -0 1 0
vn -0 1 0
vn -0 1 0
g EyvindCol_0
f 3/3/3 2/2/2 1/1/1
f 6/6/6 5/5/5 4/4/4
f 9/9/9 8/8/8 7/7/7
f 12/12/12 11/11/11 10/10/10
f 15/15/15 14/14/14 13/13/13
f 18/18/18 17/17/17 16/16/16
f 21/21/21 20/20/20 19/19/19
f 24/24/24 23/23/23 22/22/22
f 27/27/27 26/26/26 25/25/25
f 28/28/28 27/27/27 25/25/25
f 31/31/31 30/30/30 29/29/29
f 32/32/32 31/31/31 29/29/29
f 35/35/35 34/34/34 33/33/33
f 36/36/36 35/35/35 33/33/33
f 39/39/39 38/38/38 37/37/37
f 37/37/37 38/38/38 40/40/40
f 43/43/43 42/42/42 41/41/41
f 44/44/44 43/43/43 41/41/41
f 47/47/47 46/46/46 45/45/45
f 48/48/48 47/47/47 45/45/45
f 51/51/51 50/50/50 49/49/49
f 51/51/51 52/52/52 50/50/50
f 55/55/55 54/54/54 53/53/53
f 56/56/56 55/55/55 53/53/53
f 59/59/59 58/58/58 57/57/57
f 60/60/60 59/59/59 57/57/57
f 60/60/60 57/57/57 61/61/61
f 62/62/62 60/60/60 61/61/61
f 65/65/65 64/64/64 63/63/63
f 65/65/65 63/63/63 66/66/66
f 69/69/69 68/68/68 67/67/67
f 69/69/69 67/67/67 70/70/70
