g TriceratogCol
v -1.57512224 -0.111287825 2.10988927
v -1.57512224 0.11128702 2.10988927
v -1.04334974 0.111287221 4.72440052
v -1.04334974 -0.111287631 4.72440052
v -0.0354349613 0.111287504 1.87393677
v 1.74040401 0.111287333 2.13409662
v 0.867476642 0.111287281 4.38183355
v -0.100584105 0.111287266 4.53918028
v -1.46427321 0.111287422 0.309901953
v -1.57512224 0.11128702 2.10988927
v -0 0.111287422 0.309901953
v 1.74040401 0.111287333 2.13409662
v 1.61279333 0.111287422 0.309901953
v -1.57512224 0.11128702 2.10988927
v -0.100584105 0.111287266 4.53918028
v -1.04334974 0.111287221 4.72440052
v 1.74040401 0.111287333 2.13409662
v 1.74040401 -0.111287512 2.13409662
v 0.867476642 -0.111287579 4.38183355
v 0.867476642 0.111287281 4.38183355
v -0.0354349613 -0.111287341 1.87393677
v -1.57512224 -0.111287825 2.10988927
v -1.04334974 -0.111287631 4.72440052
v -0.100584045 -0.111287586 4.53918028
v 1.74040401 -0.111287512 2.13409662
v -0.0354349613 -0.111287341 1.87393677
v 0.867476642 -0.111287579 4.38183355
v -0 0.111287422 0.309901953
v 1.61279333 -0.111287422 0.309901953
v 1.61279333 0.111287422 0.309901953
v 1.41937576E-07 -0.111287422 0.309901953
v -1.46427321 0.111287422 0.309901953
v -1.46427321 -0.111287422 0.309901953
v -0.100584105 0.111287266 4.53918028
v -1.04334974 -0.111287631 4.72440052
v -1.04334974 0.111287221 4.72440052
v -0.100584045 -0.111287586 4.53918028
v 0.867476642 0.111287281 4.38183355
v 0.867476642 -0.111287579 4.38183355
v 1.41937576E-07 -0.111287422 0.309901953
v -1.46427321 -0.111287422 0.309901953
v -1.57512224 -0.111287825 2.10988927
v -0.0354349613 -0.111287341 1.87393677
v 1.61279333 -0.111287422 0.309901953
v 1.41937576E-07 -0.111287422 0.309901953
v 1.74040401 -0.111287512 2.13409662
v 1.61279333 0.111287422 0.309901953
v 1.61279333 -0.111287422 0.309901953
v 1.74040401 -0.111287512 2.13409662
v 1.74040401 0.111287333 2.13409662
v -1.46427321 -0.111287422 0.309901953
v -1.46427321 0.111287422 0.309901953
v -1.57512224 0.11128702 2.10988927
v -1.57512224 -0.111287825 2.10988927
vt 0.438839078 0
vt 0.438839048 0.249999985
vt 0.625 0.25
vt 0.625 0
vt 0.438839018 0.37499997
vt 0.438839048 0.5
vt 0.625 0.5
vt 0.625 0.375
vt 0.375 0.25
vt 0.438839048 0.249999985
vt 0.375 0.375
vt 0.438839048 0.5
vt 0.375 0.5
vt 0.438839048 0.249999985
vt 0.625 0.375
vt 0.625 0.25
vt 0.438839048 0.5
vt 0.438839048 0.75
vt 0.625 0.75
vt 0.625 0.5
vt 0.438839078 0.875
vt 0.438839048 1
vt 0.625 1
vt 0.625 0.875
vt 0.438839048 0.75
vt 0.438839078 0.875
vt 0.625 0.75
vt 0.24999997 0.49999994
vt 0.375 0.75
vt 0.375 0.5
vt 0.24999997 0.74999994
vt 0.125 0.5
vt 0.125 0.75
vt 0.75 0.5
vt 0.875 0.75
vt 0.875 0.5
vt 0.75 0.75
vt 0.625 0.5
vt 0.625 0.75
vt 0.375 0.875
vt 0.375 1
vt 0.438839048 1
vt 0.438839078 0.875
vt 0.375 0.75
vt 0.375 0.875
vt 0.438839048 0.75
vt 0.375 0.5
vt 0.375 0.75
vt 0.438839048 0.75
vt 0.438839048 0.5
vt 0.375 0
vt 0.375 0.25
vt 0.438839048 0.249999985
vt 0.438839078 0
vn -0.979936123 0 0.199311852
vn -0.979936123 0 0.199311852
vn -0.979936123 0 0.199311852
vn -0.979936123 0 0.199311852
vn -0 1 0
vn -0 1 0
vn -0 1 0
vn -0 1 0
vn -0 1 0
vn -0 1 0
vn -0 1 0
vn -0 1 0
vn -0 1 0
vn -0 1 0
vn -0 1 0
vn -0 1 0
vn 0.932171643 0 0.362016678
vn 0.932171643 0 0.362016678
vn 0.932171643 0 0.362016678
vn 0.932171643 0 0.362016678
vn -0 -1 0
vn -0 -1 0
vn -0 -1 0
vn -0 -1 0
vn -0 -1 0
vn -0 -1 0
vn -0 -1 0
vn -0 0 -1
vn -0 0 -1
vn -0 0 -1
vn -0 0 -1
vn -0 0 -1
vn -0 0 -1
vn 0.192779392 0 0.981242061
vn 0.192779392 0 0.981242061
vn 0.192779392 0 0.981242061
vn 0.192779392 0 0.981242061
vn 0.160432801 0 0.987046719
vn 0.160432801 0 0.987046719
vn -0 -1 0
vn -0 -1 0
vn -0 -1 0
vn -0 -1 0
vn -0 -1 0
vn -0 -1 0
vn -0 -1 0
vn 0.99756217 0 -0.0697839931
vn 0.99756217 0 -0.0697839931
vn 0.99756217 0 -0.0697839931
vn 0.99756217 0 -0.0697839931
vn -0.998109102 0 -0.0614667796
vn -0.998109102 0 -0.0614667796
vn -0.998109102 0 -0.0614667796
vn -0.998109102 0 -0.0614667796
g TriceratogCol_0
f 3/3/3 2/2/2 1/1/1
f 4/4/4 3/3/3 1/1/1
f 7/7/7 6/6/6 5/5/5
f 8/8/8 7/7/7 5/5/5
f 10/10/10 5/5/5 9/9/9
f 5/5/5 11/11/11 9/9/9
f 5/5/5 12/12/12 11/11/11
f 12/12/12 13/13/13 11/11/11
f 15/15/15 5/5/5 14/14/14
f 16/16/16 15/15/15 14/14/14
f 19/19/19 18/18/18 17/17/17
f 20/20/20 19/19/19 17/17/17
f 23/23/23 22/22/22 21/21/21
f 24/24/24 23/23/23 21/21/21
f 24/24/24 26/26/26 25/25/25
f 27/27/27 24/24/24 25/25/25
f 30/30/30 29/29/29 28/28/28
f 29/29/29 31/31/31 28/28/28
f 28/28/28 31/31/31 32/32/32
f 31/31/31 33/33/33 32/32/32
f 36/36/36 35/35/35 34/34/34
f 35/35/35 37/37/37 34/34/34
f 34/34/34 37/37/37 38/38/38
f 37/37/37 39/39/39 38/38/38
f 42/42/42 41/41/41 40/40/40
f 43/43/43 42/42/42 40/40/40
f 43/43/43 45/45/45 44/44/44
f 46/46/46 43/43/43 44/44/44
f 49/49/49 48/48/48 47/47/47
f 50/50/50 49/49/49 47/47/47
f 53/53/53 52/52/52 51/51/51
f 54/54/54 53/53/53 51/51/51
