g TopCol3
v -1.00388171E-07 0.000203510615 0.51988095
v -0.231202766 0.000203514777 0.464763105
v -0.175569296 0.700847864 0.261943668
v 0.000400951452 0.700847864 0.33007285
v -0.231202766 0.000203514777 0.464763105
v -0.231202751 0.000203518546 0.414739579
v -0.185338184 0.700847864 0.218626484
v -0.175569296 0.700847864 0.261943668
v -8.0752784E-08 0.000203518546 0.414739639
v 0.231202602 0.000203518546 0.414739698
v 0.186184749 0.700847864 0.218626544
v 0.000423282996 0.700847864 0.218626514
v -0.231202751 0.000203518546 0.414739579
v -8.0752784E-08 0.000203518546 0.414739639
v -0.185338184 0.700847864 0.218626484
v 0.231202602 0.000203518546 0.414739698
v 0.231202587 0.000203514777 0.464763224
v 0.176371232 0.700847864 0.261943728
v 0.186184749 0.700847864 0.218626544
v -1.00388171E-07 0.000203510615 0.51988095
v 0.231202587 0.000203514777 0.464763224
v 0.231202602 0.000203518546 0.414739698
v -8.0752784E-08 0.000203518546 0.414739639
v -0.231202766 0.000203514777 0.464763105
v -0.231202751 0.000203518546 0.414739579
v 0.000423282996 0.700847864 0.218626514
v 0.186184749 0.700847864 0.218626544
v 0.176371232 0.700847864 0.261943728
v 0.000400951452 0.700847864 0.33007285
v -0.185338184 0.700847864 0.218626484
v 0.000423282996 0.700847864 0.218626514
v -0.175569296 0.700847864 0.261943668
v 0.231202587 0.000203514777 0.464763224
v -1.00388171E-07 0.000203510615 0.51988095
v 0.000400951452 0.700847864 0.33007285
v 0.176371232 0.700847864 0.261943728
vt 0.375 0.125
vt 0.375 0.25
vt 0.625 0.25
vt 0.625 0.125
vt 0.375 0.25
vt 0.375 0.5
vt 0.625 0.5
vt 0.625 0.25
vt 0.375 0.625
vt 0.375 0.75
vt 0.625 0.75
vt 0.625 0.625
vt 0.375 0.5
vt 0.375 0.625
vt 0.625 0.5
vt 0.375 0.75
vt 0.375 1
vt 0.625 1
vt 0.625 0.75
vt 0.125 0.625
vt 0.125 0.75
vt 0.375 0.75
vt 0.375 0.625
vt 0.125 0.5
vt 0.375 0.5
vt 0.625 0.625
vt 0.625 0.75
vt 0.875 0.75
vt 0.875 0.625
vt 0.625 0.5
vt 0.625 0.625
vt 0.875 0.5
vt 0.375 0
vt 0.375 0.125
vt 0.625 0.125
vt 0.625 0
vn -0.278996617 0.269414902 0.921724796
vn -0.278996617 0.269414902 0.921724796
vn -0.278996617 0.269414902 0.921724796
vn -0.278996617 0.269414902 0.921724796
vn -0.989466965 0.101150237 0.10355591
vn -0.989466965 0.101150237 0.10355591
vn -0.989466965 0.101150237 0.10355591
vn -0.989466965 0.101150237 0.10355591
vn -0 -0.269544214 -0.962988019
vn -0 -0.269544214 -0.962988019
vn -0 -0.269544214 -0.962988019
vn -0 -0.269544214 -0.962988019
vn -0 -0.269544125 -0.962988019
vn -0 -0.269544125 -0.962988019
vn -0 -0.269544125 -0.962988019
vn 0.989520788 0.100126401 0.104034871
vn 0.989520788 0.100126401 0.104034871
vn 0.989520788 0.100126401 0.104034871
vn 0.989520788 0.100126401 0.104034871
vn -0 -1 0
vn -0 -1 0
vn -0 -1 0
vn -0 -1 0
vn -0 -1 0
vn -0 -1 0
vn -0 1 0
vn -0 1 0
vn -0 1 0
vn -0 1 0
vn -0 1 0
vn -0 1 0
vn -0 1 0
vn 0.279020041 0.269118607 0.92180419
vn 0.279020041 0.269118607 0.92180419
vn 0.279020041 0.269118607 0.92180419
vn 0.279020041 0.269118607 0.92180419
g TopCol3_0
f 3/3/3 2/2/2 1/1/1
f 4/4/4 3/3/3 1/1/1
f 7/7/7 6/6/6 5/5/5
f 8/8/8 7/7/7 5/5/5
f 11/11/11 10/10/10 9/9/9
f 12/12/12 11/11/11 9/9/9
f 12/12/12 14/14/14 13/13/13
f 15/15/15 12/12/12 13/13/13
f 18/18/18 17/17/17 16/16/16
f 19/19/19 18/18/18 16/16/16
f 22/22/22 21/21/21 20/20/20
f 23/23/23 22/22/22 20/20/20
f 23/23/23 20/20/20 24/24/24
f 25/25/25 23/23/23 24/24/24
f 28/28/28 27/27/27 26/26/26
f 29/29/29 28/28/28 26/26/26
f 29/29/29 31/31/31 30/30/30
f 32/32/32 29/29/29 30/30/30
f 35/35/35 34/34/34 33/33/33
f 36/36/36 35/35/35 33/33/33
