g TopCol8
v -0.36761114 0.000203577612 -0.367611527
v -0.234403268 0.000203584728 -0.461819112
v -0.0610757619 0.700847864 -0.309368342
v -0.233680204 0.700847864 -0.233113229
v -0.234403268 0.000203584728 -0.461819112
v -0.181862608 0.000203580406 -0.404667675
v -0.0235382468 0.700847864 -0.285646081
v -0.0610757619 0.700847864 -0.309368342
v -0.293265045 0.00020357201 -0.293265343
v -0.404667497 0.000203563599 -0.18186301
v -0.28624478 0.700847864 -0.0229398087
v -0.154891506 0.700847864 -0.154292941
v -0.181862608 0.000203580406 -0.404667675
v -0.154891506 0.700847864 -0.154292941
v -0.0235382468 0.700847864 -0.285646081
v -0.404667497 0.000203563599 -0.18186301
v -0.461818874 0.000203567557 -0.234403729
v -0.309935451 0.700847864 -0.0605088919
v -0.28624478 0.700847864 -0.0229398087
v -0.36761114 0.000203577612 -0.367611527
v -0.461818874 0.000203567557 -0.234403729
v -0.404667497 0.000203563599 -0.18186301
v -0.293265045 0.00020357201 -0.293265343
v -0.234403268 0.000203584728 -0.461819112
v -0.181862608 0.000203580406 -0.404667675
v -0.154891506 0.700847864 -0.154292941
v -0.28624478 0.700847864 -0.0229398087
v -0.309935451 0.700847864 -0.0605088919
v -0.233680204 0.700847864 -0.233113229
v -0.0235382468 0.700847864 -0.285646081
v -0.154891506 0.700847864 -0.154292941
v -0.0610757619 0.700847864 -0.309368342
v -0.461818874 0.000203567557 -0.234403729
v -0.36761114 0.000203577612 -0.367611527
v -0.233680204 0.700847864 -0.233113229
v -0.309935451 0.700847864 -0.0605088919
vt 0.375 0.125
vt 0.374999911 0.210177809
vt 0.625 0.249999985
vt 0.625 0.125
vt 0.374999911 0.210177809
vt 0.37499994 0.539822102
vt 0.62499994 0.49999994
vt 0.625 0.249999985
vt 0.375 0.625
vt 0.375 0.710177779
vt 0.625 0.75
vt 0.625 0.625
vt 0.37499994 0.539822102
vt 0.625 0.625
vt 0.62499994 0.49999994
vt 0.375 0.710177779
vt 0.377340972 1.0950222
vt 0.625 1
vt 0.625 0.75
vt 0.125 0.625
vt 0.125 0.710177839
vt 0.375 0.710177779
vt 0.375 0.625
vt 0.125 0.539822161
vt 0.37499994 0.539822102
vt 0.625 0.625
vt 0.625 0.75
vt 0.87499994 0.74999994
vt 0.875 0.625
vt 0.62499994 0.49999994
vt 0.625 0.625
vt 0.87499994 0.49999997
vt 0.375 0.0398221612
vt 0.375 0.125
vt 0.625 0.125
vt 0.625 0
vn -0.468157887 0.274639249 -0.839881837
vn -0.468157887 0.274639249 -0.839881837
vn -0.468157887 0.274639249 -0.839881837
vn -0.468157887 0.274639249 -0.839881837
vn 0.668001473 -0.0139591135 -0.744029105
vn 0.668001473 -0.0139591135 -0.744029105
vn 0.668001473 -0.0139591135 -0.744029105
vn 0.668001473 -0.0139591135 -0.744029105
vn 0.680935085 -0.269544303 0.680935681
vn 0.680935085 -0.269544303 0.680935681
vn 0.680935085 -0.269544303 0.680935681
vn 0.680935085 -0.269544303 0.680935681
vn 0.680934966 -0.269544333 0.680935681
vn 0.680934966 -0.269544333 0.680935681
vn 0.680934966 -0.269544333 0.680935681
vn -0.744264007 -0.0150211928 0.667716563
vn -0.744264007 -0.0150211928 0.667716563
vn -0.744264007 -0.0150211928 0.667716563
vn -0.744264007 -0.0150211928 0.667716563
vn -0 -1 0
vn -0 -1 0
vn -0 -1 0
vn -0 -1 0
vn -0 -1 0
vn -0 -1 0
vn -0 1 0
vn -0 1 0
vn -0 1 0
vn -0 1 0
vn -0 1 0
vn -0 1 0
vn -0 1 0
vn -0.839950621 0.274360955 -0.468197584
vn -0.839950621 0.274360955 -0.468197584
vn -0.839950621 0.274360955 -0.468197584
vn -0.839950621 0.274360955 -0.468197584
g TopCol8_0
f 3/3/3 2/2/2 1/1/1
f 4/4/4 3/3/3 1/1/1
f 7/7/7 6/6/6 5/5/5
f 8/8/8 7/7/7 5/5/5
f 11/11/11 10/10/10 9/9/9
f 12/12/12 11/11/11 9/9/9
f 14/14/14 9/9/9 13/13/13
f 15/15/15 14/14/14 13/13/13
f 18/18/18 17/17/17 16/16/16
f 19/19/19 18/18/18 16/16/16
f 22/22/22 21/21/21 20/20/20
f 23/23/23 22/22/22 20/20/20
f 23/23/23 20/20/20 24/24/24
f 25/25/25 23/23/23 24/24/24
f 28/28/28 27/27/27 26/26/26
f 29/29/29 28/28/28 26/26/26
f 29/29/29 31/31/31 30/30/30
f 32/32/32 29/29/29 30/30/30
f 35/35/35 34/34/34 33/33/33
f 36/36/36 35/35/35 33/33/33
