g SirenCol
v -2.06768274 -0.111287549 2.24810123
v -2.06768274 0.111287296 2.24810123
v -0.664779663 0.1112874 5.62700319
v -0.664779663 -0.11128746 5.62700319
v -0.344221205 0.111287422 2.37539864
v 1.63133073 0.111287549 3.87699556
v 0.607747614 0.1112874 5.64510679
v 0.0801025853 0.1112874 5.89854956
v 1.63133073 0.111287549 3.87699556
v 1.63133073 -0.111287296 3.87699556
v 0.607747614 -0.11128746 5.64510679
v 0.607747614 0.1112874 5.64510679
v -0.344221175 -0.111287422 2.37539864
v -2.06768274 -0.111287549 2.24810123
v -0.664779663 -0.11128746 5.62700319
v 0.0801026449 -0.11128746 5.89854956
v 1.63133073 -0.111287296 3.87699556
v -0.344221175 -0.111287422 2.37539864
v 0.607747614 -0.11128746 5.64510679
v -0 0.111287422 0.309901953
v 1.7660625 -0.111287422 0.309901953
v 1.7660625 0.111287422 0.309901953
v 1.41937576E-07 -0.111287422 0.309901953
v -1.76606238 0.111287422 0.309901953
v -1.76606238 -0.111287422 0.309901953
v 0.0801025853 0.1112874 5.89854956
v 0.0801026449 -0.11128746 5.89854956
v -0.664779663 -0.11128746 5.62700319
v -0.664779663 0.1112874 5.62700319
v 1.41937576E-07 -0.111287422 0.309901953
v -1.76606238 -0.111287422 0.309901953
v -2.06768274 -0.111287549 2.24810123
v -0.344221175 -0.111287422 2.37539864
v 1.7660625 -0.111287422 0.309901953
v 1.41937576E-07 -0.111287422 0.309901953
v 1.63133073 -0.111287296 3.87699556
v 1.7660625 0.111287422 0.309901953
v 1.7660625 -0.111287422 0.309901953
v 1.63133073 -0.111287296 3.87699556
v 1.63133073 0.111287549 3.87699556
v -0 0.111287422 0.309901953
v 1.7660625 0.111287422 0.309901953
v 1.63133073 0.111287549 3.87699556
v -0.344221205 0.111287422 2.37539864
v -1.76606238 0.111287422 0.309901953
v -0 0.111287422 0.309901953
v -2.06768274 0.111287296 2.24810123
v -1.76606238 -0.111287422 0.309901953
v -1.76606238 0.111287422 0.309901953
v -2.06768274 0.111287296 2.24810123
v -2.06768274 -0.111287549 2.24810123
v 0.607747614 0.1112874 5.64510679
v 0.607747614 -0.11128746 5.64510679
v 0.0801026449 -0.11128746 5.89854956
v 0.0801025853 0.1112874 5.89854956
v -2.06768274 0.111287296 2.24810123
v -0.344221205 0.111287422 2.37539864
v 0.0801025853 0.1112874 5.89854956
v -0.664779663 0.1112874 5.62700319
vt 0.438839078 0
vt 0.438839048 0.249999985
vt 0.625 0.25
vt 0.625 0
vt 0.438839018 0.37499997
vt 0.438839048 0.5
vt 0.625 0.5
vt 0.625 0.375
vt 0.438839048 0.5
vt 0.438839048 0.75
vt 0.625 0.75
vt 0.625 0.5
vt 0.438839078 0.875
vt 0.438839048 1
vt 0.625 1
vt 0.625 0.875
vt 0.438839048 0.75
vt 0.438839078 0.875
vt 0.625 0.75
vt 0.24999997 0.49999994
vt 0.375 0.75
vt 0.375 0.5
vt 0.24999997 0.74999994
vt 0.125 0.5
vt 0.125 0.75
vt 0.75 0.5
vt 0.75 0.75
vt 0.875 0.75
vt 0.875 0.5
vt 0.375 0.875
vt 0.375 1
vt 0.438839048 1
vt 0.438839078 0.875
vt 0.375 0.75
vt 0.375 0.875
vt 0.438839048 0.75
vt 0.375 0.5
vt 0.375 0.75
vt 0.438839048 0.75
vt 0.438839048 0.5
vt 0.375 0.375
vt 0.375 0.5
vt 0.438839048 0.5
vt 0.438839018 0.37499997
vt 0.375 0.25
vt 0.375 0.375
vt 0.438839048 0.249999985
vt 0.375 0
vt 0.375 0.25
vt 0.438839048 0.249999985
vt 0.438839078 0
vt 0.625 0.5
vt 0.625 0.75
vt 0.75 0.75
vt 0.75 0.5
vt 0.438839048 0.249999985
vt 0.438839018 0.37499997
vt 0.625 0.375
vt 0.625 0.25
vn -0.923558712 0 0.383456916
vn -0.923558712 0 0.383456916
vn -0.923558712 0 0.383456916
vn -0.923558712 0 0.383456916
vn -0 1 0
vn -0 1 0
vn -0 1 0
vn -0 1 0
vn 0.865439057 0 0.501014233
vn 0.865439057 0 0.501014233
vn 0.865439057 0 0.501014233
vn 0.865439057 0 0.501014233
vn -0 -1 0
vn -0 -1 0
vn -0 -1 0
vn -0 -1 0
vn -0 -1 0
vn -0 -1 0
vn -0 -1 0
vn -0 0 -1
vn -0 0 -1
vn -0 0 -1
vn -0 0 -1
vn -0 0 -1
vn -0 0 -1
vn -0.342500359 0 0.939517736
vn -0.342500359 0 0.939517736
vn -0.342500359 0 0.939517736
vn -0.342500359 0 0.939517736
vn -0 -1 0
vn -0 -1 0
vn -0 -1 0
vn -0 -1 0
vn -0 -1 0
vn -0 -1 0
vn -0 -1 0
vn 0.999287546 0 0.0377438255
vn 0.999287546 0 0.0377438255
vn 0.999287546 0 0.0377438255
vn 0.999287546 0 0.0377438255
vn -0 1 0
vn -0 1 0
vn -0 1 0
vn -0 1 0
vn -0 1 0
vn -0 1 0
vn -0 1 0
vn -0.988106966 0 -0.153768092
vn -0.988106966 0 -0.153768092
vn -0.988106966 0 -0.153768092
vn -0.988106966 0 -0.153768092
vn 0.432971239 0 0.901407659
vn 0.432971239 0 0.901407659
vn 0.432971239 0 0.901407659
vn 0.432971239 0 0.901407659
vn -0 1 0
vn -0 1 0
vn -0 1 0
vn -0 1 0
g SirenCol_0
f 3/3/3 2/2/2 1/1/1
f 4/4/4 3/3/3 1/1/1
f 7/7/7 6/6/6 5/5/5
f 8/8/8 7/7/7 5/5/5
f 11/11/11 10/10/10 9/9/9
f 12/12/12 11/11/11 9/9/9
f 15/15/15 14/14/14 13/13/13
f 16/16/16 15/15/15 13/13/13
f 16/16/16 18/18/18 17/17/17
f 19/19/19 16/16/16 17/17/17
f 22/22/22 21/21/21 20/20/20
f 21/21/21 23/23/23 20/20/20
f 20/20/20 23/23/23 24/24/24
f 23/23/23 25/25/25 24/24/24
f 28/28/28 27/27/27 26/26/26
f 29/29/29 28/28/28 26/26/26
f 32/32/32 31/31/31 30/30/30
f 33/33/33 32/32/32 30/30/30
f 33/33/33 35/35/35 34/34/34
f 36/36/36 33/33/33 34/34/34
f 39/39/39 38/38/38 37/37/37
f 40/40/40 39/39/39 37/37/37
f 43/43/43 42/42/42 41/41/41
f 44/44/44 43/43/43 41/41/41
f 44/44/44 46/46/46 45/45/45
f 47/47/47 44/44/44 45/45/45
f 50/50/50 49/49/49 48/48/48
f 51/51/51 50/50/50 48/48/48
f 54/54/54 53/53/53 52/52/52
f 55/55/55 54/54/54 52/52/52
f 58/58/58 57/57/57 56/56/56
f 59/59/59 58/58/58 56/56/56
