g WhipcrackerCol
v -0.825502753 -0.111287825 2.5486908
v -0.825502753 0.11128702 2.5486908
v -0.686823368 0.111287221 3.71881342
v -0.686823368 -0.111287631 3.71881342
v -0.0354349613 0.111287504 1.87393677
v 0.84451735 0.111287333 2.00611281
v 0.794343054 0.111287281 3.36710477
v 0.0639665425 0.111287266 3.93582797
v -0.825502753 0.11128702 2.5486908
v 0.0639665425 0.111287266 3.93582797
v -0.686823368 0.111287221 3.71881342
v 0.84451735 0.111287333 2.00611281
v 0.794343054 -0.111287579 3.36710477
v 0.794343054 0.111287281 3.36710477
v 0.84451735 -0.111287512 2.00611281
v 0.88145721 0.111287422 0.309901953
v 0.88145721 -0.111287422 0.309901953
v -0.0354349613 -0.111287341 1.87393677
v -0.825502753 -0.111287825 2.5486908
v -0.686823368 -0.111287631 3.71881342
v 0.0639666021 -0.111287586 3.93582797
v 0.84451735 -0.111287512 2.00611281
v -0.0354349613 -0.111287341 1.87393677
v 0.794343054 -0.111287579 3.36710477
v 0.88145721 -0.111287422 0.309901953
v -0.0354349613 -0.111287341 1.87393677
v 0.137125641 -0.111287422 0.309901953
v 0.137125641 -0.111287422 0.309901953
v -0.825502753 -0.111287825 2.5486908
v -0.586669922 -0.111287422 0.309901953
v 0.137125492 0.111287422 0.309901953
v 0.88145721 -0.111287422 0.309901953
v 0.88145721 0.111287422 0.309901953
v 0.137125641 -0.111287422 0.309901953
v -0.586669922 0.111287422 0.309901953
v -0.586669922 -0.111287422 0.309901953
v 0.0639665425 0.111287266 3.93582797
v 0.0639666021 -0.111287586 3.93582797
v -0.686823368 -0.111287631 3.71881342
v -0.686823368 0.111287221 3.71881342
v 0.137125492 0.111287422 0.309901953
v 0.88145721 0.111287422 0.309901953
v 0.84451735 0.111287333 2.00611281
v -0.0354349613 0.111287504 1.87393677
v -0.586669922 0.111287422 0.309901953
v 0.137125492 0.111287422 0.309901953
v -0.825502753 0.11128702 2.5486908
v -0.586669922 -0.111287422 0.309901953
v -0.586669922 0.111287422 0.309901953
v -0.825502753 0.11128702 2.5486908
v -0.825502753 -0.111287825 2.5486908
v 0.794343054 0.111287281 3.36710477
v 0.794343054 -0.111287579 3.36710477
v 0.0639666021 -0.111287586 3.93582797
v 0.0639665425 0.111287266 3.93582797
vt 0.438839078 0
vt 0.438839048 0.249999985
vt 0.625 0.25
vt 0.625 0
vt 0.438839018 0.37499997
vt 0.438839048 0.5
vt 0.625 0.5
vt 0.625 0.375
vt 0.438839048 0.249999985
vt 0.625 0.375
vt 0.625 0.25
vt 0.438839048 0.5
vt 0.625 0.75
vt 0.625 0.5
vt 0.438839048 0.75
vt 0.375 0.5
vt 0.375 0.75
vt 0.438839078 0.875
vt 0.438839048 1
vt 0.625 1
vt 0.625 0.875
vt 0.438839048 0.75
vt 0.438839078 0.875
vt 0.625 0.75
vt 0.375 0.75
vt 0.438839078 0.875
vt 0.375 0.875
vt 0.375 0.875
vt 0.438839048 1
vt 0.375 1
vt 0.24999997 0.49999994
vt 0.375 0.75
vt 0.375 0.5
vt 0.24999997 0.74999994
vt 0.125 0.5
vt 0.125 0.75
vt 0.75 0.5
vt 0.75 0.75
vt 0.875 0.75
vt 0.875 0.5
vt 0.375 0.375
vt 0.375 0.5
vt 0.438839048 0.5
vt 0.438839018 0.37499997
vt 0.375 0.25
vt 0.375 0.375
vt 0.438839048 0.249999985
vt 0.375 0
vt 0.375 0.25
vt 0.438839048 0.249999985
vt 0.438839078 0
vt 0.625 0.5
vt 0.625 0.75
vt 0.75 0.75
vt 0.75 0.5
vn -0.993049979 0 0.117693245
vn -0.993049979 0 0.117693245
vn -0.993049979 0 0.117693245
vn -0.993049979 0 0.117693245
vn -0 1 0
vn -0 1 0
vn -0 1 0
vn -0 1 0
vn -0 1 0
vn -0 1 0
vn -0 1 0
vn 0.999321103 0 0.0368409529
vn 0.999321103 0 0.0368409529
vn 0.999321103 0 0.0368409529
vn 0.999321103 0 0.0368409529
vn 0.999762952 0 0.021772705
vn 0.999762952 0 0.021772705
vn -0 -1 0
vn -0 -1 0
vn -0 -1 0
vn -0 -1 0
vn -0 -1 0
vn -0 -1 0
vn -0 -1 0
vn -0 -1 0
vn -0 -1 0
vn -0 -1 0
vn -0 -1 0
vn -0 -1 0
vn -0 -1 0
vn -0 0 -1
vn -0 0 -1
vn -0 0 -1
vn -0 0 -1
vn -0 0 -1
vn -0 0 -1
vn -0.277681023 0 0.960673332
vn -0.277681023 0 0.960673332
vn -0.277681023 0 0.960673332
vn -0.277681023 0 0.960673332
vn -0 1 0
vn -0 1 0
vn -0 1 0
vn -0 1 0
vn -0 1 0
vn -0 1 0
vn -0 1 0
vn -0.994357884 0 -0.106077582
vn -0.994357884 0 -0.106077582
vn -0.994357884 0 -0.106077582
vn -0.994357884 0 -0.106077582
vn 0.614380002 0 0.789010346
vn 0.614380002 0 0.789010346
vn 0.614380002 0 0.789010346
vn 0.614380002 0 0.789010346
g WhipcrackerCol_0
f 3/3/3 2/2/2 1/1/1
f 4/4/4 3/3/3 1/1/1
f 7/7/7 6/6/6 5/5/5
f 8/8/8 7/7/7 5/5/5
f 10/10/10 5/5/5 9/9/9
f 11/11/11 10/10/10 9/9/9
f 14/14/14 13/13/13 12/12/12
f 13/13/13 15/15/15 12/12/12
f 12/12/12 15/15/15 16/16/16
f 15/15/15 17/17/17 16/16/16
f 20/20/20 19/19/19 18/18/18
f 21/21/21 20/20/20 18/18/18
f 21/21/21 23/23/23 22/22/22
f 24/24/24 21/21/21 22/22/22
f 22/22/22 26/26/26 25/25/25
f 26/26/26 27/27/27 25/25/25
f 26/26/26 29/29/29 28/28/28
f 29/29/29 30/30/30 28/28/28
f 33/33/33 32/32/32 31/31/31
f 32/32/32 34/34/34 31/31/31
f 31/31/31 34/34/34 35/35/35
f 34/34/34 36/36/36 35/35/35
f 39/39/39 38/38/38 37/37/37
f 40/40/40 39/39/39 37/37/37
f 43/43/43 42/42/42 41/41/41
f 44/44/44 43/43/43 41/41/41
f 44/44/44 46/46/46 45/45/45
f 47/47/47 44/44/44 45/45/45
f 50/50/50 49/49/49 48/48/48
f 51/51/51 50/50/50 48/48/48
f 54/54/54 53/53/53 52/52/52
f 55/55/55 54/54/54 52/52/52
