g ButcherCol
v -2.24601364 -0.111287214 2.25931907
v -2.24601364 0.111287631 2.25931907
v -1.96765113 0.111287266 6.15991783
v -1.96765113 -0.111287579 6.15991783
v -2.24601364 0.111287631 2.25931907
v -0.221991479 0.111287333 5.70850611
v -1.96765113 0.111287266 6.15991783
v 1.23502612 0.111287452 4.77236748
v -1.53340149 0.111287415 0.309901953
v 1.66738415 0.111287415 0.309901953
v -2.24601364 0.111287631 2.25931907
v 1.23502612 0.111287452 4.77236748
v 1.23502612 -0.111287393 4.77236748
v -0.221991479 -0.111287512 5.70850611
v -0.221991479 0.111287333 5.70850611
v 1.23502612 -0.111287393 4.77236748
v -2.24601364 -0.111287214 2.25931907
v -1.96765113 -0.111287579 6.15991783
v -0.221991479 -0.111287512 5.70850611
v 1.66738415 -0.11128743 0.309901953
v -2.24601364 -0.111287214 2.25931907
v -1.53340149 -0.11128743 0.309901953
v -1.53340149 0.111287415 0.309901953
v -1.53340149 -0.11128743 0.309901953
v 1.66738415 -0.11128743 0.309901953
v 1.66738415 0.111287415 0.309901953
v -0.221991479 0.111287333 5.70850611
v -0.221991479 -0.111287512 5.70850611
v -1.96765113 -0.111287579 6.15991783
v -1.96765113 0.111287266 6.15991783
v 1.66738415 0.111287415 0.309901953
v 1.66738415 -0.11128743 0.309901953
v 1.23502612 -0.111287393 4.77236748
v 1.23502612 0.111287452 4.77236748
v -1.53340149 -0.11128743 0.309901953
v -1.53340149 0.111287415 0.309901953
v -2.24601364 0.111287631 2.25931907
v -2.24601364 -0.111287214 2.25931907
vt 0.438839078 0
vt 0.438839048 0.249999985
vt 0.625 0.25
vt 0.625 0
vt 0.438839048 0.249999985
vt 0.625 0.5
vt 0.625 0.25
vt 0.438839048 0.5
vt 0.375 0.25
vt 0.375 0.5
vt 0.438839048 0.249999985
vt 0.438839048 0.5
vt 0.438839048 0.75
vt 0.625 0.75
vt 0.625 0.5
vt 0.438839048 0.75
vt 0.438839048 1
vt 0.625 1
vt 0.625 0.75
vt 0.375 0.75
vt 0.438839048 1
vt 0.375 1
vt 0.125 0.5
vt 0.125 0.75
vt 0.375 0.75
vt 0.375 0.5
vt 0.625 0.5
vt 0.625 0.75
vt 0.875 0.75
vt 0.875 0.5
vt 0.375 0.5
vt 0.375 0.75
vt 0.438839048 0.75
vt 0.438839048 0.5
vt 0.375 0
vt 0.375 0.25
vt 0.438839048 0.249999985
vt 0.438839078 0
vn -0.997463226 0 0.0711830184
vn -0.997463226 0 0.0711830184
vn -0.997463226 0 0.0711830184
vn -0.997463226 0 0.0711830184
vn -0 1 0
vn -0 1 0
vn -0 1 0
vn -0 1 0
vn -0 1 0
vn -0 1 0
vn -0 1 0
vn 0.540546894 0 0.841313899
vn 0.540546894 0 0.841313899
vn 0.540546894 0 0.841313899
vn 0.540546894 0 0.841313899
vn -0 -1 0
vn -0 -1 0
vn -0 -1 0
vn -0 -1 0
vn -0 -1 0
vn -0 -1 0
vn -0 -1 0
vn -0 0 -1
vn -0 0 -1
vn -0 0 -1
vn -0 0 -1
vn 0.250355542 0 0.968154013
vn 0.250355542 0 0.968154013
vn 0.250355542 0 0.968154013
vn 0.250355542 0 0.968154013
vn 0.995339155 0 0.0964361131
vn 0.995339155 0 0.0964361131
vn 0.995339155 0 0.0964361131
vn 0.995339155 0 0.0964361131
vn -0.939214349 0 -0.343331128
vn -0.939214349 0 -0.343331128
vn -0.939214349 0 -0.343331128
vn -0.939214349 0 -0.343331128
g ButcherCol_0
f 3/3/3 2/2/2 1/1/1
f 4/4/4 3/3/3 1/1/1
f 7/7/7 6/6/6 5/5/5
f 6/6/6 8/8/8 5/5/5
f 8/8/8 10/10/10 9/9/9
f 11/11/11 8/8/8 9/9/9
f 14/14/14 13/13/13 12/12/12
f 15/15/15 14/14/14 12/12/12
f 18/18/18 17/17/17 16/16/16
f 19/19/19 18/18/18 16/16/16
f 16/16/16 21/21/21 20/20/20
f 21/21/21 22/22/22 20/20/20
f 25/25/25 24/24/24 23/23/23
f 26/26/26 25/25/25 23/23/23
f 29/29/29 28/28/28 27/27/27
f 30/30/30 29/29/29 27/27/27
f 33/33/33 32/32/32 31/31/31
f 34/34/34 33/33/33 31/31/31
f 37/37/37 36/36/36 35/35/35
f 38/38/38 37/37/37 35/35/35
