g TopCol6
v 0.367611289 0.000203522111 0.367611408
v 0.234403431 0.000203514996 0.461819023
v 0.0610758588 0.700847864 0.309368372
v 0.233680204 0.700847864 0.233113229
v 0.234403431 0.000203514996 0.461819023
v 0.181862772 0.000203519317 0.404667616
v 0.0235383362 0.700847864 0.28564617
v 0.0610758588 0.700847864 0.309368372
v 0.293265164 0.000203527714 0.293265253
v 0.404667556 0.000203536125 0.181862891
v 0.28624475 0.700847864 0.0229398236
v 0.154891551 0.700847864 0.154293001
v 0.181862772 0.000203519317 0.404667616
v 0.154891551 0.700847864 0.154293001
v 0.0235383362 0.700847864 0.28564617
v 0.404667556 0.000203536125 0.181862891
v 0.461818933 0.000203532167 0.23440358
v 0.309935421 0.700847864 0.0605088845
v 0.28624475 0.700847864 0.0229398236
v 0.367611289 0.000203522111 0.367611408
v 0.461818933 0.000203532167 0.23440358
v 0.404667556 0.000203536125 0.181862891
v 0.293265164 0.000203527714 0.293265253
v 0.234403431 0.000203514996 0.461819023
v 0.181862772 0.000203519317 0.404667616
v 0.154891551 0.700847864 0.154293001
v 0.28624475 0.700847864 0.0229398236
v 0.309935421 0.700847864 0.0605088845
v 0.233680204 0.700847864 0.233113229
v 0.0235383362 0.700847864 0.28564617
v 0.154891551 0.700847864 0.154293001
v 0.0610758588 0.700847864 0.309368372
v 0.461818933 0.000203532167 0.23440358
v 0.367611289 0.000203522111 0.367611408
v 0.233680204 0.700847864 0.233113229
v 0.309935421 0.700847864 0.0605088845
vt 0.375 0.125
vt 0.374999911 0.210177809
vt 0.625 0.249999985
vt 0.625 0.125
vt 0.374999911 0.210177809
vt 0.37499994 0.539822102
vt 0.62499994 0.49999994
vt 0.625 0.249999985
vt 0.375 0.625
vt 0.375 0.710177779
vt 0.625 0.75
vt 0.625 0.625
vt 0.37499994 0.539822102
vt 0.625 0.625
vt 0.62499994 0.49999994
vt 0.375 0.710177779
vt 0.377340972 1.0950222
vt 0.625 1
vt 0.625 0.75
vt 0.125 0.625
vt 0.125 0.710177839
vt 0.375 0.710177779
vt 0.375 0.625
vt 0.125 0.539822161
vt 0.37499994 0.539822102
vt 0.625 0.625
vt 0.625 0.75
vt 0.87499994 0.74999994
vt 0.875 0.625
vt 0.62499994 0.49999994
vt 0.625 0.625
vt 0.87499994 0.49999997
vt 0.375 0.0398221612
vt 0.375 0.125
vt 0.625 0.125
vt 0.625 0
vn 0.468158543 0.2746391 0.83988148
vn 0.468158543 0.2746391 0.83988148
vn 0.468158543 0.2746391 0.83988148
vn 0.468158543 0.2746391 0.83988148
vn -0.668001354 -0.0139590902 0.744029164
vn -0.668001354 -0.0139590902 0.744029164
vn -0.668001354 -0.0139590902 0.744029164
vn -0.668001354 -0.0139590902 0.744029164
vn -0.680935264 -0.269544184 -0.680935502
vn -0.680935264 -0.269544184 -0.680935502
vn -0.680935264 -0.269544184 -0.680935502
vn -0.680935264 -0.269544184 -0.680935502
vn -0.680935323 -0.269544125 -0.680935383
vn -0.680935323 -0.269544125 -0.680935383
vn -0.680935323 -0.269544125 -0.680935383
vn 0.744263709 -0.0150213763 -0.66771692
vn 0.744263709 -0.0150213763 -0.66771692
vn 0.744263709 -0.0150213763 -0.66771692
vn 0.744263709 -0.0150213763 -0.66771692
vn -0 -1 0
vn -0 -1 0
vn -0 -1 0
vn -0 -1 0
vn -0 -1 0
vn -0 -1 0
vn -0 1 0
vn -0 1 0
vn -0 1 0
vn -0 1 0
vn -0 1 0
vn -0 1 0
vn -0 1 0
vn 0.8399508 0.274361014 0.468197316
vn 0.8399508 0.274361014 0.468197316
vn 0.8399508 0.274361014 0.468197316
vn 0.8399508 0.274361014 0.468197316
g TopCol6_0
f 3/3/3 2/2/2 1/1/1
f 4/4/4 3/3/3 1/1/1
f 7/7/7 6/6/6 5/5/5
f 8/8/8 7/7/7 5/5/5
f 11/11/11 10/10/10 9/9/9
f 12/12/12 11/11/11 9/9/9
f 14/14/14 9/9/9 13/13/13
f 15/15/15 14/14/14 13/13/13
f 18/18/18 17/17/17 16/16/16
f 19/19/19 18/18/18 16/16/16
f 22/22/22 21/21/21 20/20/20
f 23/23/23 22/22/22 20/20/20
f 23/23/23 20/20/20 24/24/24
f 25/25/25 23/23/23 24/24/24
f 28/28/28 27/27/27 26/26/26
f 29/29/29 28/28/28 26/26/26
f 29/29/29 31/31/31 30/30/30
f 32/32/32 29/29/29 30/30/30
f 35/35/35 34/34/34 33/33/33
f 36/36/36 35/35/35 33/33/33
