g TopCol2
v 0.51988095 0.000203549862 -7.93208628E-08
v 0.464763194 0.0002035324 0.231202602
v 0.261943668 0.700847864 0.175569266
v 0.33007279 0.700847864 -0.000401012629
v 0.464763194 0.0002035324 0.231202602
v 0.414739668 0.0002035324 0.231202617
v 0.218626484 0.700847864 0.185338169
v 0.261943668 0.700847864 0.175569266
v 0.414739639 0.000203549862 -6.26085779E-08
v 0.414739609 0.000203567324 -0.231202736
v 0.218626425 0.700847864 -0.186184764
v 0.218626454 0.700847864 -0.000423305668
v 0.414739668 0.0002035324 0.231202617
v 0.414739639 0.000203549862 -6.26085779E-08
v 0.218626484 0.700847864 0.185338169
v 0.414739609 0.000203567324 -0.231202736
v 0.464763135 0.000203567324 -0.231202751
v 0.261943609 0.700847864 -0.176371261
v 0.218626425 0.700847864 -0.186184764
v 0.51988095 0.000203549862 -7.93208628E-08
v 0.464763135 0.000203567324 -0.231202751
v 0.414739609 0.000203567324 -0.231202736
v 0.414739639 0.000203549862 -6.26085779E-08
v 0.464763194 0.0002035324 0.231202602
v 0.414739668 0.0002035324 0.231202617
v 0.218626454 0.700847864 -0.000423305668
v 0.218626425 0.700847864 -0.186184764
v 0.261943609 0.700847864 -0.176371261
v 0.33007279 0.700847864 -0.000401012629
v 0.218626484 0.700847864 0.185338169
v 0.218626454 0.700847864 -0.000423305668
v 0.261943668 0.700847864 0.175569266
v 0.464763135 0.000203567324 -0.231202751
v 0.51988095 0.000203549862 -7.93208628E-08
v 0.33007279 0.700847864 -0.000401012629
v 0.261943609 0.700847864 -0.176371261
vt 0.375 0.125
vt 0.375 0.25
vt 0.625 0.25
vt 0.625 0.125
vt 0.375 0.25
vt 0.375 0.5
vt 0.625 0.5
vt 0.625 0.25
vt 0.375 0.625
vt 0.375 0.75
vt 0.625 0.75
vt 0.625 0.625
vt 0.375 0.5
vt 0.375 0.625
vt 0.625 0.5
vt 0.375 0.75
vt 0.375 1
vt 0.625 1
vt 0.625 0.75
vt 0.125 0.625
vt 0.125 0.75
vt 0.375 0.75
vt 0.375 0.625
vt 0.125 0.5
vt 0.375 0.5
vt 0.625 0.625
vt 0.625 0.75
vt 0.875 0.75
vt 0.875 0.625
vt 0.625 0.5
vt 0.625 0.625
vt 0.875 0.5
vt 0.375 0
vt 0.375 0.125
vt 0.625 0.125
vt 0.625 0
vn 0.921724856 0.269414932 0.278996229
vn 0.921724856 0.269414932 0.278996229
vn 0.921724856 0.269414932 0.278996229
vn 0.921724856 0.269414932 0.278996229
vn 0.103556111 0.101150252 0.989466846
vn 0.103556111 0.101150252 0.989466846
vn 0.103556111 0.101150252 0.989466846
vn 0.103556111 0.101150252 0.989466846
vn -0.962988019 -0.269544214 0
vn -0.962988019 -0.269544214 0
vn -0.962988019 -0.269544214 0
vn -0.962988019 -0.269544214 0
vn -0.962988019 -0.269544244 0
vn -0.962988019 -0.269544244 0
vn -0.962988019 -0.269544244 0
vn 0.104034767 0.100126304 -0.989520788
vn 0.104034767 0.100126304 -0.989520788
vn 0.104034767 0.100126304 -0.989520788
vn 0.104034767 0.100126304 -0.989520788
vn -0 -1 0
vn -0 -1 0
vn -0 -1 0
vn -0 -1 0
vn -0 -1 0
vn -0 -1 0
vn -0 1 0
vn -0 1 0
vn -0 1 0
vn -0 1 0
vn -0 1 0
vn -0 1 0
vn -0 1 0
vn 0.921804011 0.269118756 -0.279020548
vn 0.921804011 0.269118756 -0.279020548
vn 0.921804011 0.269118756 -0.279020548
vn 0.921804011 0.269118756 -0.279020548
g TopCol2_0
f 3/3/3 2/2/2 1/1/1
f 4/4/4 3/3/3 1/1/1
f 7/7/7 6/6/6 5/5/5
f 8/8/8 7/7/7 5/5/5
f 11/11/11 10/10/10 9/9/9
f 12/12/12 11/11/11 9/9/9
f 12/12/12 14/14/14 13/13/13
f 15/15/15 12/12/12 13/13/13
f 18/18/18 17/17/17 16/16/16
f 19/19/19 18/18/18 16/16/16
f 22/22/22 21/21/21 20/20/20
f 23/23/23 22/22/22 20/20/20
f 23/23/23 20/20/20 24/24/24
f 25/25/25 23/23/23 24/24/24
f 28/28/28 27/27/27 26/26/26
f 29/29/29 28/28/28 26/26/26
f 29/29/29 31/31/31 30/30/30
f 32/32/32 29/29/29 30/30/30
f 35/35/35 34/34/34 33/33/33
f 36/36/36 35/35/35 33/33/33
