g TopCol4
v -0.51988095 0.000203549862 8.51751225E-10
v -0.464763165 0.000203567324 -0.231202677
v -0.261943638 0.700847864 -0.175569192
v -0.33007279 0.700847864 0.000401068624
v -0.464763165 0.000203567324 -0.231202677
v -0.414739639 0.000203567324 -0.231202677
v -0.218626454 0.700847864 -0.18533808
v -0.261943638 0.700847864 -0.175569192
v -0.414739639 0.000203549862 1.53675874E-11
v -0.414739639 0.0002035324 0.231202677
v -0.218626454 0.700847864 0.186184853
v -0.218626454 0.700847864 0.000423378486
v -0.414739639 0.000203567324 -0.231202677
v -0.218626454 0.700847864 -0.18533808
v -0.414739639 0.0002035324 0.231202677
v -0.464763165 0.0002035324 0.231202677
v -0.261943638 0.700847864 0.176371336
v -0.218626454 0.700847864 0.186184853
v -0.51988095 0.000203549862 8.51751225E-10
v -0.464763165 0.0002035324 0.231202677
v -0.414739639 0.0002035324 0.231202677
v -0.414739639 0.000203549862 1.53675874E-11
v -0.464763165 0.000203567324 -0.231202677
v -0.414739639 0.000203567324 -0.231202677
v -0.218626454 0.700847864 0.000423378486
v -0.218626454 0.700847864 0.186184853
v -0.261943638 0.700847864 0.176371336
v -0.33007279 0.700847864 0.000401068624
v -0.218626454 0.700847864 -0.18533808
v -0.218626454 0.700847864 0.000423378486
v -0.261943638 0.700847864 -0.175569192
v -0.464763165 0.0002035324 0.231202677
v -0.51988095 0.000203549862 8.51751225E-10
v -0.33007279 0.700847864 0.000401068624
v -0.261943638 0.700847864 0.176371336
vt 0.375 0.125
vt 0.375 0.25
vt 0.625 0.25
vt 0.625 0.125
vt 0.375 0.25
vt 0.375 0.5
vt 0.625 0.5
vt 0.625 0.25
vt 0.375 0.625
vt 0.375 0.75
vt 0.625 0.75
vt 0.625 0.625
vt 0.375 0.5
vt 0.625 0.5
vt 0.375 0.75
vt 0.375 1
vt 0.625 1
vt 0.625 0.75
vt 0.125 0.625
vt 0.125 0.75
vt 0.375 0.75
vt 0.375 0.625
vt 0.125 0.5
vt 0.375 0.5
vt 0.625 0.625
vt 0.625 0.75
vt 0.875 0.75
vt 0.875 0.625
vt 0.625 0.5
vt 0.625 0.625
vt 0.875 0.5
vt 0.375 0
vt 0.375 0.125
vt 0.625 0.125
vt 0.625 0
vn -0.921724796 0.269414991 -0.278996348
vn -0.921724796 0.269414991 -0.278996348
vn -0.921724796 0.269414991 -0.278996348
vn -0.921724796 0.269414991 -0.278996348
vn -0.103555664 0.101150349 -0.989466965
vn -0.103555664 0.101150349 -0.989466965
vn -0.103555664 0.101150349 -0.989466965
vn -0.103555664 0.101150349 -0.989466965
vn 0.962988019 -0.269544274 0
vn 0.962988019 -0.269544274 0
vn 0.962988019 -0.269544274 0
vn 0.962988019 -0.269544274 0
vn 0.962988019 -0.269544274 0
vn 0.962988019 -0.269544274 0
vn -0.104035221 0.100126244 0.989520788
vn -0.104035221 0.100126244 0.989520788
vn -0.104035221 0.100126244 0.989520788
vn -0.104035221 0.100126244 0.989520788
vn -0 -1 0
vn -0 -1 0
vn -0 -1 0
vn -0 -1 0
vn -0 -1 0
vn -0 -1 0
vn -0 1 0
vn -0 1 0
vn -0 1 0
vn -0 1 0
vn -0 1 0
vn -0 1 0
vn -0 1 0
vn -0.92180407 0.269118667 0.279020369
vn -0.92180407 0.269118667 0.279020369
vn -0.92180407 0.269118667 0.279020369
vn -0.92180407 0.269118667 0.279020369
g TopCol4_0
f 3/3/3 2/2/2 1/1/1
f 4/4/4 3/3/3 1/1/1
f 7/7/7 6/6/6 5/5/5
f 8/8/8 7/7/7 5/5/5
f 11/11/11 10/10/10 9/9/9
f 12/12/12 11/11/11 9/9/9
f 12/12/12 9/9/9 13/13/13
f 14/14/14 12/12/12 13/13/13
f 17/17/17 16/16/16 15/15/15
f 18/18/18 17/17/17 15/15/15
f 21/21/21 20/20/20 19/19/19
f 22/22/22 21/21/21 19/19/19
f 22/22/22 19/19/19 23/23/23
f 24/24/24 22/22/22 23/23/23
f 27/27/27 26/26/26 25/25/25
f 28/28/28 27/27/27 25/25/25
f 28/28/28 30/30/30 29/29/29
f 31/31/31 28/28/28 29/29/29
f 34/34/34 33/33/33 32/32/32
f 35/35/35 34/34/34 32/32/32
