g TopCol9
v -2.02804671E-08 1.2527926 -0.418868005
v 0.160293877 1.2527926 -0.386983573
v 0.141067341 1.45312476 -0.340566576
v -1.69407528E-08 1.45312476 -0.368626624
v 0.160293877 1.2527926 -0.386983573
v 0.29618448 1.2527926 -0.29618445
v 0.260658473 1.45312476 -0.260658383
v 0.141067341 1.45312476 -0.340566576
v 0.29618448 1.2527926 -0.29618445
v 0.386983663 1.2527926 -0.160293803
v 0.340566665 1.45312476 -0.141067237
v 0.260658473 1.45312476 -0.260658383
v 0.386983663 1.2527926 -0.160293803
v 0.418868124 1.2527926 1.1086626E-07
v 0.368626744 1.45312476 1.21907007E-07
v 0.340566665 1.45312476 -0.141067237
v 0.418868124 1.2527926 1.1086626E-07
v 0.386983663 1.2527926 0.160294026
v 0.340566665 1.45312476 0.141067475
v 0.368626744 1.45312476 1.21907007E-07
v 0.386983663 1.2527926 0.160294026
v 0.29618448 1.2527926 0.29618457
v 0.260658473 1.45312476 0.260658592
v 0.340566665 1.45312476 0.141067475
v 0.29618448 1.2527926 0.29618457
v 0.160293907 1.2527926 0.386983752
v 0.141067356 1.45312476 0.340566784
v 0.260658473 1.45312476 0.260658592
v 0.160293907 1.2527926 0.386983752
v 4.29668567E-08 1.2527926 0.418868214
v 3.87203372E-08 1.45312476 0.368626863
v 0.141067356 1.45312476 0.340566784
v 4.29668567E-08 1.2527926 0.418868214
v -0.160293832 1.2527926 0.386983842
v -0.141067281 1.45312476 0.340566844
v 3.87203372E-08 1.45312476 0.368626863
v -0.160293832 1.2527926 0.386983842
v -0.29618445 1.2527926 0.296184659
v -0.260658413 1.45312476 0.260658652
v -0.141067281 1.45312476 0.340566844
v -0.29618445 1.2527926 0.296184659
v -0.386983722 1.2527926 0.160294026
v -0.340566725 1.45312476 0.14106749
v -0.260658413 1.45312476 0.260658652
v -0.386983722 1.2527926 0.160294026
v -0.418868154 1.2527926 8.75620003E-08
v -0.368626773 1.45312476 1.01397994E-07
v -0.340566725 1.45312476 0.14106749
v -0.418868154 1.2527926 8.75620003E-08
v -0.386983663 1.2527926 -0.160293892
v -0.340566665 1.45312476 -0.141067311
v -0.368626773 1.45312476 1.01397994E-07
v -0.386983663 1.2527926 -0.160293892
v -0.29618445 1.2527926 -0.29618454
v -0.260658413 1.45312476 -0.260658443
v -0.340566665 1.45312476 -0.141067311
v 0.340566665 1.45312476 -0.141067237
v 0.0399551615 1.98528171 -0.016549807
v 0.0305803623 1.98528171 -0.0305801854
v 0.260658473 1.45312476 -0.260658383
v -0.29618445 1.2527926 -0.29618454
v -0.160293728 1.2527926 -0.386983722
v -0.141067192 1.45312476 -0.340566695
v -0.260658413 1.45312476 -0.260658443
v -0.160293728 1.2527926 -0.386983722
v -2.02804671E-08 1.2527926 -0.418868005
v -1.69407528E-08 1.45312476 -0.368626624
v -0.141067192 1.45312476 -0.340566695
v 0.122597709 0.635702729 -0.295977026
v -1.49267976E-08 0.635702729 -0.320363224
v -0.12259759 0.635702729 -0.295977116
v -0.226530984 0.635702729 -0.226531103
v 0.226531029 0.635702729 -0.226531029
v -0.295977056 0.635702729 -0.122597747
v 0.295977056 0.635702729 -0.122597679
v -0.320363313 0.635702729 3.79254992E-08
v 0.320363253 0.635702729 5.57493181E-08
v -0.295977086 0.635702729 0.122597799
v 0.295977056 0.635702729 0.122597791
v 0.226531029 0.635702729 0.226531073
v -0.226531014 0.635702729 0.226531148
v 0.122597724 0.635702729 0.295977116
v -0.122597672 0.635702729 0.295977145
v 3.34467103E-08 0.635702729 0.320363313
v -0.159832895 0.916107535 -0.385871172
v -2.14439364E-08 0.916107595 -0.417663813
v -2.02804671E-08 1.2527926 -0.418868005
v -0.160293728 1.2527926 -0.386983722
v -0.295332909 0.916107535 -0.295333028
v -0.159832895 0.916107535 -0.385871172
v -0.160293728 1.2527926 -0.386983722
v -0.29618445 1.2527926 -0.29618454
v -0.385871142 0.916107535 -0.159833074
v -0.295332909 0.916107535 -0.295333028
v -0.29618445 1.2527926 -0.29618454
v -0.386983663 1.2527926 -0.160293892
v -0.417663962 0.916107535 6.16876363E-08
v -0.385871142 0.916107535 -0.159833074
v -0.386983663 1.2527926 -0.160293892
v -0.418868154 1.2527926 8.75620003E-08
v -0.385871172 0.916107535 0.159833178
v -0.417663962 0.916107535 6.16876363E-08
v -0.418868154 1.2527926 8.75620003E-08
v -0.386983722 1.2527926 0.160294026
v -0.295332938 0.916107535 0.295333087
v -0.385871172 0.916107535 0.159833178
v -0.386983722 1.2527926 0.160294026
v -0.29618445 1.2527926 0.296184659
v -0.159832984 0.916107535 0.385871232
v -0.295332938 0.916107535 0.295333087
v -0.29618445 1.2527926 0.296184659
v -0.160293832 1.2527926 0.386983842
v 4.16215578E-08 0.916107476 0.417663932
v -0.159832984 0.916107535 0.385871232
v -0.160293832 1.2527926 0.386983842
v 4.29668567E-08 1.2527926 0.418868214
v 0.159833074 0.916107535 0.385871202
v 4.16215578E-08 0.916107476 0.417663932
v 4.29668567E-08 1.2527926 0.418868214
v 0.160293907 1.2527926 0.386983752
v 0.295332968 0.916107535 0.295333028
v 0.159833074 0.916107535 0.385871202
v 0.160293907 1.2527926 0.386983752
v 0.29618448 1.2527926 0.29618457
v 0.385871083 0.916107535 0.159833178
v 0.295332968 0.916107535 0.295333028
v 0.29618448 1.2527926 0.29618457
v 0.386983663 1.2527926 0.160294026
v 0.417663872 0.916107535 8.4924892E-08
v 0.385871083 0.916107535 0.159833178
v 0.386983663 1.2527926 0.160294026
v 0.418868124 1.2527926 1.1086626E-07
v 0.385871083 0.916107535 -0.159832969
v 0.417663872 0.916107535 8.4924892E-08
v 0.418868124 1.2527926 1.1086626E-07
v 0.386983663 1.2527926 -0.160293803
v 0.295332968 0.916107535 -0.295332938
v 0.385871083 0.916107535 -0.159832969
v 0.386983663 1.2527926 -0.160293803
v 0.29618448 1.2527926 -0.29618445
v 0.159833029 0.916107535 -0.385871023
v 0.295332968 0.916107535 -0.295332938
v 0.29618448 1.2527926 -0.29618445
v 0.160293877 1.2527926 -0.386983573
v -2.14439364E-08 0.916107595 -0.417663813
v 0.159833029 0.916107535 -0.385871023
v 0.160293877 1.2527926 -0.386983573
v -2.02804671E-08 1.2527926 -0.418868005
v -1.49267976E-08 0.635702729 -0.320363224
v 0.122597709 0.635702729 -0.295977026
v 0.159833029 0.916107535 -0.385871023
v -2.14439364E-08 0.916107595 -0.417663813
v 0.122597709 0.635702729 -0.295977026
v 0.226531029 0.635702729 -0.226531029
v 0.295332968 0.916107535 -0.295332938
v 0.159833029 0.916107535 -0.385871023
v 0.226531029 0.635702729 -0.226531029
v 0.295977056 0.635702729 -0.122597679
v 0.385871083 0.916107535 -0.159832969
v 0.295332968 0.916107535 -0.295332938
v 0.295977056 0.635702729 -0.122597679
v 0.320363253 0.635702729 5.57493181E-08
v 0.417663872 0.916107535 8.4924892E-08
v 0.385871083 0.916107535 -0.159832969
v 0.320363253 0.635702729 5.57493181E-08
v 0.295977056 0.635702729 0.122597791
v 0.385871083 0.916107535 0.159833178
v 0.417663872 0.916107535 8.4924892E-08
v 0.295977056 0.635702729 0.122597791
v 0.226531029 0.635702729 0.226531073
v 0.295332968 0.916107535 0.295333028
v 0.385871083 0.916107535 0.159833178
v 0.226531029 0.635702729 0.226531073
v 0.122597724 0.635702729 0.295977116
v 0.159833074 0.916107535 0.385871202
v 0.295332968 0.916107535 0.295333028
v 0.122597724 0.635702729 0.295977116
v 3.34467103E-08 0.635702729 0.320363313
v 4.16215578E-08 0.916107476 0.417663932
v 0.159833074 0.916107535 0.385871202
v 3.34467103E-08 0.635702729 0.320363313
v -0.122597672 0.635702729 0.295977145
v -0.159832984 0.916107535 0.385871232
v 4.16215578E-08 0.916107476 0.417663932
v -0.122597672 0.635702729 0.295977145
v -0.226531014 0.635702729 0.226531148
v -0.295332938 0.916107535 0.295333087
v -0.159832984 0.916107535 0.385871232
v -0.226531014 0.635702729 0.226531148
v -0.295977086 0.635702729 0.122597799
v -0.385871172 0.916107535 0.159833178
v -0.295332938 0.916107535 0.295333087
v -0.295977086 0.635702729 0.122597799
v -0.320363313 0.635702729 3.79254992E-08
v -0.417663962 0.916107535 6.16876363E-08
v -0.385871172 0.916107535 0.159833178
v -0.320363313 0.635702729 3.79254992E-08
v -0.295977056 0.635702729 -0.122597747
v -0.385871142 0.916107535 -0.159833074
v -0.417663962 0.916107535 6.16876363E-08
v -0.295977056 0.635702729 -0.122597747
v -0.226530984 0.635702729 -0.226531103
v -0.295332909 0.916107535 -0.295333028
v -0.385871142 0.916107535 -0.159833074
v -0.226530984 0.635702729 -0.226531103
v -0.12259759 0.635702729 -0.295977116
v -0.159832895 0.916107535 -0.385871172
v -0.295332909 0.916107535 -0.295333028
v -0.12259759 0.635702729 -0.295977116
v -1.49267976E-08 0.635702729 -0.320363224
v -2.14439364E-08 0.916107595 -0.417663813
v -0.159832895 0.916107535 -0.385871172
v -0.0165498722 1.98528171 -0.0399549827
v 5.50105526E-08 1.98528171 -0.0432469621
v 0.0165500045 1.98528171 -0.0399549715
v -0.0305802524 1.98528171 -0.0305801854
v 0.0305803623 1.98528171 -0.0305801854
v -0.0399550498 1.98528171 -0.0165498201
v 0.0399551615 1.98528171 -0.016549807
v -0.0432470441 1.98528171 1.35008264E-07
v 0.0432471558 1.98528171 1.37414375E-07
v -0.0399550498 1.98528171 0.0165500846
v 0.0399551615 1.98528171 0.0165500846
v -0.0305802524 1.98528171 0.0305804592
v 0.0305803623 1.98528171 0.0305804461
v 0.0165500045 1.98528171 0.0399552286
v -0.0165498797 1.98528171 0.0399552397
v 6.15406819E-08 1.98528171 0.0432472229
v 3.87203372E-08 1.45312476 0.368626863
v 6.15406819E-08 1.98528171 0.0432472229
v 0.0165500045 1.98528171 0.0399552286
v 0.141067356 1.45312476 0.340566784
v 0.141067341 1.45312476 -0.340566576
v 0.0165500045 1.98528171 -0.0399549715
v 5.50105526E-08 1.98528171 -0.0432469621
v -1.69407528E-08 1.45312476 -0.368626624
v -0.340566665 1.45312476 -0.141067311
v -0.0399550498 1.98528171 -0.0165498201
v -0.0432470441 1.98528171 1.35008264E-07
v -0.368626773 1.45312476 1.01397994E-07
v 0.260658473 1.45312476 0.260658592
v 0.0305803623 1.98528171 0.0305804461
v 0.0399551615 1.98528171 0.0165500846
v 0.340566665 1.45312476 0.141067475
v -0.340566725 1.45312476 0.14106749
v -0.0399550498 1.98528171 0.0165500846
v -0.0305802524 1.98528171 0.0305804592
v -0.260658413 1.45312476 0.260658652
v -1.69407528E-08 1.45312476 -0.368626624
v 5.50105526E-08 1.98528171 -0.0432469621
v -0.0165498722 1.98528171 -0.0399549827
v -0.141067192 1.45312476 -0.340566695
v 0.368626744 1.45312476 1.21907007E-07
v 0.0432471558 1.98528171 1.37414375E-07
v 0.0399551615 1.98528171 -0.016549807
v 0.340566665 1.45312476 -0.141067237
v -0.141067281 1.45312476 0.340566844
v -0.0165498797 1.98528171 0.0399552397
v 6.15406819E-08 1.98528171 0.0432472229
v 3.87203372E-08 1.45312476 0.368626863
v -0.260658413 1.45312476 -0.260658443
v -0.0305802524 1.98528171 -0.0305801854
v -0.0399550498 1.98528171 -0.0165498201
v -0.340566665 1.45312476 -0.141067311
v 0.260658473 1.45312476 -0.260658383
v 0.0305803623 1.98528171 -0.0305801854
v 0.0165500045 1.98528171 -0.0399549715
v 0.141067341 1.45312476 -0.340566576
v 0.141067356 1.45312476 0.340566784
v 0.0165500045 1.98528171 0.0399552286
v 0.0305803623 1.98528171 0.0305804461
v 0.260658473 1.45312476 0.260658592
v -0.368626773 1.45312476 1.01397994E-07
v -0.0432470441 1.98528171 1.35008264E-07
v -0.0399550498 1.98528171 0.0165500846
v -0.340566725 1.45312476 0.14106749
v 0.340566665 1.45312476 0.141067475
v 0.0399551615 1.98528171 0.0165500846
v 0.0432471558 1.98528171 1.37414375E-07
v 0.368626744 1.45312476 1.21907007E-07
v -0.260658413 1.45312476 0.260658652
v -0.0305802524 1.98528171 0.0305804592
v -0.0165498797 1.98528171 0.0399552397
v -0.141067281 1.45312476 0.340566844
v -0.141067192 1.45312476 -0.340566695
v -0.0165498722 1.98528171 -0.0399549827
v -0.0305802524 1.98528171 -0.0305801854
v -0.260658413 1.45312476 -0.260658443
vt 1 0.877460957
vt 0.937500119 0.877461076
vt 0.9375 1
vt 1 1
vt 0.937500119 0.877461076
vt 0.875 0.877460957
vt 0.875 1
vt 0.9375 1
vt 0.875 0.877460957
vt 0.8125 0.877460897
vt 0.8125 1
vt 0.875 1
vt 0.8125 0.877460897
vt 0.74999994 0.877460897
vt 0.75 1
vt 0.8125 1
vt 0.74999994 0.877460897
vt 0.6875 0.877460897
vt 0.6875 1
vt 0.75 1
vt 0.6875 0.877460897
vt 0.625 0.877460957
vt 0.625 1
vt 0.6875 1
vt 0.625 0.877460957
vt 0.5625 0.877461016
vt 0.5625 1
vt 0.625 1
vt 0.5625 0.877461016
vt 0.5 0.877460957
vt 0.5 1
vt 0.5625 1
vt 0.5 0.877460957
vt 0.43750003 0.877461016
vt 0.4375 1
vt 0.5 1
vt 0.43750003 0.877461016
vt 0.375 0.877460957
vt 0.375 1
vt 0.4375 1
vt 0.375 0.877460957
vt 0.3125 0.877460957
vt 0.3125 1
vt 0.375 1
vt 0.3125 0.877460957
vt 0.249999985 0.877460897
vt 0.25 1
vt 0.3125 1
vt 0.249999985 0.877460897
vt 0.1875 0.877460957
vt 0.1875 1
vt 0.25 1
vt 0.1875 0.877460957
vt 0.124999993 0.877460897
vt 0.125 1
vt 0.1875 1
vt 0.8125 1
vt 0.8125 1
vt 0.875 1
vt 0.875 1
vt 0.124999993 0.877460897
vt 0.0625 0.877460957
vt 0.0625 1
vt 0.125 1
vt 0.0625 0.877460957
vt 0 0.877460957
vt 0 1
vt 0.0625 1
vt 0.841844022 0.471731067
vt 0.75 0.49000001
vt 0.658156097 0.471731126
vt 0.58029443 0.419705689
vt 0.919705629 0.419705629
vt 0.528268933 0.341844052
vt 0.971731067 0.341844022
vt 0.50999999 0.25
vt 0.99000001 0.249999985
vt 0.528268933 0.158155948
vt 0.971731067 0.158155948
vt 0.919705629 0.0802943856
vt 0.58029443 0.0802943259
vt 0.841844022 0.0282689184
vt 0.658156037 0.0282688886
vt 0.75000006 0.0100000054
vt 0.0624999925 0.688730419
vt 0 0.688730478
vt 0 0.877460957
vt 0.0625 0.877460957
vt 0.124999985 0.688730359
vt 0.0624999925 0.688730419
vt 0.0625 0.877460957
vt 0.124999993 0.877460897
vt 0.18749997 0.688730419
vt 0.124999985 0.688730359
vt 0.124999993 0.877460897
vt 0.1875 0.877460957
vt 0.24999997 0.688730419
vt 0.18749997 0.688730419
vt 0.1875 0.877460957
vt 0.249999985 0.877460897
vt 0.31249997 0.688730359
vt 0.24999997 0.688730419
vt 0.249999985 0.877460897
vt 0.3125 0.877460957
vt 0.37499994 0.688730419
vt 0.31249997 0.688730359
vt 0.3125 0.877460957
vt 0.375 0.877460957
vt 0.43749994 0.688730419
vt 0.37499994 0.688730419
vt 0.375 0.877460957
vt 0.43750003 0.877461016
vt 0.49999994 0.688730419
vt 0.43749994 0.688730419
vt 0.43750003 0.877461016
vt 0.5 0.877460957
vt 0.5625 0.688730478
vt 0.49999994 0.688730419
vt 0.5 0.877460957
vt 0.5625 0.877461016
vt 0.62499994 0.688730359
vt 0.5625 0.688730478
vt 0.5625 0.877461016
vt 0.625 0.877460957
vt 0.68749994 0.688730419
vt 0.62499994 0.688730359
vt 0.625 0.877460957
vt 0.6875 0.877460897
vt 0.749999881 0.688730359
vt 0.68749994 0.688730419
vt 0.6875 0.877460897
vt 0.74999994 0.877460897
vt 0.81249994 0.688730419
vt 0.749999881 0.688730359
vt 0.74999994 0.877460897
vt 0.8125 0.877460897
vt 0.874999881 0.688730359
vt 0.81249994 0.688730419
vt 0.8125 0.877460897
vt 0.875 0.877460957
vt 0.9375 0.688730478
vt 0.874999881 0.688730359
vt 0.875 0.877460957
vt 0.937500119 0.877461076
vt 1 0.688730538
vt 0.9375 0.688730478
vt 0.937500119 0.877461076
vt 1 0.877460957
vt 1 0.5
vt 0.9375 0.5
vt 0.9375 0.688730478
vt 1 0.688730538
vt 0.9375 0.5
vt 0.875 0.5
vt 0.874999881 0.688730359
vt 0.9375 0.688730478
vt 0.875 0.5
vt 0.8125 0.5
vt 0.81249994 0.688730419
vt 0.874999881 0.688730359
vt 0.8125 0.5
vt 0.75 0.5
vt 0.749999881 0.688730359
vt 0.81249994 0.688730419
vt 0.75 0.5
vt 0.6875 0.5
vt 0.68749994 0.688730419
vt 0.749999881 0.688730359
vt 0.6875 0.5
vt 0.625 0.5
vt 0.62499994 0.688730359
vt 0.68749994 0.688730419
vt 0.625 0.5
vt 0.5625 0.5
vt 0.5625 0.688730478
vt 0.62499994 0.688730359
vt 0.5625 0.5
vt 0.5 0.5
vt 0.49999994 0.688730419
vt 0.5625 0.688730478
vt 0.5 0.5
vt 0.4375 0.5
vt 0.43749994 0.688730419
vt 0.49999994 0.688730419
vt 0.4375 0.5
vt 0.375 0.5
vt 0.37499994 0.688730419
vt 0.43749994 0.688730419
vt 0.375 0.5
vt 0.3125 0.5
vt 0.31249997 0.688730359
vt 0.37499994 0.688730419
vt 0.3125 0.5
vt 0.25 0.5
vt 0.24999997 0.688730419
vt 0.31249997 0.688730359
vt 0.25 0.5
vt 0.1875 0.5
vt 0.18749997 0.688730419
vt 0.24999997 0.688730419
vt 0.1875 0.5
vt 0.125 0.5
vt 0.124999985 0.688730359
vt 0.18749997 0.688730419
vt 0.125 0.5
vt 0.0625 0.5
vt 0.0624999925 0.688730419
vt 0.124999985 0.688730359
vt 0.0625 0.5
vt 0 0.5
vt 0 0.688730478
vt 0.0624999925 0.688730419
vt 0.158156097 0.471731126
vt 0.25 0.49000001
vt 0.341844022 0.471731067
vt 0.0802944303 0.419705689
vt 0.419705629 0.419705629
vt 0.0282689333 0.341844052
vt 0.471731067 0.341844022
vt 0.0100000054 0.25
vt 0.49000001 0.249999985
vt 0.0282689184 0.158155948
vt 0.471731067 0.158155948
vt 0.0802944154 0.0802943259
vt 0.419705629 0.0802943856
vt 0.341844022 0.0282689184
vt 0.158156037 0.0282688886
vt 0.25000003 0.0100000054
vt 0.5 1
vt 0.5 1
vt 0.5625 1
vt 0.5625 1
vt 0.9375 1
vt 0.9375 1
vt 1 1
vt 1 1
vt 0.1875 1
vt 0.1875 1
vt 0.25 1
vt 0.25 1
vt 0.625 1
vt 0.625 1
vt 0.6875 1
vt 0.6875 1
vt 0.3125 1
vt 0.3125 1
vt 0.375 1
vt 0.375 1
vt 0 1
vt 0 1
vt 0.0625 1
vt 0.0625 1
vt 0.75 1
vt 0.75 1
vt 0.8125 1
vt 0.8125 1
vt 0.4375 1
vt 0.4375 1
vt 0.5 1
vt 0.5 1
vt 0.125 1
vt 0.125 1
vt 0.1875 1
vt 0.1875 1
vt 0.875 1
vt 0.875 1
vt 0.9375 1
vt 0.9375 1
vt 0.5625 1
vt 0.5625 1
vt 0.625 1
vt 0.625 1
vt 0.25 1
vt 0.25 1
vt 0.3125 1
vt 0.3125 1
vt 0.6875 1
vt 0.6875 1
vt 0.75 1
vt 0.75 1
vt 0.375 1
vt 0.375 1
vt 0.4375 1
vt 0.4375 1
vt 0.0625 1
vt 0.0625 1
vt 0.125 1
vt 0.125 1
vn 0.189443797 0.238852188 -0.952397346
vn 0.189443797 0.238852188 -0.952397346
vn 0.189443797 0.238852188 -0.952397346
vn 0.189443797 0.238852188 -0.952397346
vn 0.539489627 0.238852158 -0.807403624
vn 0.539489627 0.238852158 -0.807403624
vn 0.539489627 0.238852158 -0.807403624
vn 0.539489627 0.238852158 -0.807403624
vn 0.807403564 0.238852262 -0.539489806
vn 0.807403564 0.238852262 -0.539489806
vn 0.807403564 0.238852262 -0.539489806
vn 0.807403564 0.238852262 -0.539489806
vn 0.952397346 0.238852039 -0.189443842
vn 0.952397346 0.238852039 -0.189443842
vn 0.952397346 0.238852039 -0.189443842
vn 0.952397346 0.238852039 -0.189443842
vn 0.952397346 0.238852069 0.189443976
vn 0.952397346 0.238852069 0.189443976
vn 0.952397346 0.238852069 0.189443976
vn 0.952397346 0.238852069 0.189443976
vn 0.807403445 0.238852203 0.539489865
vn 0.807403445 0.238852203 0.539489865
vn 0.807403445 0.238852203 0.539489865
vn 0.807403445 0.238852203 0.539489865
vn 0.539489746 0.23885192 0.807403624
vn 0.539489746 0.23885192 0.807403624
vn 0.539489746 0.23885192 0.807403624
vn 0.539489746 0.23885192 0.807403624
vn 0.189443797 0.238851994 0.952397406
vn 0.189443797 0.238851994 0.952397406
vn 0.189443797 0.238851994 0.952397406
vn 0.189443797 0.238851994 0.952397406
vn -0.189443305 0.238852024 0.952397406
vn -0.189443305 0.238852024 0.952397406
vn -0.189443305 0.238852024 0.952397406
vn -0.189443305 0.238852024 0.952397406
vn -0.539489806 0.238852099 0.807403445
vn -0.539489806 0.238852099 0.807403445
vn -0.539489806 0.238852099 0.807403445
vn -0.539489806 0.238852099 0.807403445
vn -0.807403147 0.238852188 0.539490223
vn -0.807403147 0.238852188 0.539490223
vn -0.807403147 0.238852188 0.539490223
vn -0.807403147 0.238852188 0.539490223
vn -0.952397346 0.238852262 0.189443588
vn -0.952397346 0.238852262 0.189443588
vn -0.952397346 0.238852262 0.189443588
vn -0.952397346 0.238852262 0.189443588
vn -0.952397346 0.238852099 -0.189443901
vn -0.952397346 0.238852099 -0.189443901
vn -0.952397346 0.238852099 -0.189443901
vn -0.952397346 0.238852099 -0.189443901
vn -0.807403445 0.238852218 -0.539489746
vn -0.807403445 0.238852218 -0.539489746
vn -0.807403445 0.238852218 -0.539489746
vn -0.807403445 0.238852218 -0.539489746
vn 0.71307826 0.514298379 -0.476462513
vn 0.71307826 0.514298379 -0.476462513
vn 0.71307826 0.514298379 -0.476462513
vn 0.71307826 0.514298379 -0.476462513
vn -0.539489448 0.238852397 -0.807403624
vn -0.539489448 0.238852397 -0.807403624
vn -0.539489448 0.238852397 -0.807403624
vn -0.539489448 0.238852397 -0.807403624
vn -0.18944335 0.238852277 -0.952397406
vn -0.18944335 0.238852277 -0.952397406
vn -0.18944335 0.238852277 -0.952397406
vn -0.18944335 0.238852277 -0.952397406
vn -0 -1 0
vn -0 -1 0
vn -0 -1 0
vn -0 -1 0
vn -0 -1 0
vn -0 -1 0
vn -0 -1 0
vn -0 -1 0
vn -0 -1 0
vn -0 -1 0
vn -0 -1 0
vn -0 -1 0
vn -0 -1 0
vn -0 -1 0
vn -0 -1 0
vn -0 -1 0
vn -0.195088521 -0.00350790168 -0.980779409
vn -0.195088521 -0.00350790168 -0.980779409
vn -0.195088521 -0.00350790168 -0.980779409
vn -0.195088521 -0.00350790168 -0.980779409
vn -0.55556643 -0.00350798341 -0.831464767
vn -0.55556643 -0.00350798341 -0.831464767
vn -0.55556643 -0.00350798341 -0.831464767
vn -0.55556643 -0.00350798341 -0.831464767
vn -0.83146441 -0.00350789982 -0.555566847
vn -0.83146441 -0.00350789982 -0.555566847
vn -0.83146441 -0.00350789982 -0.555566847
vn -0.83146441 -0.00350789982 -0.555566847
vn -0.980779171 -0.00350791682 -0.19508934
vn -0.980779171 -0.00350791682 -0.19508934
vn -0.980779171 -0.00350791682 -0.19508934
vn -0.980779171 -0.00350791682 -0.19508934
vn -0.98077929 -0.00350805186 0.195089161
vn -0.98077929 -0.00350805186 0.195089161
vn -0.98077929 -0.00350805186 0.195089161
vn -0.98077929 -0.00350805186 0.195089161
vn -0.831464231 -0.00350806932 0.555567086
vn -0.831464231 -0.00350806932 0.555567086
vn -0.831464231 -0.00350806932 0.555567086
vn -0.831464231 -0.00350806932 0.555567086
vn -0.555566788 -0.00350813172 0.831464589
vn -0.555566788 -0.00350813172 0.831464589
vn -0.555566788 -0.00350813172 0.831464589
vn -0.555566788 -0.00350813172 0.831464589
vn -0.195088685 -0.00350812403 0.980779409
vn -0.195088685 -0.00350812403 0.980779409
vn -0.195088685 -0.00350812403 0.980779409
vn -0.195088685 -0.00350812403 0.980779409
vn 0.195089206 -0.0035080344 0.98077929
vn 0.195089206 -0.0035080344 0.98077929
vn 0.195089206 -0.0035080344 0.98077929
vn 0.195089206 -0.0035080344 0.98077929
vn 0.555566907 -0.00350794848 0.83146441
vn 0.555566907 -0.00350794848 0.83146441
vn 0.555566907 -0.00350794848 0.83146441
vn 0.555566907 -0.00350794848 0.83146441
vn 0.83146441 -0.00350801274 0.555566907
vn 0.83146441 -0.00350801274 0.555566907
vn 0.83146441 -0.00350801274 0.555566907
vn 0.83146441 -0.00350801274 0.555566907
vn 0.980779171 -0.00350797991 0.195089251
vn 0.980779171 -0.00350797991 0.195089251
vn 0.980779171 -0.00350797991 0.195089251
vn 0.980779171 -0.00350797991 0.195089251
vn 0.98077929 -0.00350792939 -0.195089266
vn 0.98077929 -0.00350792939 -0.195089266
vn 0.98077929 -0.00350792939 -0.195089266
vn 0.98077929 -0.00350792939 -0.195089266
vn 0.831464589 -0.00350796431 -0.555566609
vn 0.831464589 -0.00350796431 -0.555566609
vn 0.831464589 -0.00350796431 -0.555566609
vn 0.831464589 -0.00350796431 -0.555566609
vn 0.555566311 -0.00350794755 -0.831464827
vn 0.555566311 -0.00350794755 -0.831464827
vn 0.555566311 -0.00350794755 -0.831464827
vn 0.555566311 -0.00350794755 -0.831464827
vn 0.19508934 -0.00350790587 -0.980779171
vn 0.19508934 -0.00350790587 -0.980779171
vn 0.19508934 -0.00350790587 -0.980779171
vn 0.19508934 -0.00350790587 -0.980779171
vn 0.18468751 -0.322185308 -0.928486466
vn 0.18468751 -0.322185308 -0.928486466
vn 0.18468751 -0.322185308 -0.928486466
vn 0.18468751 -0.322185308 -0.928486466
vn 0.525945246 -0.322185218 -0.787132919
vn 0.525945246 -0.322185218 -0.787132919
vn 0.525945246 -0.322185218 -0.787132919
vn 0.525945246 -0.322185218 -0.787132919
vn 0.787132859 -0.322185278 -0.525945246
vn 0.787132859 -0.322185278 -0.525945246
vn 0.787132859 -0.322185278 -0.525945246
vn 0.787132859 -0.322185278 -0.525945246
vn 0.928486466 -0.322185427 -0.184687585
vn 0.928486466 -0.322185427 -0.184687585
vn 0.928486466 -0.322185427 -0.184687585
vn 0.928486466 -0.322185427 -0.184687585
vn 0.928486466 -0.322185397 0.18468754
vn 0.928486466 -0.322185397 0.18468754
vn 0.928486466 -0.322185397 0.18468754
vn 0.928486466 -0.322185397 0.18468754
vn 0.78713274 -0.322185367 0.525945425
vn 0.78713274 -0.322185367 0.525945425
vn 0.78713274 -0.322185367 0.525945425
vn 0.78713274 -0.322185367 0.525945425
vn 0.525945306 -0.322185427 0.787132859
vn 0.525945306 -0.322185427 0.787132859
vn 0.525945306 -0.322185427 0.787132859
vn 0.525945306 -0.322185427 0.787132859
vn 0.184687272 -0.322185397 0.928486466
vn 0.184687272 -0.322185397 0.928486466
vn 0.184687272 -0.322185397 0.928486466
vn 0.184687272 -0.322185397 0.928486466
vn -0.184686899 -0.322185278 0.928486586
vn -0.184686899 -0.322185278 0.928486586
vn -0.184686899 -0.322185278 0.928486586
vn -0.184686899 -0.322185278 0.928486586
vn -0.525945246 -0.322185278 0.787132919
vn -0.525945246 -0.322185278 0.787132919
vn -0.525945246 -0.322185278 0.787132919
vn -0.525945246 -0.322185278 0.787132919
vn -0.787132561 -0.322185367 0.525945663
vn -0.787132561 -0.322185367 0.525945663
vn -0.787132561 -0.322185367 0.525945663
vn -0.787132561 -0.322185367 0.525945663
vn -0.928486466 -0.322185248 0.184687525
vn -0.928486466 -0.322185248 0.184687525
vn -0.928486466 -0.322185248 0.184687525
vn -0.928486466 -0.322185248 0.184687525
vn -0.928486466 -0.322185308 -0.184687749
vn -0.928486466 -0.322185308 -0.184687749
vn -0.928486466 -0.322185308 -0.184687749
vn -0.928486466 -0.322185308 -0.184687749
vn -0.787132561 -0.322185427 -0.525945604
vn -0.787132561 -0.322185427 -0.525945604
vn -0.787132561 -0.322185427 -0.525945604
vn -0.787132561 -0.322185427 -0.525945604
vn -0.525945187 -0.322185278 -0.787133038
vn -0.525945187 -0.322185278 -0.787133038
vn -0.525945187 -0.322185278 -0.787133038
vn -0.525945187 -0.322185278 -0.787133038
vn -0.184686974 -0.322185248 -0.928486586
vn -0.184686974 -0.322185248 -0.928486586
vn -0.184686974 -0.322185248 -0.928486586
vn -0.184686974 -0.322185248 -0.928486586
vn -0 1 0
vn -0 1 0
vn -0 1 0
vn -0 1 0
vn -0 1 0
vn -0 1 0
vn -0 1 0
vn -0 1 0
vn -0 1 0
vn -0 1 0
vn -0 1 0
vn -0 1 0
vn -0 1 0
vn -0 1 0
vn -0 1 0
vn -0 1 0
vn 0.167311862 0.514298201 0.841132641
vn 0.167311862 0.514298201 0.841132641
vn 0.167311862 0.514298201 0.841132641
vn 0.167311862 0.514298201 0.841132641
vn 0.167311713 0.51429832 -0.841132641
vn 0.167311713 0.51429832 -0.841132641
vn 0.167311713 0.51429832 -0.841132641
vn 0.167311713 0.51429832 -0.841132641
vn -0.841132343 0.51429832 -0.167312577
vn -0.841132343 0.51429832 -0.167312577
vn -0.841132343 0.51429832 -0.167312577
vn -0.841132343 0.51429832 -0.167312577
vn 0.713077903 0.51429832 0.476463139
vn 0.713077903 0.51429832 0.476463139
vn 0.713077903 0.51429832 0.476463139
vn 0.713077903 0.51429832 0.476463139
vn -0.713077784 0.514298379 0.476463228
vn -0.713077784 0.514298379 0.476463228
vn -0.713077784 0.514298379 0.476463228
vn -0.713077784 0.514298379 0.476463228
vn -0.167311162 0.51429832 -0.8411327
vn -0.167311162 0.51429832 -0.8411327
vn -0.167311162 0.51429832 -0.8411327
vn -0.167311162 0.51429832 -0.8411327
vn 0.8411327 0.51429832 -0.167311534
vn 0.8411327 0.51429832 -0.167311534
vn 0.8411327 0.51429832 -0.167311534
vn 0.8411327 0.51429832 -0.167311534
vn -0.167311594 0.514298379 0.841132522
vn -0.167311594 0.514298379 0.841132522
vn -0.167311594 0.514298379 0.841132522
vn -0.167311594 0.514298379 0.841132522
vn -0.713077903 0.514298558 -0.47646293
vn -0.713077903 0.514298558 -0.47646293
vn -0.713077903 0.514298558 -0.47646293
vn -0.713077903 0.514298558 -0.47646293
vn 0.476462841 0.514298022 -0.71307826
vn 0.476462841 0.514298022 -0.71307826
vn 0.476462841 0.514298022 -0.71307826
vn 0.476462841 0.514298022 -0.71307826
vn 0.476463228 0.514298022 0.713078082
vn 0.476463228 0.514298022 0.713078082
vn 0.476463228 0.514298022 0.713078082
vn 0.476463228 0.514298022 0.713078082
vn -0.841132522 0.514298439 0.167311475
vn -0.841132522 0.514298439 0.167311475
vn -0.841132522 0.514298439 0.167311475
vn -0.841132522 0.514298439 0.167311475
vn 0.841132641 0.51429832 0.167311564
vn 0.841132641 0.51429832 0.167311564
vn 0.841132641 0.51429832 0.167311564
vn 0.841132641 0.51429832 0.167311564
vn -0.47646302 0.514298379 0.713077903
vn -0.47646302 0.514298379 0.713077903
vn -0.47646302 0.514298379 0.713077903
vn -0.47646302 0.514298379 0.713077903
vn -0.476463079 0.51429832 -0.713077903
vn -0.476463079 0.51429832 -0.713077903
vn -0.476463079 0.51429832 -0.713077903
vn -0.476463079 0.51429832 -0.713077903
g TopCol9_0
f 3/3/3 2/2/2 1/1/1
f 4/4/4 3/3/3 1/1/1
f 7/7/7 6/6/6 5/5/5
f 8/8/8 7/7/7 5/5/5
f 11/11/11 10/10/10 9/9/9
f 12/12/12 11/11/11 9/9/9
f 15/15/15 14/14/14 13/13/13
f 16/16/16 15/15/15 13/13/13
f 19/19/19 18/18/18 17/17/17
f 20/20/20 19/19/19 17/17/17
f 23/23/23 22/22/22 21/21/21
f 24/24/24 23/23/23 21/21/21
f 27/27/27 26/26/26 25/25/25
f 28/28/28 27/27/27 25/25/25
f 31/31/31 30/30/30 29/29/29
f 32/32/32 31/31/31 29/29/29
f 35/35/35 34/34/34 33/33/33
f 36/36/36 35/35/35 33/33/33
f 39/39/39 38/38/38 37/37/37
f 40/40/40 39/39/39 37/37/37
f 43/43/43 42/42/42 41/41/41
f 44/44/44 43/43/43 41/41/41
f 47/47/47 46/46/46 45/45/45
f 48/48/48 47/47/47 45/45/45
f 51/51/51 50/50/50 49/49/49
f 52/52/52 51/51/51 49/49/49
f 55/55/55 54/54/54 53/53/53
f 56/56/56 55/55/55 53/53/53
f 59/59/59 58/58/58 57/57/57
f 60/60/60 59/59/59 57/57/57
f 63/63/63 62/62/62 61/61/61
f 64/64/64 63/63/63 61/61/61
f 67/67/67 66/66/66 65/65/65
f 68/68/68 67/67/67 65/65/65
f 71/71/71 70/70/70 69/69/69
f 69/69/69 72/72/72 71/71/71
f 69/69/69 73/73/73 72/72/72
f 73/73/73 74/74/74 72/72/72
f 73/73/73 75/75/75 74/74/74
f 75/75/75 76/76/76 74/74/74
f 75/75/75 77/77/77 76/76/76
f 77/77/77 78/78/78 76/76/76
f 77/77/77 79/79/79 78/78/78
f 79/79/79 80/80/80 78/78/78
f 80/80/80 81/81/81 78/78/78
f 80/80/80 82/82/82 81/81/81
f 82/82/82 83/83/83 81/81/81
f 82/82/82 84/84/84 83/83/83
f 87/87/87 86/86/86 85/85/85
f 88/88/88 87/87/87 85/85/85
f 91/91/91 90/90/90 89/89/89
f 92/92/92 91/91/91 89/89/89
f 95/95/95 94/94/94 93/93/93
f 96/96/96 95/95/95 93/93/93
f 99/99/99 98/98/98 97/97/97
f 100/100/100 99/99/99 97/97/97
f 103/103/103 102/102/102 101/101/101
f 104/104/104 103/103/103 101/101/101
f 107/107/107 106/106/106 105/105/105
f 108/108/108 107/107/107 105/105/105
f 111/111/111 110/110/110 109/109/109
f 112/112/112 111/111/111 109/109/109
f 115/115/115 114/114/114 113/113/113
f 116/116/116 115/115/115 113/113/113
f 119/119/119 118/118/118 117/117/117
f 120/120/120 119/119/119 117/117/117
f 123/123/123 122/122/122 121/121/121
f 124/124/124 123/123/123 121/121/121
f 127/127/127 126/126/126 125/125/125
f 128/128/128 127/127/127 125/125/125
f 131/131/131 130/130/130 129/129/129
f 132/132/132 131/131/131 129/129/129
f 135/135/135 134/134/134 133/133/133
f 136/136/136 135/135/135 133/133/133
f 139/139/139 138/138/138 137/137/137
f 140/140/140 139/139/139 137/137/137
f 143/143/143 142/142/142 141/141/141
f 144/144/144 143/143/143 141/141/141
f 147/147/147 146/146/146 145/145/145
f 148/148/148 147/147/147 145/145/145
f 151/151/151 150/150/150 149/149/149
f 152/152/152 151/151/151 149/149/149
f 155/155/155 154/154/154 153/153/153
f 156/156/156 155/155/155 153/153/153
f 159/159/159 158/158/158 157/157/157
f 160/160/160 159/159/159 157/157/157
f 163/163/163 162/162/162 161/161/161
f 164/164/164 163/163/163 161/161/161
f 167/167/167 166/166/166 165/165/165
f 168/168/168 167/167/167 165/165/165
f 171/171/171 170/170/170 169/169/169
f 172/172/172 171/171/171 169/169/169
f 175/175/175 174/174/174 173/173/173
f 176/176/176 175/175/175 173/173/173
f 179/179/179 178/178/178 177/177/177
f 180/180/180 179/179/179 177/177/177
f 183/183/183 182/182/182 181/181/181
f 184/184/184 183/183/183 181/181/181
f 187/187/187 186/186/186 185/185/185
f 188/188/188 187/187/187 185/185/185
f 191/191/191 190/190/190 189/189/189
f 192/192/192 191/191/191 189/189/189
f 195/195/195 194/194/194 193/193/193
f 196/196/196 195/195/195 193/193/193
f 199/199/199 198/198/198 197/197/197
f 200/200/200 199/199/199 197/197/197
f 203/203/203 202/202/202 201/201/201
f 204/204/204 203/203/203 201/201/201
f 207/207/207 206/206/206 205/205/205
f 208/208/208 207/207/207 205/205/205
f 211/211/211 210/210/210 209/209/209
f 212/212/212 211/211/211 209/209/209
f 215/215/215 214/214/214 213/213/213
f 213/213/213 216/216/216 215/215/215
f 216/216/216 217/217/217 215/215/215
f 216/216/216 218/218/218 217/217/217
f 218/218/218 219/219/219 217/217/217
f 218/218/218 220/220/220 219/219/219
f 220/220/220 221/221/221 219/219/219
f 220/220/220 222/222/222 221/221/221
f 222/222/222 223/223/223 221/221/221
f 222/222/222 224/224/224 223/223/223
f 224/224/224 225/225/225 223/223/223
f 224/224/224 226/226/226 225/225/225
f 224/224/224 227/227/227 226/226/226
f 227/227/227 228/228/228 226/226/226
f 231/231/231 230/230/230 229/229/229
f 232/232/232 231/231/231 229/229/229
f 235/235/235 234/234/234 233/233/233
f 236/236/236 235/235/235 233/233/233
f 239/239/239 238/238/238 237/237/237
f 240/240/240 239/239/239 237/237/237
f 243/243/243 242/242/242 241/241/241
f 244/244/244 243/243/243 241/241/241
f 247/247/247 246/246/246 245/245/245
f 248/248/248 247/247/247 245/245/245
f 251/251/251 250/250/250 249/249/249
f 252/252/252 251/251/251 249/249/249
f 255/255/255 254/254/254 253/253/253
f 256/256/256 255/255/255 253/253/253
f 259/259/259 258/258/258 257/257/257
f 260/260/260 259/259/259 257/257/257
f 263/263/263 262/262/262 261/261/261
f 264/264/264 263/263/263 261/261/261
f 267/267/267 266/266/266 265/265/265
f 268/268/268 267/267/267 265/265/265
f 271/271/271 270/270/270 269/269/269
f 272/272/272 271/271/271 269/269/269
f 275/275/275 274/274/274 273/273/273
f 276/276/276 275/275/275 273/273/273
f 279/279/279 278/278/278 277/277/277
f 280/280/280 279/279/279 277/277/277
f 283/283/283 282/282/282 281/281/281
f 284/284/284 283/283/283 281/281/281
f 287/287/287 286/286/286 285/285/285
f 288/288/288 287/287/287 285/285/285
