g TopCol7
v -0.367611468 0.000203522111 0.367611229
v -0.461819053 0.000203532167 0.234403342
v -0.309368402 0.700847864 0.0610758588
v -0.233113274 0.700847864 0.233680278
v -0.461819053 0.000203532167 0.234403342
v -0.404667646 0.000203536125 0.181862682
v -0.285646141 0.700847864 0.0235383436
v -0.309368402 0.700847864 0.0610758588
v -0.293265313 0.000203527714 0.293265104
v -0.18186298 0.000203519317 0.404667526
v -0.0229398161 0.700847864 0.286244839
v -0.154292971 0.700847864 0.154891595
v -0.404667646 0.000203536125 0.181862682
v -0.154292971 0.700847864 0.154891595
v -0.285646141 0.700847864 0.0235383436
v -0.18186298 0.000203519317 0.404667526
v -0.23440367 0.000203514996 0.461818904
v -0.0605089068 0.700847864 0.30993551
v -0.0229398161 0.700847864 0.286244839
v -0.367611468 0.000203522111 0.367611229
v -0.23440367 0.000203514996 0.461818904
v -0.18186298 0.000203519317 0.404667526
v -0.293265313 0.000203527714 0.293265104
v -0.461819053 0.000203532167 0.234403342
v -0.404667646 0.000203536125 0.181862682
v -0.154292971 0.700847864 0.154891595
v -0.0229398161 0.700847864 0.286244839
v -0.0605089068 0.700847864 0.30993551
v -0.233113274 0.700847864 0.233680278
v -0.285646141 0.700847864 0.0235383436
v -0.154292971 0.700847864 0.154891595
v -0.309368402 0.700847864 0.0610758588
v -0.23440367 0.000203514996 0.461818904
v -0.367611468 0.000203522111 0.367611229
v -0.233113274 0.700847864 0.233680278
v -0.0605089068 0.700847864 0.30993551
vt 0.375 0.125
vt 0.374999911 0.210177809
vt 0.625 0.249999985
vt 0.625 0.125
vt 0.374999911 0.210177809
vt 0.37499994 0.539822102
vt 0.62499994 0.49999994
vt 0.625 0.249999985
vt 0.375 0.625
vt 0.375 0.710177779
vt 0.625 0.75
vt 0.625 0.625
vt 0.37499994 0.539822102
vt 0.625 0.625
vt 0.62499994 0.49999994
vt 0.375 0.710177779
vt 0.377340972 1.0950222
vt 0.625 1
vt 0.625 0.75
vt 0.125 0.625
vt 0.125 0.710177839
vt 0.375 0.710177779
vt 0.375 0.625
vt 0.125 0.539822161
vt 0.37499994 0.539822102
vt 0.625 0.625
vt 0.625 0.75
vt 0.87499994 0.74999994
vt 0.875 0.625
vt 0.62499994 0.49999994
vt 0.625 0.625
vt 0.87499994 0.49999997
vt 0.375 0.0398221612
vt 0.375 0.125
vt 0.625 0.125
vt 0.625 0
vn -0.839881778 0.27463907 0.468158096
vn -0.839881778 0.27463907 0.468158096
vn -0.839881778 0.27463907 0.468158096
vn -0.839881778 0.27463907 0.468158096
vn -0.744029045 -0.0139591098 -0.668001533
vn -0.744029045 -0.0139591098 -0.668001533
vn -0.744029045 -0.0139591098 -0.668001533
vn -0.744029045 -0.0139591098 -0.668001533
vn 0.680935681 -0.269544214 -0.680935085
vn 0.680935681 -0.269544214 -0.680935085
vn 0.680935681 -0.269544214 -0.680935085
vn 0.680935681 -0.269544214 -0.680935085
vn 0.680935681 -0.269544154 -0.680935144
vn 0.680935681 -0.269544154 -0.680935144
vn 0.680935681 -0.269544154 -0.680935144
vn 0.667716503 -0.0150212441 0.744264007
vn 0.667716503 -0.0150212441 0.744264007
vn 0.667716503 -0.0150212441 0.744264007
vn 0.667716503 -0.0150212441 0.744264007
vn -0 -1 0
vn -0 -1 0
vn -0 -1 0
vn -0 -1 0
vn -0 -1 0
vn -0 -1 0
vn -0 1 0
vn -0 1 0
vn -0 1 0
vn -0 1 0
vn -0 1 0
vn -0 1 0
vn -0 1 0
vn -0.468197316 0.274360865 0.83995086
vn -0.468197316 0.274360865 0.83995086
vn -0.468197316 0.274360865 0.83995086
vn -0.468197316 0.274360865 0.83995086
g TopCol7_0
f 3/3/3 2/2/2 1/1/1
f 4/4/4 3/3/3 1/1/1
f 7/7/7 6/6/6 5/5/5
f 8/8/8 7/7/7 5/5/5
f 11/11/11 10/10/10 9/9/9
f 12/12/12 11/11/11 9/9/9
f 14/14/14 9/9/9 13/13/13
f 15/15/15 14/14/14 13/13/13
f 18/18/18 17/17/17 16/16/16
f 19/19/19 18/18/18 16/16/16
f 22/22/22 21/21/21 20/20/20
f 23/23/23 22/22/22 20/20/20
f 23/23/23 20/20/20 24/24/24
f 25/25/25 23/23/23 24/24/24
f 28/28/28 27/27/27 26/26/26
f 29/29/29 28/28/28 26/26/26
f 29/29/29 31/31/31 30/30/30
f 32/32/32 29/29/29 30/30/30
f 35/35/35 34/34/34 33/33/33
f 36/36/36 35/35/35 33/33/33
