g TopCol1
v 2.18883347E-08 0.000203589108 -0.51988095
v 0.231202692 0.000203584947 -0.464763165
v 0.175569266 0.700847864 -0.261943579
v -0.000401001278 0.700847864 -0.330072731
v 0.231202692 0.000203584947 -0.464763165
v 0.231202692 0.000203581178 -0.414739639
v 0.185338154 0.700847864 -0.21862638
v 0.175569266 0.700847864 -0.261943579
v 1.8128846E-08 0.000203581178 -0.414739639
v -0.231202662 0.000203581178 -0.414739639
v -0.186184779 0.700847864 -0.21862641
v -0.000423316029 0.700847864 -0.218626395
v 0.231202692 0.000203581178 -0.414739639
v 1.8128846E-08 0.000203581178 -0.414739639
v 0.185338154 0.700847864 -0.21862638
v -0.231202662 0.000203581178 -0.414739639
v -0.231202662 0.000203584947 -0.464763165
v -0.176371261 0.700847864 -0.261943579
v -0.186184779 0.700847864 -0.21862641
v 2.18883347E-08 0.000203589108 -0.51988095
v -0.231202662 0.000203584947 -0.464763165
v -0.231202662 0.000203581178 -0.414739639
v 1.8128846E-08 0.000203581178 -0.414739639
v 0.231202692 0.000203584947 -0.464763165
v 0.231202692 0.000203581178 -0.414739639
v -0.000423316029 0.700847864 -0.218626395
v -0.186184779 0.700847864 -0.21862641
v -0.176371261 0.700847864 -0.261943579
v -0.000401001278 0.700847864 -0.330072731
v 0.185338154 0.700847864 -0.21862638
v -0.000423316029 0.700847864 -0.218626395
v 0.175569266 0.700847864 -0.261943579
v -0.231202662 0.000203584947 -0.464763165
v 2.18883347E-08 0.000203589108 -0.51988095
v -0.000401001278 0.700847864 -0.330072731
v -0.176371261 0.700847864 -0.261943579
vt 0.375 0.125
vt 0.375 0.25
vt 0.625 0.25
vt 0.625 0.125
vt 0.375 0.25
vt 0.375 0.5
vt 0.625 0.5
vt 0.625 0.25
vt 0.375 0.625
vt 0.375 0.75
vt 0.625 0.75
vt 0.625 0.625
vt 0.375 0.5
vt 0.375 0.625
vt 0.625 0.5
vt 0.375 0.75
vt 0.375 1
vt 0.625 1
vt 0.625 0.75
vt 0.125 0.625
vt 0.125 0.75
vt 0.375 0.75
vt 0.375 0.625
vt 0.125 0.5
vt 0.375 0.5
vt 0.625 0.625
vt 0.625 0.75
vt 0.875 0.75
vt 0.875 0.625
vt 0.625 0.5
vt 0.625 0.625
vt 0.875 0.5
vt 0.375 0
vt 0.375 0.125
vt 0.625 0.125
vt 0.625 0
vn 0.278996259 0.269415051 -0.921724856
vn 0.278996259 0.269415051 -0.921724856
vn 0.278996259 0.269415051 -0.921724856
vn 0.278996259 0.269415051 -0.921724856
vn 0.989466846 0.101150237 -0.103555977
vn 0.989466846 0.101150237 -0.103555977
vn 0.989466846 0.101150237 -0.103555977
vn 0.989466846 0.101150237 -0.103555977
vn -0 -0.269544303 0.962988019
vn -0 -0.269544303 0.962988019
vn -0 -0.269544303 0.962988019
vn -0 -0.269544303 0.962988019
vn -0 -0.269544333 0.9629879
vn -0 -0.269544333 0.9629879
vn -0 -0.269544333 0.9629879
vn -0.989520788 0.100126229 -0.104034804
vn -0.989520788 0.100126229 -0.104034804
vn -0.989520788 0.100126229 -0.104034804
vn -0.989520788 0.100126229 -0.104034804
vn -0 -1 0
vn -0 -1 0
vn -0 -1 0
vn -0 -1 0
vn -0 -1 0
vn -0 -1 0
vn -0 1 0
vn -0 1 0
vn -0 1 0
vn -0 1 0
vn -0 1 0
vn -0 1 0
vn -0 1 0
vn -0.27902022 0.269118816 -0.92180407
vn -0.27902022 0.269118816 -0.92180407
vn -0.27902022 0.269118816 -0.92180407
vn -0.27902022 0.269118816 -0.92180407
g TopCol1_0
f 3/3/3 2/2/2 1/1/1
f 4/4/4 3/3/3 1/1/1
f 7/7/7 6/6/6 5/5/5
f 8/8/8 7/7/7 5/5/5
f 11/11/11 10/10/10 9/9/9
f 12/12/12 11/11/11 9/9/9
f 12/12/12 14/14/14 13/13/13
f 15/15/15 12/12/12 13/13/13
f 18/18/18 17/17/17 16/16/16
f 19/19/19 18/18/18 16/16/16
f 22/22/22 21/21/21 20/20/20
f 23/23/23 22/22/22 20/20/20
f 23/23/23 20/20/20 24/24/24
f 25/25/25 23/23/23 24/24/24
f 28/28/28 27/27/27 26/26/26
f 29/29/29 28/28/28 26/26/26
f 29/29/29 31/31/31 30/30/30
f 32/32/32 29/29/29 30/30/30
f 35/35/35 34/34/34 33/33/33
f 36/36/36 35/35/35 33/33/33
