g DeadeyesCol
v -1.10678649 -0.111287087 1.21545792
v -1.10678649 0.111287758 1.21545792
v -1.26514292 0.111287564 3.86346531
v -1.26514292 -0.111287281 3.86346531
v -1.10678649 0.111287758 1.21545792
v 0.954062819 0.11128778 2.32432032
v -0.440103263 0.111287452 4.12895727
v -1.26514292 0.111287564 3.86346531
v -0.84117502 0.111287415 0.309901953
v 0.954062819 0.11128778 2.32432032
v 0.767650068 0.111287415 0.309901953
v 0.954062819 0.11128778 2.32432032
v 0.954062819 -0.111287065 2.32432032
v -0.440103263 -0.111287393 4.12895727
v -0.440103263 0.111287452 4.12895727
v 0.954062819 -0.111287065 2.32432032
v -1.26514292 -0.111287281 3.86346531
v -0.440103263 -0.111287393 4.12895727
v -1.10678649 -0.111287087 1.21545792
v 0.767650068 -0.11128743 0.309901953
v -0.84117502 -0.11128743 0.309901953
v 0.954062819 -0.111287065 2.32432032
v -0.84117502 0.111287415 0.309901953
v -0.84117502 -0.11128743 0.309901953
v 0.767650068 -0.11128743 0.309901953
v 0.767650068 0.111287415 0.309901953
v -0.440103263 0.111287452 4.12895727
v -0.440103263 -0.111287393 4.12895727
v -1.26514292 -0.111287281 3.86346531
v -1.26514292 0.111287564 3.86346531
v 0.767650068 0.111287415 0.309901953
v 0.767650068 -0.11128743 0.309901953
v 0.954062819 -0.111287065 2.32432032
v 0.954062819 0.11128778 2.32432032
v -0.84117502 -0.11128743 0.309901953
v -0.84117502 0.111287415 0.309901953
v -1.10678649 0.111287758 1.21545792
v -1.10678649 -0.111287087 1.21545792
vt 0.438839078 0
vt 0.438839048 0.249999985
vt 0.625 0.25
vt 0.625 0
vt 0.438839048 0.249999985
vt 0.438839048 0.5
vt 0.625 0.5
vt 0.625 0.25
vt 0.375 0.25
vt 0.438839048 0.5
vt 0.375 0.5
vt 0.438839048 0.5
vt 0.438839048 0.75
vt 0.625 0.75
vt 0.625 0.5
vt 0.438839048 0.75
vt 0.625 1
vt 0.625 0.75
vt 0.438839048 1
vt 0.375 0.75
vt 0.375 1
vt 0.438839048 0.75
vt 0.125 0.5
vt 0.125 0.75
vt 0.375 0.75
vt 0.375 0.5
vt 0.625 0.5
vt 0.625 0.75
vt 0.875 0.75
vt 0.875 0.5
vt 0.375 0.5
vt 0.375 0.75
vt 0.438839048 0.75
vt 0.438839048 0.5
vt 0.375 0
vt 0.375 0.25
vt 0.438839048 0.249999985
vt 0.438839078 0
vn -0.998216569 0 -0.0596954599
vn -0.998216569 0 -0.0596954599
vn -0.998216569 0 -0.0596954599
vn -0.998216569 0 -0.0596954599
vn -0 1 0
vn -0 1 0
vn -0 1 0
vn -0 1 0
vn -0 1 0
vn -0 1 0
vn -0 1 0
vn 0.79135412 0 0.611357927
vn 0.79135412 0 0.611357927
vn 0.79135412 0 0.611357927
vn 0.79135412 0 0.611357927
vn -0 -1 0
vn -0 -1 0
vn -0 -1 0
vn -0 -1 0
vn -0 -1 0
vn -0 -1 0
vn -0 -1 0
vn -0 0 -1
vn -0 0 -1
vn -0 0 -1
vn -0 0 -1
vn -0.30632332 0 0.951927543
vn -0.30632332 0 0.951927543
vn -0.30632332 0 0.951927543
vn -0.30632332 0 0.951927543
vn 0.995745599 0 -0.0921455473
vn 0.995745599 0 -0.0921455473
vn 0.995745599 0 -0.0921455473
vn 0.995745599 0 -0.0921455473
vn -0.959574163 0 -0.281455785
vn -0.959574163 0 -0.281455785
vn -0.959574163 0 -0.281455785
vn -0.959574163 0 -0.281455785
g DeadeyesCol_0
f 3/3/3 2/2/2 1/1/1
f 4/4/4 3/3/3 1/1/1
f 7/7/7 6/6/6 5/5/5
f 8/8/8 7/7/7 5/5/5
f 5/5/5 10/10/10 9/9/9
f 10/10/10 11/11/11 9/9/9
f 14/14/14 13/13/13 12/12/12
f 15/15/15 14/14/14 12/12/12
f 18/18/18 17/17/17 16/16/16
f 17/17/17 19/19/19 16/16/16
f 19/19/19 21/21/21 20/20/20
f 22/22/22 19/19/19 20/20/20
f 25/25/25 24/24/24 23/23/23
f 26/26/26 25/25/25 23/23/23
f 29/29/29 28/28/28 27/27/27
f 30/30/30 29/29/29 27/27/27
f 33/33/33 32/32/32 31/31/31
f 34/34/34 33/33/33 31/31/31
f 37/37/37 36/36/36 35/35/35
f 38/38/38 37/37/37 35/35/35
