g GBotCol3
v 0.982912838 0.962059736 -0.417008579
v 0.982912779 0.962059736 -0.982912898
v -0.982912958 0.962059855 -0.982912779
v -0.982912898 0.962059855 -0.41700846
v 0.982912838 1.16327608 -0.468407929
v -0.982912898 1.16327631 -0.46840781
v -0.982912958 1.16327643 -0.982912779
v 0.982912779 1.1632762 -0.982912898
v -0.982912958 0.962059855 -0.982912779
v -0.982912958 1.16327643 -0.982912779
v -0.982912898 1.16327631 -0.46840781
v -0.982912898 0.962059855 -0.41700846
v -0.982912898 0.962059855 -0.41700846
v -0.982912898 1.16327631 -0.46840781
v 0.982912838 1.16327608 -0.468407929
v 0.982912838 0.962059736 -0.417008579
v 0.982912838 0.962059736 -0.417008579
v 0.982912838 1.16327608 -0.468407929
v 0.982912779 1.1632762 -0.982912898
v 0.982912779 0.962059736 -0.982912898
v 0.982912779 0.962059736 -0.982912898
v 0.982912779 1.1632762 -0.982912898
v -0.982912958 1.16327643 -0.982912779
v -0.982912958 0.962059855 -0.982912779
vt 0.375 0.75
vt 0.375 1
vt 0.625 1
vt 0.625 0.75
vt 0.375 0.75
vt 0.625 0.75
vt 0.625 1
vt 0.375 1
vt 0.625 1
vt 0.625 1
vt 0.625 0.75
vt 0.625 0.75
vt 0.625 0.75
vt 0.625 0.75
vt 0.375 0.75
vt 0.375 0.75
vt 0.375 0.75
vt 0.375 0.75
vt 0.375 1
vt 0.375 1
vt 0.375 1
vt 0.375 1
vt 0.625 1
vt 0.625 1
vn -0 -1 0
vn -0 -1 0
vn -0 -1 0
vn -0 -1 0
vn -0 1 0
vn -0 1 0
vn -0 1 0
vn -0 1 0
vn -1 0 0
vn -1 0 0
vn -1 0 0
vn -1 0 0
vn -0 0.247496068 0.968888879
vn -0 0.247496068 0.968888879
vn -0 0.247496068 0.968888879
vn -0 0.247496068 0.968888879
vn 1 0 0
vn 1 0 0
vn 1 0 0
vn 1 0 0
vn -0 0 -1
vn -0 0 -1
vn -0 0 -1
vn -0 0 -1
g GBotCol3_0
f 3/3/3 2/2/2 1/1/1
f 4/4/4 3/3/3 1/1/1
f 7/7/7 6/6/6 5/5/5
f 8/8/8 7/7/7 5/5/5
f 11/11/11 10/10/10 9/9/9
f 12/12/12 11/11/11 9/9/9
f 15/15/15 14/14/14 13/13/13
f 16/16/16 15/15/15 13/13/13
f 19/19/19 18/18/18 17/17/17
f 20/20/20 19/19/19 17/17/17
f 23/23/23 22/22/22 21/21/21
f 24/24/24 23/23/23 21/21/21
