g HanzoCol
v -1.53119063 -0.111287087 1.21545792
v -1.53119063 0.111287758 1.21545792
v -2.07536888 0.111287363 5.64789104
v -2.07536888 -0.111287482 5.64789104
v -1.53119063 0.111287758 1.21545792
v 1.88003516 0.11128778 2.32432032
v 2.15454888 0.111287281 5.67224407
v -2.07536888 0.111287363 5.64789104
v 1.88003516 0.11128778 2.32432032
v 1.88003516 -0.111287065 2.32432032
v 2.15454888 -0.111287564 5.67224407
v 2.15454888 0.111287281 5.67224407
v 1.88003516 -0.111287065 2.32432032
v -1.53119063 -0.111287087 1.21545792
v -2.07536888 -0.111287482 5.64789104
v 2.15454888 -0.111287564 5.67224407
v -1.2655791 0.111287415 0.309901953
v -1.2655791 -0.11128743 0.309901953
v 1.24028182 -0.11128743 0.309901953
v 1.24028182 0.111287415 0.309901953
v -2.07536888 0.111287363 5.64789104
v -0.959877193 0.111287326 6.77307653
v -0.959877193 -0.111287519 6.77307653
v -2.07536888 -0.111287482 5.64789104
v 1.24028182 -0.11128743 0.309901953
v -1.2655791 -0.11128743 0.309901953
v -1.53119063 -0.111287087 1.21545792
v 1.88003516 -0.111287065 2.32432032
v 1.24028182 0.111287415 0.309901953
v 1.24028182 -0.11128743 0.309901953
v 1.88003516 -0.111287065 2.32432032
v 1.88003516 0.11128778 2.32432032
v -1.2655791 0.111287415 0.309901953
v 1.24028182 0.111287415 0.309901953
v 1.88003516 0.11128778 2.32432032
v -1.53119063 0.111287758 1.21545792
v -1.2655791 -0.11128743 0.309901953
v -1.2655791 0.111287415 0.309901953
v -1.53119063 0.111287758 1.21545792
v -1.53119063 -0.111287087 1.21545792
v 0.94260174 0.111287311 6.06140852
v 0.94260174 -0.111287534 6.06140852
v -0.959877193 -0.111287519 6.77307653
v -0.959877193 0.111287326 6.77307653
v -2.07536888 -0.111287482 5.64789104
v -0.959877193 -0.111287519 6.77307653
v 0.94260174 -0.111287534 6.06140852
v 2.15454888 -0.111287564 5.67224407
v 2.15454888 0.111287281 5.67224407
v 0.94260174 0.111287311 6.06140852
v -0.959877193 0.111287326 6.77307653
v -2.07536888 0.111287363 5.64789104
v 2.15454888 -0.111287564 5.67224407
v 0.94260174 -0.111287534 6.06140852
v 0.94260174 0.111287311 6.06140852
v 2.15454888 0.111287281 5.67224407
vt 0.438839078 0
vt 0.438839048 0.249999985
vt 0.625 0.25
vt 0.625 0
vt 0.438839048 0.249999985
vt 0.438839048 0.5
vt 0.625 0.5
vt 0.625 0.25
vt 0.438839048 0.5
vt 0.438839048 0.75
vt 0.625 0.75
vt 0.625 0.5
vt 0.438839048 0.75
vt 0.438839048 1
vt 0.625 1
vt 0.625 0.75
vt 0.125 0.5
vt 0.125 0.75
vt 0.375 0.75
vt 0.375 0.5
vt 0.625 0.25
vt 0.625 0.25
vt 0.625 0
vt 0.625 0
vt 0.375 0.75
vt 0.375 1
vt 0.438839048 1
vt 0.438839048 0.75
vt 0.375 0.5
vt 0.375 0.75
vt 0.438839048 0.75
vt 0.438839048 0.5
vt 0.375 0.25
vt 0.375 0.5
vt 0.438839048 0.5
vt 0.438839048 0.249999985
vt 0.375 0
vt 0.375 0.25
vt 0.438839048 0.249999985
vt 0.438839078 0
vt 0.625 0.5
vt 0.625 0.75
vt 0.875 0.75
vt 0.875 0.5
vt 0.625 1
vt 0.625 1
vt 0.625 0.75
vt 0.625 0.75
vt 0.625 0.5
vt 0.625 0.5
vt 0.625 0.25
vt 0.625 0.25
vt 0.625 0.75
vt 0.625 0.75
vt 0.625 0.5
vt 0.625 0.5
vn -0.992547691 0 -0.12185695
vn -0.992547691 0 -0.12185695
vn -0.992547691 0 -0.12185695
vn -0.992547691 0 -0.12185695
vn -0 1 0
vn -0 1 0
vn -0 1 0
vn -0 1 0
vn 0.996655226 0 -0.0817209557
vn 0.996655226 0 -0.0817209557
vn 0.996655226 0 -0.0817209557
vn 0.996655226 0 -0.0817209557
vn -0 -1 0
vn -0 -1 0
vn -0 -1 0
vn -0 -1 0
vn -0 0 -1
vn -0 0 -1
vn -0 0 -1
vn -0 0 -1
vn -0.710159242 0 0.704041064
vn -0.710159242 0 0.704041064
vn -0.710159242 0 0.704041064
vn -0.710159242 0 0.704041064
vn -0 -1 0
vn -0 -1 0
vn -0 -1 0
vn -0 -1 0
vn 0.953089416 0 -0.302688926
vn 0.953089416 0 -0.302688926
vn 0.953089416 0 -0.302688926
vn 0.953089416 0 -0.302688926
vn -0 1 0
vn -0 1 0
vn -0 1 0
vn -0 1 0
vn -0.959574163 0 -0.281455815
vn -0.959574163 0 -0.281455815
vn -0.959574163 0 -0.281455815
vn -0.959574163 0 -0.281455815
vn 0.350363076 0 0.936613977
vn 0.350363076 0 0.936613977
vn 0.350363076 0 0.936613977
vn 0.350363076 0 0.936613977
vn -0 -1 0
vn -0 -1 0
vn -0 -1 0
vn -0 -1 0
vn -0 1 0
vn -0 1 0
vn -0 1 0
vn -0 1 0
vn 0.305731386 0 0.952117801
vn 0.305731386 0 0.952117801
vn 0.305731386 0 0.952117801
vn 0.305731386 0 0.952117801
g HanzoCol_0
f 3/3/3 2/2/2 1/1/1
f 4/4/4 3/3/3 1/1/1
f 7/7/7 6/6/6 5/5/5
f 8/8/8 7/7/7 5/5/5
f 11/11/11 10/10/10 9/9/9
f 12/12/12 11/11/11 9/9/9
f 15/15/15 14/14/14 13/13/13
f 16/16/16 15/15/15 13/13/13
f 19/19/19 18/18/18 17/17/17
f 20/20/20 19/19/19 17/17/17
f 23/23/23 22/22/22 21/21/21
f 24/24/24 23/23/23 21/21/21
f 27/27/27 26/26/26 25/25/25
f 28/28/28 27/27/27 25/25/25
f 31/31/31 30/30/30 29/29/29
f 32/32/32 31/31/31 29/29/29
f 35/35/35 34/34/34 33/33/33
f 36/36/36 35/35/35 33/33/33
f 39/39/39 38/38/38 37/37/37
f 40/40/40 39/39/39 37/37/37
f 43/43/43 42/42/42 41/41/41
f 44/44/44 43/43/43 41/41/41
f 47/47/47 46/46/46 45/45/45
f 48/48/48 47/47/47 45/45/45
f 51/51/51 50/50/50 49/49/49
f 52/52/52 51/51/51 49/49/49
f 55/55/55 54/54/54 53/53/53
f 56/56/56 55/55/55 53/53/53
