g ImperialGuardCol
v -1.76759458 -0.111287415 4.74786949
v -1.76759458 0.11128743 4.74786949
v -1.3619107 0.111287542 5.46543884
v -1.3619107 -0.111287303 5.46543884
v -1.76759458 0.11128743 4.74786949
v 1.79006946 0.111287475 5.96314859
v -1.3619107 0.111287542 5.46543884
v 1.68450856 0.111287951 2.04074883
v -1.47205806 0.111287415 0.309901953
v 1.573246 0.111287415 0.309901953
v -1.76759458 0.11128743 4.74786949
v 1.68450856 0.111287951 2.04074883
v 1.79006946 -0.11128737 5.96314859
v 1.79006946 0.111287475 5.96314859
v 1.68450856 -0.111286893 2.04074883
v 1.573246 0.111287415 0.309901953
v 1.573246 -0.11128743 0.309901953
v 1.68450856 -0.111286893 2.04074883
v -1.76759458 -0.111287415 4.74786949
v -1.3619107 -0.111287303 5.46543884
v 1.79006946 -0.11128737 5.96314859
v 1.573246 -0.11128743 0.309901953
v -1.76759458 -0.111287415 4.74786949
v -1.47205806 -0.11128743 0.309901953
v -1.47205806 0.111287415 0.309901953
v -1.47205806 -0.11128743 0.309901953
v 1.573246 -0.11128743 0.309901953
v 1.573246 0.111287415 0.309901953
v 1.79006946 0.111287475 5.96314859
v 1.79006946 -0.11128737 5.96314859
v -1.3619107 -0.111287303 5.46543884
v -1.3619107 0.111287542 5.46543884
v -1.47205806 -0.11128743 0.309901953
v -1.47205806 0.111287415 0.309901953
v -1.76759458 0.11128743 4.74786949
v -1.76759458 -0.111287415 4.74786949
vt 0.438839078 0
vt 0.438839048 0.249999985
vt 0.625 0.25
vt 0.625 0
vt 0.438839048 0.249999985
vt 0.625 0.5
vt 0.625 0.25
vt 0.438839048 0.5
vt 0.375 0.25
vt 0.375 0.5
vt 0.438839048 0.249999985
vt 0.438839048 0.5
vt 0.625 0.75
vt 0.625 0.5
vt 0.438839048 0.75
vt 0.375 0.5
vt 0.375 0.75
vt 0.438839048 0.75
vt 0.438839048 1
vt 0.625 1
vt 0.625 0.75
vt 0.375 0.75
vt 0.438839048 1
vt 0.375 1
vt 0.125 0.5
vt 0.125 0.75
vt 0.375 0.75
vt 0.375 0.5
vt 0.625 0.5
vt 0.625 0.75
vt 0.875 0.75
vt 0.875 0.5
vt 0.375 0
vt 0.375 0.25
vt 0.438839048 0.249999985
vt 0.438839078 0
vn -0.87051028 0 0.492150158
vn -0.87051028 0 0.492150158
vn -0.87051028 0 0.492150158
vn -0.87051028 0 0.492150158
vn -0 1 0
vn -0 1 0
vn -0 1 0
vn -0 1 0
vn -0 1 0
vn -0 1 0
vn -0 1 0
vn 0.999638081 0 -0.0269025844
vn 0.999638081 0 -0.0269025844
vn 0.999638081 0 -0.0269025844
vn 0.999638081 0 -0.0269025844
vn 0.997940242 0 -0.0641497448
vn 0.997940242 0 -0.0641497448
vn -0 -1 0
vn -0 -1 0
vn -0 -1 0
vn -0 -1 0
vn -0 -1 0
vn -0 -1 0
vn -0 -1 0
vn -0 0 -1
vn -0 0 -1
vn -0 0 -1
vn -0 0 -1
vn -0.155971393 0 0.987761497
vn -0.155971393 0 0.987761497
vn -0.155971393 0 0.987761497
vn -0.155971393 0 0.987761497
vn -0.997790098 0 -0.066445604
vn -0.997790098 0 -0.066445604
vn -0.997790098 0 -0.066445604
vn -0.997790098 0 -0.066445604
g ImperialGuardCol_0
f 3/3/3 2/2/2 1/1/1
f 4/4/4 3/3/3 1/1/1
f 7/7/7 6/6/6 5/5/5
f 6/6/6 8/8/8 5/5/5
f 8/8/8 10/10/10 9/9/9
f 11/11/11 8/8/8 9/9/9
f 14/14/14 13/13/13 12/12/12
f 13/13/13 15/15/15 12/12/12
f 12/12/12 15/15/15 16/16/16
f 15/15/15 17/17/17 16/16/16
f 20/20/20 19/19/19 18/18/18
f 21/21/21 20/20/20 18/18/18
f 18/18/18 23/23/23 22/22/22
f 23/23/23 24/24/24 22/22/22
f 27/27/27 26/26/26 25/25/25
f 28/28/28 27/27/27 25/25/25
f 31/31/31 30/30/30 29/29/29
f 32/32/32 31/31/31 29/29/29
f 35/35/35 34/34/34 33/33/33
f 36/36/36 35/35/35 33/33/33
