g RangersCol
v -1.0436343 -0.11128743 2.32105064
v -0.669360518 0.111287393 4.00510359
v -0.669360518 -0.111287452 4.00510359
v -1.0436343 0.111287415 2.32105064
v -1.55019855 -0.11128743 0.309901953
v -1.55019855 0.111287415 0.309901953
v -1.0436343 0.111287415 2.32105064
v 1.15637839 0.111287795 2.21436906
v 0.7657125 0.111287579 4.25588751
v -0.669360518 0.111287393 4.00510359
v 1.15637839 0.111287795 2.21436906
v 0.7657125 -0.111287266 4.25588751
v 0.7657125 0.111287579 4.25588751
v 1.15637839 -0.11128705 2.21436906
v 1.53657913 0.111287415 0.309901953
v 1.53657913 -0.11128743 0.309901953
v 1.15637839 -0.11128705 2.21436906
v -1.0436343 -0.11128743 2.32105064
v -0.669360518 -0.111287452 4.00510359
v 0.7657125 -0.111287266 4.25588751
v -1.55019855 0.111287415 0.309901953
v -1.55019855 -0.11128743 0.309901953
v 1.53657913 -0.11128743 0.309901953
v 1.53657913 0.111287415 0.309901953
v 0.7657125 0.111287579 4.25588751
v 0.7657125 -0.111287266 4.25588751
v -0.669360518 -0.111287452 4.00510359
v -0.669360518 0.111287393 4.00510359
v 1.53657913 -0.11128743 0.309901953
v -1.55019855 -0.11128743 0.309901953
v -1.0436343 -0.11128743 2.32105064
v 1.15637839 -0.11128705 2.21436906
v -1.55019855 0.111287415 0.309901953
v 1.53657913 0.111287415 0.309901953
v 1.15637839 0.111287795 2.21436906
v -1.0436343 0.111287415 2.32105064
vt 0.438839078 0
vt 0.625 0.25
vt 0.625 0
vt 0.438839048 0.249999985
vt 0.375 0
vt 0.375 0.25
vt 0.438839048 0.249999985
vt 0.438839048 0.5
vt 0.625 0.5
vt 0.625 0.25
vt 0.438839048 0.5
vt 0.625 0.75
vt 0.625 0.5
vt 0.438839048 0.75
vt 0.375 0.5
vt 0.375 0.75
vt 0.438839048 0.75
vt 0.438839048 1
vt 0.625 1
vt 0.625 0.75
vt 0.125 0.5
vt 0.125 0.75
vt 0.375 0.75
vt 0.375 0.5
vt 0.625 0.5
vt 0.625 0.75
vt 0.875 0.75
vt 0.875 0.5
vt 0.375 0.75
vt 0.375 1
vt 0.438839048 1
vt 0.438839048 0.75
vt 0.375 0.25
vt 0.375 0.5
vt 0.438839048 0.5
vt 0.438839048 0.249999985
vn -0.976182222 0 0.216952428
vn -0.976182222 0 0.216952428
vn -0.976182222 0 0.216952428
vn -0.976182222 0 0.216952428
vn -0.969712436 0 0.244249314
vn -0.969712436 0 0.244249314
vn -0 1 0
vn -0 1 0
vn -0 1 0
vn -0 1 0
vn 0.982178509 0 0.187950134
vn 0.982178509 0 0.187950134
vn 0.982178509 0 0.187950134
vn 0.982178509 0 0.187950134
vn 0.980649233 0 0.195773169
vn 0.980649233 0 0.195773169
vn -0 -1 0
vn -0 -1 0
vn -0 -1 0
vn -0 -1 0
vn -0 0 -1
vn -0 0 -1
vn -0 0 -1
vn -0 0 -1
vn -0.172144651 0 0.985071659
vn -0.172144651 0 0.985071659
vn -0.172144651 0 0.985071659
vn -0.172144651 0 0.985071659
vn -0 -1 0
vn -0 -1 0
vn -0 -1 0
vn -0 -1 0
vn -0 1 0
vn -0 1 0
vn -0 1 0
vn -0 1 0
g RangersCol_0
f 3/3/3 2/2/2 1/1/1
f 2/2/2 4/4/4 1/1/1
f 1/1/1 4/4/4 5/5/5
f 4/4/4 6/6/6 5/5/5
f 9/9/9 8/8/8 7/7/7
f 10/10/10 9/9/9 7/7/7
f 13/13/13 12/12/12 11/11/11
f 12/12/12 14/14/14 11/11/11
f 11/11/11 14/14/14 15/15/15
f 14/14/14 16/16/16 15/15/15
f 19/19/19 18/18/18 17/17/17
f 20/20/20 19/19/19 17/17/17
f 23/23/23 22/22/22 21/21/21
f 24/24/24 23/23/23 21/21/21
f 27/27/27 26/26/26 25/25/25
f 28/28/28 27/27/27 25/25/25
f 31/31/31 30/30/30 29/29/29
f 32/32/32 31/31/31 29/29/29
f 35/35/35 34/34/34 33/33/33
f 36/36/36 35/35/35 33/33/33
