g ImperialJuggernautCol
v -0.0950906277 -0.0652009621 3.66958737
v -1.41526711 -0.0652011558 3.6203649
v -1.59643197 -0.0652011856 4.53787804
v -0.0950906873 0.0662668943 3.66958737
v 1.30464256 0.0662672445 3.27690411
v 1.48586202 0.0662669316 4.85689211
v -1.58324838E-07 0.0662669018 0.286494732
v 1.09013784 0.0662669912 0.296451807
v 1.30464232 -0.0652006119 3.27690411
v 1.09013784 -0.0652008653 0.296451807
v 1.67638063E-08 -0.0652009547 0.286494732
v 1.48586202 -0.0652009323 4.85689211
v -0.0950906277 -0.0652009621 3.66958737
v -1.59643197 0.0662666783 4.53787804
v -1.41526711 0.0662667006 3.6203649
v -0.0950906873 0.0662668943 3.66958737
v -0.0950906277 -0.0652009621 3.66958737
v -1.10181892 -0.0652010515 0.286494732
v -1.41526711 -0.0652011558 3.6203649
v -1.10181892 0.0662668049 0.286494732
v -0.0950906873 0.0662668943 3.66958737
v -1.41526711 0.0662667006 3.6203649
v -1.59643197 -0.0652011856 4.53787804
v -1.41526711 -0.0652011558 3.6203649
v -1.41526711 0.0662667006 3.6203649
v -1.59643197 0.0662666783 4.53787804
v -0.113339305 -0.0652010739 5.65688229
v -0.113339573 0.06626679 5.65688229
v 1.48586202 0.0662669316 4.85689211
v 1.48586202 -0.0652009323 4.85689211
v -1.41526711 -0.0652011558 3.6203649
v -1.10181892 -0.0652010515 0.286494732
v -1.10181892 0.0662668049 0.286494732
v -1.41526711 0.0662667006 3.6203649
v -0.0950906277 -0.0652009621 3.66958737
v 1.67638063E-08 -0.0652009547 0.286494732
v -1.10181892 -0.0652010515 0.286494732
v 1.30464232 -0.0652006119 3.27690411
v -1.59643197 -0.0652011856 4.53787804
v -0.113339305 -0.0652010739 5.65688229
v 1.48586202 -0.0652009323 4.85689211
v 1.30464256 0.0662672445 3.27690411
v 1.09013784 0.0662669912 0.296451807
v 1.09013784 -0.0652008653 0.296451807
v 1.30464232 -0.0652006119 3.27690411
v 1.48586202 0.0662669316 4.85689211
v 1.48586202 -0.0652009323 4.85689211
v -1.10181892 0.0662668049 0.286494732
v -1.58324838E-07 0.0662669018 0.286494732
v -0.0950906873 0.0662668943 3.66958737
v 1.30464256 0.0662672445 3.27690411
v 1.48586202 0.0662669316 4.85689211
v -0.113339573 0.06626679 5.65688229
v -1.59643197 0.0662666783 4.53787804
v -0.113339305 -0.0652010739 5.65688229
v -1.59643197 -0.0652011856 4.53787804
v -1.59643197 0.0662666783 4.53787804
v -0.113339573 0.06626679 5.65688229
v 1.67638063E-08 -0.0652009547 0.286494732
v 1.09013784 -0.0652008653 0.296451807
v 1.09013784 0.0662669912 0.296451807
v -1.58324838E-07 0.0662669018 0.286494732
v -1.10181892 -0.0652010515 0.286494732
v -1.10181892 0.0662668049 0.286494732
vt 0.438839018 0.37499997
vt 0.438839048 0.5
vt 0.625 0.5
vt 0.438839078 0.875
vt 0.438839048 1
vt 0.625 1
vt 0.375 0.875
vt 0.375 1
vt 0.438839048 0.249999985
vt 0.375 0.25
vt 0.375 0.375
vt 0.625 0.25
vt 0.438839018 0.37499997
vt 0.625 0.75
vt 0.438839048 0.75
vt 0.438839078 0.875
vt 0.438839018 0.37499997
vt 0.375 0.5
vt 0.438839048 0.5
vt 0.375 0.75
vt 0.438839078 0.875
vt 0.438839048 0.75
vt 0.625 0.5
vt 0.438839048 0.5
vt 0.438839048 0.75
vt 0.625 0.75
vt 0.75 0.5
vt 0.75 0.75
vt 0.875 0.75
vt 0.875 0.5
vt 0.438839048 0.5
vt 0.375 0.5
vt 0.375 0.75
vt 0.438839048 0.75
vt 0.438839018 0.37499997
vt 0.375 0.375
vt 0.375 0.5
vt 0.438839048 0.249999985
vt 0.625 0.5
vt 0.625 0.375
vt 0.625 0.25
vt 0.438839078 0
vt 0.375 0
vt 0.375 0.25
vt 0.438839048 0.249999985
vt 0.625 0
vt 0.625 0.25
vt 0.375 0.75
vt 0.375 0.875
vt 0.438839078 0.875
vt 0.438839048 1
vt 0.625 1
vt 0.625 0.875
vt 0.625 0.75
vt 0.75 0.5
vt 0.625 0.5
vt 0.625 0.75
vt 0.75 0.75
vt 0.24999997 0.49999994
vt 0.125 0.5
vt 0.125 0.75
vt 0.24999997 0.74999994
vt 0.375 0.5
vt 0.375 0.75
vn -0 -1 0
vn -0 -1 0
vn -0 -1 0
vn -0 1 0
vn -0 1 0
vn -0 1 0
vn -0 1 0
vn -0 1 0
vn -0 -1 0
vn -0 -1 0
vn -0 -1 0
vn -0 -1 0
vn -0 -1 0
vn -0 1 0
vn -0 1 0
vn -0 1 0
vn -0 -1 0
vn -0 -1 0
vn -0 -1 0
vn -0 1 0
vn -0 1 0
vn -0 1 0
vn -0.981058478 0 -0.193711936
vn -0.981058478 0 -0.193711936
vn -0.981058478 0 -0.193711936
vn -0.981058478 0 -0.193711951
vn 0.447387993 0 0.894340038
vn 0.447387993 0 0.894340038
vn 0.447387993 0 0.894340038
vn 0.447387844 0 0.894340038
vn -0.995609343 0 -0.0936065018
vn -0.995609343 0 -0.0936065018
vn -0.995609343 0 -0.0936065018
vn -0.995609343 0 -0.0936065242
vn -0 -1 0
vn -0 -1 0
vn -0 -1 0
vn -0 -1 0
vn -0 -1 0
vn -0 -1 0
vn -0 -1 0
vn 0.993486524 0 -0.113949575
vn 0.997420192 0 -0.0717848465
vn 0.997420192 0 -0.0717848465
vn 0.993486524 0 -0.113949575
vn 0.993486524 0 -0.113949575
vn 0.993486524 0 -0.113949865
vn -0 1 0
vn -0 1 0
vn -0 1 0
vn -0 1 0
vn -0 1 0
vn -0 1 0
vn -0 1 0
vn -0.602300584 0 0.798269451
vn -0.602300584 0 0.798269451
vn -0.602300584 0 0.798269451
vn -0.602300167 0 0.798269749
vn -0 0 -1
vn 0.00913340785 0 -0.999958277
vn 0.00913340785 0 -0.999958277
vn -0 0 -1
vn -0 0 -1
vn -0 0 -1
g ImperialJuggernautCol_0
f 3/3/3 2/2/2 1/1/1
f 6/6/6 5/5/5 4/4/4
f 5/5/5 8/8/8 7/7/7
f 11/11/11 10/10/10 9/9/9
f 13/13/13 9/9/9 12/12/12
f 16/16/16 15/15/15 14/14/14
f 19/19/19 18/18/18 17/17/17
f 22/22/22 21/21/21 20/20/20
f 25/25/25 24/24/24 23/23/23
f 26/26/26 25/25/25 23/23/23
f 29/29/29 28/28/28 27/27/27
f 30/30/30 29/29/29 27/27/27
f 33/33/33 32/32/32 31/31/31
f 34/34/34 33/33/33 31/31/31
f 37/37/37 36/36/36 35/35/35
f 35/35/35 36/36/36 38/38/38
f 40/40/40 39/39/39 35/35/35
f 40/40/40 35/35/35 41/41/41
f 44/44/44 43/43/43 42/42/42
f 45/45/45 44/44/44 42/42/42
f 45/45/45 42/42/42 46/46/46
f 47/47/47 45/45/45 46/46/46
f 50/50/50 49/49/49 48/48/48
f 50/50/50 51/51/51 49/49/49
f 53/53/53 52/52/52 50/50/50
f 53/53/53 50/50/50 54/54/54
f 57/57/57 56/56/56 55/55/55
f 58/58/58 57/57/57 55/55/55
f 61/61/61 60/60/60 59/59/59
f 62/62/62 61/61/61 59/59/59
f 62/62/62 59/59/59 63/63/63
f 64/64/64 62/62/62 63/63/63
