g KyushiCol
v -1.21897268 -0.111287631 2.84962559
v -0.78631103 0.111287415 5.33055925
v -0.78631103 -0.111287445 5.33055925
v -1.21897268 0.111287214 2.84962559
v -1.71024323 -0.111287422 0.309901953
v -1.71024323 0.111287422 0.309901953
v -0.209954768 0.111287326 3.12775111
v 1.67680764 0.111287452 3.25154734
v 1.95163274 0.111287378 5.65506697
v -0.257117629 0.1112874 5.84803247
v 1.67680764 0.111287452 3.25154734
v 1.67680764 -0.111287393 3.25154734
v 1.95163274 -0.111287482 5.65506697
v 1.95163274 0.111287378 5.65506697
v -0.209954768 -0.111287519 3.12775111
v -1.21897268 -0.111287631 2.84962559
v -0.78631103 -0.111287445 5.33055925
v -0.257117391 -0.11128746 5.84803247
v 1.67680764 -0.111287393 3.25154734
v -0.209954768 -0.111287519 3.12775111
v 1.95163274 -0.111287482 5.65506697
v -0 0.111287422 0.309901953
v 1.48634183 -0.111287422 0.309901953
v 1.48634183 0.111287422 0.309901953
v 1.41937576E-07 -0.111287422 0.309901953
v -1.71024323 0.111287422 0.309901953
v -1.71024323 -0.111287422 0.309901953
v -0.257117629 0.1112874 5.84803247
v -0.257117391 -0.11128746 5.84803247
v -0.78631103 -0.111287445 5.33055925
v -0.78631103 0.111287415 5.33055925
v 1.41937576E-07 -0.111287422 0.309901953
v -1.71024323 -0.111287422 0.309901953
v -1.21897268 -0.111287631 2.84962559
v -0.209954768 -0.111287519 3.12775111
v 1.48634183 -0.111287422 0.309901953
v 1.41937576E-07 -0.111287422 0.309901953
v 1.67680764 -0.111287393 3.25154734
v 1.48634183 0.111287422 0.309901953
v 1.48634183 -0.111287422 0.309901953
v 1.67680764 -0.111287393 3.25154734
v 1.67680764 0.111287452 3.25154734
v -0 0.111287422 0.309901953
v 1.48634183 0.111287422 0.309901953
v 1.67680764 0.111287452 3.25154734
v -0.209954768 0.111287326 3.12775111
v -1.71024323 0.111287422 0.309901953
v -0 0.111287422 0.309901953
v -0.209954768 0.111287326 3.12775111
v -1.21897268 0.111287214 2.84962559
v -0.209954768 0.111287326 3.12775111
v -0.257117629 0.1112874 5.84803247
v -0.78631103 0.111287415 5.33055925
v 1.95163274 0.111287378 5.65506697
v 1.95163274 -0.111287482 5.65506697
v -0.257117391 -0.11128746 5.84803247
v -0.257117629 0.1112874 5.84803247
vt 0.438839078 0
vt 0.625 0.25
vt 0.625 0
vt 0.438839048 0.249999985
vt 0.375 0
vt 0.375 0.25
vt 0.438839018 0.37499997
vt 0.438839048 0.5
vt 0.625 0.5
vt 0.625 0.375
vt 0.438839048 0.5
vt 0.438839048 0.75
vt 0.625 0.75
vt 0.625 0.5
vt 0.438839078 0.875
vt 0.438839048 1
vt 0.625 1
vt 0.625 0.875
vt 0.438839048 0.75
vt 0.438839078 0.875
vt 0.625 0.75
vt 0.24999997 0.49999994
vt 0.375 0.75
vt 0.375 0.5
vt 0.24999997 0.74999994
vt 0.125 0.5
vt 0.125 0.75
vt 0.75 0.5
vt 0.75 0.75
vt 0.875 0.75
vt 0.875 0.5
vt 0.375 0.875
vt 0.375 1
vt 0.438839048 1
vt 0.438839078 0.875
vt 0.375 0.75
vt 0.375 0.875
vt 0.438839048 0.75
vt 0.375 0.5
vt 0.375 0.75
vt 0.438839048 0.75
vt 0.438839048 0.5
vt 0.375 0.375
vt 0.375 0.5
vt 0.438839048 0.5
vt 0.438839018 0.37499997
vt 0.375 0.25
vt 0.375 0.375
vt 0.438839018 0.37499997
vt 0.438839048 0.249999985
vt 0.438839018 0.37499997
vt 0.625 0.375
vt 0.625 0.25
vt 0.625 0.5
vt 0.625 0.75
vt 0.75 0.75
vt 0.75 0.5
vn -0.985131562 0 0.171801716
vn -0.985131562 0 0.171801716
vn -0.985131562 0 0.171801716
vn -0.985131562 0 0.171801716
vn -0.981800675 0 0.189914256
vn -0.981800675 0 0.189914256
vn -0 1 0
vn -0 1 0
vn -0 1 0
vn -0 1 0
vn 0.99352634 0 -0.113602564
vn 0.99352634 0 -0.113602564
vn 0.99352634 0 -0.113602564
vn 0.99352634 0 -0.113602564
vn -0 -1 0
vn -0 -1 0
vn -0 -1 0
vn -0 -1 0
vn -0 -1 0
vn -0 -1 0
vn -0 -1 0
vn -0 0 -1
vn -0 0 -1
vn -0 0 -1
vn -0 0 -1
vn -0 0 -1
vn -0 0 -1
vn -0.699145198 0 0.714979768
vn -0.699145198 0 0.714979768
vn -0.699145198 0 0.714979768
vn -0.699145198 0 0.714979768
vn -0 -1 0
vn -0 -1 0
vn -0 -1 0
vn -0 -1 0
vn -0 -1 0
vn -0 -1 0
vn -0 -1 0
vn 0.997910321 0 -0.0646127462
vn 0.997910321 0 -0.0646127462
vn 0.997910321 0 -0.0646127462
vn 0.997910321 0 -0.0646127462
vn -0 1 0
vn -0 1 0
vn -0 1 0
vn -0 1 0
vn -0 1 0
vn -0 1 0
vn -0 1 0
vn -0 1 0
vn -0 1 0
vn -0 1 0
vn -0 1 0
vn 0.0870327279 0 0.996205449
vn 0.0870327279 0 0.996205449
vn 0.0870327279 0 0.996205449
vn 0.0870327279 0 0.996205449
g KyushiCol_0
f 3/3/3 2/2/2 1/1/1
f 2/2/2 4/4/4 1/1/1
f 1/1/1 4/4/4 5/5/5
f 4/4/4 6/6/6 5/5/5
f 9/9/9 8/8/8 7/7/7
f 10/10/10 9/9/9 7/7/7
f 13/13/13 12/12/12 11/11/11
f 14/14/14 13/13/13 11/11/11
f 17/17/17 16/16/16 15/15/15
f 18/18/18 17/17/17 15/15/15
f 18/18/18 20/20/20 19/19/19
f 21/21/21 18/18/18 19/19/19
f 24/24/24 23/23/23 22/22/22
f 23/23/23 25/25/25 22/22/22
f 22/22/22 25/25/25 26/26/26
f 25/25/25 27/27/27 26/26/26
f 30/30/30 29/29/29 28/28/28
f 31/31/31 30/30/30 28/28/28
f 34/34/34 33/33/33 32/32/32
f 35/35/35 34/34/34 32/32/32
f 35/35/35 37/37/37 36/36/36
f 38/38/38 35/35/35 36/36/36
f 41/41/41 40/40/40 39/39/39
f 42/42/42 41/41/41 39/39/39
f 45/45/45 44/44/44 43/43/43
f 46/46/46 45/45/45 43/43/43
f 49/49/49 48/48/48 47/47/47
f 50/50/50 49/49/49 47/47/47
f 52/52/52 51/51/51 50/50/50
f 53/53/53 52/52/52 50/50/50
f 56/56/56 55/55/55 54/54/54
f 57/57/57 56/56/56 54/54/54
