g WargsCol
v -1.62957513 -0.111287087 2.14335942
v -1.62957513 0.111287758 2.14335942
v 0.150823295 0.111287564 3.74000216
v 0.150823295 -0.111287281 3.74000216
v -1.62957513 0.111287758 2.14335942
v 2.37774539 0.11128778 1.93656921
v 1.45621109 0.111287452 3.77592969
v 0.150823295 0.111287564 3.74000216
v 2.37774539 0.11128778 1.93656921
v 2.37774539 -0.111287065 1.93656921
v 1.45621109 -0.111287393 3.77592969
v 1.45621109 0.111287452 3.77592969
v 2.37774539 -0.111287065 1.93656921
v -1.62957513 -0.111287087 2.14335942
v 0.150823295 -0.111287281 3.74000216
v 1.45621109 -0.111287393 3.77592969
v -1.25593352 0.111287415 0.309901953
v -1.25593352 -0.11128743 0.309901953
v 1.57208848 -0.11128743 0.309901953
v 1.57208848 0.111287415 0.309901953
v 1.45621109 0.111287452 3.77592969
v 1.45621109 -0.111287393 3.77592969
v 0.150823295 -0.111287281 3.74000216
v 0.150823295 0.111287564 3.74000216
v 1.57208848 -0.11128743 0.309901953
v -1.25593352 -0.11128743 0.309901953
v -1.62957513 -0.111287087 2.14335942
v 2.37774539 -0.111287065 1.93656921
v 1.57208848 0.111287415 0.309901953
v 1.57208848 -0.11128743 0.309901953
v 2.37774539 -0.111287065 1.93656921
v 2.37774539 0.11128778 1.93656921
v -1.25593352 0.111287415 0.309901953
v 1.57208848 0.111287415 0.309901953
v 2.37774539 0.11128778 1.93656921
v -1.62957513 0.111287758 2.14335942
v -1.25593352 -0.11128743 0.309901953
v -1.25593352 0.111287415 0.309901953
v -1.62957513 0.111287758 2.14335942
v -1.62957513 -0.111287087 2.14335942
vt 0.438839078 0
vt 0.438839048 0.249999985
vt 0.625 0.25
vt 0.625 0
vt 0.438839048 0.249999985
vt 0.438839048 0.5
vt 0.625 0.5
vt 0.625 0.25
vt 0.438839048 0.5
vt 0.438839048 0.75
vt 0.625 0.75
vt 0.625 0.5
vt 0.438839048 0.75
vt 0.438839048 1
vt 0.625 1
vt 0.625 0.75
vt 0.125 0.5
vt 0.125 0.75
vt 0.375 0.75
vt 0.375 0.5
vt 0.625 0.5
vt 0.625 0.75
vt 0.875 0.75
vt 0.875 0.5
vt 0.375 0.75
vt 0.375 1
vt 0.438839048 1
vt 0.438839048 0.75
vt 0.375 0.5
vt 0.375 0.75
vt 0.438839048 0.75
vt 0.438839048 0.5
vt 0.375 0.25
vt 0.375 0.5
vt 0.438839048 0.5
vt 0.438839048 0.249999985
vt 0.375 0
vt 0.375 0.25
vt 0.438839048 0.249999985
vt 0.438839078 0
vn -0.667643189 0 0.744481385
vn -0.667643189 0 0.744481385
vn -0.667643189 0 0.744481385
vn -0.667643189 0 0.744481385
vn -0 1 0
vn -0 1 0
vn -0 1 0
vn -0 1 0
vn 0.894066453 0 0.447934419
vn 0.894066453 0 0.447934419
vn 0.894066453 0 0.447934419
vn 0.894066453 0 0.447934419
vn -0 -1 0
vn -0 -1 0
vn -0 -1 0
vn -0 -1 0
vn -0 0 -1
vn -0 0 -1
vn -0 0 -1
vn -0 0 -1
vn -0.0275120512 0 0.999621511
vn -0.0275120512 0 0.999621511
vn -0.0275120512 0 0.999621511
vn -0.0275120512 0 0.999621511
vn -0 -1 0
vn -0 -1 0
vn -0 -1 0
vn -0 -1 0
vn 0.896112323 0 -0.443827152
vn 0.896112323 0 -0.443827152
vn 0.896112323 0 -0.443827152
vn 0.896112323 0 -0.443827152
vn -0 1 0
vn -0 1 0
vn -0 1 0
vn -0 1 0
vn -0.979859889 0 -0.199686319
vn -0.979859889 0 -0.199686319
vn -0.979859889 0 -0.199686319
vn -0.979859889 0 -0.199686319
g WargsCol_0
f 3/3/3 2/2/2 1/1/1
f 4/4/4 3/3/3 1/1/1
f 7/7/7 6/6/6 5/5/5
f 8/8/8 7/7/7 5/5/5
f 11/11/11 10/10/10 9/9/9
f 12/12/12 11/11/11 9/9/9
f 15/15/15 14/14/14 13/13/13
f 16/16/16 15/15/15 13/13/13
f 19/19/19 18/18/18 17/17/17
f 20/20/20 19/19/19 17/17/17
f 23/23/23 22/22/22 21/21/21
f 24/24/24 23/23/23 21/21/21
f 27/27/27 26/26/26 25/25/25
f 28/28/28 27/27/27 25/25/25
f 31/31/31 30/30/30 29/29/29
f 32/32/32 31/31/31 29/29/29
f 35/35/35 34/34/34 33/33/33
f 36/36/36 35/35/35 33/33/33
f 39/39/39 38/38/38 37/37/37
f 40/40/40 39/39/39 37/37/37
