g EliteArcherCol
v -0.525996387 -0.11128784 1.94671714
v -0.289909482 0.111287631 3.49759316
v -0.289909482 -0.111287221 3.49759316
v -0.525996387 0.111287005 1.94671714
v -0.763699591 -0.111287422 0.309901953
v -0.763699591 0.111287422 0.309901953
v 0.246090904 0.111287504 2.18929529
v 1.01088762 0.111287348 2.57254815
v 0.775719702 0.111287721 3.71387005
v 0.143371046 0.111287616 3.82932162
v 1.01088762 0.111287348 2.57254815
v 1.01088762 -0.111287497 2.57254815
v 0.775719702 -0.111287132 3.71387005
v 0.775719702 0.111287721 3.71387005
v 0.00589836016 0.111287422 0.309901953
v 0.792525411 -0.111287422 0.309901953
v 0.792525411 0.111287422 0.309901953
v 0.00589842955 -0.111287422 0.309901953
v -0.763699591 0.111287422 0.309901953
v -0.763699591 -0.111287422 0.309901953
v 0.143371046 0.111287616 3.82932162
v 0.14337106 -0.111287236 3.82932162
v -0.289909482 -0.111287221 3.49759316
v -0.289909482 0.111287631 3.49759316
v 0.00589842955 -0.111287422 0.309901953
v -0.763699591 -0.111287422 0.309901953
v -0.525996387 -0.11128784 1.94671714
v 0.246090904 -0.111287341 2.18929529
v 0.792525411 -0.111287422 0.309901953
v 1.01088762 -0.111287497 2.57254815
v -0.289909482 -0.111287221 3.49759316
v 0.14337106 -0.111287236 3.82932162
v 1.01088762 -0.111287497 2.57254815
v 0.246090904 -0.111287341 2.18929529
v 0.775719702 -0.111287132 3.71387005
v 0.792525411 0.111287422 0.309901953
v 0.792525411 -0.111287422 0.309901953
v 1.01088762 -0.111287497 2.57254815
v 1.01088762 0.111287348 2.57254815
v 0.00589836016 0.111287422 0.309901953
v 0.792525411 0.111287422 0.309901953
v 1.01088762 0.111287348 2.57254815
v 0.246090904 0.111287504 2.18929529
v -0.763699591 0.111287422 0.309901953
v -0.525996387 0.111287005 1.94671714
v 0.143371046 0.111287616 3.82932162
v -0.289909482 0.111287631 3.49759316
v 0.775719702 0.111287721 3.71387005
v 0.775719702 -0.111287132 3.71387005
v 0.14337106 -0.111287236 3.82932162
v 0.143371046 0.111287616 3.82932162
vt 0.438839078 0
vt 0.625 0.25
vt 0.625 0
vt 0.438839048 0.249999985
vt 0.375 0
vt 0.375 0.25
vt 0.438839018 0.37499997
vt 0.438839048 0.5
vt 0.625 0.5
vt 0.625 0.375
vt 0.438839048 0.5
vt 0.438839048 0.75
vt 0.625 0.75
vt 0.625 0.5
vt 0.24999997 0.49999994
vt 0.375 0.75
vt 0.375 0.5
vt 0.24999997 0.74999994
vt 0.125 0.5
vt 0.125 0.75
vt 0.75 0.5
vt 0.75 0.75
vt 0.875 0.75
vt 0.875 0.5
vt 0.375 0.875
vt 0.375 1
vt 0.438839048 1
vt 0.438839078 0.875
vt 0.375 0.75
vt 0.438839048 0.75
vt 0.625 1
vt 0.625 0.875
vt 0.438839048 0.75
vt 0.438839078 0.875
vt 0.625 0.75
vt 0.375 0.5
vt 0.375 0.75
vt 0.438839048 0.75
vt 0.438839048 0.5
vt 0.375 0.375
vt 0.375 0.5
vt 0.438839048 0.5
vt 0.438839018 0.37499997
vt 0.375 0.25
vt 0.438839048 0.249999985
vt 0.625 0.375
vt 0.625 0.25
vt 0.625 0.5
vt 0.625 0.75
vt 0.75 0.75
vt 0.75 0.5
vn -0.988610923 0 0.150494352
vn -0.988610923 0 0.150494352
vn -0.988610923 0 0.150494352
vn -0.988610923 0 0.150494352
vn -0.989619076 0 0.143715426
vn -0.989619076 0 0.143715426
vn -0 1 0
vn -0 1 0
vn -0 1 0
vn -0 1 0
vn 0.979424834 0 0.201809227
vn 0.979424834 0 0.201809227
vn 0.979424834 0 0.201809227
vn 0.979424834 0 0.201809227
vn -0 0 -1
vn -0 0 -1
vn -0 0 -1
vn -0 0 -1
vn -0 0 -1
vn -0 0 -1
vn -0.607908309 0 0.794007242
vn -0.607908309 0 0.794007242
vn -0.607908309 0 0.794007242
vn -0.607908309 0 0.794007242
vn -0 -1 0
vn -0 -1 0
vn -0 -1 0
vn -0 -1 0
vn -0 -1 0
vn -0 -1 0
vn -0 -1 0
vn -0 -1 0
vn -0 -1 0
vn -0 -1 0
vn -0 -1 0
vn 0.995375395 0 -0.0960611328
vn 0.995375395 0 -0.0960611328
vn 0.995375395 0 -0.0960611328
vn 0.995375395 0 -0.0960611328
vn -0 1 0
vn -0 1 0
vn -0 1 0
vn -0 1 0
vn -0 1 0
vn -0 1 0
vn -0 1 0
vn -0 1 0
vn 0.179607153 0 0.983738422
vn 0.179607153 0 0.983738422
vn 0.179607153 0 0.983738422
vn 0.179607153 0 0.983738422
g EliteArcherCol_0
f 3/3/3 2/2/2 1/1/1
f 2/2/2 4/4/4 1/1/1
f 1/1/1 4/4/4 5/5/5
f 4/4/4 6/6/6 5/5/5
f 9/9/9 8/8/8 7/7/7
f 10/10/10 9/9/9 7/7/7
f 13/13/13 12/12/12 11/11/11
f 14/14/14 13/13/13 11/11/11
f 17/17/17 16/16/16 15/15/15
f 16/16/16 18/18/18 15/15/15
f 15/15/15 18/18/18 19/19/19
f 18/18/18 20/20/20 19/19/19
f 23/23/23 22/22/22 21/21/21
f 24/24/24 23/23/23 21/21/21
f 27/27/27 26/26/26 25/25/25
f 28/28/28 27/27/27 25/25/25
f 28/28/28 25/25/25 29/29/29
f 30/30/30 28/28/28 29/29/29
f 31/31/31 27/27/27 28/28/28
f 32/32/32 31/31/31 28/28/28
f 32/32/32 34/34/34 33/33/33
f 35/35/35 32/32/32 33/33/33
f 38/38/38 37/37/37 36/36/36
f 39/39/39 38/38/38 36/36/36
f 42/42/42 41/41/41 40/40/40
f 43/43/43 42/42/42 40/40/40
f 43/43/43 40/40/40 44/44/44
f 45/45/45 43/43/43 44/44/44
f 46/46/46 43/43/43 45/45/45
f 47/47/47 46/46/46 45/45/45
f 50/50/50 49/49/49 48/48/48
f 51/51/51 50/50/50 48/48/48
