g EliteWarriorCol
v -0.889871836 -0.11128784 3.22201061
v -0.889871836 0.111287005 3.22201061
v -0.824060082 0.111287683 3.43627739
v -0.824060082 -0.111287169 3.43627739
v -0.0278828591 0.111287504 3.12171578
v 0.421061039 0.111287348 3.25702786
v 0.359081924 0.111287676 3.76874232
v -0.102740616 0.111287624 3.86498737
v -0.889871836 0.111287005 3.22201061
v -0.824060082 0.111287683 3.43627739
v -0.0278828591 0.111287504 3.12171578
v -0.767594278 0.111287422 0.309901953
v 0.0115507217 0.111287422 0.309901953
v -0.889871836 0.111287005 3.22201061
v 0.0115507217 0.111287422 0.309901953
v 0.421061039 0.111287348 3.25702786
v 0.808653831 0.111287422 0.309901953
v 0.421061039 0.111287348 3.25702786
v 0.359081924 -0.111287177 3.76874232
v 0.359081924 0.111287676 3.76874232
v 0.421061039 -0.111287497 3.25702786
v 0.808653831 0.111287422 0.309901953
v 0.808653831 -0.111287422 0.309901953
v -0.0278828591 -0.111287341 3.12171578
v -0.889871836 -0.11128784 3.22201061
v -0.824060082 -0.111287169 3.43627739
v -0.102740616 -0.111287229 3.86498737
v 0.421061039 -0.111287497 3.25702786
v -0.0278828591 -0.111287341 3.12171578
v 0.359081924 -0.111287177 3.76874232
v 0.808653831 -0.111287422 0.309901953
v 0.0115507571 -0.111287422 0.309901953
v 0.421061039 -0.111287497 3.25702786
v 0.0115507571 -0.111287422 0.309901953
v -0.889871836 -0.11128784 3.22201061
v -0.767594278 -0.111287422 0.309901953
v 0.0115507217 0.111287422 0.309901953
v 0.808653831 -0.111287422 0.309901953
v 0.808653831 0.111287422 0.309901953
v 0.0115507571 -0.111287422 0.309901953
v -0.767594278 0.111287422 0.309901953
v -0.767594278 -0.111287422 0.309901953
v -0.102740616 0.111287624 3.86498737
v -0.102740616 -0.111287229 3.86498737
v -0.824060082 -0.111287169 3.43627739
v -0.824060082 0.111287683 3.43627739
v -0.767594278 -0.111287422 0.309901953
v -0.767594278 0.111287422 0.309901953
v -0.889871836 0.111287005 3.22201061
v -0.889871836 -0.11128784 3.22201061
v 0.359081924 0.111287676 3.76874232
v 0.359081924 -0.111287177 3.76874232
v -0.102740616 -0.111287229 3.86498737
v -0.102740616 0.111287624 3.86498737
vt 0.438839078 0
vt 0.438839048 0.249999985
vt 0.625 0.25
vt 0.625 0
vt 0.438839018 0.37499997
vt 0.438839048 0.5
vt 0.625 0.5
vt 0.625 0.375
vt 0.438839048 0.249999985
vt 0.625 0.25
vt 0.438839018 0.37499997
vt 0.375 0.25
vt 0.375 0.375
vt 0.438839048 0.249999985
vt 0.375 0.375
vt 0.438839048 0.5
vt 0.375 0.5
vt 0.438839048 0.5
vt 0.625 0.75
vt 0.625 0.5
vt 0.438839048 0.75
vt 0.375 0.5
vt 0.375 0.75
vt 0.438839078 0.875
vt 0.438839048 1
vt 0.625 1
vt 0.625 0.875
vt 0.438839048 0.75
vt 0.438839078 0.875
vt 0.625 0.75
vt 0.375 0.75
vt 0.375 0.875
vt 0.438839048 0.75
vt 0.375 0.875
vt 0.438839048 1
vt 0.375 1
vt 0.24999997 0.49999994
vt 0.375 0.75
vt 0.375 0.5
vt 0.24999997 0.74999994
vt 0.125 0.5
vt 0.125 0.75
vt 0.75 0.5
vt 0.75 0.75
vt 0.875 0.75
vt 0.875 0.5
vt 0.375 0
vt 0.375 0.25
vt 0.438839048 0.249999985
vt 0.438839078 0
vt 0.625 0.5
vt 0.625 0.75
vt 0.75 0.75
vt 0.75 0.5
vn -0.955924988 0 0.29361105
vn -0.955924988 0 0.29361105
vn -0.955924988 0 0.29361105
vn -0.955924988 0 0.29361105
vn -0 1 0
vn -0 1 0
vn -0 1 0
vn -0 1 0
vn -0 1 0
vn -0 1 0
vn -0 1 0
vn -0 1 0
vn -0 1 0
vn -0 1 0
vn -0 1 0
vn -0 1 0
vn -0 1 0
vn 0.992744684 0 0.120241694
vn 0.992744684 0 0.120241694
vn 0.992744684 0 0.120241694
vn 0.992744684 0 0.120241694
vn 0.991462409 0 0.130392686
vn 0.991462409 0 0.130392686
vn -0 -1 0
vn -0 -1 0
vn -0 -1 0
vn -0 -1 0
vn -0 -1 0
vn -0 -1 0
vn -0 -1 0
vn -0 -1 0
vn -0 -1 0
vn -0 -1 0
vn -0 -1 0
vn -0 -1 0
vn -0 -1 0
vn -0 0 -1
vn -0 0 -1
vn -0 0 -1
vn -0 0 -1
vn -0 0 -1
vn -0 0 -1
vn -0.510914683 0 0.859631479
vn -0.510914683 0 0.859631479
vn -0.510914683 0 0.859631479
vn -0.510914683 0 0.859631479
vn -0.99911958 0 -0.0419523865
vn -0.99911958 0 -0.0419523865
vn -0.99911958 0 -0.0419523865
vn -0.99911958 0 -0.0419523865
vn 0.204019159 0 0.978966951
vn 0.204019159 0 0.978966951
vn 0.204019159 0 0.978966951
vn 0.204019159 0 0.978966951
g EliteWarriorCol_0
f 3/3/3 2/2/2 1/1/1
f 4/4/4 3/3/3 1/1/1
f 7/7/7 6/6/6 5/5/5
f 8/8/8 7/7/7 5/5/5
f 10/10/10 8/8/8 9/9/9
f 8/8/8 11/11/11 9/9/9
f 11/11/11 13/13/13 12/12/12
f 14/14/14 11/11/11 12/12/12
f 11/11/11 16/16/16 15/15/15
f 16/16/16 17/17/17 15/15/15
f 20/20/20 19/19/19 18/18/18
f 19/19/19 21/21/21 18/18/18
f 18/18/18 21/21/21 22/22/22
f 21/21/21 23/23/23 22/22/22
f 26/26/26 25/25/25 24/24/24
f 27/27/27 26/26/26 24/24/24
f 27/27/27 29/29/29 28/28/28
f 30/30/30 27/27/27 28/28/28
f 24/24/24 32/32/32 31/31/31
f 33/33/33 24/24/24 31/31/31
f 24/24/24 35/35/35 34/34/34
f 35/35/35 36/36/36 34/34/34
f 39/39/39 38/38/38 37/37/37
f 38/38/38 40/40/40 37/37/37
f 37/37/37 40/40/40 41/41/41
f 40/40/40 42/42/42 41/41/41
f 45/45/45 44/44/44 43/43/43
f 46/46/46 45/45/45 43/43/43
f 49/49/49 48/48/48 47/47/47
f 50/50/50 49/49/49 47/47/47
f 53/53/53 52/52/52 51/51/51
f 54/54/54 53/53/53 51/51/51
