g OrgonUnitCol
v -1.56852078 -0.111287542 2.65324187
v -1.56852078 0.111287303 2.65324187
v -1.0901314 0.111287497 4.64651108
v -1.0901314 -0.111287355 4.64651108
v -0.311886489 0.111287594 1.20255458
v 1.60144866 0.111287422 1.46271443
v 1.38380516 0.111287616 3.87349677
v 0.249734521 0.111287579 4.48794413
v -1.56852078 0.111287303 2.65324187
v 0.249734521 0.111287579 4.48794413
v -1.0901314 0.111287497 4.64651108
v 1.60144866 0.111287422 1.46271443
v 1.60144866 -0.111287422 1.46271443
v 1.38380516 -0.111287244 3.87349677
v 1.38380516 0.111287616 3.87349677
v -0.311886489 -0.111287251 1.20255458
v -1.56852078 -0.111287542 2.65324187
v -1.0901314 -0.111287355 4.64651108
v 0.24973464 -0.111287273 4.48794413
v 1.60144866 -0.111287422 1.46271443
v -0.311886489 -0.111287251 1.20255458
v 1.38380516 -0.111287244 3.87349677
v 1.629264 -0.111287422 0.309901953
v -0.311886489 -0.111287251 1.20255458
v 0.0176954847 -0.111287422 0.309901953
v 0.0176954847 -0.111287422 0.309901953
v -1.56852078 -0.111287542 2.65324187
v -1.58766353 -0.111287422 0.309901953
v 0.0176954102 0.111287422 0.309901953
v 1.629264 -0.111287422 0.309901953
v 1.629264 0.111287422 0.309901953
v 0.0176954847 -0.111287422 0.309901953
v -1.58766353 0.111287422 0.309901953
v -1.58766353 -0.111287422 0.309901953
v 0.249734521 0.111287579 4.48794413
v 0.24973464 -0.111287273 4.48794413
v -1.0901314 -0.111287355 4.64651108
v -1.0901314 0.111287497 4.64651108
v 1.629264 0.111287422 0.309901953
v 1.629264 -0.111287422 0.309901953
v 1.60144866 -0.111287422 1.46271443
v 1.60144866 0.111287422 1.46271443
v 0.0176954102 0.111287422 0.309901953
v 1.629264 0.111287422 0.309901953
v 1.60144866 0.111287422 1.46271443
v -0.311886489 0.111287594 1.20255458
v -1.58766353 -0.111287422 0.309901953
v -1.58766353 0.111287422 0.309901953
v -1.56852078 0.111287303 2.65324187
v -1.56852078 -0.111287542 2.65324187
v -1.58766353 0.111287422 0.309901953
v 0.0176954102 0.111287422 0.309901953
v -0.311886489 0.111287594 1.20255458
v -1.56852078 0.111287303 2.65324187
v 1.38380516 0.111287616 3.87349677
v 1.38380516 -0.111287244 3.87349677
v 0.24973464 -0.111287273 4.48794413
v 0.249734521 0.111287579 4.48794413
vt 0.438839078 0
vt 0.438839048 0.249999985
vt 0.625 0.25
vt 0.625 0
vt 0.438839018 0.37499997
vt 0.438839048 0.5
vt 0.625 0.5
vt 0.625 0.375
vt 0.438839048 0.249999985
vt 0.625 0.375
vt 0.625 0.25
vt 0.438839048 0.5
vt 0.438839048 0.75
vt 0.625 0.75
vt 0.625 0.5
vt 0.438839078 0.875
vt 0.438839048 1
vt 0.625 1
vt 0.625 0.875
vt 0.438839048 0.75
vt 0.438839078 0.875
vt 0.625 0.75
vt 0.375 0.75
vt 0.438839078 0.875
vt 0.375 0.875
vt 0.375 0.875
vt 0.438839048 1
vt 0.375 1
vt 0.24999997 0.49999994
vt 0.375 0.75
vt 0.375 0.5
vt 0.24999997 0.74999994
vt 0.125 0.5
vt 0.125 0.75
vt 0.75 0.5
vt 0.75 0.75
vt 0.875 0.75
vt 0.875 0.5
vt 0.375 0.5
vt 0.375 0.75
vt 0.438839048 0.75
vt 0.438839048 0.5
vt 0.375 0.375
vt 0.375 0.5
vt 0.438839048 0.5
vt 0.438839018 0.37499997
vt 0.375 0
vt 0.375 0.25
vt 0.438839048 0.249999985
vt 0.438839078 0
vt 0.375 0.25
vt 0.375 0.375
vt 0.438839018 0.37499997
vt 0.438839048 0.249999985
vt 0.625 0.5
vt 0.625 0.75
vt 0.75 0.75
vt 0.75 0.5
vn -0.972386718 0 0.233375147
vn -0.972386718 0 0.233375147
vn -0.972386718 0 0.233375147
vn -0.972386718 0 0.233375147
vn -0 1 0
vn -0 1 0
vn -0 1 0
vn -0 1 0
vn -0 1 0
vn -0 1 0
vn -0 1 0
vn 0.995949507 0 0.0899135321
vn 0.995949507 0 0.0899135321
vn 0.995949507 0 0.0899135321
vn 0.995949507 0 0.0899135321
vn -0 -1 0
vn -0 -1 0
vn -0 -1 0
vn -0 -1 0
vn -0 -1 0
vn -0 -1 0
vn -0 -1 0
vn -0 -1 0
vn -0 -1 0
vn -0 -1 0
vn -0 -1 0
vn -0 -1 0
vn -0 -1 0
vn -0 0 -1
vn -0 0 -1
vn -0 0 -1
vn -0 0 -1
vn -0 0 -1
vn -0 0 -1
vn 0.117525093 0 0.993069947
vn 0.117525093 0 0.993069947
vn 0.117525093 0 0.993069947
vn 0.117525093 0 0.993069947
vn 0.999708951 0 0.0241212212
vn 0.999708951 0 0.0241212212
vn 0.999708951 0 0.0241212212
vn 0.999708951 0 0.0241212212
vn -0 1 0
vn -0 1 0
vn -0 1 0
vn -0 1 0
vn -0.999966621 0 0.00816872902
vn -0.999966621 0 0.00816872902
vn -0.999966621 0 0.00816872902
vn -0.999966621 0 0.00816872902
vn -0 1 0
vn -0 1 0
vn -0 1 0
vn -0 1 0
vn 0.476378679 0 0.879240274
vn 0.476378679 0 0.879240274
vn 0.476378679 0 0.879240274
vn 0.476378679 0 0.879240274
g OrgonUnitCol_0
f 3/3/3 2/2/2 1/1/1
f 4/4/4 3/3/3 1/1/1
f 7/7/7 6/6/6 5/5/5
f 8/8/8 7/7/7 5/5/5
f 10/10/10 5/5/5 9/9/9
f 11/11/11 10/10/10 9/9/9
f 14/14/14 13/13/13 12/12/12
f 15/15/15 14/14/14 12/12/12
f 18/18/18 17/17/17 16/16/16
f 19/19/19 18/18/18 16/16/16
f 19/19/19 21/21/21 20/20/20
f 22/22/22 19/19/19 20/20/20
f 20/20/20 24/24/24 23/23/23
f 24/24/24 25/25/25 23/23/23
f 24/24/24 27/27/27 26/26/26
f 27/27/27 28/28/28 26/26/26
f 31/31/31 30/30/30 29/29/29
f 30/30/30 32/32/32 29/29/29
f 29/29/29 32/32/32 33/33/33
f 32/32/32 34/34/34 33/33/33
f 37/37/37 36/36/36 35/35/35
f 38/38/38 37/37/37 35/35/35
f 41/41/41 40/40/40 39/39/39
f 42/42/42 41/41/41 39/39/39
f 45/45/45 44/44/44 43/43/43
f 46/46/46 45/45/45 43/43/43
f 49/49/49 48/48/48 47/47/47
f 50/50/50 49/49/49 47/47/47
f 53/53/53 52/52/52 51/51/51
f 54/54/54 53/53/53 51/51/51
f 57/57/57 56/56/56 55/55/55
f 58/58/58 57/57/57 55/55/55
