g FatherofthunderCol
v -1.58324838E-07 0.0662669018 0.286494732
v 1.50570309 0.0662670359 0.296451807
v 1.88643384 0.0662672967 3.44313002
v 1.67638063E-08 -0.0652009547 0.286494732
v -1.2561717 -0.0652010664 0.286494732
v -1.7358458 -0.0652011782 3.34727907
v 1.8864336 -0.0652005598 3.44313002
v 1.50570309 -0.0652008206 0.296451807
v 1.67638063E-08 -0.0652009547 0.286494732
v -1.7358458 0.0662666783 3.34727907
v -1.2561717 0.06626679 0.286494732
v -1.58324838E-07 0.0662669018 0.286494732
v 0.191673145 0.066266939 6.93471813
v 1.88643384 0.0662672967 3.44313002
v 1.8864336 -0.0652005598 3.44313002
v 0.191673175 -0.0652009249 6.93471813
v -0.0950906277 -0.0652009621 3.66958737
v -1.7358458 -0.0652011782 3.34727907
v -1.90513754 -0.0652011111 5.57085466
v 1.67638063E-08 -0.0652009547 0.286494732
v 1.8864336 -0.0652005598 3.44313002
v -1.7358458 -0.0652011782 3.34727907
v -1.7358458 0.0662666783 3.34727907
v -1.90513754 0.0662667528 5.57085466
v -1.90513754 -0.0652011111 5.57085466
v -0.0950906873 0.0662668943 3.66958737
v 1.88643384 0.0662672967 3.44313002
v 0.191673145 0.066266939 6.93471813
v -1.44314837 0.0662667975 6.46426582
v -1.90513754 0.0662667528 5.57085466
v -1.44314814 -0.0652010664 6.46426582
v -1.44314837 0.0662667975 6.46426582
v 0.191673145 0.066266939 6.93471813
v 0.191673175 -0.0652009249 6.93471813
v -1.7358458 -0.0652011782 3.34727907
v -1.2561717 -0.0652010664 0.286494732
v -1.2561717 0.06626679 0.286494732
v -1.7358458 0.0662666783 3.34727907
v 1.88643384 0.0662672967 3.44313002
v 1.50570309 0.0662670359 0.296451807
v 1.50570309 -0.0652008206 0.296451807
v 1.8864336 -0.0652005598 3.44313002
v -1.90513754 -0.0652011111 5.57085466
v -1.90513754 0.0662667528 5.57085466
v -1.44314837 0.0662667975 6.46426582
v -1.44314814 -0.0652010664 6.46426582
v 1.67638063E-08 -0.0652009547 0.286494732
v 1.50570309 -0.0652008206 0.296451807
v 1.50570309 0.0662670359 0.296451807
v -1.58324838E-07 0.0662669018 0.286494732
v -1.2561717 -0.0652010664 0.286494732
v -1.2561717 0.06626679 0.286494732
v -1.90513754 0.0662667528 5.57085466
v -1.7358458 0.0662666783 3.34727907
v -0.0950906873 0.0662668943 3.66958737
v -1.58324838E-07 0.0662669018 0.286494732
v 1.88643384 0.0662672967 3.44313002
v 0.191673175 -0.0652009249 6.93471813
v 1.8864336 -0.0652005598 3.44313002
v -0.0950906277 -0.0652009621 3.66958737
v -1.44314814 -0.0652010664 6.46426582
v -1.90513754 -0.0652011111 5.57085466
vt 0.375 0.875
vt 0.375 1
vt 0.438839048 1
vt 0.375 0.375
vt 0.375 0.5
vt 0.438839048 0.5
vt 0.438839048 0.249999985
vt 0.375 0.25
vt 0.375 0.375
vt 0.438839048 0.75
vt 0.375 0.75
vt 0.375 0.875
vt 0.625 0
vt 0.438839078 0
vt 0.438839048 0.249999985
vt 0.625 0.25
vt 0.438839018 0.37499997
vt 0.438839048 0.5
vt 0.625 0.5
vt 0.375 0.375
vt 0.438839048 0.249999985
vt 0.438839048 0.5
vt 0.438839048 0.75
vt 0.625 0.75
vt 0.625 0.5
vt 0.438839078 0.875
vt 0.438839048 1
vt 0.625 1
vt 0.625 0.875
vt 0.625 0.75
vt 0.75 0.5
vt 0.75 0.75
vt 0.875 0.75
vt 0.875 0.5
vt 0.438839048 0.5
vt 0.375 0.5
vt 0.375 0.75
vt 0.438839048 0.75
vt 0.438839078 0
vt 0.375 0
vt 0.375 0.25
vt 0.438839048 0.249999985
vt 0.625 0.5
vt 0.625 0.75
vt 0.75 0.75
vt 0.75 0.5
vt 0.24999997 0.49999994
vt 0.125 0.5
vt 0.125 0.75
vt 0.24999997 0.74999994
vt 0.375 0.5
vt 0.375 0.75
vt 0.625 0.75
vt 0.438839048 0.75
vt 0.438839078 0.875
vt 0.375 0.875
vt 0.438839048 1
vt 0.625 0.25
vt 0.438839048 0.249999985
vt 0.438839018 0.37499997
vt 0.625 0.375
vt 0.625 0.5
vn -0 1 0
vn -0 1 0
vn -0 1 0
vn -0 -1 0
vn -0 -1 0
vn -0 -1 0
vn -0 -1 0
vn -0 -1 0
vn -0 -1 0
vn -0 1 0
vn -0 1 0
vn -0 1 0
vn 0.899624884 0 0.436663508
vn 0.899624884 0 0.436663508
vn 0.899624884 0 0.436663508
vn 0.899625003 0 0.436663359
vn -0 -1 0
vn -0 -1 0
vn -0 -1 0
vn -0 -1 0
vn -0 -1 0
vn -0.997114301 0 -0.0759151801
vn -0.997114301 0 -0.0759151801
vn -0.997114301 0 -0.0759151801
vn -0.997114301 0 -0.0759152249
vn -0 1 0
vn -0 1 0
vn -0 1 0
vn -0 1 0
vn -0 1 0
vn -0.276546478 0 0.961000621
vn -0.276546478 0 0.961000621
vn -0.276546478 0 0.961000621
vn -0.276547432 0 0.961000264
vn -0.987941682 0 -0.154826343
vn -0.987941682 0 -0.154826343
vn -0.987941682 0 -0.154826343
vn -0.987941682 0 -0.154826343
vn 0.992759585 0 -0.120118439
vn 0.992759585 0 -0.120118439
vn 0.992759585 0 -0.120118439
vn 0.992759585 0 -0.12011838
vn -0.888266146 0 0.459329247
vn -0.888266146 0 0.459329247
vn -0.888266146 0 0.459329247
vn -0.888266563 0 0.459328502
vn -0 0 -1
vn 0.00661269762 0 -0.999978185
vn 0.00661269762 0 -0.999978185
vn -0 0 -1
vn -0 0 -1
vn -0 0 -1
vn -0 1 0
vn -0 1 0
vn -0 1 0
vn -0 1 0
vn -0 1 0
vn -0 -1 0
vn -0 -1 0
vn -0 -1 0
vn -0 -1 0
vn -0 -1 0
g FatherofthunderCol_0
f 3/3/3 2/2/2 1/1/1
f 6/6/6 5/5/5 4/4/4
f 9/9/9 8/8/8 7/7/7
f 12/12/12 11/11/11 10/10/10
f 15/15/15 14/14/14 13/13/13
f 16/16/16 15/15/15 13/13/13
f 19/19/19 18/18/18 17/17/17
f 17/17/17 18/18/18 20/20/20
f 17/17/17 20/20/20 21/21/21
f 24/24/24 23/23/23 22/22/22
f 25/25/25 24/24/24 22/22/22
f 28/28/28 27/27/27 26/26/26
f 29/29/29 28/28/28 26/26/26
f 29/29/29 26/26/26 30/30/30
f 33/33/33 32/32/32 31/31/31
f 34/34/34 33/33/33 31/31/31
f 37/37/37 36/36/36 35/35/35
f 38/38/38 37/37/37 35/35/35
f 41/41/41 40/40/40 39/39/39
f 42/42/42 41/41/41 39/39/39
f 45/45/45 44/44/44 43/43/43
f 46/46/46 45/45/45 43/43/43
f 49/49/49 48/48/48 47/47/47
f 50/50/50 49/49/49 47/47/47
f 50/50/50 47/47/47 51/51/51
f 52/52/52 50/50/50 51/51/51
f 55/55/55 54/54/54 53/53/53
f 55/55/55 56/56/56 54/54/54
f 55/55/55 57/57/57 56/56/56
f 60/60/60 59/59/59 58/58/58
f 61/61/61 60/60/60 58/58/58
f 61/61/61 62/62/62 60/60/60
