g GMidCol5
v -0.409716398 0.800799966 0.407152414
v -0.341003329 1.1498673 -0.00254436349
v -1.48696131E-08 1.15464056 -0.00254442659
v -0.409716457 0.800800085 -0.414236784
v -1.48696131E-08 1.15464056 -0.00254442659
v -0.341003329 1.1498673 -0.00254436349
v -0.409716457 0.800800085 -0.414236784
v -4.27122515E-09 0.819986522 5.76360328E-08
v -1.48696131E-08 1.15464056 -0.00254442659
v -0.409716398 0.800799966 0.407152414
v -1.48696131E-08 1.15464056 -0.00254442659
v -4.27122515E-09 0.819986522 5.76360328E-08
v -0.409716457 0.800800085 -0.414236784
v -0.409716398 0.800799966 0.407152414
v -4.27122515E-09 0.819986522 5.76360328E-08
v -0.409716398 0.800799966 0.407152414
v -0.409716457 0.800800085 -0.414236784
v -0.341003329 1.1498673 -0.00254436349
vt 0.5 0.75
vt 0.595095277 0.690190434
vt 0.5 0.5
vt 0.75 0.75
vt 0.75 0.5
vt 0.654904783 0.690190434
vt 0.625 0.875
vt 0.5 0.875
vt 0.5 0.375
vt 0.5 0.75
vt 0.5 0.5
vt 0.5 0.875
vt 0.75 0.75
vt 0.5 0.75
vt 0.5 0.875
vt 0.5 0.75
vt 0.75 0.75
vt 0.654904783 0.690190434
vn -0.0106663611 0.76202172 0.64746362
vn -0.0106663611 0.76202172 0.64746362
vn -0.0106663611 0.76202172 0.64746362
vn -0.0106883394 0.763571203 -0.645635188
vn -0.0106883394 0.763571203 -0.645635188
vn -0.0106883394 0.763571203 -0.645635188
vn 0.711089194 -0.0053457506 -0.703081548
vn 0.711089194 -0.0053457506 -0.703081548
vn 0.711089194 -0.0053457506 -0.703081548
vn 0.704746246 0.00539408484 0.70943892
vn 0.704746246 0.00539408484 0.70943892
vn 0.704746246 0.00539408484 0.70943892
vn 0.046777457 -0.998905301 0
vn 0.046777457 -0.998905301 0
vn 0.046777457 -0.998905301 0
vn -0.981171012 0.193141311 0
vn -0.981171012 0.193141311 0
vn -0.981171012 0.193141311 0
g GMidCol5_0
f 3/3/3 2/2/2 1/1/1
f 6/6/6 5/5/5 4/4/4
f 9/9/9 8/8/8 7/7/7
f 12/12/12 11/11/11 10/10/10
f 15/15/15 14/14/14 13/13/13
f 18/18/18 17/17/17 16/16/16
