g GMidCol7
v 0.409716427 0.800800085 -0.407152265
v 0.341003329 1.1498673 0.00254456699
v 1.46471635E-08 1.15464056 0.00254460075
v 0.409716427 0.800799966 0.414236933
v 1.46471635E-08 1.15464056 0.00254460075
v 0.341003329 1.1498673 0.00254456699
v 0.409716427 0.800799966 0.414236933
v 4.27122515E-09 0.819986522 6.61784867E-08
v 1.46471635E-08 1.15464056 0.00254460075
v 0.409716427 0.800800085 -0.407152265
v 1.46471635E-08 1.15464056 0.00254460075
v 4.27122515E-09 0.819986522 6.61784867E-08
v 0.409716427 0.800799966 0.414236933
v 0.409716427 0.800800085 -0.407152265
v 4.27122515E-09 0.819986522 6.61784867E-08
v 0.409716427 0.800800085 -0.407152265
v 0.409716427 0.800799966 0.414236933
v 0.341003329 1.1498673 0.00254456699
vt 0.5 0.75
vt 0.595095277 0.690190434
vt 0.5 0.5
vt 0.75 0.75
vt 0.75 0.5
vt 0.654904783 0.690190434
vt 0.625 0.875
vt 0.5 0.875
vt 0.5 0.375
vt 0.5 0.75
vt 0.5 0.5
vt 0.5 0.875
vt 0.75 0.75
vt 0.5 0.75
vt 0.5 0.875
vt 0.5 0.75
vt 0.75 0.75
vt 0.654904783 0.690190434
vn 0.0106663676 0.762021601 -0.647463739
vn 0.0106663676 0.762021601 -0.647463739
vn 0.0106663676 0.762021601 -0.647463739
vn 0.01068833 0.763571203 0.645635188
vn 0.01068833 0.763571203 0.645635188
vn 0.01068833 0.763571203 0.645635188
vn -0.711088896 -0.00534590101 0.703081906
vn -0.711088896 -0.00534590101 0.703081906
vn -0.711088896 -0.00534590101 0.703081906
vn -0.704746425 0.00539424038 -0.709438741
vn -0.704746425 0.00539424038 -0.709438741
vn -0.704746425 0.00539424038 -0.709438741
vn -0.0467774533 -0.998905301 0
vn -0.0467774533 -0.998905301 0
vn -0.0467774533 -0.998905301 0
vn 0.981171012 0.193141207 0
vn 0.981171012 0.193141207 0
vn 0.981171012 0.193141207 0
g GMidCol7_0
f 3/3/3 2/2/2 1/1/1
f 6/6/6 5/5/5 4/4/4
f 9/9/9 8/8/8 7/7/7
f 12/12/12 11/11/11 10/10/10
f 15/15/15 14/14/14 13/13/13
f 18/18/18 17/17/17 16/16/16
