g HerdmasterCol
v -1.20207965 -0.111287825 2.46464825
v -1.20207965 0.11128702 2.46464825
v -0.625878572 0.111287221 3.97478104
v -0.625878572 -0.111287631 3.97478104
v -0.0354349613 0.111287504 1.87393677
v 1.42154145 0.111287333 3.17405653
v 0.42617619 0.111287273 4.70069647
v -0.23313877 0.111287266 5.18062305
v -0 0.111287422 0.309901953
v 1.42154145 0.111287333 3.17405653
v 0.866830468 0.111287422 0.309901953
v 1.42154145 0.111287333 3.17405653
v 1.42154145 -0.111287512 3.17405653
v 0.42617619 -0.111287579 4.70069647
v 0.42617619 0.111287273 4.70069647
v -0.0354349613 -0.111287341 1.87393677
v -1.20207965 -0.111287825 2.46464825
v -0.625878572 -0.111287631 3.97478104
v -0.23313871 -0.111287586 5.18062305
v 1.42154145 -0.111287512 3.17405653
v -0.0354349613 -0.111287341 1.87393677
v 0.42617619 -0.111287579 4.70069647
v -0 0.111287422 0.309901953
v 0.866830468 -0.111287422 0.309901953
v 0.866830468 0.111287422 0.309901953
v 1.41937576E-07 -0.111287422 0.309901953
v -0.724161148 0.111287422 0.309901953
v -0.724161148 -0.111287422 0.309901953
v -0.23313877 0.111287266 5.18062305
v -0.23313871 -0.111287586 5.18062305
v -0.625878572 -0.111287631 3.97478104
v -0.625878572 0.111287221 3.97478104
v 1.41937576E-07 -0.111287422 0.309901953
v -0.724161148 -0.111287422 0.309901953
v -1.20207965 -0.111287825 2.46464825
v -0.0354349613 -0.111287341 1.87393677
v 0.866830468 -0.111287422 0.309901953
v 1.41937576E-07 -0.111287422 0.309901953
v 1.42154145 -0.111287512 3.17405653
v 0.866830468 0.111287422 0.309901953
v 0.866830468 -0.111287422 0.309901953
v 1.42154145 -0.111287512 3.17405653
v 1.42154145 0.111287333 3.17405653
v -0.724161148 -0.111287422 0.309901953
v -0.724161148 0.111287422 0.309901953
v -1.20207965 0.11128702 2.46464825
v -1.20207965 -0.111287825 2.46464825
v -0.724161148 0.111287422 0.309901953
v -0 0.111287422 0.309901953
v -0.0354349613 0.111287504 1.87393677
v -1.20207965 0.11128702 2.46464825
v 0.42617619 0.111287273 4.70069647
v 0.42617619 -0.111287579 4.70069647
v -0.23313871 -0.111287586 5.18062305
v -0.23313877 0.111287266 5.18062305
v -1.20207965 0.11128702 2.46464825
v -0.0354349613 0.111287504 1.87393677
v -0.23313877 0.111287266 5.18062305
v -0.625878572 0.111287221 3.97478104
vt 0.438839078 0
vt 0.438839048 0.249999985
vt 0.625 0.25
vt 0.625 0
vt 0.438839018 0.37499997
vt 0.438839048 0.5
vt 0.625 0.5
vt 0.625 0.375
vt 0.375 0.375
vt 0.438839048 0.5
vt 0.375 0.5
vt 0.438839048 0.5
vt 0.438839048 0.75
vt 0.625 0.75
vt 0.625 0.5
vt 0.438839078 0.875
vt 0.438839048 1
vt 0.625 1
vt 0.625 0.875
vt 0.438839048 0.75
vt 0.438839078 0.875
vt 0.625 0.75
vt 0.24999997 0.49999994
vt 0.375 0.75
vt 0.375 0.5
vt 0.24999997 0.74999994
vt 0.125 0.5
vt 0.125 0.75
vt 0.75 0.5
vt 0.75 0.75
vt 0.875 0.75
vt 0.875 0.5
vt 0.375 0.875
vt 0.375 1
vt 0.438839048 1
vt 0.438839078 0.875
vt 0.375 0.75
vt 0.375 0.875
vt 0.438839048 0.75
vt 0.375 0.5
vt 0.375 0.75
vt 0.438839048 0.75
vt 0.438839048 0.5
vt 0.375 0
vt 0.375 0.25
vt 0.438839048 0.249999985
vt 0.438839078 0
vt 0.375 0.25
vt 0.375 0.375
vt 0.438839018 0.37499997
vt 0.438839048 0.249999985
vt 0.625 0.5
vt 0.625 0.75
vt 0.75 0.75
vt 0.75 0.5
vt 0.438839048 0.249999985
vt 0.438839018 0.37499997
vt 0.625 0.375
vt 0.625 0.25
vn -0.934299827 0 0.356488228
vn -0.934299827 0 0.356488228
vn -0.934299827 0 0.356488228
vn -0.934299827 0 0.356488228
vn -0 1 0
vn -0 1 0
vn -0 1 0
vn -0 1 0
vn -0 1 0
vn -0 1 0
vn -0 1 0
vn 0.837678313 0 0.546163976
vn 0.837678313 0 0.546163976
vn 0.837678313 0 0.546163976
vn 0.837678313 0 0.546163976
vn -0 -1 0
vn -0 -1 0
vn -0 -1 0
vn -0 -1 0
vn -0 -1 0
vn -0 -1 0
vn -0 -1 0
vn -0 0 -1
vn -0 0 -1
vn -0 0 -1
vn -0 0 -1
vn -0 0 -1
vn -0 0 -1
vn -0.950838923 0 0.309686035
vn -0.950838923 0 0.309686035
vn -0.950838923 0 0.309686035
vn -0.950838923 0 0.309686035
vn -0 -1 0
vn -0 -1 0
vn -0 -1 0
vn -0 -1 0
vn -0 -1 0
vn -0 -1 0
vn -0 -1 0
vn 0.981756866 0 -0.190140352
vn 0.981756866 0 -0.190140352
vn 0.981756866 0 -0.190140352
vn 0.981756866 0 -0.190140352
vn -0.976274669 0 -0.216535807
vn -0.976274669 0 -0.216535807
vn -0.976274669 0 -0.216535807
vn -0.976274669 0 -0.216535807
vn -0 1 0
vn -0 1 0
vn -0 1 0
vn -0 1 0
vn 0.588511944 0 0.808488488
vn 0.588511944 0 0.808488488
vn 0.588511944 0 0.808488488
vn 0.588511944 0 0.808488488
vn -0 1 0
vn -0 1 0
vn -0 1 0
vn -0 1 0
g HerdmasterCol_0
f 3/3/3 2/2/2 1/1/1
f 4/4/4 3/3/3 1/1/1
f 7/7/7 6/6/6 5/5/5
f 8/8/8 7/7/7 5/5/5
f 5/5/5 10/10/10 9/9/9
f 10/10/10 11/11/11 9/9/9
f 14/14/14 13/13/13 12/12/12
f 15/15/15 14/14/14 12/12/12
f 18/18/18 17/17/17 16/16/16
f 19/19/19 18/18/18 16/16/16
f 19/19/19 21/21/21 20/20/20
f 22/22/22 19/19/19 20/20/20
f 25/25/25 24/24/24 23/23/23
f 24/24/24 26/26/26 23/23/23
f 23/23/23 26/26/26 27/27/27
f 26/26/26 28/28/28 27/27/27
f 31/31/31 30/30/30 29/29/29
f 32/32/32 31/31/31 29/29/29
f 35/35/35 34/34/34 33/33/33
f 36/36/36 35/35/35 33/33/33
f 36/36/36 38/38/38 37/37/37
f 39/39/39 36/36/36 37/37/37
f 42/42/42 41/41/41 40/40/40
f 43/43/43 42/42/42 40/40/40
f 46/46/46 45/45/45 44/44/44
f 47/47/47 46/46/46 44/44/44
f 50/50/50 49/49/49 48/48/48
f 51/51/51 50/50/50 48/48/48
f 54/54/54 53/53/53 52/52/52
f 55/55/55 54/54/54 52/52/52
f 58/58/58 57/57/57 56/56/56
f 59/59/59 58/58/58 56/56/56
