g WarLizardCol
v -3.23636103 -0.111287504 1.5369041
v -3.23636103 0.111287341 1.5369041
v -3.03721881 0.11128746 3.01413083
v -3.03721881 -0.111287393 3.01413083
v -0.483742356 0.111287594 1.20255458
v 2.46114135 0.111287422 2.36315656
v 3.14426422 0.111287557 4.32635069
v 2.30101109 0.111287504 4.58272743
v 2.46114135 0.111287422 2.36315656
v 3.14426422 -0.111287303 4.32635069
v 3.14426422 0.111287557 4.32635069
v 2.46114135 -0.111287422 2.36315656
v 1.67665589 0.111287422 0.309901953
v 1.67665589 -0.111287422 0.309901953
v -0.483742356 -0.111287251 1.20255458
v -3.23636103 -0.111287504 1.5369041
v -3.03721881 -0.111287393 3.01413083
v 2.30101109 -0.111287348 4.58272743
v 2.46114135 -0.111287422 2.36315656
v -0.483742356 -0.111287251 1.20255458
v 3.14426422 -0.111287303 4.32635069
v 0.0176954102 0.111287422 0.309901953
v 1.67665589 -0.111287422 0.309901953
v 1.67665589 0.111287422 0.309901953
v 0.0176954847 -0.111287422 0.309901953
v -1.78776193 0.111287422 0.309901953
v -1.78776193 -0.111287422 0.309901953
v 2.30101109 0.111287504 4.58272743
v 2.30101109 -0.111287348 4.58272743
v -3.03721881 -0.111287393 3.01413083
v -3.03721881 0.11128746 3.01413083
v 0.0176954847 -0.111287422 0.309901953
v -1.78776193 -0.111287422 0.309901953
v -3.23636103 -0.111287504 1.5369041
v -0.483742356 -0.111287251 1.20255458
v 1.67665589 -0.111287422 0.309901953
v 0.0176954847 -0.111287422 0.309901953
v 2.46114135 -0.111287422 2.36315656
v 0.0176954102 0.111287422 0.309901953
v 1.67665589 0.111287422 0.309901953
v 2.46114135 0.111287422 2.36315656
v -0.483742356 0.111287594 1.20255458
v -1.78776193 -0.111287422 0.309901953
v -1.78776193 0.111287422 0.309901953
v -3.23636103 0.111287341 1.5369041
v -3.23636103 -0.111287504 1.5369041
v -1.78776193 0.111287422 0.309901953
v 0.0176954102 0.111287422 0.309901953
v -0.483742356 0.111287594 1.20255458
v -3.23636103 0.111287341 1.5369041
v 3.14426422 0.111287557 4.32635069
v 3.14426422 -0.111287303 4.32635069
v 2.30101109 -0.111287348 4.58272743
v 2.30101109 0.111287504 4.58272743
v -3.23636103 0.111287341 1.5369041
v -0.483742356 0.111287594 1.20255458
v 2.30101109 0.111287504 4.58272743
v -3.03721881 0.11128746 3.01413083
vt 0.438839078 0
vt 0.438839048 0.249999985
vt 0.625 0.25
vt 0.625 0
vt 0.438839018 0.37499997
vt 0.438839048 0.5
vt 0.625 0.5
vt 0.625 0.375
vt 0.438839048 0.5
vt 0.625 0.75
vt 0.625 0.5
vt 0.438839048 0.75
vt 0.375 0.5
vt 0.375 0.75
vt 0.438839078 0.875
vt 0.438839048 1
vt 0.625 1
vt 0.625 0.875
vt 0.438839048 0.75
vt 0.438839078 0.875
vt 0.625 0.75
vt 0.24999997 0.49999994
vt 0.375 0.75
vt 0.375 0.5
vt 0.24999997 0.74999994
vt 0.125 0.5
vt 0.125 0.75
vt 0.75 0.5
vt 0.75 0.75
vt 0.875 0.75
vt 0.875 0.5
vt 0.375 0.875
vt 0.375 1
vt 0.438839048 1
vt 0.438839078 0.875
vt 0.375 0.75
vt 0.375 0.875
vt 0.438839048 0.75
vt 0.375 0.375
vt 0.375 0.5
vt 0.438839048 0.5
vt 0.438839018 0.37499997
vt 0.375 0
vt 0.375 0.25
vt 0.438839048 0.249999985
vt 0.438839078 0
vt 0.375 0.25
vt 0.375 0.375
vt 0.438839018 0.37499997
vt 0.438839048 0.249999985
vt 0.625 0.5
vt 0.625 0.75
vt 0.75 0.75
vt 0.75 0.5
vt 0.438839048 0.249999985
vt 0.438839018 0.37499997
vt 0.625 0.375
vt 0.625 0.25
vn -0.991035342 0 0.133599609
vn -0.991035342 0 0.133599609
vn -0.991035342 0 0.133599609
vn -0.991035342 0 0.133599609
vn -0 1 0
vn -0 1 0
vn -0 1 0
vn -0 1 0
vn 0.9444561 0 -0.328637749
vn 0.9444561 0 -0.328637749
vn 0.9444561 0 -0.328637749
vn 0.9444561 0 -0.328637749
vn 0.934140205 0 -0.356906205
vn 0.934140205 0 -0.356906205
vn -0 -1 0
vn -0 -1 0
vn -0 -1 0
vn -0 -1 0
vn -0 -1 0
vn -0 -1 0
vn -0 -1 0
vn -0 0 -1
vn -0 0 -1
vn -0 0 -1
vn -0 0 -1
vn -0 0 -1
vn -0 0 -1
vn -0.281922936 0 0.959437013
vn -0.281922936 0 0.959437013
vn -0.281922936 0 0.959437013
vn -0.281922936 0 0.959437013
vn -0 -1 0
vn -0 -1 0
vn -0 -1 0
vn -0 -1 0
vn -0 -1 0
vn -0 -1 0
vn -0 -1 0
vn -0 1 0
vn -0 1 0
vn -0 1 0
vn -0 1 0
vn -0.646330357 0 -0.763057828
vn -0.646330357 0 -0.763057828
vn -0.646330357 0 -0.763057828
vn -0.646330357 0 -0.763057828
vn -0 1 0
vn -0 1 0
vn -0 1 0
vn -0 1 0
vn 0.290885925 0 0.956757724
vn 0.290885925 0 0.956757724
vn 0.290885925 0 0.956757724
vn 0.290885925 0 0.956757724
vn -0 1 0
vn -0 1 0
vn -0 1 0
vn -0 1 0
g WarLizardCol_0
f 3/3/3 2/2/2 1/1/1
f 4/4/4 3/3/3 1/1/1
f 7/7/7 6/6/6 5/5/5
f 8/8/8 7/7/7 5/5/5
f 11/11/11 10/10/10 9/9/9
f 10/10/10 12/12/12 9/9/9
f 9/9/9 12/12/12 13/13/13
f 12/12/12 14/14/14 13/13/13
f 17/17/17 16/16/16 15/15/15
f 18/18/18 17/17/17 15/15/15
f 18/18/18 20/20/20 19/19/19
f 21/21/21 18/18/18 19/19/19
f 24/24/24 23/23/23 22/22/22
f 23/23/23 25/25/25 22/22/22
f 22/22/22 25/25/25 26/26/26
f 25/25/25 27/27/27 26/26/26
f 30/30/30 29/29/29 28/28/28
f 31/31/31 30/30/30 28/28/28
f 34/34/34 33/33/33 32/32/32
f 35/35/35 34/34/34 32/32/32
f 35/35/35 37/37/37 36/36/36
f 38/38/38 35/35/35 36/36/36
f 41/41/41 40/40/40 39/39/39
f 42/42/42 41/41/41 39/39/39
f 45/45/45 44/44/44 43/43/43
f 46/46/46 45/45/45 43/43/43
f 49/49/49 48/48/48 47/47/47
f 50/50/50 49/49/49 47/47/47
f 53/53/53 52/52/52 51/51/51
f 54/54/54 53/53/53 51/51/51
f 57/57/57 56/56/56 55/55/55
f 58/58/58 57/57/57 55/55/55
