g AssassinCol
v -2.31546164 -0.11128743 3.90291977
v -2.31546164 0.111287415 3.90291977
v -1.23844779 0.111287385 5.67378235
v -1.23844779 -0.11128746 5.67378235
v -2.31546164 0.111287415 3.90291977
v 0.727130294 0.111287333 6.07889509
v -1.23844779 0.111287385 5.67378235
v 1.37392199 0.111287415 5.05015898
v -1.74213338 0.111287415 0.309901953
v 1.87611616 0.111287415 0.309901953
v -2.31546164 0.111287415 3.90291977
v 1.37392199 0.111287415 5.05015898
v 1.37392199 -0.11128743 5.05015898
v 0.727130294 -0.111287512 6.07889509
v 0.727130294 0.111287333 6.07889509
v 1.37392199 -0.11128743 5.05015898
v -2.31546164 -0.11128743 3.90291977
v -1.23844779 -0.11128746 5.67378235
v 0.727130294 -0.111287512 6.07889509
v 1.87611616 -0.11128743 0.309901953
v -2.31546164 -0.11128743 3.90291977
v -1.74213338 -0.11128743 0.309901953
v -1.74213338 0.111287415 0.309901953
v -1.74213338 -0.11128743 0.309901953
v 1.87611616 -0.11128743 0.309901953
v 1.87611616 0.111287415 0.309901953
v 0.727130294 0.111287333 6.07889509
v 0.727130294 -0.111287512 6.07889509
v -1.23844779 -0.11128746 5.67378235
v -1.23844779 0.111287385 5.67378235
v 1.87611616 0.111287415 0.309901953
v 1.87611616 -0.11128743 0.309901953
v 1.37392199 -0.11128743 5.05015898
v 1.37392199 0.111287415 5.05015898
v -1.74213338 -0.11128743 0.309901953
v -1.74213338 0.111287415 0.309901953
v -2.31546164 0.111287415 3.90291977
v -2.31546164 -0.11128743 3.90291977
vt 0.438839078 0
vt 0.438839048 0.249999985
vt 0.625 0.25
vt 0.625 0
vt 0.438839048 0.249999985
vt 0.625 0.5
vt 0.625 0.25
vt 0.438839048 0.5
vt 0.375 0.25
vt 0.375 0.5
vt 0.438839048 0.249999985
vt 0.438839048 0.5
vt 0.438839048 0.75
vt 0.625 0.75
vt 0.625 0.5
vt 0.438839048 0.75
vt 0.438839048 1
vt 0.625 1
vt 0.625 0.75
vt 0.375 0.75
vt 0.438839048 1
vt 0.375 1
vt 0.125 0.5
vt 0.125 0.75
vt 0.375 0.75
vt 0.375 0.5
vt 0.625 0.5
vt 0.625 0.75
vt 0.875 0.75
vt 0.875 0.5
vt 0.375 0.5
vt 0.375 0.75
vt 0.438839048 0.75
vt 0.438839048 0.5
vt 0.375 0
vt 0.375 0.25
vt 0.438839048 0.249999985
vt 0.438839078 0
vn -0.854391932 0 0.519629121
vn -0.854391932 0 0.519629121
vn -0.854391932 0 0.519629121
vn -0.854391932 0 0.519629121
vn -0 1 0
vn -0 1 0
vn -0 1 0
vn -0 1 0
vn -0 1 0
vn -0 1 0
vn -0 1 0
vn 0.846578121 0 0.532264471
vn 0.846578121 0 0.532264471
vn 0.846578121 0 0.532264471
vn 0.846578121 0 0.532264471
vn -0 -1 0
vn -0 -1 0
vn -0 -1 0
vn -0 -1 0
vn -0 -1 0
vn -0 -1 0
vn -0 -1 0
vn -0 0 -1
vn -0 0 -1
vn -0 0 -1
vn -0 0 -1
vn -0.20186086 0 0.979414165
vn -0.20186086 0 0.979414165
vn -0.20186086 0 0.979414165
vn -0.20186086 0 0.979414165
vn 0.994434893 0 0.105352819
vn 0.994434893 0 0.105352819
vn 0.994434893 0 0.105352819
vn 0.994434893 0 0.105352819
vn -0.987507224 0 -0.157573909
vn -0.987507224 0 -0.157573909
vn -0.987507224 0 -0.157573909
vn -0.987507224 0 -0.157573909
g AssassinCol_0
f 3/3/3 2/2/2 1/1/1
f 4/4/4 3/3/3 1/1/1
f 7/7/7 6/6/6 5/5/5
f 6/6/6 8/8/8 5/5/5
f 8/8/8 10/10/10 9/9/9
f 11/11/11 8/8/8 9/9/9
f 14/14/14 13/13/13 12/12/12
f 15/15/15 14/14/14 12/12/12
f 18/18/18 17/17/17 16/16/16
f 19/19/19 18/18/18 16/16/16
f 16/16/16 21/21/21 20/20/20
f 21/21/21 22/22/22 20/20/20
f 25/25/25 24/24/24 23/23/23
f 26/26/26 25/25/25 23/23/23
f 29/29/29 28/28/28 27/27/27
f 30/30/30 29/29/29 27/27/27
f 33/33/33 32/32/32 31/31/31
f 34/34/34 33/33/33 31/31/31
f 37/37/37 36/36/36 35/35/35
f 38/38/38 37/37/37 35/35/35
