g TitansPirate2Col
v 1.67638063E-08 -0.0652009547 0.286494732
v -0.681306481 -0.0652010143 0.286494732
v -1.03152871 -0.065201357 0.604878664
v -1.03152871 0.0662664995 0.604878664
v -0.681306481 0.0662668422 0.286494732
v -1.58324838E-07 0.0662669018 0.286494732
v -1.4366622 0.0662664771 3.50880551
v 1.12736762 0.0662672445 3.21495342
v 1.07436407 0.066266872 4.40416718
v -0.213823661 0.0662667379 1.84324431
v 0.977506399 0.0662669837 0.296451807
v 1.12736762 0.0662672445 3.21495342
v 0.977506399 -0.0652008727 0.296451807
v -0.213823512 -0.0652011186 1.84324431
v 1.12736738 -0.0652006119 3.21495342
v 1.12736738 -0.0652006119 3.21495342
v -1.43666196 -0.0652013943 3.50880551
v 1.07436407 -0.0652009919 4.40416718
v 1.07436407 0.066266872 4.40416718
v 1.12736762 0.0662672445 3.21495342
v 1.12736738 -0.0652006119 3.21495342
v 1.07436407 -0.0652009919 4.40416718
v -0.213823512 -0.0652011186 1.84324431
v -1.03152871 -0.065201357 0.604878664
v -1.1825155 -0.0652014241 1.75210667
v 1.67638063E-08 -0.0652009547 0.286494732
v 0.977506399 -0.0652008727 0.296451807
v -1.03152871 -0.065201357 0.604878664
v -1.03152871 0.0662664995 0.604878664
v -1.1825155 0.0662664473 1.75210667
v -1.1825155 -0.0652014241 1.75210667
v -1.43666196 -0.0652013943 3.50880551
v -1.4366622 0.0662664771 3.50880551
v -1.4366622 0.0662664771 3.50880551
v -0.213823661 0.0662667379 1.84324431
v 1.12736762 0.0662672445 3.21495342
v -1.1825155 0.0662664473 1.75210667
v -1.43666196 -0.0652013943 3.50880551
v -1.4366622 0.0662664771 3.50880551
v 1.07436407 0.066266872 4.40416718
v 1.07436407 -0.0652009919 4.40416718
v -0.213823661 0.0662667379 1.84324431
v -1.58324838E-07 0.0662669018 0.286494732
v 0.977506399 0.0662669837 0.296451807
v -1.03152871 0.0662664995 0.604878664
v -1.1825155 0.0662664473 1.75210667
v -0.681306481 -0.0652010143 0.286494732
v -0.681306481 0.0662668422 0.286494732
v -1.03152871 0.0662664995 0.604878664
v -1.03152871 -0.065201357 0.604878664
v 1.12736762 0.0662672445 3.21495342
v 0.977506399 0.0662669837 0.296451807
v 0.977506399 -0.0652008727 0.296451807
v 1.12736738 -0.0652006119 3.21495342
v 1.67638063E-08 -0.0652009547 0.286494732
v 0.977506399 -0.0652008727 0.296451807
v 0.977506399 0.0662669837 0.296451807
v -1.58324838E-07 0.0662669018 0.286494732
v -0.681306481 -0.0652010143 0.286494732
v -0.681306481 0.0662668422 0.286494732
v 1.12736738 -0.0652006119 3.21495342
v -0.213823512 -0.0652011186 1.84324431
v -1.43666196 -0.0652013943 3.50880551
v -1.1825155 -0.0652014241 1.75210667
vt 0.375 0.375
vt 0.375 0.5
vt 0.438839048 0.5
vt 0.438839048 0.75
vt 0.375 0.75
vt 0.375 0.875
vt 0.625 0.875
vt 0.438839048 1
vt 0.625 1
vt 0.438839078 0.875
vt 0.375 1
vt 0.438839048 1
vt 0.375 0.25
vt 0.438839018 0.37499997
vt 0.438839048 0.249999985
vt 0.438839048 0.249999985
vt 0.625 0.375
vt 0.625 0.25
vt 0.625 0
vt 0.438839078 0
vt 0.438839048 0.249999985
vt 0.625 0.25
vt 0.438839018 0.37499997
vt 0.438839048 0.5
vt 0.625 0.5
vt 0.375 0.375
vt 0.375 0.25
vt 0.438839048 0.5
vt 0.438839048 0.75
vt 0.625 0.75
vt 0.625 0.5
vt 0.75 0.5
vt 0.75 0.75
vt 0.625 0.875
vt 0.438839078 0.875
vt 0.438839048 1
vt 0.625 0.75
vt 0.75 0.5
vt 0.75 0.75
vt 0.875 0.75
vt 0.875 0.5
vt 0.438839078 0.875
vt 0.375 0.875
vt 0.375 1
vt 0.438839048 0.75
vt 0.625 0.75
vt 0.375 0.5
vt 0.375 0.75
vt 0.438839048 0.75
vt 0.438839048 0.5
vt 0.438839078 0
vt 0.375 0
vt 0.375 0.25
vt 0.438839048 0.249999985
vt 0.24999997 0.49999994
vt 0.125 0.5
vt 0.125 0.75
vt 0.24999997 0.74999994
vt 0.375 0.5
vt 0.375 0.75
vt 0.438839048 0.249999985
vt 0.438839018 0.37499997
vt 0.625 0.375
vt 0.625 0.5
vn -0 -1 0
vn -0 -1 0
vn -0 -1 0
vn -0 1 0
vn -0 1 0
vn -0 1 0
vn -0 1 0
vn -0 1 0
vn -0 1 0
vn -0 1 0
vn -0 1 0
vn -0 1 0
vn -0 -1 0
vn -0 -1 0
vn -0 -1 0
vn -0 -1 0
vn -0 -1 0
vn -0 -1 0
vn 0.999008238 0 0.0445259996
vn 0.999008238 0 0.0445259996
vn 0.999008238 0 0.0445259996
vn 0.999008238 0 0.0445258692
vn -0 -1 0
vn -0 -1 0
vn -0 -1 0
vn -0 -1 0
vn -0 -1 0
vn -0.99145025 0 -0.130484864
vn -0.99145025 0 -0.130484864
vn -0.99145025 0 -0.130484864
vn -0.989696383 0 -0.143182084
vn -0.989696383 0 -0.143182084
vn -0.989696383 0 -0.143182233
vn -0 1 0
vn -0 1 0
vn -0 1 0
vn -0 1 0
vn -0.335859329 0 0.941912234
vn -0.335859329 0 0.941912234
vn -0.335859329 0 0.941912234
vn -0.335859597 0 0.941912115
vn -0 1 0
vn -0 1 0
vn -0 1 0
vn -0 1 0
vn -0 1 0
vn -0.672672987 0 -0.739939868
vn -0.672672987 0 -0.739939868
vn -0.672672987 0 -0.739939868
vn -0.672672749 0 -0.739940107
vn 0.998684227 0 -0.0512811244
vn 0.998684227 0 -0.0512811244
vn 0.998684227 0 -0.0512811244
vn 0.998684227 0 -0.0512810461
vn -0 0 -1
vn 0.0101856282 0 -0.999948144
vn 0.0101856282 0 -0.999948144
vn -0 0 -1
vn -0 0 -1
vn -0 0 -1
vn -0 -1 0
vn -0 -1 0
vn -0 -1 0
vn -0 -1 0
g TitansPirate2Col_0
f 3/3/3 2/2/2 1/1/1
f 6/6/6 5/5/5 4/4/4
f 9/9/9 8/8/8 7/7/7
f 12/12/12 11/11/11 10/10/10
f 15/15/15 14/14/14 13/13/13
f 18/18/18 17/17/17 16/16/16
f 21/21/21 20/20/20 19/19/19
f 22/22/22 21/21/21 19/19/19
f 25/25/25 24/24/24 23/23/23
f 23/23/23 24/24/24 26/26/26
f 23/23/23 26/26/26 27/27/27
f 30/30/30 29/29/29 28/28/28
f 31/31/31 30/30/30 28/28/28
f 30/30/30 31/31/31 32/32/32
f 33/33/33 30/30/30 32/32/32
f 36/36/36 35/35/35 34/34/34
f 34/34/34 35/35/35 37/37/37
f 40/40/40 39/39/39 38/38/38
f 41/41/41 40/40/40 38/38/38
f 44/44/44 43/43/43 42/42/42
f 42/42/42 43/43/43 45/45/45
f 42/42/42 45/45/45 46/46/46
f 49/49/49 48/48/48 47/47/47
f 50/50/50 49/49/49 47/47/47
f 53/53/53 52/52/52 51/51/51
f 54/54/54 53/53/53 51/51/51
f 57/57/57 56/56/56 55/55/55
f 58/58/58 57/57/57 55/55/55
f 58/58/58 55/55/55 59/59/59
f 60/60/60 58/58/58 59/59/59
f 63/63/63 62/62/62 61/61/61
f 63/63/63 64/64/64 62/62/62
