g HavenBottom_Collision1
v 0.0128546637 0.010207817 -1.36260629
v 0.534301579 0.0102077844 -1.25888419
v 0.534301519 0.328634024 -1.25888419
v 0.0128546488 0.328634024 -1.36260641
v 0.534301579 0.0102077844 -1.25888419
v 0.976362824 0.0102078235 -0.963508189
v 0.976362884 0.328634053 -0.963508248
v 0.534301519 0.328634024 -1.25888419
v 0.976362824 0.0102078235 -0.963508189
v 1.27173877 0.0102078319 -0.521446884
v 1.27173877 0.328634053 -0.521446943
v 0.976362884 0.328634053 -0.963508248
v 1.27173877 0.0102078319 -0.521446884
v 1.3754611 0.010207843 5.91584453E-08
v 1.37546098 0.328634083 3.03384304E-08
v 1.27173877 0.328634053 -0.521446943
v 1.3754611 0.010207843 5.91584453E-08
v 1.27173865 0.0102078356 0.521447003
v 1.27173865 0.328634113 0.521447003
v 1.37546098 0.328634083 3.03384304E-08
v 1.27173865 0.0102078356 0.521447003
v 0.976362824 0.0102079259 0.963508308
v 0.976362824 0.328634143 0.963508248
v 1.27173865 0.328634113 0.521447003
v 0.976362824 0.0102079259 0.963508308
v 0.534301639 0.010207911 1.25888431
v 0.534301639 0.328634143 1.25888419
v 0.976362824 0.328634143 0.963508248
v 0.534301639 0.010207911 1.25888431
v 0.0128548574 0.0102079576 1.36260653
v 0.0128548574 0.328634202 1.36260653
v 0.534301639 0.328634143 1.25888419
v 0.0128548574 0.0102079576 1.36260653
v -0.50859189 0.0102079576 1.25888443
v -0.50859195 0.328634173 1.25888443
v 0.0128548574 0.328634202 1.36260653
v -0.50859189 0.0102079576 1.25888443
v -0.950653315 0.0102078961 0.963508666
v -0.950653315 0.328634173 0.963508606
v -0.50859195 0.328634173 1.25888443
v -0.950653315 0.0102078961 0.963508666
v -1.24602938 0.0102079548 0.521447062
v -1.2460295 0.328634143 0.521447062
v -0.950653315 0.328634173 0.963508606
v -1.24602938 0.0102079548 0.521447062
v -1.34975159 0.0102078617 -1.53473607E-08
v -1.34975159 0.328634113 -5.90685367E-08
v -1.2460295 0.328634143 0.521447062
v -1.34975159 0.0102078617 -1.53473607E-08
v -1.24602926 0.0102078393 -0.521447122
v -1.24602926 0.328634083 -0.521447182
v -1.34975159 0.328634113 -5.90685367E-08
v -1.24602926 0.0102078393 -0.521447122
v -0.950653195 0.0102078123 -0.963508546
v -0.950653195 0.328634053 -0.963508487
v -1.24602926 0.328634083 -0.521447182
v -0.950653195 0.0102078123 -0.963508546
v -0.508591592 0.0102077732 -1.25888443
v -0.508591592 0.328634024 -1.25888443
v -0.950653195 0.328634053 -0.963508487
v -0.508591592 0.0102077732 -1.25888443
v 0.0128546637 0.010207817 -1.36260629
v 0.0128546488 0.328634024 -1.36260641
v -0.508591592 0.328634024 -1.25888443
v 0.534301579 0.0102077844 -1.25888419
v 0.0128546637 0.010207817 -1.36260629
v -0.508591592 0.0102077732 -1.25888443
v -0.950653195 0.0102078123 -0.963508546
v 0.976362824 0.0102078235 -0.963508189
v -1.24602926 0.0102078393 -0.521447122
v 1.27173877 0.0102078319 -0.521446884
v -1.34975159 0.0102078617 -1.53473607E-08
v 1.3754611 0.010207843 5.91584453E-08
v -1.24602938 0.0102079548 0.521447062
v 1.27173865 0.0102078356 0.521447003
v 0.976362824 0.0102079259 0.963508308
v -0.950653315 0.0102078961 0.963508666
v 0.534301639 0.010207911 1.25888431
v -0.50859189 0.0102079576 1.25888443
v 0.0128548574 0.0102079576 1.36260653
v 0.534301519 0.328634024 -1.25888419
v 0.0128546935 0.328634083 -1.0214088
v 0.0128546488 0.328634024 -1.36260641
v 0.403730869 0.328634024 -0.94365871
v 0.976362884 0.328634053 -0.963508248
v 0.735099614 0.328634053 -0.722244918
v 1.27173877 0.328634053 -0.521446943
v 0.956513166 0.328634024 -0.390876174
v 1.37546098 0.328634083 3.03384304E-08
v 1.03426337 0.328634083 1.54372692E-08
v 1.27173865 0.328634113 0.521447003
v 0.956513226 0.328634143 0.390876174
v 0.976362824 0.328634143 0.963508248
v 0.735099673 0.328634173 0.722245038
v 0.534301639 0.328634143 1.25888419
v -0.930803835 0.328634143 0.390876293
v -1.00855386 0.328634113 -4.41673755E-08
v -0.930803776 0.328634053 -0.390876412
v -0.709389925 0.328634113 -0.722245097
v 0.403730869 0.328634113 0.94365859
v 0.0128548574 0.328634202 1.36260653
v -0.709390044 0.328634143 0.722245216
v 0.0128548574 0.328634173 1.02140892
v -0.50859195 0.328634173 1.25888443
v -0.378021181 0.328634143 0.94365865
v -0.950653315 0.328634173 0.963508606
v -1.2460295 0.328634143 0.521447062
v -1.34975159 0.328634113 -5.90685367E-08
v -1.24602926 0.328634083 -0.521447182
v -0.950653195 0.328634053 -0.963508487
v -0.508591592 0.328634024 -1.25888443
v -0.378020972 0.328634024 -0.94365871
v 0.0128546488 0.328634024 -1.36260641
v 0.0128546935 0.328634083 -1.0214088
vt 1 0.5
vt 0.9375 0.5
vt 0.9375 1
vt 1 1
vt 0.9375 0.5
vt 0.875 0.5
vt 0.875 1
vt 0.9375 1
vt 0.875 0.5
vt 0.8125 0.5
vt 0.8125 1
vt 0.875 1
vt 0.8125 0.5
vt 0.75 0.5
vt 0.75 1
vt 0.8125 1
vt 0.75 0.5
vt 0.6875 0.5
vt 0.6875 1
vt 0.75 1
vt 0.6875 0.5
vt 0.625 0.5
vt 0.625 1
vt 0.6875 1
vt 0.625 0.5
vt 0.5625 0.5
vt 0.5625 1
vt 0.625 1
vt 0.5625 0.5
vt 0.5 0.5
vt 0.5 1
vt 0.5625 1
vt 0.5 0.5
vt 0.4375 0.5
vt 0.4375 1
vt 0.5 1
vt 0.4375 0.5
vt 0.375 0.5
vt 0.375 1
vt 0.4375 1
vt 0.375 0.5
vt 0.3125 0.5
vt 0.3125 1
vt 0.375 1
vt 0.3125 0.5
vt 0.25 0.5
vt 0.25 1
vt 0.3125 1
vt 0.25 0.5
vt 0.1875 0.5
vt 0.1875 1
vt 0.25 1
vt 0.1875 0.5
vt 0.125 0.5
vt 0.125 1
vt 0.1875 1
vt 0.125 0.5
vt 0.0625 0.5
vt 0.0625 1
vt 0.125 1
vt 0.0625 0.5
vt 0 0.5
vt 0 1
vt 0.0625 1
vt 0.841844022 0.471731067
vt 0.75 0.49000001
vt 0.658156097 0.471731126
vt 0.58029443 0.419705689
vt 0.919705629 0.419705629
vt 0.528268933 0.341844052
vt 0.971731067 0.341844022
vt 0.50999999 0.25
vt 0.99000001 0.249999985
vt 0.528268933 0.158155948
vt 0.971731067 0.158155948
vt 0.919705629 0.0802943856
vt 0.58029443 0.0802943259
vt 0.841844022 0.0282689184
vt 0.658156037 0.0282688886
vt 0.75000006 0.0100000054
vt 0.9375 1
vt 1 1
vt 1 1
vt 0.9375 1
vt 0.875 1
vt 0.875 1
vt 0.8125 1
vt 0.8125 1
vt 0.75 1
vt 0.75 1
vt 0.6875 1
vt 0.6875 1
vt 0.625 1
vt 0.625 1
vt 0.5625 1
vt 0.3125 1
vt 0.25 1
vt 0.1875 1
vt 0.125 1
vt 0.5625 1
vt 0.5 1
vt 0.375 1
vt 0.5 1
vt 0.4375 1
vt 0.4375 1
vt 0.375 1
vt 0.3125 1
vt 0.25 1
vt 0.1875 1
vt 0.125 1
vt 0.0625 1
vt 0.0625 1
vt 0 1
vt 0 1
vn 0.195089847 0 -0.98078537
vn 0.195089847 0 -0.98078537
vn 0.195089847 0 -0.98078537
vn 0.195089847 0 -0.98078537
vn 0.555570364 0 -0.831469476
vn 0.555570364 0 -0.831469476
vn 0.555570364 0 -0.831469476
vn 0.555570364 0 -0.831469476
vn 0.831469595 0 -0.555570185
vn 0.831469595 0 -0.555570185
vn 0.831469595 0 -0.555570185
vn 0.831469595 0 -0.555570185
vn 0.980785251 0 -0.195090353
vn 0.980785251 0 -0.195090353
vn 0.980785251 0 -0.195090353
vn 0.980785251 0 -0.195090353
vn 0.980785251 0 0.195090577
vn 0.980785251 0 0.195090577
vn 0.980785251 0 0.195090577
vn 0.980785251 0 0.195090577
vn 0.831469715 0 0.555570185
vn 0.831469715 0 0.555570185
vn 0.831469715 0 0.555570185
vn 0.831469715 0 0.555570185
vn 0.555570245 0 0.831469595
vn 0.555570245 0 0.831469595
vn 0.555570245 0 0.831469595
vn 0.555570245 0 0.831469595
vn 0.195090562 0 0.980785251
vn 0.195090562 0 0.980785251
vn 0.195090562 0 0.980785251
vn 0.195090562 0 0.980785251
vn -0.195090234 0 0.98078537
vn -0.195090234 0 0.98078537
vn -0.195090234 0 0.98078537
vn -0.195090234 0 0.98078537
vn -0.555569947 0 0.831469893
vn -0.555569947 0 0.831469893
vn -0.555569947 0 0.831469893
vn -0.555569947 0 0.831469893
vn -0.831469595 0 0.555570185
vn -0.831469595 0 0.555570185
vn -0.831469595 0 0.555570185
vn -0.831469595 0 0.555570185
vn -0.98078537 0 0.1950901
vn -0.98078537 0 0.1950901
vn -0.98078537 0 0.1950901
vn -0.98078537 0 0.1950901
vn -0.980785251 0 -0.195090368
vn -0.980785251 0 -0.195090368
vn -0.980785251 0 -0.195090368
vn -0.980785251 0 -0.195090368
vn -0.831469476 0 -0.555570483
vn -0.831469476 0 -0.555570483
vn -0.831469476 0 -0.555570483
vn -0.831469476 0 -0.555570483
vn -0.555570126 0 -0.831469715
vn -0.555570126 0 -0.831469715
vn -0.555570126 0 -0.831469715
vn -0.555570126 0 -0.831469715
vn -0.195089728 0 -0.98078537
vn -0.195089728 0 -0.98078537
vn -0.195089728 0 -0.98078537
vn -0.195089728 0 -0.98078537
vn -0 -1 0
vn -0 -1 0
vn -0 -1 0
vn -0 -1 0
vn -0 -1 0
vn -0 -1 0
vn -0 -1 0
vn -0 -1 0
vn -0 -1 0
vn -0 -1 0
vn -0 -1 0
vn -0 -1 0
vn -0 -1 0
vn -0 -1 0
vn -0 -1 0
vn -0 -1 0
vn -0 1 0
vn -0 1 0
vn -0 1 0
vn -0 1 0
vn -0 1 0
vn -0 1 0
vn -0 1 0
vn -0 1 0
vn -0 1 0
vn -0 1 0
vn -0 1 0
vn -0 1 0
vn -0 1 0
vn -0 1 0
vn -0 1 0
vn -0 1 0
vn -0 1 0
vn -0 1 0
vn -0 1 0
vn -0 1 0
vn -0 1 0
vn -0 1 0
vn -0 1 0
vn -0 1 0
vn -0 1 0
vn -0 1 0
vn -0 1 0
vn -0 1 0
vn -0 1 0
vn -0 1 0
vn -0 1 0
vn -0 1 0
vn -0 1 0
vn -0 1 0
g HavenBottom_Collision1_0
f 3/3/3 2/2/2 1/1/1
f 4/4/4 3/3/3 1/1/1
f 7/7/7 6/6/6 5/5/5
f 8/8/8 7/7/7 5/5/5
f 11/11/11 10/10/10 9/9/9
f 12/12/12 11/11/11 9/9/9
f 15/15/15 14/14/14 13/13/13
f 16/16/16 15/15/15 13/13/13
f 19/19/19 18/18/18 17/17/17
f 20/20/20 19/19/19 17/17/17
f 23/23/23 22/22/22 21/21/21
f 24/24/24 23/23/23 21/21/21
f 27/27/27 26/26/26 25/25/25
f 28/28/28 27/27/27 25/25/25
f 31/31/31 30/30/30 29/29/29
f 32/32/32 31/31/31 29/29/29
f 35/35/35 34/34/34 33/33/33
f 36/36/36 35/35/35 33/33/33
f 39/39/39 38/38/38 37/37/37
f 40/40/40 39/39/39 37/37/37
f 43/43/43 42/42/42 41/41/41
f 44/44/44 43/43/43 41/41/41
f 47/47/47 46/46/46 45/45/45
f 48/48/48 47/47/47 45/45/45
f 51/51/51 50/50/50 49/49/49
f 52/52/52 51/51/51 49/49/49
f 55/55/55 54/54/54 53/53/53
f 56/56/56 55/55/55 53/53/53
f 59/59/59 58/58/58 57/57/57
f 60/60/60 59/59/59 57/57/57
f 63/63/63 62/62/62 61/61/61
f 64/64/64 63/63/63 61/61/61
f 67/67/67 66/66/66 65/65/65
f 65/65/65 68/68/68 67/67/67
f 65/65/65 69/69/69 68/68/68
f 69/69/69 70/70/70 68/68/68
f 69/69/69 71/71/71 70/70/70
f 71/71/71 72/72/72 70/70/70
f 71/71/71 73/73/73 72/72/72
f 73/73/73 74/74/74 72/72/72
f 73/73/73 75/75/75 74/74/74
f 75/75/75 76/76/76 74/74/74
f 76/76/76 77/77/77 74/74/74
f 76/76/76 78/78/78 77/77/77
f 78/78/78 79/79/79 77/77/77
f 78/78/78 80/80/80 79/79/79
f 83/83/83 82/82/82 81/81/81
f 82/82/82 84/84/84 81/81/81
f 81/81/81 84/84/84 85/85/85
f 84/84/84 86/86/86 85/85/85
f 85/85/85 86/86/86 87/87/87
f 86/86/86 88/88/88 87/87/87
f 87/87/87 88/88/88 89/89/89
f 88/88/88 90/90/90 89/89/89
f 89/89/89 90/90/90 91/91/91
f 90/90/90 92/92/92 91/91/91
f 91/91/91 92/92/92 93/93/93
f 92/92/92 94/94/94 93/93/93
f 93/93/93 94/94/94 95/95/95
f 96/96/96 92/92/92 90/90/90
f 96/96/96 94/94/94 92/92/92
f 97/97/97 90/90/90 88/88/88
f 97/97/97 96/96/96 90/90/90
f 98/98/98 88/88/88 86/86/86
f 98/98/98 97/97/97 88/88/88
f 99/99/99 86/86/86 84/84/84
f 99/99/99 98/98/98 86/86/86
f 94/94/94 100/100/100 95/95/95
f 95/95/95 100/100/100 101/101/101
f 96/96/96 102/102/102 94/94/94
f 102/102/102 100/100/100 94/94/94
f 100/100/100 103/103/103 101/101/101
f 101/101/101 103/103/103 104/104/104
f 105/105/105 103/103/103 100/100/100
f 103/103/103 105/105/105 104/104/104
f 102/102/102 105/105/105 100/100/100
f 104/104/104 105/105/105 106/106/106
f 105/105/105 102/102/102 106/106/106
f 106/106/106 102/102/102 107/107/107
f 102/102/102 96/96/96 107/107/107
f 107/107/107 96/96/96 108/108/108
f 96/96/96 97/97/97 108/108/108
f 108/108/108 97/97/97 109/109/109
f 97/97/97 98/98/98 109/109/109
f 109/109/109 98/98/98 110/110/110
f 98/98/98 99/99/99 110/110/110
f 110/110/110 99/99/99 111/111/111
f 99/99/99 112/112/112 111/111/111
f 111/111/111 112/112/112 113/113/113
f 112/112/112 99/99/99 84/84/84
f 112/112/112 114/114/114 113/113/113
f 84/84/84 114/114/114 112/112/112
