g HavenMidCol8
v 1.12051249 0.00772717642 -0.507732451
v 1.23001206 0.00772713358 0.0202683732
v 1.33215499 0.83553952 0.0219515506
v 1.21356237 0.835539639 -0.549895644
v 1.23001206 0.00772713358 0.0202683732
v 1.09743583 0.0127721727 0.0791201517
v 1.01947272 0.400626451 0.0734993517
v 1.33215499 0.83553952 0.0219515506
v 1.09743583 0.0127721727 0.0791201517
v 0.975466371 0.0127722584 -0.50900948
v 0.906168222 0.40062651 -0.472848773
v 1.01947272 0.400626451 0.0734993517
v 0.975466371 0.0127722584 -0.50900948
v 1.12051249 0.00772717642 -0.507732451
v 1.21356237 0.835539639 -0.549895644
v 0.906168222 0.40062651 -0.472848773
v 1.23001206 0.00772713358 0.0202683732
v 1.12051249 0.00772717642 -0.507732451
v 0.975466371 0.0127722584 -0.50900948
v 1.09743583 0.0127721727 0.0791201517
v 1.01947272 0.400626451 0.0734993517
v 0.906168222 0.40062651 -0.472848773
v 1.21356237 0.835539639 -0.549895644
v 1.33215499 0.83553952 0.0219515506
vt 0.375 0
vt 0.375 0.25
vt 0.625 0.25
vt 0.625 0
vt 0.375 0.25
vt 0.375 0.5
vt 0.625 0.5
vt 0.625 0.25
vt 0.375 0.5
vt 0.375 0.75
vt 0.625 0.75
vt 0.625 0.5
vt 0.375 0.75
vt 0.375 1
vt 0.625 1
vt 0.625 0.75
vt 0.125 0.5
vt 0.125 0.75
vt 0.375 0.75
vt 0.375 0.5
vt 0.625 0.5
vt 0.625 0.75
vt 0.875 0.75
vt 0.875 0.5
vn 0.972143948 -0.119541988 -0.20160827
vn 0.972143948 -0.119541988 -0.20160827
vn 0.972143948 -0.119541988 -0.20160827
vn 0.972143948 -0.119541988 -0.20160827
vn 0.242180049 -0.00167434383 0.970229805
vn 0.242180049 -0.00167434383 0.970229805
vn 0.242180049 -0.00167434383 0.970229805
vn 0.242180049 -0.00167434383 0.970229805
vn -0.961265147 -0.190336287 0.19935219
vn -0.961265147 -0.190336287 0.19935219
vn -0.961265147 -0.190336287 0.19935219
vn -0.961265147 -0.190336287 0.19935219
vn -0.16362159 -0.00167423137 -0.986521661
vn -0.16362159 -0.00167423137 -0.986521661
vn -0.16362159 -0.00167423137 -0.986521661
vn -0.16362159 -0.00167423137 -0.986521661
vn -0.0348240994 -0.999367416 0.00722188968
vn -0.0348240994 -0.999367416 0.00722188968
vn -0.0348240994 -0.999367416 0.00722188968
vn -0.0348240994 -0.999367416 0.00722188968
vn -0.791596413 0.588578701 0.164165393
vn -0.791596413 0.588578701 0.164165393
vn -0.791596413 0.588578701 0.164165393
vn -0.791596413 0.588578701 0.164165393
g HavenMidCol8_0
f 3/3/3 2/2/2 1/1/1
f 4/4/4 3/3/3 1/1/1
f 7/7/7 6/6/6 5/5/5
f 8/8/8 7/7/7 5/5/5
f 11/11/11 10/10/10 9/9/9
f 12/12/12 11/11/11 9/9/9
f 15/15/15 14/14/14 13/13/13
f 16/16/16 15/15/15 13/13/13
f 19/19/19 18/18/18 17/17/17
f 20/20/20 19/19/19 17/17/17
f 23/23/23 22/22/22 21/21/21
f 24/24/24 23/23/23 21/21/21
