g HavenMidCol5
v -0.0332349278 0.00772734638 -1.22973001
v 0.495891094 0.00772730354 -1.12580299
v 0.53707093 0.835539877 -1.21929193
v -0.0359947905 0.835539937 -1.33184922
v 0.495891094 0.00772730354 -1.12580299
v 0.498697162 0.0127723003 -0.980778456
v 0.463269204 0.400626868 -0.911102712
v 0.53707093 0.835539877 -1.21929193
v 0.498697162 0.0127723003 -0.980778456
v -0.0906857625 0.0127723003 -1.09654057
v -0.0842433721 0.400626868 -1.01864111
v 0.463269204 0.400626868 -0.911102712
v -0.0906857625 0.0127723003 -1.09654057
v -0.0332349278 0.00772734638 -1.22973001
v -0.0359947905 0.835539937 -1.33184922
v -0.0842433721 0.400626868 -1.01864111
v 0.495891094 0.00772730354 -1.12580299
v -0.0332349278 0.00772734638 -1.22973001
v -0.0906857625 0.0127723003 -1.09654057
v 0.498697162 0.0127723003 -0.980778456
v 0.463269204 0.400626868 -0.911102712
v -0.0842433721 0.400626868 -1.01864111
v -0.0359947905 0.835539937 -1.33184922
v 0.53707093 0.835539877 -1.21929193
vt 0.375 0
vt 0.375 0.25
vt 0.625 0.25
vt 0.625 0
vt 0.375 0.25
vt 0.375 0.5
vt 0.625 0.5
vt 0.625 0.25
vt 0.375 0.5
vt 0.375 0.75
vt 0.625 0.75
vt 0.625 0.5
vt 0.375 0.75
vt 0.375 1
vt 0.625 1
vt 0.625 0.75
vt 0.125 0.5
vt 0.125 0.75
vt 0.375 0.75
vt 0.375 0.5
vt 0.625 0.5
vt 0.625 0.75
vt 0.875 0.75
vt 0.875 0.5
vn 0.191347986 -0.119541593 -0.974215448
vn 0.191347986 -0.119541593 -0.974215448
vn 0.191347986 -0.119541593 -0.974215448
vn 0.191347986 -0.119541593 -0.974215448
vn 0.988191903 -0.00167431356 0.153211594
vn 0.988191903 -0.00167431356 0.153211594
vn 0.988191903 -0.00167431356 0.153211594
vn 0.988191903 -0.00167431356 0.153211594
vn -0.189206794 -0.190336078 0.96331346
vn -0.189206794 -0.190336078 0.96331346
vn -0.189206794 -0.190336078 0.96331346
vn -0.189206794 -0.190336078 0.96331346
vn -0.972729146 -0.00167428574 -0.231938213
vn -0.972729146 -0.00167428574 -0.231938213
vn -0.972729146 -0.00167428574 -0.231938213
vn -0.972729146 -0.00167428574 -0.231938213
vn -0.0068543735 -0.999367416 0.0348976478
vn -0.0068543735 -0.999367416 0.0348976478
vn -0.0068543735 -0.999367416 0.0348976478
vn -0.0068543735 -0.999367416 0.0348976478
vn -0.155810744 0.588578343 0.793283343
vn -0.155810744 0.588578343 0.793283343
vn -0.155810744 0.588578343 0.793283343
vn -0.155810744 0.588578343 0.793283343
g HavenMidCol5_0
f 3/3/3 2/2/2 1/1/1
f 4/4/4 3/3/3 1/1/1
f 7/7/7 6/6/6 5/5/5
f 8/8/8 7/7/7 5/5/5
f 11/11/11 10/10/10 9/9/9
f 12/12/12 11/11/11 9/9/9
f 15/15/15 14/14/14 13/13/13
f 16/16/16 15/15/15 13/13/13
f 19/19/19 18/18/18 17/17/17
f 20/20/20 19/19/19 17/17/17
f 23/23/23 22/22/22 21/21/21
f 24/24/24 23/23/23 21/21/21
