g HavenMidCol7
v 0.86164242 0.00772717642 -0.878016174
v 1.15437531 0.00772717642 -0.425155997
v 1.25023711 0.83553946 -0.460461766
v 0.933194935 0.83553946 -0.95092845
v 1.15437531 0.00772717642 -0.425155997
v 1.05198669 0.0127722155 -0.322410613
v 0.977252305 0.400626063 -0.299506158
v 1.25023711 0.83553946 -0.460461766
v 1.05198669 0.0127722155 -0.322410613
v 0.72591728 0.0127722155 -0.826842606
v 0.674347281 0.400626063 -0.768102586
v 0.977252305 0.400626063 -0.299506158
v 0.72591728 0.0127722155 -0.826842606
v 0.86164242 0.00772717642 -0.878016174
v 0.933194935 0.83553946 -0.95092845
v 0.674347281 0.400626063 -0.768102586
v 1.15437531 0.00772717642 -0.425155997
v 0.86164242 0.00772717642 -0.878016174
v 0.72591728 0.0127722155 -0.826842606
v 1.05198669 0.0127722155 -0.322410613
v 0.977252305 0.400626063 -0.299506158
v 0.674347281 0.400626063 -0.768102586
v 0.933194935 0.83553946 -0.95092845
v 1.25023711 0.83553946 -0.460461766
vt 0.375 0
vt 0.375 0.25
vt 0.625 0.25
vt 0.625 0
vt 0.375 0.25
vt 0.375 0.5
vt 0.625 0.5
vt 0.625 0.25
vt 0.375 0.5
vt 0.375 0.75
vt 0.625 0.75
vt 0.625 0.5
vt 0.375 0.75
vt 0.375 1
vt 0.625 1
vt 0.625 0.75
vt 0.125 0.5
vt 0.125 0.75
vt 0.375 0.75
vt 0.375 0.5
vt 0.625 0.5
vt 0.625 0.75
vt 0.875 0.75
vt 0.875 0.5
vn 0.833796799 -0.119541734 -0.538973808
vn 0.833796799 -0.119541734 -0.538973808
vn 0.833796799 -0.119541734 -0.538973808
vn 0.833796799 -0.119541734 -0.538973808
vn 0.57611835 -0.00167442206 0.817364514
vn 0.57611835 -0.00167442206 0.817364514
vn 0.57611835 -0.00167442206 0.817364514
vn 0.57611835 -0.00167442206 0.817364514
vn -0.824466169 -0.190336421 0.532942414
vn -0.824466169 -0.190336421 0.532942414
vn -0.824466169 -0.190336421 0.532942414
vn -0.824466169 -0.190336421 0.532942414
vn -0.508739352 -0.00167409517 -0.860918939
vn -0.508739352 -0.00167409517 -0.860918939
vn -0.508739352 -0.00167409517 -0.860918939
vn -0.508739352 -0.00167409517 -0.860918939
vn -0.0298680291 -0.999367416 0.0193069614
vn -0.0298680291 -0.999367416 0.0193069614
vn -0.0298680291 -0.999367416 0.0193069614
vn -0.0298680291 -0.999367416 0.0193069614
vn -0.678943396 0.588578284 0.438875228
vn -0.678943396 0.588578284 0.438875228
vn -0.678943396 0.588578284 0.438875228
vn -0.678943396 0.588578284 0.438875228
g HavenMidCol7_0
f 3/3/3 2/2/2 1/1/1
f 4/4/4 3/3/3 1/1/1
f 7/7/7 6/6/6 5/5/5
f 8/8/8 7/7/7 5/5/5
f 11/11/11 10/10/10 9/9/9
f 12/12/12 11/11/11 9/9/9
f 15/15/15 14/14/14 13/13/13
f 16/16/16 15/15/15 13/13/13
f 19/19/19 18/18/18 17/17/17
f 20/20/20 19/19/19 17/17/17
f 23/23/23 22/22/22 21/21/21
f 24/24/24 23/23/23 21/21/21
