g HavenMidCol11
v 0.882133424 0.00772700598 0.857426703
v 0.430680484 0.00772704883 1.15232527
v 0.466445327 0.835539281 1.24801707
v 0.955387831 0.835539222 0.928629577
v 0.430680484 0.00772704883 1.15232527
v 0.327446014 0.0127721308 1.05042994
v 0.30418399 0.400625974 0.975806057
v 0.466445327 0.835539281 1.24801707
v 0.327446014 0.0127721308 1.05042994
v 0.830310464 0.0127720879 0.721948326
v 0.771324217 0.400625944 0.670660317
v 0.30418399 0.400625974 0.975806057
v 0.830310464 0.0127720879 0.721948326
v 0.882133424 0.00772700598 0.857426703
v 0.955387831 0.835539222 0.928629577
v 0.771324217 0.400625944 0.670660317
v 0.430680484 0.00772704883 1.15232527
v 0.882133424 0.00772700598 0.857426703
v 0.830310464 0.0127720879 0.721948326
v 0.327446014 0.0127721308 1.05042994
v 0.30418399 0.400625974 0.975806057
v 0.771324217 0.400625944 0.670660317
v 0.955387831 0.835539222 0.928629577
v 0.466445327 0.835539281 1.24801707
vt 0.375 0
vt 0.375 0.25
vt 0.625 0.25
vt 0.625 0
vt 0.375 0.25
vt 0.375 0.5
vt 0.625 0.5
vt 0.625 0.25
vt 0.375 0.5
vt 0.375 0.75
vt 0.625 0.75
vt 0.625 0.5
vt 0.375 0.75
vt 0.375 1
vt 0.625 1
vt 0.625 0.75
vt 0.125 0.5
vt 0.125 0.75
vt 0.375 0.75
vt 0.375 0.5
vt 0.625 0.5
vt 0.625 0.75
vt 0.875 0.75
vt 0.875 0.5
vn 0.54296118 -0.119542234 0.831205666
vn 0.54296118 -0.119542234 0.831205666
vn 0.54296118 -0.119542234 0.831205666
vn 0.54296118 -0.119542234 0.831205666
vn -0.814596236 -0.00167420285 0.580025911
vn -0.814596236 -0.00167420285 0.580025911
vn -0.814596236 -0.00167420285 0.580025911
vn -0.814596236 -0.00167420285 0.580025911
vn -0.536885023 -0.190336332 -0.821904242
vn -0.536885023 -0.190336332 -0.821904242
vn -0.536885023 -0.190336332 -0.821904242
vn -0.536885023 -0.190336332 -0.821904242
vn 0.858472347 -0.00167420437 -0.51285708
vn 0.858472347 -0.00167420437 -0.51285708
vn 0.858472347 -0.00167420437 -0.51285708
vn 0.858472347 -0.00167420437 -0.51285708
vn -0.0194500331 -0.999367416 -0.0297754593
vn -0.0194500331 -0.999367416 -0.0297754593
vn -0.0194500331 -0.999367416 -0.0297754593
vn -0.0194500331 -0.999367416 -0.0297754593
vn -0.442121685 0.588578761 -0.676833391
vn -0.442121685 0.588578761 -0.676833391
vn -0.442121685 0.588578761 -0.676833391
vn -0.442121685 0.588578761 -0.676833391
g HavenMidCol11_0
f 3/3/3 2/2/2 1/1/1
f 4/4/4 3/3/3 1/1/1
f 7/7/7 6/6/6 5/5/5
f 8/8/8 7/7/7 5/5/5
f 11/11/11 10/10/10 9/9/9
f 12/12/12 11/11/11 9/9/9
f 15/15/15 14/14/14 13/13/13
f 16/16/16 15/15/15 13/13/13
f 19/19/19 18/18/18 17/17/17
f 20/20/20 19/19/19 17/17/17
f 23/23/23 22/22/22 21/21/21
f 24/24/24 23/23/23 21/21/21
