g HavenMidCol10
v 1.14476526 0.0077270912 0.450391203
v 0.842162788 0.00772713358 0.896716893
v 0.912098169 0.83553952 0.971182227
v 1.23982942 0.83553952 0.487792641
v 0.842162788 0.00772713358 0.896716893
v 0.707593858 0.0127722155 0.842576623
v 0.657325625 0.400626481 0.782719076
v 0.912098169 0.83553952 0.971182227
v 0.707593858 0.0127722155 0.842576623
v 1.04465663 0.0127721308 0.345423251
v 0.970443189 0.400626451 0.320884019
v 0.657325625 0.400626481 0.782719076
v 1.04465663 0.0127721308 0.345423251
v 1.14476526 0.0077270912 0.450391203
v 1.23982942 0.83553952 0.487792641
v 0.970443189 0.400626451 0.320884019
v 0.842162788 0.00772713358 0.896716893
v 1.14476526 0.0077270912 0.450391203
v 1.04465663 0.0127721308 0.345423251
v 0.707593858 0.0127722155 0.842576623
v 0.657325625 0.400626481 0.782719076
v 0.970443189 0.400626451 0.320884019
v 1.23982942 0.83553952 0.487792641
v 0.912098169 0.83553952 0.971182227
vt 0.375 0
vt 0.375 0.25
vt 0.625 0.25
vt 0.625 0
vt 0.375 0.25
vt 0.375 0.5
vt 0.625 0.5
vt 0.625 0.25
vt 0.375 0.5
vt 0.375 0.75
vt 0.625 0.75
vt 0.625 0.5
vt 0.375 0.75
vt 0.375 1
vt 0.625 1
vt 0.625 0.75
vt 0.125 0.5
vt 0.125 0.75
vt 0.375 0.75
vt 0.375 0.5
vt 0.625 0.5
vt 0.625 0.75
vt 0.875 0.75
vt 0.875 0.5
vn 0.821765602 -0.119542129 0.557145417
vn 0.821765602 -0.119542129 0.557145417
vn 0.821765602 -0.119542129 0.557145417
vn 0.821765602 -0.119542129 0.557145417
vn -0.527513385 -0.00167431368 0.849545002
vn -0.527513385 -0.00167431368 0.849545002
vn -0.527513385 -0.00167431368 0.849545002
vn -0.527513385 -0.00167431368 0.849545002
vn -0.812569857 -0.19033581 -0.550910652
vn -0.812569857 -0.19033581 -0.550910652
vn -0.812569857 -0.19033581 -0.550910652
vn -0.812569857 -0.19033581 -0.550910652
vn 0.593920469 -0.00167444942 -0.804522038
vn 0.593920469 -0.00167444942 -0.804522038
vn 0.593920469 -0.00167444942 -0.804522038
vn 0.593920469 -0.00167444942 -0.804522038
vn -0.0294372886 -0.999367416 -0.0199579243
vn -0.0294372886 -0.999367416 -0.0199579243
vn -0.0294372886 -0.999367416 -0.0199579243
vn -0.0294372886 -0.999367416 -0.0199579243
vn -0.669146538 0.588578701 -0.453671843
vn -0.669146538 0.588578701 -0.453671843
vn -0.669146538 0.588578701 -0.453671843
vn -0.669146538 0.588578701 -0.453671843
g HavenMidCol10_0
f 3/3/3 2/2/2 1/1/1
f 4/4/4 3/3/3 1/1/1
f 7/7/7 6/6/6 5/5/5
f 8/8/8 7/7/7 5/5/5
f 11/11/11 10/10/10 9/9/9
f 12/12/12 11/11/11 9/9/9
f 15/15/15 14/14/14 13/13/13
f 16/16/16 15/15/15 13/13/13
f 19/19/19 18/18/18 17/17/17
f 20/20/20 19/19/19 17/17/17
f 23/23/23 22/22/22 21/21/21
f 24/24/24 23/23/23 21/21/21
