g GtopCol8
v -0.419115901 1.53549767 -0.0550655872
v -0.4144364 1.3417213 -0.0564943068
v -0.108305395 1.3417213 -0.0564943068
v -0.108305395 1.3417213 0.0564942546
v -0.4144364 1.3417213 0.0564942546
v -0.419115901 1.53549767 0.0550655127
v -0.108305395 1.3417213 -0.0564943068
v -0.4144364 1.3417213 -0.0564943068
v -0.4144364 1.3417213 0.0564942546
v -0.108305395 1.3417213 0.0564942546
v -0.4144364 1.3417213 -0.0564943068
v -0.419115901 1.53549767 -0.0550655872
v -0.419115901 1.53549767 0.0550655127
v -0.4144364 1.3417213 0.0564942546
v -0.108305395 1.3417213 -0.0564943068
v -0.108305395 1.3417213 0.0564942546
v -0.419115901 1.53549767 0.0550655127
v -0.419115901 1.53549767 -0.0550655872
vt 0.125 0.625
vt 0.125 0.75
vt 0.375 0.75
vt 0.625 0.75
vt 0.875 0.75
vt 0.875 0.625
vt 0.375 0.75
vt 0.375 1
vt 0.625 1
vt 0.625 0.75
vt 0.375 0
vt 0.375 0.125
vt 0.625 0.125
vt 0.625 0
vt 0.375 0.75
vt 0.625 0.75
vt 0.875 0.625
vt 0.375 0.125
vn -0 0.00737283658 -0.99997282
vn -0 0.00737283658 -0.99997282
vn -0 0.00737283658 -0.99997282
vn -0 0.00737294927 0.99997282
vn -0 0.00737294927 0.99997282
vn -0 0.00737294927 0.99997282
vn -0 -1 0
vn -0 -1 0
vn -0 -1 0
vn -0 -1 0
vn -0.999708474 -0.0241420716 0
vn -0.999708474 -0.0241420716 0
vn -0.999708474 -0.0241420716 0
vn -0.999708474 -0.0241420716 0
vn 0.529055774 0.848587036 0
vn 0.529055774 0.848587036 0
vn 0.529055774 0.848587036 0
vn 0.529055774 0.848587036 0
g GtopCol8_0
f 3/3/3 2/2/2 1/1/1
f 6/6/6 5/5/5 4/4/4
f 9/9/9 8/8/8 7/7/7
f 10/10/10 9/9/9 7/7/7
f 13/13/13 12/12/12 11/11/11
f 14/14/14 13/13/13 11/11/11
f 17/17/17 16/16/16 15/15/15
f 18/18/18 17/17/17 15/15/15
