g GtopCol7
v 0.413009107 1.34252286 -0.0550656058
v 0.153065503 1.10722041 -0.075056389
v 0.153065503 1.10722041 0.0750562996
v 0.413009107 1.34252286 0.055065494
v 0.153065503 1.10722041 -0.075056389
v -0.153065503 1.10722041 -0.075056389
v -0.153065503 1.10722041 0.0750562996
v 0.153065503 1.10722041 0.0750562996
v -0.413009107 1.34252286 -0.0550656058
v -0.153065503 1.10722041 -0.075056389
v 0.153065503 1.10722041 -0.075056389
v 0.413009107 1.34252286 -0.0550656058
v 0.413009107 1.34252286 0.055065494
v 0.153065503 1.10722041 0.0750562996
v -0.153065503 1.10722041 0.0750562996
v -0.413009107 1.34252286 0.055065494
v 0.413009107 1.34252286 -0.0550656058
v 0.413009107 1.34252286 0.055065494
v -0.413009107 1.34252286 0.055065494
v -0.413009107 1.34252286 -0.0550656058
v -0.153065503 1.10722041 -0.075056389
v -0.413009107 1.34252286 -0.0550656058
v -0.413009107 1.34252286 0.055065494
v -0.153065503 1.10722041 0.0750562996
vt 0.37500003 0.625
vt 0.375 0.75
vt 0.625 0.75
vt 0.625 0.625
vt 0.375 0.75
vt 0.375 1
vt 0.625 1
vt 0.625 0.75
vt 0.125 0.625
vt 0.125 0.75
vt 0.375 0.75
vt 0.37500003 0.625
vt 0.625 0.625
vt 0.625 0.75
vt 0.875 0.75
vt 0.875 0.625
vt 0.37500003 0.625
vt 0.625 0.625
vt 0.875 0.625
vt 0.375 0.125
vt 0.375 0
vt 0.375 0.125
vt 0.625 0.125
vt 0.625 0
vn 0.671094239 -0.741372049 0
vn 0.671094239 -0.741372049 0
vn 0.671094239 -0.741372049 0
vn 0.671094239 -0.741372049 0
vn -0 -1 0
vn -0 -1 0
vn -0 -1 0
vn -0 -1 0
vn -0 0.0846528485 -0.996410429
vn -0 0.0846528485 -0.996410429
vn -0 0.0846528485 -0.996410429
vn -0 0.0846528485 -0.996410429
vn -0 0.0846529379 0.996410429
vn -0 0.0846529379 0.996410429
vn -0 0.0846529379 0.996410429
vn -0 0.0846529379 0.996410429
vn -0 1 0
vn -0 1 0
vn -0 1 0
vn -0 1 0
vn -0.671094239 -0.741372049 0
vn -0.671094239 -0.741372049 0
vn -0.671094239 -0.741372049 0
vn -0.671094239 -0.741372049 0
g GtopCol7_0
f 3/3/3 2/2/2 1/1/1
f 4/4/4 3/3/3 1/1/1
f 7/7/7 6/6/6 5/5/5
f 8/8/8 7/7/7 5/5/5
f 11/11/11 10/10/10 9/9/9
f 12/12/12 11/11/11 9/9/9
f 15/15/15 14/14/14 13/13/13
f 16/16/16 15/15/15 13/13/13
f 19/19/19 18/18/18 17/17/17
f 20/20/20 19/19/19 17/17/17
f 23/23/23 22/22/22 21/21/21
f 24/24/24 23/23/23 21/21/21
