g GtopCol3
v 0.268699765 0.275047779 -1.20227206E-08
v -0 0.275047779 -1.20227206E-08
v 0.321002305 0.000356795441 0.321002305
v 0.274353147 0.275047779 0.274353147
v 0.321002305 0.000356795441 0.321002305
v -0 0.275047779 0.274353027
v 0.268699765 0.275047779 -1.20227206E-08
v 0.321002305 0.000356795441 0.321002305
v 0.274353147 0.275047779 0.274353147
v -0 0.275047779 -1.20227206E-08
v -0 0.275047779 0.274353027
v 0.321002305 0.000356795441 0.321002305
v 0.268699765 0.275047779 -1.20227206E-08
v 0.274353147 0.275047779 0.274353147
v -0 0.275047779 0.274353027
v -0 0.275047779 -1.20227206E-08
vt 0.375 0.75
vt 0.375 0.880805194
vt 0.625 0.75
vt 0.625 0.75
vt 0.625 0.75
vt 0.625 1
vt 0.375 0.75
vt 0.625 0.75
vt 0.625 0.75
vt 0.375 0.880805194
vt 0.375 1
vt 0.625 0.75
vt 0.375 0.75
vt 0.625 0.75
vt 0.625 1
vt 0.505805135 0.880805194
vn -0 -0.759787142 -0.650171816
vn -0 -0.759787142 -0.650171816
vn -0 -0.759787142 -0.650171816
vn -0 0.167426914 0.985884488
vn -0 0.167426914 0.985884488
vn -0 0.167426914 0.985884488
vn 0.986244857 0.16403687 -0.0203227792
vn 0.986244857 0.16403687 -0.0203227792
vn 0.986244857 0.16403687 -0.0203227792
vn -0.650171936 -0.759787142 0
vn -0.650171936 -0.759787142 0
vn -0.650171936 -0.759787142 0
vn -0 1 0
vn -0 1 0
vn -0 1 0
vn -0 1 0
g GtopCol3_0
f 3/3/3 2/2/2 1/1/1
f 6/6/6 5/5/5 4/4/4
f 9/9/9 8/8/8 7/7/7
f 12/12/12 11/11/11 10/10/10
f 15/15/15 14/14/14 13/13/13
f 16/16/16 15/15/15 13/13/13
