g GtopCol6
v -1.07839767E-07 0.275047809 -0.268699735
v -0 0.275047779 2.07655297E-08
v 0.321002185 0.000356805656 -0.321002424
v 0.274353057 0.275047809 -0.274353236
v 0.321002185 0.000356805656 -0.321002424
v 0.274353027 0.275047779 -8.93431178E-08
v -1.07839767E-07 0.275047809 -0.268699735
v 0.321002185 0.000356805656 -0.321002424
v 0.274353057 0.275047809 -0.274353236
v -0 0.275047779 2.07655297E-08
v 0.274353027 0.275047779 -8.93431178E-08
v 0.321002185 0.000356805656 -0.321002424
v -1.07839767E-07 0.275047809 -0.268699735
v 0.274353057 0.275047809 -0.274353236
v 0.274353027 0.275047779 -8.93431178E-08
v -0 0.275047779 2.07655297E-08
vt 0.375 0.75
vt 0.375 0.880805194
vt 0.625 0.75
vt 0.625 0.75
vt 0.625 0.75
vt 0.625 1
vt 0.375 0.75
vt 0.625 0.75
vt 0.625 0.75
vt 0.375 0.880805194
vt 0.375 1
vt 0.625 0.75
vt 0.375 0.75
vt 0.625 0.75
vt 0.625 1
vt 0.505805135 0.880805194
vn -0.650171816 -0.759787261 0
vn -0.650171816 -0.759787261 0
vn -0.650171816 -0.759787261 0
vn 0.985884488 0.167426929 0
vn 0.985884488 0.167426929 0
vn 0.985884488 0.167426929 0
vn -0.0203232486 0.164036915 -0.986244857
vn -0.0203232486 0.164036915 -0.986244857
vn -0.0203232486 0.164036915 -0.986244857
vn -0 -0.759787142 0.650171876
vn -0 -0.759787142 0.650171876
vn -0 -0.759787142 0.650171876
vn -0 1 0
vn -0 1 0
vn -0 1 0
vn -0 1 0
g GtopCol6_0
f 3/3/3 2/2/2 1/1/1
f 6/6/6 5/5/5 4/4/4
f 9/9/9 8/8/8 7/7/7
f 12/12/12 11/11/11 10/10/10
f 15/15/15 14/14/14 13/13/13
f 16/16/16 15/15/15 13/13/13
