g Bloodwyrm_col
v -2.60337543 -0.11128743 1.28704774
v -2.60337543 0.111287415 1.28704774
v -1.07640266 0.111287385 5.3381176
v -1.07640266 -0.11128746 5.3381176
v -2.60337543 0.111287415 1.28704774
v 2.36788964 0.111287415 1.2073735
v 1.08594465 0.111287385 5.3381176
v -1.07640266 0.111287385 5.3381176
v 2.36788964 0.111287415 1.2073735
v 2.36788964 -0.11128743 1.2073735
v 1.08594465 -0.11128746 5.3381176
v 1.08594465 0.111287385 5.3381176
v 2.36788964 -0.11128743 1.2073735
v -2.60337543 -0.11128743 1.28704774
v -1.07640266 -0.11128746 5.3381176
v 1.08594465 -0.11128746 5.3381176
v -2.4250381 0.111287415 0.309901953
v -2.4250381 -0.11128743 0.309901953
v 2.38540101 -0.11128743 0.309901953
v 2.38540101 0.111287415 0.309901953
v 1.08594465 0.111287385 5.3381176
v 1.08594465 -0.11128746 5.3381176
v -1.07640266 -0.11128746 5.3381176
v -1.07640266 0.111287385 5.3381176
v 2.38540101 -0.11128743 0.309901953
v -2.4250381 -0.11128743 0.309901953
v -2.60337543 -0.11128743 1.28704774
v 2.36788964 -0.11128743 1.2073735
v 2.38540101 0.111287415 0.309901953
v 2.38540101 -0.11128743 0.309901953
v 2.36788964 -0.11128743 1.2073735
v 2.36788964 0.111287415 1.2073735
v -2.4250381 0.111287415 0.309901953
v 2.38540101 0.111287415 0.309901953
v 2.36788964 0.111287415 1.2073735
v -2.60337543 0.111287415 1.28704774
v -2.4250381 -0.11128743 0.309901953
v -2.4250381 0.111287415 0.309901953
v -2.60337543 0.111287415 1.28704774
v -2.60337543 -0.11128743 1.28704774
vt 0.438839078 0
vt 0.438839048 0.249999985
vt 0.625 0.25
vt 0.625 0
vt 0.438839048 0.249999985
vt 0.438839048 0.5
vt 0.625 0.5
vt 0.625 0.25
vt 0.438839048 0.5
vt 0.438839048 0.75
vt 0.625 0.75
vt 0.625 0.5
vt 0.438839048 0.75
vt 0.438839048 1
vt 0.625 1
vt 0.625 0.75
vt 0.125 0.5
vt 0.125 0.75
vt 0.375 0.75
vt 0.375 0.5
vt 0.625 0.5
vt 0.625 0.75
vt 0.875 0.75
vt 0.875 0.5
vt 0.375 0.75
vt 0.375 1
vt 0.438839048 1
vt 0.438839048 0.75
vt 0.375 0.5
vt 0.375 0.75
vt 0.438839048 0.75
vt 0.438839048 0.5
vt 0.375 0.25
vt 0.375 0.5
vt 0.438839048 0.5
vt 0.438839048 0.249999985
vt 0.375 0
vt 0.375 0.25
vt 0.438839048 0.249999985
vt 0.438839078 0
vn -0.935733855 0 0.35270685
vn -0.935733855 0 0.35270685
vn -0.935733855 0 0.35270685
vn -0.935733855 0 0.35270685
vn -0 1 0
vn -0 1 0
vn -0 1 0
vn -0 1 0
vn 0.955064774 0 0.29639709
vn 0.955064774 0 0.29639709
vn 0.955064774 0 0.29639709
vn 0.955064774 0 0.29639709
vn -0 -1 0
vn -0 -1 0
vn -0 -1 0
vn -0 -1 0
vn -0 0 -1
vn -0 0 -1
vn -0 0 -1
vn -0 0 -1
vn -0 0 1
vn -0 0 1
vn -0 0 1
vn -0 0 1
vn -0 -1 0
vn -0 -1 0
vn -0 -1 0
vn -0 -1 0
vn 0.999809682 0 0.0195081774
vn 0.999809682 0 0.0195081774
vn 0.999809682 0 0.0195081774
vn 0.999809682 0 0.0195081774
vn -0 1 0
vn -0 1 0
vn -0 1 0
vn -0 1 0
vn -0.983750165 0 -0.179542705
vn -0.983750165 0 -0.179542705
vn -0.983750165 0 -0.179542705
vn -0.983750165 0 -0.179542705
g Bloodwyrm_col_0
f 3/3/3 2/2/2 1/1/1
f 4/4/4 3/3/3 1/1/1
f 7/7/7 6/6/6 5/5/5
f 8/8/8 7/7/7 5/5/5
f 11/11/11 10/10/10 9/9/9
f 12/12/12 11/11/11 9/9/9
f 15/15/15 14/14/14 13/13/13
f 16/16/16 15/15/15 13/13/13
f 19/19/19 18/18/18 17/17/17
f 20/20/20 19/19/19 17/17/17
f 23/23/23 22/22/22 21/21/21
f 24/24/24 23/23/23 21/21/21
f 27/27/27 26/26/26 25/25/25
f 28/28/28 27/27/27 25/25/25
f 31/31/31 30/30/30 29/29/29
f 32/32/32 31/31/31 29/29/29
f 35/35/35 34/34/34 33/33/33
f 36/36/36 35/35/35 33/33/33
f 39/39/39 38/38/38 37/37/37
f 40/40/40 39/39/39 37/37/37
