g FjöljaCol
v -1.44166541 -0.111287825 2.84640574
v -1.09978437 0.111287221 6.8050518
v -1.09978437 -0.111287631 6.8050518
v -1.44166541 0.11128702 2.84640574
v -1.56929326 -0.111287422 0.309901953
v -1.56929326 0.111287422 0.309901953
v 0.135697708 0.111287504 2.49264717
v 0.426176101 0.111287273 6.39885855
v -0.180482626 0.111287266 6.69448853
v 1.17142451 0.111287333 3.27936888
v -1.44166541 0.11128702 2.84640574
v -0.180482626 0.111287266 6.69448853
v -1.09978437 0.111287221 6.8050518
v -0 0.111287422 0.309901953
v 1.80147815 0.111287422 0.309901953
v 0.135697708 0.111287504 2.49264717
v -1.56929326 0.111287422 0.309901953
v -0 0.111287422 0.309901953
v -1.44166541 0.11128702 2.84640574
v 1.17142451 0.111287333 3.27936888
v 0.426176101 -0.111287579 6.39885855
v 0.426176101 0.111287273 6.39885855
v 1.17142451 -0.111287512 3.27936888
v 1.80147815 0.111287422 0.309901953
v 1.80147815 -0.111287422 0.309901953
v -0 0.111287422 0.309901953
v 1.80147815 -0.111287422 0.309901953
v 1.80147815 0.111287422 0.309901953
v 1.41937576E-07 -0.111287422 0.309901953
v -1.56929326 0.111287422 0.309901953
v -1.56929326 -0.111287422 0.309901953
v -0.180482626 0.111287266 6.69448853
v -0.180482566 -0.111287586 6.69448853
v -1.09978437 -0.111287631 6.8050518
v -1.09978437 0.111287221 6.8050518
v 1.41937576E-07 -0.111287422 0.309901953
v -1.56929326 -0.111287422 0.309901953
v -1.44166541 -0.111287825 2.84640574
v 0.135697708 -0.111287341 2.49264717
v -1.09978437 -0.111287631 6.8050518
v -0.180482566 -0.111287586 6.69448853
v 1.80147815 -0.111287422 0.309901953
v 1.41937576E-07 -0.111287422 0.309901953
v 1.17142451 -0.111287512 3.27936888
v 1.17142451 -0.111287512 3.27936888
v 0.135697708 -0.111287341 2.49264717
v 0.426176101 -0.111287579 6.39885855
v 0.426176101 0.111287273 6.39885855
v 0.426176101 -0.111287579 6.39885855
v -0.180482566 -0.111287586 6.69448853
v -0.180482626 0.111287266 6.69448853
vt 0.438839078 0
vt 0.625 0.25
vt 0.625 0
vt 0.438839048 0.249999985
vt 0.375 0
vt 0.375 0.25
vt 0.438839018 0.37499997
vt 0.625 0.5
vt 0.625 0.375
vt 0.438839048 0.5
vt 0.438839048 0.249999985
vt 0.625 0.375
vt 0.625 0.25
vt 0.375 0.375
vt 0.375 0.5
vt 0.438839018 0.37499997
vt 0.375 0.25
vt 0.375 0.375
vt 0.438839048 0.249999985
vt 0.438839048 0.5
vt 0.625 0.75
vt 0.625 0.5
vt 0.438839048 0.75
vt 0.375 0.5
vt 0.375 0.75
vt 0.24999997 0.49999994
vt 0.375 0.75
vt 0.375 0.5
vt 0.24999997 0.74999994
vt 0.125 0.5
vt 0.125 0.75
vt 0.75 0.5
vt 0.75 0.75
vt 0.875 0.75
vt 0.875 0.5
vt 0.375 0.875
vt 0.375 1
vt 0.438839048 1
vt 0.438839078 0.875
vt 0.625 1
vt 0.625 0.875
vt 0.375 0.75
vt 0.375 0.875
vt 0.438839048 0.75
vt 0.438839048 0.75
vt 0.438839078 0.875
vt 0.625 0.75
vt 0.625 0.5
vt 0.625 0.75
vt 0.75 0.75
vt 0.75 0.5
vn -0.996291518 0 0.0860428438
vn -0.996291518 0 0.0860428438
vn -0.996291518 0 0.0860428438
vn -0.996291518 0 0.0860428438
vn -0.99873656 0 0.0502528735
vn -0.99873656 0 0.0502528735
vn -0 1 0
vn -0 1 0
vn -0 1 0
vn -0 1 0
vn -0 1 0
vn -0 1 0
vn -0 1 0
vn -0 1 0
vn -0 1 0
vn -0 1 0
vn -0 1 0
vn -0 1 0
vn -0 1 0
vn 0.972629309 0 0.232361823
vn 0.972629309 0 0.232361823
vn 0.972629309 0 0.232361823
vn 0.972629309 0 0.232361823
vn 0.978222966 0 0.207556754
vn 0.978222966 0 0.207556754
vn -0 0 -1
vn -0 0 -1
vn -0 0 -1
vn -0 0 -1
vn -0 0 -1
vn -0 0 -1
vn 0.119408563 0 0.992845237
vn 0.119408563 0 0.992845237
vn 0.119408563 0 0.992845237
vn 0.119408563 0 0.992845237
vn -0 -1 0
vn -0 -1 0
vn -0 -1 0
vn -0 -1 0
vn -0 -1 0
vn -0 -1 0
vn -0 -1 0
vn -0 -1 0
vn -0 -1 0
vn -0 -1 0
vn -0 -1 0
vn -0 -1 0
vn 0.438062489 0 0.898944557
vn 0.438062489 0 0.898944557
vn 0.438062489 0 0.898944557
vn 0.438062489 0 0.898944557
g FjöljaCol_0
f 3/3/3 2/2/2 1/1/1
f 2/2/2 4/4/4 1/1/1
f 1/1/1 4/4/4 5/5/5
f 4/4/4 6/6/6 5/5/5
f 9/9/9 8/8/8 7/7/7
f 8/8/8 10/10/10 7/7/7
f 12/12/12 7/7/7 11/11/11
f 13/13/13 12/12/12 11/11/11
f 10/10/10 15/15/15 14/14/14
f 16/16/16 10/10/10 14/14/14
f 16/16/16 18/18/18 17/17/17
f 19/19/19 16/16/16 17/17/17
f 22/22/22 21/21/21 20/20/20
f 21/21/21 23/23/23 20/20/20
f 20/20/20 23/23/23 24/24/24
f 23/23/23 25/25/25 24/24/24
f 28/28/28 27/27/27 26/26/26
f 27/27/27 29/29/29 26/26/26
f 26/26/26 29/29/29 30/30/30
f 29/29/29 31/31/31 30/30/30
f 34/34/34 33/33/33 32/32/32
f 35/35/35 34/34/34 32/32/32
f 38/38/38 37/37/37 36/36/36
f 39/39/39 38/38/38 36/36/36
f 40/40/40 38/38/38 39/39/39
f 41/41/41 40/40/40 39/39/39
f 39/39/39 43/43/43 42/42/42
f 44/44/44 39/39/39 42/42/42
f 41/41/41 46/46/46 45/45/45
f 47/47/47 41/41/41 45/45/45
f 50/50/50 49/49/49 48/48/48
f 51/51/51 50/50/50 48/48/48
