g CrimsonShieldCol
v -0.0864086449 -0.0652009249 2.35782194
v -1.55426705 -0.0652012452 2.67975426
v -1.0020144 -0.065201059 3.90457559
v -0.0864087343 0.0662669316 2.35782194
v 1.71303141 0.0662679225 1.37851954
v 1.15559483 0.0662671924 4.31926346
v -1.58324838E-07 0.0662669018 0.286494732
v 1.47054958 0.0662670359 0.296451807
v 1.71303141 0.0662679225 1.37851954
v 1.71303117 -0.0651999339 1.37851954
v 1.47054958 -0.0652008206 0.296451807
v 1.67638063E-08 -0.0652009547 0.286494732
v -1.0020144 0.0662668049 3.90457559
v -1.55426705 0.0662666112 2.67975426
v -0.0864087343 0.0662669316 2.35782194
v 1.15559483 -0.0652006716 4.31926346
v 1.71303117 -0.0651999339 1.37851954
v -0.0864086449 -0.0652009249 2.35782194
v -0.0864086449 -0.0652009249 2.35782194
v -1.57675064 -0.0652010962 0.286494732
v -1.55426705 -0.0652012452 2.67975426
v 1.15559483 -0.0652006716 4.31926346
v -0.0879805982 -0.0652008951 4.96801805
v -0.0864086449 -0.0652009249 2.35782194
v -1.0020144 -0.065201059 3.90457559
v 1.67638063E-08 -0.0652009547 0.286494732
v -1.57675064 -0.0652010962 0.286494732
v 1.71303117 -0.0651999339 1.37851954
v -1.57675064 0.0662667602 0.286494732
v -0.0864087343 0.0662669316 2.35782194
v -1.55426705 0.0662666112 2.67975426
v -1.0020144 0.0662668049 3.90457559
v -0.0879808366 0.0662669688 4.96801805
v -0.0864087343 0.0662669316 2.35782194
v 1.15559483 0.0662671924 4.31926346
v -1.57675064 0.0662667602 0.286494732
v -1.58324838E-07 0.0662669018 0.286494732
v 1.71303141 0.0662679225 1.37851954
v 1.71303141 0.0662679225 1.37851954
v 1.71303117 -0.0651999339 1.37851954
v 1.15559483 -0.0652006716 4.31926346
v 1.15559483 0.0662671924 4.31926346
v -1.0020144 -0.065201059 3.90457559
v -1.55426705 -0.0652012452 2.67975426
v -1.55426705 0.0662666112 2.67975426
v -1.0020144 0.0662668049 3.90457559
v -0.0879805982 -0.0652008951 4.96801805
v -0.0879808366 0.0662669688 4.96801805
v 1.15559483 0.0662671924 4.31926346
v 1.15559483 -0.0652006716 4.31926346
v -1.55426705 -0.0652012452 2.67975426
v -1.57675064 -0.0652010962 0.286494732
v -1.57675064 0.0662667602 0.286494732
v -1.55426705 0.0662666112 2.67975426
v 1.47054958 0.0662670359 0.296451807
v 1.47054958 -0.0652008206 0.296451807
v 1.71303117 -0.0651999339 1.37851954
v 1.71303141 0.0662679225 1.37851954
v -1.0020144 -0.065201059 3.90457559
v -1.0020144 0.0662668049 3.90457559
v -0.0879808366 0.0662669688 4.96801805
v -0.0879805982 -0.0652008951 4.96801805
v 1.67638063E-08 -0.0652009547 0.286494732
v 1.47054958 -0.0652008206 0.296451807
v 1.47054958 0.0662670359 0.296451807
v -1.58324838E-07 0.0662669018 0.286494732
v -1.57675064 -0.0652010962 0.286494732
v -1.57675064 0.0662667602 0.286494732
vt 0.438839018 0.37499997
vt 0.438839048 0.5
vt 0.625 0.5
vt 0.438839078 0.875
vt 0.438839048 1
vt 0.625 1
vt 0.375 0.875
vt 0.375 1
vt 0.438839048 1
vt 0.438839048 0.249999985
vt 0.375 0.25
vt 0.375 0.375
vt 0.625 0.75
vt 0.438839048 0.75
vt 0.438839078 0.875
vt 0.625 0.25
vt 0.438839048 0.249999985
vt 0.438839018 0.37499997
vt 0.438839018 0.37499997
vt 0.375 0.5
vt 0.438839048 0.5
vt 0.625 0.25
vt 0.625 0.375
vt 0.438839018 0.37499997
vt 0.625 0.5
vt 0.375 0.375
vt 0.375 0.5
vt 0.438839048 0.249999985
vt 0.375 0.75
vt 0.438839078 0.875
vt 0.438839048 0.75
vt 0.625 0.75
vt 0.625 0.875
vt 0.438839078 0.875
vt 0.625 1
vt 0.375 0.75
vt 0.375 0.875
vt 0.438839048 1
vt 0.438839078 0
vt 0.438839048 0.249999985
vt 0.625 0.25
vt 0.625 0
vt 0.625 0.5
vt 0.438839048 0.5
vt 0.438839048 0.75
vt 0.625 0.75
vt 0.75 0.5
vt 0.75 0.75
vt 0.875 0.75
vt 0.875 0.5
vt 0.438839048 0.5
vt 0.375 0.5
vt 0.375 0.75
vt 0.438839048 0.75
vt 0.375 0
vt 0.375 0.25
vt 0.438839048 0.249999985
vt 0.438839078 0
vt 0.625 0.5
vt 0.625 0.75
vt 0.75 0.75
vt 0.75 0.5
vt 0.24999997 0.49999994
vt 0.125 0.5
vt 0.125 0.75
vt 0.24999997 0.74999994
vt 0.375 0.5
vt 0.375 0.75
vn -0 -1 0
vn -0 -1 0
vn -0 -1 0
vn -0 1 0
vn -0 1 0
vn -0 1 0
vn -0 1 0
vn -0 1 0
vn -0 1 0
vn -0 -1 0
vn -0 -1 0
vn -0 -1 0
vn -0 1 0
vn -0 1 0
vn -0 1 0
vn -0 -1 0
vn -0 -1 0
vn -0 -1 0
vn -0 -1 0
vn -0 -1 0
vn -0 -1 0
vn -0 -1 0
vn -0 -1 0
vn -0 -1 0
vn -0 -1 0
vn -0 -1 0
vn -0 -1 0
vn -0 -1 0
vn -0 1 0
vn -0 1 0
vn -0 1 0
vn -0 1 0
vn -0 1 0
vn -0 1 0
vn -0 1 0
vn -0 1 0
vn -0 1 0
vn -0 1 0
vn 0.982504308 0 0.186239779
vn 0.982504308 0 0.186239779
vn 0.982504308 0 0.186239779
vn 0.982504308 0 0.186239898
vn -0.911619604 0 0.411034942
vn -0.911619604 0 0.411034942
vn -0.911619604 0 0.411034942
vn -0.911619604 0 0.411034733
vn 0.462528139 0 0.886604667
vn 0.462528139 0 0.886604667
vn 0.462528139 0 0.886604667
vn 0.462528437 0 0.886604428
vn -0.999955893 0 0.00939413346
vn -0.999955893 0 0.00939413346
vn -0.999955893 0 0.00939413346
vn -0.999955893 0 0.0093941316
vn 0.975799322 0 -0.218667775
vn 0.975799322 0 -0.218667775
vn 0.975799322 0 -0.218667775
vn 0.975799322 0 -0.218668044
vn -0.758370936 0 0.651823223
vn -0.758370936 0 0.651823223
vn -0.758370936 0 0.651823223
vn -0.758370697 0 0.65182358
vn -0 0 -1
vn 0.00677076681 0 -0.999977112
vn 0.00677076681 0 -0.999977112
vn -0 0 -1
vn -0 0 -1
vn -0 0 -1
g CrimsonShieldCol_0
f 3/3/3 2/2/2 1/1/1
f 6/6/6 5/5/5 4/4/4
f 9/9/9 8/8/8 7/7/7
f 12/12/12 11/11/11 10/10/10
f 15/15/15 14/14/14 13/13/13
f 18/18/18 17/17/17 16/16/16
f 21/21/21 20/20/20 19/19/19
f 23/23/23 19/19/19 22/22/22
f 23/23/23 25/25/25 24/24/24
f 27/27/27 26/26/26 24/24/24
f 24/24/24 26/26/26 28/28/28
f 31/31/31 30/30/30 29/29/29
f 33/33/33 30/30/30 32/32/32
f 33/33/33 35/35/35 34/34/34
f 34/34/34 37/37/37 36/36/36
f 34/34/34 38/38/38 37/37/37
f 41/41/41 40/40/40 39/39/39
f 42/42/42 41/41/41 39/39/39
f 45/45/45 44/44/44 43/43/43
f 46/46/46 45/45/45 43/43/43
f 49/49/49 48/48/48 47/47/47
f 50/50/50 49/49/49 47/47/47
f 53/53/53 52/52/52 51/51/51
f 54/54/54 53/53/53 51/51/51
f 57/57/57 56/56/56 55/55/55
f 58/58/58 57/57/57 55/55/55
f 61/61/61 60/60/60 59/59/59
f 62/62/62 61/61/61 59/59/59
f 65/65/65 64/64/64 63/63/63
f 66/66/66 65/65/65 63/63/63
f 66/66/66 63/63/63 67/67/67
f 68/68/68 66/66/66 67/67/67
