g ExecutionerCol
v -1.91099012 -0.111287549 1.9688139
v -1.91099 0.111287296 1.9688139
v -0.9161551 0.1112874 5.69023705
v -0.9161551 -0.11128746 5.69023705
v -0.344221205 0.111287422 2.37539864
v 1.57512271 0.111287549 1.33904529
v 1.37202144 0.1112874 4.42921734
v -0.330528915 0.1112874 5.98988724
v -1.91099 0.111287296 1.9688139
v -0.344221205 0.111287422 2.37539864
v -0.9161551 0.1112874 5.69023705
v 1.57512271 0.111287549 1.33904529
v 1.57512271 -0.111287296 1.33904529
v 1.37202144 -0.11128746 4.42921734
v 1.37202144 0.1112874 4.42921734
v -0.344221175 -0.111287422 2.37539864
v -1.91099012 -0.111287549 1.9688139
v -0.9161551 -0.11128746 5.69023705
v -0.330528796 -0.11128746 5.98988724
v 1.57512271 -0.111287296 1.33904529
v -0.344221175 -0.111287422 2.37539864
v 1.37202144 -0.11128746 4.42921734
v 1.57675064 -0.111287422 0.309901953
v -0.344221175 -0.111287422 2.37539864
v 1.41937576E-07 -0.111287422 0.309901953
v 1.41937576E-07 -0.111287422 0.309901953
v -1.91099012 -0.111287549 1.9688139
v -1.64952159 -0.111287415 0.319858968
v -0 0.111287422 0.309901953
v 1.57675064 -0.111287422 0.309901953
v 1.57675064 0.111287422 0.309901953
v 1.41937576E-07 -0.111287422 0.309901953
v -1.64952159 0.11128743 0.319858968
v -1.64952159 -0.111287415 0.319858968
v -0.330528915 0.1112874 5.98988724
v -0.330528796 -0.11128746 5.98988724
v -0.9161551 -0.11128746 5.69023705
v -0.9161551 0.1112874 5.69023705
v 1.57675064 0.111287422 0.309901953
v 1.57675064 -0.111287422 0.309901953
v 1.57512271 -0.111287296 1.33904529
v 1.57512271 0.111287549 1.33904529
v -0 0.111287422 0.309901953
v 1.57675064 0.111287422 0.309901953
v 1.57512271 0.111287549 1.33904529
v -0.344221205 0.111287422 2.37539864
v -1.64952159 0.11128743 0.319858968
v -0 0.111287422 0.309901953
v -1.91099 0.111287296 1.9688139
v -1.64952159 -0.111287415 0.319858968
v -1.64952159 0.11128743 0.319858968
v -1.91099 0.111287296 1.9688139
v -1.91099012 -0.111287549 1.9688139
v 1.37202144 0.1112874 4.42921734
v 1.37202144 -0.11128746 4.42921734
v -0.330528796 -0.11128746 5.98988724
v -0.330528915 0.1112874 5.98988724
vt 0.438839078 0
vt 0.438839048 0.249999985
vt 0.625 0.25
vt 0.625 0
vt 0.438839018 0.37499997
vt 0.438839048 0.5
vt 0.625 0.5
vt 0.625 0.375
vt 0.438839048 0.249999985
vt 0.438839018 0.37499997
vt 0.625 0.25
vt 0.438839048 0.5
vt 0.438839048 0.75
vt 0.625 0.75
vt 0.625 0.5
vt 0.438839078 0.875
vt 0.438839048 1
vt 0.625 1
vt 0.625 0.875
vt 0.438839048 0.75
vt 0.438839078 0.875
vt 0.625 0.75
vt 0.375 0.75
vt 0.438839078 0.875
vt 0.375 0.875
vt 0.375 0.875
vt 0.438839048 1
vt 0.375 1
vt 0.24999997 0.49999994
vt 0.375 0.75
vt 0.375 0.5
vt 0.24999997 0.74999994
vt 0.125 0.5
vt 0.125 0.75
vt 0.75 0.5
vt 0.75 0.75
vt 0.875 0.75
vt 0.875 0.5
vt 0.375 0.5
vt 0.375 0.75
vt 0.438839048 0.75
vt 0.438839048 0.5
vt 0.375 0.375
vt 0.375 0.5
vt 0.438839048 0.5
vt 0.438839018 0.37499997
vt 0.375 0.25
vt 0.375 0.375
vt 0.438839048 0.249999985
vt 0.375 0
vt 0.375 0.25
vt 0.438839048 0.249999985
vt 0.438839078 0
vt 0.625 0.5
vt 0.625 0.75
vt 0.75 0.75
vt 0.75 0.5
vn -0.966076016 0 0.258257717
vn -0.966076016 0 0.258257717
vn -0.966076016 0 0.258257717
vn -0.966076016 0 0.258257717
vn -0 1 0
vn -0 1 0
vn -0 1 0
vn -0 1 0
vn -0 1 0
vn -0 1 0
vn -0 1 0
vn 0.99784708 0 0.0655834079
vn 0.99784708 0 0.0655834079
vn 0.99784708 0 0.0655834079
vn 0.99784708 0 0.0655834079
vn -0 -1 0
vn -0 -1 0
vn -0 -1 0
vn -0 -1 0
vn -0 -1 0
vn -0 -1 0
vn -0 -1 0
vn -0 -1 0
vn -0 -1 0
vn -0 -1 0
vn -0 -1 0
vn -0 -1 0
vn -0 -1 0
vn -0 0 -1
vn -0 0 -1
vn -0 0 -1
vn -0 0 -1
vn -0.00603620522 0 -0.999981761
vn -0.00603620522 0 -0.999981761
vn -0.455509007 0 0.890231133
vn -0.455509007 0 0.890231133
vn -0.455509007 0 0.890231133
vn -0.455509007 0 0.890231133
vn 0.999998808 0 0.00158182054
vn 0.999998808 0 0.00158182054
vn 0.999998808 0 0.00158182054
vn 0.999998808 0 0.00158182054
vn -0 1 0
vn -0 1 0
vn -0 1 0
vn -0 1 0
vn -0 1 0
vn -0 1 0
vn -0 1 0
vn -0.987660527 0 -0.15660955
vn -0.987660527 0 -0.15660955
vn -0.987660527 0 -0.15660955
vn -0.987660527 0 -0.15660955
vn 0.675724328 0 0.737154424
vn 0.675724328 0 0.737154424
vn 0.675724328 0 0.737154424
vn 0.675724328 0 0.737154424
g ExecutionerCol_0
f 3/3/3 2/2/2 1/1/1
f 4/4/4 3/3/3 1/1/1
f 7/7/7 6/6/6 5/5/5
f 8/8/8 7/7/7 5/5/5
f 8/8/8 10/10/10 9/9/9
f 11/11/11 8/8/8 9/9/9
f 14/14/14 13/13/13 12/12/12
f 15/15/15 14/14/14 12/12/12
f 18/18/18 17/17/17 16/16/16
f 19/19/19 18/18/18 16/16/16
f 19/19/19 21/21/21 20/20/20
f 22/22/22 19/19/19 20/20/20
f 20/20/20 24/24/24 23/23/23
f 24/24/24 25/25/25 23/23/23
f 24/24/24 27/27/27 26/26/26
f 27/27/27 28/28/28 26/26/26
f 31/31/31 30/30/30 29/29/29
f 30/30/30 32/32/32 29/29/29
f 29/29/29 32/32/32 33/33/33
f 32/32/32 34/34/34 33/33/33
f 37/37/37 36/36/36 35/35/35
f 38/38/38 37/37/37 35/35/35
f 41/41/41 40/40/40 39/39/39
f 42/42/42 41/41/41 39/39/39
f 45/45/45 44/44/44 43/43/43
f 46/46/46 45/45/45 43/43/43
f 46/46/46 48/48/48 47/47/47
f 49/49/49 46/46/46 47/47/47
f 52/52/52 51/51/51 50/50/50
f 53/53/53 52/52/52 50/50/50
f 56/56/56 55/55/55 54/54/54
f 57/57/57 56/56/56 54/54/54
