g MageBreakerCol
v -1.85942602 -0.111287549 3.4670341
v -1.85942578 0.111287296 3.4670341
v 0.00878179073 0.1112874 5.24729872
v 0.00878179073 -0.11128746 5.24729872
v -0.344221205 0.111287422 2.37539864
v 2.11989236 0.111287549 3.17698622
v 1.76748013 0.1112874 4.53413677
v 1.0811739 0.1112874 5.37683916
v 2.11989236 0.111287549 3.17698622
v 2.11989236 -0.111287296 3.17698622
v 1.76748013 -0.11128746 4.53413677
v 1.76748013 0.1112874 4.53413677
v -0.344221175 -0.111287422 2.37539864
v -1.85942602 -0.111287549 3.4670341
v 0.00878179073 -0.11128746 5.24729872
v 1.08117414 -0.11128746 5.37683916
v 2.11989236 -0.111287296 3.17698622
v -0.344221175 -0.111287422 2.37539864
v 1.76748013 -0.11128746 4.53413677
v -0 0.111287422 0.309901953
v 1.65539873 -0.111287422 0.309901953
v 1.65539873 0.111287422 0.309901953
v 1.41937576E-07 -0.111287422 0.309901953
v -1.75491166 0.11128743 0.319858968
v -1.75491166 -0.111287415 0.319858968
v 1.0811739 0.1112874 5.37683916
v 1.08117414 -0.11128746 5.37683916
v 0.00878179073 -0.11128746 5.24729872
v 0.00878179073 0.1112874 5.24729872
v 1.41937576E-07 -0.111287422 0.309901953
v -1.75491166 -0.111287415 0.319858968
v -1.85942602 -0.111287549 3.4670341
v -0.344221175 -0.111287422 2.37539864
v 1.65539873 -0.111287422 0.309901953
v 1.41937576E-07 -0.111287422 0.309901953
v 2.11989236 -0.111287296 3.17698622
v 1.65539873 0.111287422 0.309901953
v 1.65539873 -0.111287422 0.309901953
v 2.11989236 -0.111287296 3.17698622
v 2.11989236 0.111287549 3.17698622
v -0 0.111287422 0.309901953
v 1.65539873 0.111287422 0.309901953
v 2.11989236 0.111287549 3.17698622
v -0.344221205 0.111287422 2.37539864
v -1.75491166 -0.111287415 0.319858968
v -1.75491166 0.11128743 0.319858968
v -1.85942578 0.111287296 3.4670341
v -1.85942602 -0.111287549 3.4670341
v -1.75491166 0.11128743 0.319858968
v -0 0.111287422 0.309901953
v -0.344221205 0.111287422 2.37539864
v -1.85942578 0.111287296 3.4670341
v 1.76748013 0.1112874 4.53413677
v 1.76748013 -0.11128746 4.53413677
v 1.08117414 -0.11128746 5.37683916
v 1.0811739 0.1112874 5.37683916
v -1.85942578 0.111287296 3.4670341
v -0.344221205 0.111287422 2.37539864
v 1.0811739 0.1112874 5.37683916
v 0.00878179073 0.1112874 5.24729872
vt 0.438839078 0
vt 0.438839048 0.249999985
vt 0.625 0.25
vt 0.625 0
vt 0.438839018 0.37499997
vt 0.438839048 0.5
vt 0.625 0.5
vt 0.625 0.375
vt 0.438839048 0.5
vt 0.438839048 0.75
vt 0.625 0.75
vt 0.625 0.5
vt 0.438839078 0.875
vt 0.438839048 1
vt 0.625 1
vt 0.625 0.875
vt 0.438839048 0.75
vt 0.438839078 0.875
vt 0.625 0.75
vt 0.24999997 0.49999994
vt 0.375 0.75
vt 0.375 0.5
vt 0.24999997 0.74999994
vt 0.125 0.5
vt 0.125 0.75
vt 0.75 0.5
vt 0.75 0.75
vt 0.875 0.75
vt 0.875 0.5
vt 0.375 0.875
vt 0.375 1
vt 0.438839048 1
vt 0.438839078 0.875
vt 0.375 0.75
vt 0.375 0.875
vt 0.438839048 0.75
vt 0.375 0.5
vt 0.375 0.75
vt 0.438839048 0.75
vt 0.438839048 0.5
vt 0.375 0.375
vt 0.375 0.5
vt 0.438839048 0.5
vt 0.438839018 0.37499997
vt 0.375 0
vt 0.375 0.25
vt 0.438839048 0.249999985
vt 0.438839078 0
vt 0.375 0.25
vt 0.375 0.375
vt 0.438839018 0.37499997
vt 0.438839048 0.249999985
vt 0.625 0.5
vt 0.625 0.75
vt 0.75 0.75
vt 0.75 0.5
vt 0.438839048 0.249999985
vt 0.438839018 0.37499997
vt 0.625 0.375
vt 0.625 0.25
vn -0.689862251 0 0.72394067
vn -0.689862251 0 0.72394067
vn -0.689862251 0 0.72394067
vn -0.689862251 0 0.72394067
vn -0 1 0
vn -0 1 0
vn -0 1 0
vn -0 1 0
vn 0.967900097 0 0.251335263
vn 0.967900097 0 0.251335263
vn 0.967900097 0 0.251335263
vn 0.967900097 0 0.251335263
vn -0 -1 0
vn -0 -1 0
vn -0 -1 0
vn -0 -1 0
vn -0 -1 0
vn -0 -1 0
vn -0 -1 0
vn -0 0 -1
vn -0 0 -1
vn -0 0 -1
vn -0 0 -1
vn -0.00567371724 0 -0.999983907
vn -0.00567371724 0 -0.999983907
vn -0.119923957 0 0.99278307
vn -0.119923957 0 0.99278307
vn -0.119923957 0 0.99278307
vn -0.119923957 0 0.99278307
vn -0 -1 0
vn -0 -1 0
vn -0 -1 0
vn -0 -1 0
vn -0 -1 0
vn -0 -1 0
vn -0 -1 0
vn 0.98712939 0 -0.159923911
vn 0.98712939 0 -0.159923911
vn 0.98712939 0 -0.159923911
vn 0.98712939 0 -0.159923911
vn -0 1 0
vn -0 1 0
vn -0 1 0
vn -0 1 0
vn -0.999449074 0 -0.033190608
vn -0.999449074 0 -0.033190608
vn -0.999449074 0 -0.033190608
vn -0.999449074 0 -0.033190608
vn -0 1 0
vn -0 1 0
vn -0 1 0
vn -0 1 0
vn 0.7753883 0 0.631484747
vn 0.7753883 0 0.631484747
vn 0.7753883 0 0.631484747
vn 0.7753883 0 0.631484747
vn -0 1 0
vn -0 1 0
vn -0 1 0
vn -0 1 0
g MageBreakerCol_0
f 3/3/3 2/2/2 1/1/1
f 4/4/4 3/3/3 1/1/1
f 7/7/7 6/6/6 5/5/5
f 8/8/8 7/7/7 5/5/5
f 11/11/11 10/10/10 9/9/9
f 12/12/12 11/11/11 9/9/9
f 15/15/15 14/14/14 13/13/13
f 16/16/16 15/15/15 13/13/13
f 16/16/16 18/18/18 17/17/17
f 19/19/19 16/16/16 17/17/17
f 22/22/22 21/21/21 20/20/20
f 21/21/21 23/23/23 20/20/20
f 20/20/20 23/23/23 24/24/24
f 23/23/23 25/25/25 24/24/24
f 28/28/28 27/27/27 26/26/26
f 29/29/29 28/28/28 26/26/26
f 32/32/32 31/31/31 30/30/30
f 33/33/33 32/32/32 30/30/30
f 33/33/33 35/35/35 34/34/34
f 36/36/36 33/33/33 34/34/34
f 39/39/39 38/38/38 37/37/37
f 40/40/40 39/39/39 37/37/37
f 43/43/43 42/42/42 41/41/41
f 44/44/44 43/43/43 41/41/41
f 47/47/47 46/46/46 45/45/45
f 48/48/48 47/47/47 45/45/45
f 51/51/51 50/50/50 49/49/49
f 52/52/52 51/51/51 49/49/49
f 55/55/55 54/54/54 53/53/53
f 56/56/56 55/55/55 53/53/53
f 59/59/59 58/58/58 57/57/57
f 60/60/60 59/59/59 57/57/57
