g Lich_col
v -1.96620703 -0.111287452 4.99243402
v -1.96620703 0.111287393 4.99243402
v -1.45522702 0.111287348 5.84803295
v -1.45522702 -0.111287504 5.84803295
v -0.164046481 0.111287393 4.80896378
v 1.638919 0.111287393 4.60871983
v 1.34899461 0.111287378 5.83953428
v -0.0212464947 0.111287393 5.92664528
v -1.96620703 0.111287393 4.99243402
v -0.164046481 0.111287393 4.80896378
v -1.45522702 0.111287348 5.84803295
v -1.5450995 0.111287422 0.309901953
v -1.96620703 0.111287393 4.99243402
v 0.0191216879 0.111287422 0.309901953
v 1.64708221 0.111287422 0.309901953
v 1.638919 0.111287393 4.60871983
v 1.638919 0.111287393 4.60871983
v 1.638919 -0.111287452 4.60871983
v 1.34899461 -0.111287475 5.83953428
v 1.34899461 0.111287378 5.83953428
v -0.164046481 -0.111287452 4.80896378
v -1.96620703 -0.111287452 4.99243402
v -1.45522702 -0.111287504 5.84803295
v -0.0212464947 -0.11128746 5.92664528
v 1.638919 -0.111287452 4.60871983
v 1.34899461 -0.111287475 5.83953428
v -0.164046481 -0.111287452 4.80896378
v 1.64708221 -0.111287422 0.309901953
v 1.638919 -0.111287452 4.60871983
v 0.0191216879 -0.111287422 0.309901953
v -1.5450995 -0.111287422 0.309901953
v -1.96620703 -0.111287452 4.99243402
v 0.0191216879 0.111287422 0.309901953
v 1.64708221 -0.111287422 0.309901953
v 1.64708221 0.111287422 0.309901953
v 0.0191216879 -0.111287422 0.309901953
v -1.5450995 0.111287422 0.309901953
v -1.5450995 -0.111287422 0.309901953
v -0.0212464947 0.111287393 5.92664528
v -0.0212464947 -0.11128746 5.92664528
v -1.45522702 -0.111287504 5.84803295
v -1.45522702 0.111287348 5.84803295
v 1.64708221 0.111287422 0.309901953
v 1.64708221 -0.111287422 0.309901953
v 1.638919 -0.111287452 4.60871983
v 1.638919 0.111287393 4.60871983
v -1.5450995 -0.111287422 0.309901953
v -1.5450995 0.111287422 0.309901953
v -1.96620703 0.111287393 4.99243402
v -1.96620703 -0.111287452 4.99243402
v 1.34899461 0.111287378 5.83953428
v 1.34899461 -0.111287475 5.83953428
v -0.0212464947 -0.11128746 5.92664528
v -0.0212464947 0.111287393 5.92664528
vt 0.555512011 0
vt 0.555512071 0.25
vt 0.625 0.25
vt 0.625 0
vt 0.555512071 0.375
vt 0.555512071 0.5
vt 0.625 0.5
vt 0.625 0.375
vt 0.555512071 0.25
vt 0.555512071 0.375
vt 0.625 0.25
vt 0.375 0.25
vt 0.555512071 0.25
vt 0.375 0.375
vt 0.375 0.5
vt 0.555512071 0.5
vt 0.555512071 0.5
vt 0.555512011 0.75
vt 0.625 0.75
vt 0.625 0.5
vt 0.555512071 0.875
vt 0.555512071 1
vt 0.625 1
vt 0.625 0.875
vt 0.555512011 0.75
vt 0.625 0.75
vt 0.555512071 0.875
vt 0.375 0.75
vt 0.555512011 0.75
vt 0.375 0.875
vt 0.375 1
vt 0.555512071 1
vt 0.25 0.5
vt 0.375 0.75
vt 0.375 0.5
vt 0.25 0.75
vt 0.125 0.5
vt 0.125 0.75
vt 0.75 0.5
vt 0.75 0.75
vt 0.875 0.75
vt 0.875 0.5
vt 0.375 0.5
vt 0.375 0.75
vt 0.555512011 0.75
vt 0.555512071 0.5
vt 0.375 0
vt 0.375 0.25
vt 0.555512071 0.25
vt 0.555512011 0
vt 0.625 0.5
vt 0.625 0.75
vt 0.75 0.75
vt 0.75 0.5
vn -0.858544648 0 0.512738883
vn -0.858544648 0 0.512738883
vn -0.858544648 0 0.512738883
vn -0.858544648 0 0.512738883
vn -0 1 0
vn -0 1 0
vn -0 1 0
vn -0 1 0
vn -0 1 0
vn -0 1 0
vn -0 1 0
vn -0 1 0
vn -0 1 0
vn -0 1 0
vn -0 1 0
vn -0 1 0
vn 0.973360538 0 0.229279757
vn 0.973360538 0 0.229279757
vn 0.973360538 0 0.229279757
vn 0.973360538 0 0.229279757
vn -0 -1 0
vn -0 -1 0
vn -0 -1 0
vn -0 -1 0
vn -0 -1 0
vn -0 -1 0
vn -0 -1 0
vn -0 -1 0
vn -0 -1 0
vn -0 -1 0
vn -0 -1 0
vn -0 -1 0
vn -0 0 -1
vn -0 0 -1
vn -0 0 -1
vn -0 0 -1
vn -0 0 -1
vn -0 0 -1
vn -0.0547387451 0 0.998500705
vn -0.0547387451 0 0.998500705
vn -0.0547387451 0 0.998500705
vn -0.0547387451 0 0.998500705
vn 0.999998212 0 0.00189894042
vn 0.999998212 0 0.00189894042
vn 0.999998212 0 0.00189894042
vn 0.999998212 0 0.00189894042
vn -0.995980501 0 -0.0895701125
vn -0.995980501 0 -0.0895701125
vn -0.995980501 0 -0.0895701125
vn -0.995980501 0 -0.0895701125
vn 0.0634451658 0 0.997985363
vn 0.0634451658 0 0.997985363
vn 0.0634451658 0 0.997985363
vn 0.0634451658 0 0.997985363
g Lich_col_0
f 3/3/3 2/2/2 1/1/1
f 4/4/4 3/3/3 1/1/1
f 7/7/7 6/6/6 5/5/5
f 8/8/8 7/7/7 5/5/5
f 8/8/8 10/10/10 9/9/9
f 11/11/11 8/8/8 9/9/9
f 13/13/13 5/5/5 12/12/12
f 5/5/5 14/14/14 12/12/12
f 15/15/15 14/14/14 5/5/5
f 16/16/16 15/15/15 5/5/5
f 19/19/19 18/18/18 17/17/17
f 20/20/20 19/19/19 17/17/17
f 23/23/23 22/22/22 21/21/21
f 24/24/24 23/23/23 21/21/21
f 26/26/26 24/24/24 25/25/25
f 24/24/24 27/27/27 25/25/25
f 29/29/29 27/27/27 28/28/28
f 27/27/27 30/30/30 28/28/28
f 31/31/31 30/30/30 27/27/27
f 32/32/32 31/31/31 27/27/27
f 35/35/35 34/34/34 33/33/33
f 34/34/34 36/36/36 33/33/33
f 33/33/33 36/36/36 37/37/37
f 36/36/36 38/38/38 37/37/37
f 41/41/41 40/40/40 39/39/39
f 42/42/42 41/41/41 39/39/39
f 45/45/45 44/44/44 43/43/43
f 46/46/46 45/45/45 43/43/43
f 49/49/49 48/48/48 47/47/47
f 50/50/50 49/49/49 47/47/47
f 53/53/53 52/52/52 51/51/51
f 54/54/54 53/53/53 51/51/51
