g SwordsistersCol
v -1.20429456 -0.111287095 1.41436899
v -1.20429456 0.11128775 1.41436899
v -0.591246009 0.111287385 3.94459343
v -0.591246009 -0.11128746 3.94459343
v -1.20429456 0.11128775 1.41436899
v 1.26975024 0.111287557 3.20978904
v 0.670235991 0.111287504 3.88427591
v -0.591246009 0.111287385 3.94459343
v 1.26975024 0.111287557 3.20978904
v 1.26975024 -0.111287288 3.20978904
v 0.670235991 -0.111287341 3.88427591
v 0.670235991 0.111287504 3.88427591
v 1.26975024 -0.111287288 3.20978904
v -1.20429456 -0.111287095 1.41436899
v -0.591246009 -0.11128746 3.94459343
v 0.670235991 -0.111287341 3.88427591
v -0.78143698 0.111287415 0.309901953
v -0.78143698 -0.11128743 0.309901953
v 0.672352076 -0.11128743 0.309901953
v 0.672352076 0.111287415 0.309901953
v 0.670235991 0.111287504 3.88427591
v 0.670235991 -0.111287341 3.88427591
v -0.591246009 -0.11128746 3.94459343
v -0.591246009 0.111287385 3.94459343
v 0.672352076 -0.11128743 0.309901953
v -0.78143698 -0.11128743 0.309901953
v -1.20429456 -0.111287095 1.41436899
v 1.26975024 -0.111287288 3.20978904
v 0.672352076 0.111287415 0.309901953
v 0.672352076 -0.11128743 0.309901953
v 1.26975024 -0.111287288 3.20978904
v 1.26975024 0.111287557 3.20978904
v -0.78143698 0.111287415 0.309901953
v 0.672352076 0.111287415 0.309901953
v 1.26975024 0.111287557 3.20978904
v -1.20429456 0.11128775 1.41436899
v -0.78143698 -0.11128743 0.309901953
v -0.78143698 0.111287415 0.309901953
v -1.20429456 0.11128775 1.41436899
v -1.20429456 -0.111287095 1.41436899
vt 0.438839078 0
vt 0.438839048 0.249999985
vt 0.625 0.25
vt 0.625 0
vt 0.438839048 0.249999985
vt 0.438839048 0.5
vt 0.625 0.5
vt 0.625 0.25
vt 0.438839048 0.5
vt 0.438839048 0.75
vt 0.625 0.75
vt 0.625 0.5
vt 0.438839048 0.75
vt 0.438839048 1
vt 0.625 1
vt 0.625 0.75
vt 0.125 0.5
vt 0.125 0.75
vt 0.375 0.75
vt 0.375 0.5
vt 0.625 0.5
vt 0.625 0.75
vt 0.875 0.75
vt 0.875 0.5
vt 0.375 0.75
vt 0.375 1
vt 0.438839048 1
vt 0.438839048 0.75
vt 0.375 0.5
vt 0.375 0.75
vt 0.438839048 0.75
vt 0.438839048 0.5
vt 0.375 0.25
vt 0.375 0.5
vt 0.438839048 0.5
vt 0.438839048 0.249999985
vt 0.375 0
vt 0.375 0.25
vt 0.438839048 0.249999985
vt 0.438839078 0
vn -0.971879959 0 0.235476971
vn -0.971879959 0 0.235476971
vn -0.971879959 0 0.235476971
vn -0.971879959 0 0.235476971
vn -0 1 0
vn -0 1 0
vn -0 1 0
vn -0 1 0
vn 0.747425675 0 0.664345384
vn 0.747425675 0 0.664345384
vn 0.747425675 0 0.664345384
vn 0.747425675 0 0.664345384
vn -0 -1 0
vn -0 -1 0
vn -0 -1 0
vn -0 -1 0
vn -0 0 -1
vn -0 0 -1
vn -0 0 -1
vn -0 0 -1
vn 0.0477603078 0 0.998858809
vn 0.0477603078 0 0.998858809
vn 0.0477603078 0 0.998858809
vn 0.0477603078 0 0.998858809
vn -0 -1 0
vn -0 -1 0
vn -0 -1 0
vn -0 -1 0
vn 0.97943294 0 -0.201770425
vn 0.97943294 0 -0.201770425
vn 0.97943294 0 -0.201770425
vn 0.97943294 0 -0.201770425
vn -0 1 0
vn -0 1 0
vn -0 1 0
vn -0 1 0
vn -0.933893442 0 -0.357551605
vn -0.933893442 0 -0.357551605
vn -0.933893442 0 -0.357551605
vn -0.933893442 0 -0.357551605
g SwordsistersCol_0
f 3/3/3 2/2/2 1/1/1
f 4/4/4 3/3/3 1/1/1
f 7/7/7 6/6/6 5/5/5
f 8/8/8 7/7/7 5/5/5
f 11/11/11 10/10/10 9/9/9
f 12/12/12 11/11/11 9/9/9
f 15/15/15 14/14/14 13/13/13
f 16/16/16 15/15/15 13/13/13
f 19/19/19 18/18/18 17/17/17
f 20/20/20 19/19/19 17/17/17
f 23/23/23 22/22/22 21/21/21
f 24/24/24 23/23/23 21/21/21
f 27/27/27 26/26/26 25/25/25
f 28/28/28 27/27/27 25/25/25
f 31/31/31 30/30/30 29/29/29
f 32/32/32 31/31/31 29/29/29
f 35/35/35 34/34/34 33/33/33
f 36/36/36 35/35/35 33/33/33
f 39/39/39 38/38/38 37/37/37
f 40/40/40 39/39/39 37/37/37
