g UnsisterCol
v -1.05118549 -0.0652008802 4.8597455
v -1.85834432 -0.0652013198 3.25064659
v -1.78910041 -0.0652011111 4.33169031
v 0.344221145 0.0662669316 2.37539864
v 1.50570309 0.0662670359 0.296451807
v 1.91024244 0.0662678182 2.10725069
v 0.344221234 -0.0652009249 2.37539864
v -1.8172003 -0.0652010962 0.286494732
v -1.85834432 -0.0652013198 3.25064659
v 1.50570309 -0.0652008206 0.296451807
v 0.344221234 -0.0652009249 2.37539864
v 1.9102422 -0.0652000383 2.10725069
v -1.8172003 0.0662667602 0.286494732
v 0.344221145 0.0662669316 2.37539864
v -1.85834432 0.0662665367 3.25064659
v -1.85834432 0.0662665367 3.25064659
v -1.05118573 0.0662669837 4.8597455
v -1.78910041 0.0662667528 4.33169031
v 0.724613309 0.0662672296 4.02749014
v 1.91024244 0.0662678182 2.10725069
v 1.9102422 -0.0652000383 2.10725069
v 0.724613309 -0.0652006343 4.02749014
v -1.05118549 -0.0652008802 4.8597455
v 0.344221234 -0.0652009249 2.37539864
v -1.85834432 -0.0652013198 3.25064659
v 0.724613309 -0.0652006343 4.02749014
v 1.9102422 -0.0652000383 2.10725069
v -1.85834432 -0.0652013198 3.25064659
v -1.85834432 0.0662665367 3.25064659
v -1.78910041 0.0662667528 4.33169031
v -1.78910041 -0.0652011111 4.33169031
v 0.344221145 0.0662669316 2.37539864
v 1.91024244 0.0662678182 2.10725069
v 0.724613309 0.0662672296 4.02749014
v -1.05118573 0.0662669837 4.8597455
v -1.85834432 0.0662665367 3.25064659
v 0.724613309 -0.0652006343 4.02749014
v -1.05118549 -0.0652008802 4.8597455
v -1.05118573 0.0662669837 4.8597455
v 0.724613309 0.0662672296 4.02749014
v 0.344221145 0.0662669316 2.37539864
v -1.58324838E-07 0.0662669018 0.286494732
v 1.50570309 0.0662670359 0.296451807
v -1.8172003 0.0662667602 0.286494732
v -1.8172003 -0.0652010962 0.286494732
v -1.8172003 0.0662667602 0.286494732
v -1.85834432 0.0662665367 3.25064659
v -1.85834432 -0.0652013198 3.25064659
v 0.344221234 -0.0652009249 2.37539864
v 1.67638063E-08 -0.0652009547 0.286494732
v -1.8172003 -0.0652010962 0.286494732
v 1.50570309 -0.0652008206 0.296451807
v 1.91024244 0.0662678182 2.10725069
v 1.50570309 0.0662670359 0.296451807
v 1.50570309 -0.0652008206 0.296451807
v 1.9102422 -0.0652000383 2.10725069
v -1.78910041 -0.0652011111 4.33169031
v -1.78910041 0.0662667528 4.33169031
v -1.05118573 0.0662669837 4.8597455
v -1.05118549 -0.0652008802 4.8597455
v 1.67638063E-08 -0.0652009547 0.286494732
v 1.50570309 -0.0652008206 0.296451807
v 1.50570309 0.0662670359 0.296451807
v -1.58324838E-07 0.0662669018 0.286494732
v -1.8172003 -0.0652010962 0.286494732
v -1.8172003 0.0662667602 0.286494732
vt 0.625 0.375
vt 0.438839048 0.5
vt 0.625 0.5
vt 0.438839078 0.875
vt 0.375 1
vt 0.438839048 1
vt 0.438839018 0.37499997
vt 0.375 0.5
vt 0.438839048 0.5
vt 0.375 0.25
vt 0.438839018 0.37499997
vt 0.438839048 0.249999985
vt 0.375 0.75
vt 0.438839078 0.875
vt 0.438839048 0.75
vt 0.438839048 0.75
vt 0.625 0.875
vt 0.625 0.75
vt 0.625 0
vt 0.438839078 0
vt 0.438839048 0.249999985
vt 0.625 0.25
vt 0.625 0.375
vt 0.438839018 0.37499997
vt 0.438839048 0.5
vt 0.625 0.25
vt 0.438839048 0.249999985
vt 0.438839048 0.5
vt 0.438839048 0.75
vt 0.625 0.75
vt 0.625 0.5
vt 0.438839078 0.875
vt 0.438839048 1
vt 0.625 1
vt 0.625 0.875
vt 0.438839048 0.75
vt 0.875 0.5
vt 0.75 0.5
vt 0.75 0.75
vt 0.875 0.75
vt 0.438839078 0.875
vt 0.375 0.875
vt 0.375 1
vt 0.375 0.75
vt 0.375 0.5
vt 0.375 0.75
vt 0.438839048 0.75
vt 0.438839048 0.5
vt 0.438839018 0.37499997
vt 0.375 0.375
vt 0.375 0.5
vt 0.375 0.25
vt 0.438839078 0
vt 0.375 0
vt 0.375 0.25
vt 0.438839048 0.249999985
vt 0.625 0.5
vt 0.625 0.75
vt 0.75 0.75
vt 0.75 0.5
vt 0.24999997 0.49999994
vt 0.125 0.5
vt 0.125 0.75
vt 0.24999997 0.74999994
vt 0.375 0.5
vt 0.375 0.75
vn -0 -1 0
vn -0 -1 0
vn -0 -1 0
vn -0 1 0
vn -0 1 0
vn -0 1 0
vn -0 -1 0
vn -0 -1 0
vn -0 -1 0
vn -0 -1 0
vn -0 -1 0
vn -0 -1 0
vn -0 1 0
vn -0 1 0
vn -0 1 0
vn -0 1 0
vn -0 1 0
vn -0 1 0
vn 0.850877464 0 0.525364161
vn 0.850877464 0 0.525364161
vn 0.850877464 0 0.525364161
vn 0.850877583 0 0.525364101
vn -0 -1 0
vn -0 -1 0
vn -0 -1 0
vn -0 -1 0
vn -0 -1 0
vn -0.997954965 0 0.0639218166
vn -0.997954965 0 0.0639218166
vn -0.997954965 0 0.0639218166
vn -0.997954965 0 0.0639218092
vn -0 1 0
vn -0 1 0
vn -0 1 0
vn -0 1 0
vn -0 1 0
vn 0.424371332 0 0.905488253
vn 0.424371332 0 0.905488253
vn 0.424371332 0 0.905488253
vn 0.424370706 0 0.905488551
vn -0 1 0
vn -0 1 0
vn -0 1 0
vn -0 1 0
vn -0.999903679 0 -0.0138791967
vn -0.999903679 0 -0.0138791967
vn -0.999903679 0 -0.0138791967
vn -0.999903679 0 -0.0138791986
vn -0 -1 0
vn -0 -1 0
vn -0 -1 0
vn -0 -1 0
vn 0.975942254 0 -0.218029216
vn 0.975942254 0 -0.218029216
vn 0.975942254 0 -0.218029216
vn 0.975942254 0 -0.218029112
vn -0.581947386 0 0.813226342
vn -0.581947386 0 0.813226342
vn -0.581947386 0 0.813226342
vn -0.581948459 0 0.813225627
vn -0 0 -1
vn 0.00661269762 0 -0.999978185
vn 0.00661269762 0 -0.999978185
vn -0 0 -1
vn -0 0 -1
vn -0 0 -1
g UnsisterCol_0
f 3/3/3 2/2/2 1/1/1
f 6/6/6 5/5/5 4/4/4
f 9/9/9 8/8/8 7/7/7
f 12/12/12 11/11/11 10/10/10
f 15/15/15 14/14/14 13/13/13
f 18/18/18 17/17/17 16/16/16
f 21/21/21 20/20/20 19/19/19
f 22/22/22 21/21/21 19/19/19
f 25/25/25 24/24/24 23/23/23
f 23/23/23 24/24/24 26/26/26
f 24/24/24 27/27/27 26/26/26
f 30/30/30 29/29/29 28/28/28
f 31/31/31 30/30/30 28/28/28
f 34/34/34 33/33/33 32/32/32
f 35/35/35 34/34/34 32/32/32
f 35/35/35 32/32/32 36/36/36
f 39/39/39 38/38/38 37/37/37
f 40/40/40 39/39/39 37/37/37
f 43/43/43 42/42/42 41/41/41
f 41/41/41 42/42/42 44/44/44
f 47/47/47 46/46/46 45/45/45
f 48/48/48 47/47/47 45/45/45
f 51/51/51 50/50/50 49/49/49
f 49/49/49 50/50/50 52/52/52
f 55/55/55 54/54/54 53/53/53
f 56/56/56 55/55/55 53/53/53
f 59/59/59 58/58/58 57/57/57
f 60/60/60 59/59/59 57/57/57
f 63/63/63 62/62/62 61/61/61
f 64/64/64 63/63/63 61/61/61
f 64/64/64 61/61/61 65/65/65
f 66/66/66 64/64/64 65/65/65
