g AzyrCol
v -1.29905486 -0.111287825 2.84640574
v -0.913293779 0.111287303 6.22363949
v -0.913293779 -0.111287549 6.22363949
v -1.29905486 0.11128702 2.84640574
v -1.56929326 -0.111287422 0.309901953
v -1.56929326 0.111287422 0.309901953
v 0.135697708 0.111287504 2.49264717
v 1.45712066 0.111287333 3.26743364
v 1.11681366 0.111287393 5.50028038
v -0.180482626 0.111287288 6.54090786
v -1.29905486 0.11128702 2.84640574
v -0.180482626 0.111287288 6.54090786
v -0.913293779 0.111287303 6.22363949
v 1.45712066 0.111287333 3.26743364
v 1.45712066 -0.111287512 3.26743364
v 1.11681366 -0.11128746 5.50028038
v 1.11681366 0.111287393 5.50028038
v -0 0.111287422 0.309901953
v 1.60401738 -0.111287422 0.309901953
v 1.60401738 0.111287422 0.309901953
v 1.41937576E-07 -0.111287422 0.309901953
v -1.56929326 0.111287422 0.309901953
v -1.56929326 -0.111287422 0.309901953
v -0.180482626 0.111287288 6.54090786
v -0.180482566 -0.111287564 6.54090786
v -0.913293779 -0.111287549 6.22363949
v -0.913293779 0.111287303 6.22363949
v 1.41937576E-07 -0.111287422 0.309901953
v -1.56929326 -0.111287422 0.309901953
v -1.29905486 -0.111287825 2.84640574
v 0.135697708 -0.111287341 2.49264717
v -0.913293779 -0.111287549 6.22363949
v -0.180482566 -0.111287564 6.54090786
v 1.60401738 -0.111287422 0.309901953
v 1.41937576E-07 -0.111287422 0.309901953
v 1.45712066 -0.111287512 3.26743364
v 1.45712066 -0.111287512 3.26743364
v 0.135697708 -0.111287341 2.49264717
v 1.11681366 -0.11128746 5.50028038
v 1.60401738 0.111287422 0.309901953
v 1.60401738 -0.111287422 0.309901953
v 1.45712066 -0.111287512 3.26743364
v 1.45712066 0.111287333 3.26743364
v -0 0.111287422 0.309901953
v 1.60401738 0.111287422 0.309901953
v 1.45712066 0.111287333 3.26743364
v 0.135697708 0.111287504 2.49264717
v -1.56929326 0.111287422 0.309901953
v -0 0.111287422 0.309901953
v -1.29905486 0.11128702 2.84640574
v 1.11681366 0.111287393 5.50028038
v 1.11681366 -0.11128746 5.50028038
v -0.180482566 -0.111287564 6.54090786
v -0.180482626 0.111287288 6.54090786
vt 0.438839078 0
vt 0.625 0.25
vt 0.625 0
vt 0.438839048 0.249999985
vt 0.375 0
vt 0.375 0.25
vt 0.438839018 0.37499997
vt 0.438839048 0.5
vt 0.625 0.5
vt 0.625 0.375
vt 0.438839048 0.249999985
vt 0.625 0.375
vt 0.625 0.25
vt 0.438839048 0.5
vt 0.438839048 0.75
vt 0.625 0.75
vt 0.625 0.5
vt 0.24999997 0.49999994
vt 0.375 0.75
vt 0.375 0.5
vt 0.24999997 0.74999994
vt 0.125 0.5
vt 0.125 0.75
vt 0.75 0.5
vt 0.75 0.75
vt 0.875 0.75
vt 0.875 0.5
vt 0.375 0.875
vt 0.375 1
vt 0.438839048 1
vt 0.438839078 0.875
vt 0.625 1
vt 0.625 0.875
vt 0.375 0.75
vt 0.375 0.875
vt 0.438839048 0.75
vt 0.438839048 0.75
vt 0.438839078 0.875
vt 0.625 0.75
vt 0.375 0.5
vt 0.375 0.75
vt 0.438839048 0.75
vt 0.438839048 0.5
vt 0.375 0.375
vt 0.375 0.5
vt 0.438839048 0.5
vt 0.438839018 0.37499997
vt 0.375 0.25
vt 0.375 0.375
vt 0.438839048 0.249999985
vt 0.625 0.5
vt 0.625 0.75
vt 0.75 0.75
vt 0.75 0.5
vn -0.993539631 0 0.113486052
vn -0.993539631 0 0.113486052
vn -0.993539631 0 0.113486052
vn -0.993539631 0 0.113486052
vn -0.994372487 0 0.105940156
vn -0.994372487 0 0.105940156
vn -0 1 0
vn -0 1 0
vn -0 1 0
vn -0 1 0
vn -0 1 0
vn -0 1 0
vn -0 1 0
vn 0.988584161 0 0.15066959
vn 0.988584161 0 0.15066959
vn 0.988584161 0 0.15066959
vn 0.988584161 0 0.15066959
vn -0 0 -1
vn -0 0 -1
vn -0 0 -1
vn -0 0 -1
vn -0 0 -1
vn -0 0 -1
vn -0.397309244 0 0.917684793
vn -0.397309244 0 0.917684793
vn -0.397309244 0 0.917684793
vn -0.397309244 0 0.917684793
vn -0 -1 0
vn -0 -1 0
vn -0 -1 0
vn -0 -1 0
vn -0 -1 0
vn -0 -1 0
vn -0 -1 0
vn -0 -1 0
vn -0 -1 0
vn -0 -1 0
vn -0 -1 0
vn -0 -1 0
vn 0.998768747 0 0.0496075377
vn 0.998768747 0 0.0496075377
vn 0.998768747 0 0.0496075377
vn 0.998768747 0 0.0496075377
vn -0 1 0
vn -0 1 0
vn -0 1 0
vn -0 1 0
vn -0 1 0
vn -0 1 0
vn -0 1 0
vn 0.62571764 0 0.780049562
vn 0.62571764 0 0.780049562
vn 0.62571764 0 0.780049562
vn 0.62571764 0 0.780049562
g AzyrCol_0
f 3/3/3 2/2/2 1/1/1
f 2/2/2 4/4/4 1/1/1
f 1/1/1 4/4/4 5/5/5
f 4/4/4 6/6/6 5/5/5
f 9/9/9 8/8/8 7/7/7
f 10/10/10 9/9/9 7/7/7
f 12/12/12 7/7/7 11/11/11
f 13/13/13 12/12/12 11/11/11
f 16/16/16 15/15/15 14/14/14
f 17/17/17 16/16/16 14/14/14
f 20/20/20 19/19/19 18/18/18
f 19/19/19 21/21/21 18/18/18
f 18/18/18 21/21/21 22/22/22
f 21/21/21 23/23/23 22/22/22
f 26/26/26 25/25/25 24/24/24
f 27/27/27 26/26/26 24/24/24
f 30/30/30 29/29/29 28/28/28
f 31/31/31 30/30/30 28/28/28
f 32/32/32 30/30/30 31/31/31
f 33/33/33 32/32/32 31/31/31
f 31/31/31 35/35/35 34/34/34
f 36/36/36 31/31/31 34/34/34
f 33/33/33 38/38/38 37/37/37
f 39/39/39 33/33/33 37/37/37
f 42/42/42 41/41/41 40/40/40
f 43/43/43 42/42/42 40/40/40
f 46/46/46 45/45/45 44/44/44
f 47/47/47 46/46/46 44/44/44
f 47/47/47 49/49/49 48/48/48
f 50/50/50 47/47/47 48/48/48
f 53/53/53 52/52/52 51/51/51
f 54/54/54 53/53/53 51/51/51
