g FalseMessiahCol
v -1.80420756 -0.111287549 1.97877097
v -1.77332819 0.1112874 4.46771145
v -1.77332819 -0.11128746 4.46771145
v -1.80420756 0.111287296 1.97877097
v -1.75630414 -0.111287422 0.309901953
v -1.75630414 0.111287422 0.309901953
v -0.344221205 0.111287422 2.37539864
v 1.49081063 0.111287549 4.59911299
v 0.557004333 0.1112874 5.55337858
v -0.864505589 0.1112874 6.0741992
v -1.75630414 0.111287422 0.309901953
v -0 0.111287422 0.309901953
v -1.80420756 0.111287296 1.97877097
v -0 0.111287422 0.309901953
v 1.49081063 0.111287549 4.59911299
v 1.57675064 0.111287422 0.309901953
v -0.344221205 0.111287422 2.37539864
v -0.864505589 0.1112874 6.0741992
v -1.77332819 0.1112874 4.46771145
v 1.49081063 0.111287549 4.59911299
v 1.49081063 -0.111287296 4.59911299
v 0.557004333 -0.11128746 5.55337858
v 0.557004333 0.1112874 5.55337858
v -0.344221175 -0.111287422 2.37539864
v -1.80420756 -0.111287549 1.97877097
v -1.77332819 -0.11128746 4.46771145
v -0.86450547 -0.11128746 6.0741992
v 1.49081063 -0.111287296 4.59911299
v -0.344221175 -0.111287422 2.37539864
v 0.557004333 -0.11128746 5.55337858
v -0 0.111287422 0.309901953
v 1.57675064 -0.111287422 0.309901953
v 1.57675064 0.111287422 0.309901953
v 1.41937576E-07 -0.111287422 0.309901953
v -1.75630414 0.111287422 0.309901953
v -1.75630414 -0.111287422 0.309901953
v -0.864505589 0.1112874 6.0741992
v -0.86450547 -0.11128746 6.0741992
v -1.77332819 -0.11128746 4.46771145
v -1.77332819 0.1112874 4.46771145
v 1.41937576E-07 -0.111287422 0.309901953
v -1.75630414 -0.111287422 0.309901953
v -1.80420756 -0.111287549 1.97877097
v -0.344221175 -0.111287422 2.37539864
v 1.57675064 -0.111287422 0.309901953
v 1.49081063 -0.111287296 4.59911299
v 1.57675064 0.111287422 0.309901953
v 1.57675064 -0.111287422 0.309901953
v 1.49081063 -0.111287296 4.59911299
v 1.49081063 0.111287549 4.59911299
v 0.557004333 0.1112874 5.55337858
v 0.557004333 -0.11128746 5.55337858
v -0.86450547 -0.11128746 6.0741992
v -0.864505589 0.1112874 6.0741992
vt 0.438839078 0
vt 0.625 0.25
vt 0.625 0
vt 0.438839048 0.249999985
vt 0.375 0
vt 0.375 0.25
vt 0.438839018 0.37499997
vt 0.438839048 0.5
vt 0.625 0.5
vt 0.625 0.375
vt 0.375 0.25
vt 0.375 0.375
vt 0.438839048 0.249999985
vt 0.375 0.375
vt 0.438839048 0.5
vt 0.375 0.5
vt 0.438839018 0.37499997
vt 0.625 0.375
vt 0.625 0.25
vt 0.438839048 0.5
vt 0.438839048 0.75
vt 0.625 0.75
vt 0.625 0.5
vt 0.438839078 0.875
vt 0.438839048 1
vt 0.625 1
vt 0.625 0.875
vt 0.438839048 0.75
vt 0.438839078 0.875
vt 0.625 0.75
vt 0.24999997 0.49999994
vt 0.375 0.75
vt 0.375 0.5
vt 0.24999997 0.74999994
vt 0.125 0.5
vt 0.125 0.75
vt 0.75 0.5
vt 0.75 0.75
vt 0.875 0.75
vt 0.875 0.5
vt 0.375 0.875
vt 0.375 1
vt 0.438839048 1
vt 0.438839078 0.875
vt 0.375 0.75
vt 0.438839048 0.75
vt 0.375 0.5
vt 0.375 0.75
vt 0.438839048 0.75
vt 0.438839048 0.5
vt 0.625 0.5
vt 0.625 0.75
vt 0.75 0.75
vt 0.75 0.5
vn -0.99992311 0 0.0124056824
vn -0.99992311 0 0.0124056824
vn -0.99992311 0 0.0124056824
vn -0.99992311 0 0.0124056824
vn -0.999588311 0 -0.0286923032
vn -0.999588311 0 -0.0286923032
vn -0 1 0
vn -0 1 0
vn -0 1 0
vn -0 1 0
vn -0 1 0
vn -0 1 0
vn -0 1 0
vn -0 1 0
vn -0 1 0
vn -0 1 0
vn -0 1 0
vn -0 1 0
vn -0 1 0
vn 0.714727163 0 0.699403465
vn 0.714727163 0 0.699403465
vn 0.714727163 0 0.699403465
vn 0.714727163 0 0.699403465
vn -0 -1 0
vn -0 -1 0
vn -0 -1 0
vn -0 -1 0
vn -0 -1 0
vn -0 -1 0
vn -0 -1 0
vn -0 0 -1
vn -0 0 -1
vn -0 0 -1
vn -0 0 -1
vn -0 0 -1
vn -0 0 -1
vn -0.870375276 0 0.492389023
vn -0.870375276 0 0.492389023
vn -0.870375276 0 0.492389023
vn -0.870375276 0 0.492389023
vn -0 -1 0
vn -0 -1 0
vn -0 -1 0
vn -0 -1 0
vn -0 -1 0
vn -0 -1 0
vn 0.999799311 0 0.0200322997
vn 0.999799311 0 0.0200322997
vn 0.999799311 0 0.0200322997
vn 0.999799311 0 0.0200322997
vn 0.344021738 0 0.938961744
vn 0.344021738 0 0.938961744
vn 0.344021738 0 0.938961744
vn 0.344021738 0 0.938961744
g FalseMessiahCol_0
f 3/3/3 2/2/2 1/1/1
f 2/2/2 4/4/4 1/1/1
f 1/1/1 4/4/4 5/5/5
f 4/4/4 6/6/6 5/5/5
f 9/9/9 8/8/8 7/7/7
f 10/10/10 9/9/9 7/7/7
f 7/7/7 12/12/12 11/11/11
f 13/13/13 7/7/7 11/11/11
f 7/7/7 15/15/15 14/14/14
f 15/15/15 16/16/16 14/14/14
f 18/18/18 17/17/17 13/13/13
f 19/19/19 18/18/18 13/13/13
f 22/22/22 21/21/21 20/20/20
f 23/23/23 22/22/22 20/20/20
f 26/26/26 25/25/25 24/24/24
f 27/27/27 26/26/26 24/24/24
f 27/27/27 29/29/29 28/28/28
f 30/30/30 27/27/27 28/28/28
f 33/33/33 32/32/32 31/31/31
f 32/32/32 34/34/34 31/31/31
f 31/31/31 34/34/34 35/35/35
f 34/34/34 36/36/36 35/35/35
f 39/39/39 38/38/38 37/37/37
f 40/40/40 39/39/39 37/37/37
f 43/43/43 42/42/42 41/41/41
f 44/44/44 43/43/43 41/41/41
f 44/44/44 41/41/41 45/45/45
f 46/46/46 44/44/44 45/45/45
f 49/49/49 48/48/48 47/47/47
f 50/50/50 49/49/49 47/47/47
f 53/53/53 52/52/52 51/51/51
f 54/54/54 53/53/53 51/51/51
