g HerdCol
v -1.96822751 -0.111287825 1.70113325
v -1.96822751 0.11128702 1.70113325
v -0.665370703 0.111287221 4.77778816
v -0.665370703 -0.111287631 4.77778816
v 0.135697708 0.111287504 2.49264717
v 1.93493938 0.111287333 2.01561999
v 0.860589802 0.111287273 4.37159491
v 0.253931075 0.111287266 4.66722488
v -0 0.111287422 0.309901953
v 1.93493938 0.111287333 2.01561999
v 1.89362645 0.111287422 0.309901953
v -1.68776977 0.111287422 0.309901953
v 0.135697708 0.111287504 2.49264717
v -1.96822751 0.11128702 1.70113325
v 1.93493938 0.111287333 2.01561999
v 1.93493938 -0.111287512 2.01561999
v 0.860589802 -0.111287579 4.37159491
v 0.860589802 0.111287273 4.37159491
v 0.135697708 -0.111287341 2.49264717
v -1.96822751 -0.111287825 1.70113325
v -0.665370703 -0.111287631 4.77778816
v 0.253931135 -0.111287586 4.66722488
v 1.93493938 -0.111287512 2.01561999
v 0.135697708 -0.111287341 2.49264717
v 0.860589802 -0.111287579 4.37159491
v -0 0.111287422 0.309901953
v 1.89362645 -0.111287422 0.309901953
v 1.89362645 0.111287422 0.309901953
v 1.41937576E-07 -0.111287422 0.309901953
v -1.68776977 0.111287422 0.309901953
v -1.68776977 -0.111287422 0.309901953
v 0.253931075 0.111287266 4.66722488
v 0.253931135 -0.111287586 4.66722488
v -0.665370703 -0.111287631 4.77778816
v -0.665370703 0.111287221 4.77778816
v 1.41937576E-07 -0.111287422 0.309901953
v -1.68776977 -0.111287422 0.309901953
v -1.96822751 -0.111287825 1.70113325
v 0.135697708 -0.111287341 2.49264717
v 1.89362645 -0.111287422 0.309901953
v 1.41937576E-07 -0.111287422 0.309901953
v 1.93493938 -0.111287512 2.01561999
v 1.89362645 0.111287422 0.309901953
v 1.89362645 -0.111287422 0.309901953
v 1.93493938 -0.111287512 2.01561999
v 1.93493938 0.111287333 2.01561999
v -1.68776977 -0.111287422 0.309901953
v -1.68776977 0.111287422 0.309901953
v -1.96822751 0.11128702 1.70113325
v -1.96822751 -0.111287825 1.70113325
v 0.860589802 0.111287273 4.37159491
v 0.860589802 -0.111287579 4.37159491
v 0.253931135 -0.111287586 4.66722488
v 0.253931075 0.111287266 4.66722488
v -1.96822751 0.11128702 1.70113325
v 0.135697708 0.111287504 2.49264717
v 0.253931075 0.111287266 4.66722488
v -0.665370703 0.111287221 4.77778816
vt 0.438839078 0
vt 0.438839048 0.249999985
vt 0.625 0.25
vt 0.625 0
vt 0.438839018 0.37499997
vt 0.438839048 0.5
vt 0.625 0.5
vt 0.625 0.375
vt 0.375 0.375
vt 0.438839048 0.5
vt 0.375 0.5
vt 0.375 0.25
vt 0.438839018 0.37499997
vt 0.438839048 0.249999985
vt 0.438839048 0.5
vt 0.438839048 0.75
vt 0.625 0.75
vt 0.625 0.5
vt 0.438839078 0.875
vt 0.438839048 1
vt 0.625 1
vt 0.625 0.875
vt 0.438839048 0.75
vt 0.438839078 0.875
vt 0.625 0.75
vt 0.24999997 0.49999994
vt 0.375 0.75
vt 0.375 0.5
vt 0.24999997 0.74999994
vt 0.125 0.5
vt 0.125 0.75
vt 0.75 0.5
vt 0.75 0.75
vt 0.875 0.75
vt 0.875 0.5
vt 0.375 0.875
vt 0.375 1
vt 0.438839048 1
vt 0.438839078 0.875
vt 0.375 0.75
vt 0.375 0.875
vt 0.438839048 0.75
vt 0.375 0.5
vt 0.375 0.75
vt 0.438839048 0.75
vt 0.438839048 0.5
vt 0.375 0
vt 0.375 0.25
vt 0.438839048 0.249999985
vt 0.438839078 0
vt 0.625 0.5
vt 0.625 0.75
vt 0.75 0.75
vt 0.75 0.5
vt 0.438839048 0.249999985
vt 0.438839018 0.37499997
vt 0.625 0.375
vt 0.625 0.25
vn -0.920838833 0 0.389943331
vn -0.920838833 0 0.389943331
vn -0.920838833 0 0.389943331
vn -0.920838833 0 0.389943331
vn -0 1 0
vn -0 1 0
vn -0 1 0
vn -0 1 0
vn -0 1 0
vn -0 1 0
vn -0 1 0
vn -0 1 0
vn -0 1 0
vn -0 1 0
vn 0.909863651 0 0.414907485
vn 0.909863651 0 0.414907485
vn 0.909863651 0 0.414907485
vn 0.909863651 0 0.414907485
vn -0 -1 0
vn -0 -1 0
vn -0 -1 0
vn -0 -1 0
vn -0 -1 0
vn -0 -1 0
vn -0 -1 0
vn -0 0 -1
vn -0 0 -1
vn -0 0 -1
vn -0 0 -1
vn -0 0 -1
vn -0 0 -1
vn 0.119408414 0 0.992845237
vn 0.119408414 0 0.992845237
vn 0.119408414 0 0.992845237
vn 0.119408414 0 0.992845237
vn -0 -1 0
vn -0 -1 0
vn -0 -1 0
vn -0 -1 0
vn -0 -1 0
vn -0 -1 0
vn -0 -1 0
vn 0.999706805 0 -0.0242131595
vn 0.999706805 0 -0.0242131595
vn 0.999706805 0 -0.0242131595
vn 0.999706805 0 -0.0242131595
vn -0.980279922 0 -0.197614208
vn -0.980279922 0 -0.197614208
vn -0.980279922 0 -0.197614208
vn -0.980279922 0 -0.197614208
vn 0.438063204 0 0.898944139
vn 0.438063204 0 0.898944139
vn 0.438063204 0 0.898944139
vn 0.438063204 0 0.898944139
vn -0 1 0
vn -0 1 0
vn -0 1 0
vn -0 1 0
g HerdCol_0
f 3/3/3 2/2/2 1/1/1
f 4/4/4 3/3/3 1/1/1
f 7/7/7 6/6/6 5/5/5
f 8/8/8 7/7/7 5/5/5
f 5/5/5 10/10/10 9/9/9
f 10/10/10 11/11/11 9/9/9
f 13/13/13 9/9/9 12/12/12
f 14/14/14 13/13/13 12/12/12
f 17/17/17 16/16/16 15/15/15
f 18/18/18 17/17/17 15/15/15
f 21/21/21 20/20/20 19/19/19
f 22/22/22 21/21/21 19/19/19
f 22/22/22 24/24/24 23/23/23
f 25/25/25 22/22/22 23/23/23
f 28/28/28 27/27/27 26/26/26
f 27/27/27 29/29/29 26/26/26
f 26/26/26 29/29/29 30/30/30
f 29/29/29 31/31/31 30/30/30
f 34/34/34 33/33/33 32/32/32
f 35/35/35 34/34/34 32/32/32
f 38/38/38 37/37/37 36/36/36
f 39/39/39 38/38/38 36/36/36
f 39/39/39 41/41/41 40/40/40
f 42/42/42 39/39/39 40/40/40
f 45/45/45 44/44/44 43/43/43
f 46/46/46 45/45/45 43/43/43
f 49/49/49 48/48/48 47/47/47
f 50/50/50 49/49/49 47/47/47
f 53/53/53 52/52/52 51/51/51
f 54/54/54 53/53/53 51/51/51
f 57/57/57 56/56/56 55/55/55
f 58/58/58 57/57/57 55/55/55
