g CourtesanCol
v -1.54797971 -0.111287549 4.20542669
v -1.54797947 0.111287296 4.20542669
v -0.272104144 0.1112874 6.40454817
v -0.272104144 -0.11128746 6.40454817
v -0.344221205 0.111287422 2.37539864
v 1.61025286 0.111287549 1.25707507
v 1.14953113 0.1112874 4.73367786
v 0.126161695 0.1112874 6.38802814
v -1.54797947 0.111287296 4.20542669
v 0.126161695 0.1112874 6.38802814
v -0.272104144 0.1112874 6.40454817
v 1.61025286 0.111287549 1.25707507
v 1.61025286 -0.111287296 1.25707507
v 1.14953113 -0.11128746 4.73367786
v 1.14953113 0.1112874 4.73367786
v -0.344221175 -0.111287422 2.37539864
v -1.54797971 -0.111287549 4.20542669
v -0.272104144 -0.11128746 6.40454817
v 0.126161933 -0.11128746 6.38802814
v 1.61025286 -0.111287296 1.25707507
v -0.344221175 -0.111287422 2.37539864
v 1.14953113 -0.11128746 4.73367786
v -0 0.111287422 0.309901953
v 1.57675064 -0.111287422 0.309901953
v 1.57675064 0.111287422 0.309901953
v 1.41937576E-07 -0.111287422 0.309901953
v -1.75491166 0.11128743 0.319858968
v -1.75491166 -0.111287415 0.319858968
v 0.126161695 0.1112874 6.38802814
v 0.126161933 -0.11128746 6.38802814
v -0.272104144 -0.11128746 6.40454817
v -0.272104144 0.1112874 6.40454817
v 1.41937576E-07 -0.111287422 0.309901953
v -1.75491166 -0.111287415 0.319858968
v -1.54797971 -0.111287549 4.20542669
v -0.344221175 -0.111287422 2.37539864
v 1.57675064 -0.111287422 0.309901953
v 1.41937576E-07 -0.111287422 0.309901953
v 1.61025286 -0.111287296 1.25707507
v 1.57675064 0.111287422 0.309901953
v 1.57675064 -0.111287422 0.309901953
v 1.61025286 -0.111287296 1.25707507
v 1.61025286 0.111287549 1.25707507
v -0 0.111287422 0.309901953
v 1.57675064 0.111287422 0.309901953
v 1.61025286 0.111287549 1.25707507
v -0.344221205 0.111287422 2.37539864
v -1.75491166 -0.111287415 0.319858968
v -1.75491166 0.11128743 0.319858968
v -1.54797947 0.111287296 4.20542669
v -1.54797971 -0.111287549 4.20542669
v -1.75491166 0.11128743 0.319858968
v -0 0.111287422 0.309901953
v -0.344221205 0.111287422 2.37539864
v -1.54797947 0.111287296 4.20542669
v 1.14953113 0.1112874 4.73367786
v 1.14953113 -0.11128746 4.73367786
v 0.126161933 -0.11128746 6.38802814
v 0.126161695 0.1112874 6.38802814
vt 0.438839078 0
vt 0.438839048 0.249999985
vt 0.625 0.25
vt 0.625 0
vt 0.438839018 0.37499997
vt 0.438839048 0.5
vt 0.625 0.5
vt 0.625 0.375
vt 0.438839048 0.249999985
vt 0.625 0.375
vt 0.625 0.25
vt 0.438839048 0.5
vt 0.438839048 0.75
vt 0.625 0.75
vt 0.625 0.5
vt 0.438839078 0.875
vt 0.438839048 1
vt 0.625 1
vt 0.625 0.875
vt 0.438839048 0.75
vt 0.438839078 0.875
vt 0.625 0.75
vt 0.24999997 0.49999994
vt 0.375 0.75
vt 0.375 0.5
vt 0.24999997 0.74999994
vt 0.125 0.5
vt 0.125 0.75
vt 0.75 0.5
vt 0.75 0.75
vt 0.875 0.75
vt 0.875 0.5
vt 0.375 0.875
vt 0.375 1
vt 0.438839048 1
vt 0.438839078 0.875
vt 0.375 0.75
vt 0.375 0.875
vt 0.438839048 0.75
vt 0.375 0.5
vt 0.375 0.75
vt 0.438839048 0.75
vt 0.438839048 0.5
vt 0.375 0.375
vt 0.375 0.5
vt 0.438839048 0.5
vt 0.438839018 0.37499997
vt 0.375 0
vt 0.375 0.25
vt 0.438839048 0.249999985
vt 0.438839078 0
vt 0.375 0.25
vt 0.375 0.375
vt 0.438839018 0.37499997
vt 0.438839048 0.249999985
vt 0.625 0.5
vt 0.625 0.75
vt 0.75 0.75
vt 0.75 0.5
vn -0.864965439 0 0.501831353
vn -0.864965439 0 0.501831353
vn -0.864965439 0 0.501831353
vn -0.864965439 0 0.501831353
vn -0 1 0
vn -0 1 0
vn -0 1 0
vn -0 1 0
vn -0 1 0
vn -0 1 0
vn -0 1 0
vn 0.991333187 0 0.131372124
vn 0.991333187 0 0.131372124
vn 0.991333187 0 0.131372124
vn 0.991333187 0 0.131372124
vn -0 -1 0
vn -0 -1 0
vn -0 -1 0
vn -0 -1 0
vn -0 -1 0
vn -0 -1 0
vn -0 -1 0
vn -0 0 -1
vn -0 0 -1
vn -0 0 -1
vn -0 0 -1
vn -0.00567371724 0 -0.999983907
vn -0.00567371724 0 -0.999983907
vn 0.0414450094 0 0.999140739
vn 0.0414450094 0 0.999140739
vn 0.0414450094 0 0.999140739
vn 0.0414450094 0 0.999140739
vn -0 -1 0
vn -0 -1 0
vn -0 -1 0
vn -0 -1 0
vn -0 -1 0
vn -0 -1 0
vn -0 -1 0
vn 0.999375045 0 -0.0353486389
vn 0.999375045 0 -0.0353486389
vn 0.999375045 0 -0.0353486389
vn 0.999375045 0 -0.0353486389
vn -0 1 0
vn -0 1 0
vn -0 1 0
vn -0 1 0
vn -0.998584867 0 0.0531812198
vn -0.998584867 0 0.0531812198
vn -0.998584867 0 0.0531812198
vn -0.998584867 0 0.0531812198
vn -0 1 0
vn -0 1 0
vn -0 1 0
vn -0 1 0
vn 0.850438178 0 0.526075006
vn 0.850438178 0 0.526075006
vn 0.850438178 0 0.526075006
vn 0.850438178 0 0.526075006
g CourtesanCol_0
f 3/3/3 2/2/2 1/1/1
f 4/4/4 3/3/3 1/1/1
f 7/7/7 6/6/6 5/5/5
f 8/8/8 7/7/7 5/5/5
f 10/10/10 5/5/5 9/9/9
f 11/11/11 10/10/10 9/9/9
f 14/14/14 13/13/13 12/12/12
f 15/15/15 14/14/14 12/12/12
f 18/18/18 17/17/17 16/16/16
f 19/19/19 18/18/18 16/16/16
f 19/19/19 21/21/21 20/20/20
f 22/22/22 19/19/19 20/20/20
f 25/25/25 24/24/24 23/23/23
f 24/24/24 26/26/26 23/23/23
f 23/23/23 26/26/26 27/27/27
f 26/26/26 28/28/28 27/27/27
f 31/31/31 30/30/30 29/29/29
f 32/32/32 31/31/31 29/29/29
f 35/35/35 34/34/34 33/33/33
f 36/36/36 35/35/35 33/33/33
f 36/36/36 38/38/38 37/37/37
f 39/39/39 36/36/36 37/37/37
f 42/42/42 41/41/41 40/40/40
f 43/43/43 42/42/42 40/40/40
f 46/46/46 45/45/45 44/44/44
f 47/47/47 46/46/46 44/44/44
f 50/50/50 49/49/49 48/48/48
f 51/51/51 50/50/50 48/48/48
f 54/54/54 53/53/53 52/52/52
f 55/55/55 54/54/54 52/52/52
f 58/58/58 57/57/57 56/56/56
f 59/59/59 58/58/58 56/56/56
