g InquisitorCol
v -1.84519243 -0.111287549 0.866319537
v -1.84519243 0.111287296 0.866319537
v -1.99972153 0.1112874 3.06250978
v -1.99972153 -0.11128746 3.06250978
v -0.344221205 0.111287422 2.37539864
v 1.98263121 0.111287549 3.87699556
v 2.02465963 0.1112874 5.87930727
v -0.294617951 0.1112874 5.92196941
v -1.84519243 0.111287296 0.866319537
v -1.99972153 0.1112874 3.06250978
v 1.98263121 0.111287549 3.87699556
v 2.02465963 -0.11128746 5.87930727
v 2.02465963 0.1112874 5.87930727
v 1.98263121 -0.111287296 3.87699556
v 1.7660625 0.111287422 0.309901953
v 1.7660625 -0.111287422 0.309901953
v -0.344221175 -0.111287422 2.37539864
v -1.84519243 -0.111287549 0.866319537
v -1.99972153 -0.11128746 3.06250978
v -0.294617891 -0.11128746 5.92196941
v 1.98263121 -0.111287296 3.87699556
v 2.02465963 -0.11128746 5.87930727
v -0 0.111287422 0.309901953
v 1.7660625 -0.111287422 0.309901953
v 1.7660625 0.111287422 0.309901953
v 1.41937576E-07 -0.111287422 0.309901953
v -1.67238224 0.111287422 0.309901953
v -1.67238224 -0.111287422 0.309901953
v -0.294617951 0.1112874 5.92196941
v -0.294617891 -0.11128746 5.92196941
v -1.99972153 -0.11128746 3.06250978
v -1.99972153 0.1112874 3.06250978
v 1.41937576E-07 -0.111287422 0.309901953
v -1.67238224 -0.111287422 0.309901953
v -1.84519243 -0.111287549 0.866319537
v -0.344221175 -0.111287422 2.37539864
v 1.7660625 -0.111287422 0.309901953
v 1.41937576E-07 -0.111287422 0.309901953
v 1.98263121 -0.111287296 3.87699556
v -0 0.111287422 0.309901953
v 1.7660625 0.111287422 0.309901953
v 1.98263121 0.111287549 3.87699556
v -0.344221205 0.111287422 2.37539864
v -1.67238224 0.111287422 0.309901953
v -0 0.111287422 0.309901953
v -1.84519243 0.111287296 0.866319537
v -1.67238224 -0.111287422 0.309901953
v -1.67238224 0.111287422 0.309901953
v -1.84519243 0.111287296 0.866319537
v -1.84519243 -0.111287549 0.866319537
v 2.02465963 0.1112874 5.87930727
v 2.02465963 -0.11128746 5.87930727
v -0.294617891 -0.11128746 5.92196941
v -0.294617951 0.1112874 5.92196941
vt 0.438839078 0
vt 0.438839048 0.249999985
vt 0.625 0.25
vt 0.625 0
vt 0.438839018 0.37499997
vt 0.438839048 0.5
vt 0.625 0.5
vt 0.625 0.375
vt 0.438839048 0.249999985
vt 0.625 0.25
vt 0.438839048 0.5
vt 0.625 0.75
vt 0.625 0.5
vt 0.438839048 0.75
vt 0.375 0.5
vt 0.375 0.75
vt 0.438839078 0.875
vt 0.438839048 1
vt 0.625 1
vt 0.625 0.875
vt 0.438839048 0.75
vt 0.625 0.75
vt 0.24999997 0.49999994
vt 0.375 0.75
vt 0.375 0.5
vt 0.24999997 0.74999994
vt 0.125 0.5
vt 0.125 0.75
vt 0.75 0.5
vt 0.75 0.75
vt 0.875 0.75
vt 0.875 0.5
vt 0.375 0.875
vt 0.375 1
vt 0.438839048 1
vt 0.438839078 0.875
vt 0.375 0.75
vt 0.375 0.875
vt 0.438839048 0.75
vt 0.375 0.375
vt 0.375 0.5
vt 0.438839048 0.5
vt 0.438839018 0.37499997
vt 0.375 0.25
vt 0.375 0.375
vt 0.438839048 0.249999985
vt 0.375 0
vt 0.375 0.25
vt 0.438839048 0.249999985
vt 0.438839078 0
vt 0.625 0.5
vt 0.625 0.75
vt 0.75 0.75
vt 0.75 0.5
vn -0.997533679 0 -0.0701888129
vn -0.997533679 0 -0.0701888129
vn -0.997533679 0 -0.0701888129
vn -0.997533679 0 -0.0701888129
vn -0 1 0
vn -0 1 0
vn -0 1 0
vn -0 1 0
vn -0 1 0
vn -0 1 0
vn 0.999779761 0 -0.0209853314
vn 0.999779761 0 -0.0209853314
vn 0.999779761 0 -0.0209853314
vn 0.999779761 0 -0.0209853314
vn 0.998162091 0 -0.0606013462
vn 0.998162091 0 -0.0606013462
vn -0 -1 0
vn -0 -1 0
vn -0 -1 0
vn -0 -1 0
vn -0 -1 0
vn -0 -1 0
vn -0 0 -1
vn -0 0 -1
vn -0 0 -1
vn -0 0 -1
vn -0 0 -1
vn -0 0 -1
vn -0.858890712 0 0.51215893
vn -0.858890712 0 0.51215893
vn -0.858890712 0 0.51215893
vn -0.858890712 0 0.51215893
vn -0 -1 0
vn -0 -1 0
vn -0 -1 0
vn -0 -1 0
vn -0 -1 0
vn -0 -1 0
vn -0 -1 0
vn -0 1 0
vn -0 1 0
vn -0 1 0
vn -0 1 0
vn -0 1 0
vn -0 1 0
vn -0 1 0
vn -0.955001473 0 -0.296600968
vn -0.955001473 0 -0.296600968
vn -0.955001473 0 -0.296600968
vn -0.955001473 0 -0.296600968
vn 0.0183914248 0 0.999830842
vn 0.0183914248 0 0.999830842
vn 0.0183914248 0 0.999830842
vn 0.0183914248 0 0.999830842
g InquisitorCol_0
f 3/3/3 2/2/2 1/1/1
f 4/4/4 3/3/3 1/1/1
f 7/7/7 6/6/6 5/5/5
f 8/8/8 7/7/7 5/5/5
f 8/8/8 5/5/5 9/9/9
f 10/10/10 8/8/8 9/9/9
f 13/13/13 12/12/12 11/11/11
f 12/12/12 14/14/14 11/11/11
f 11/11/11 14/14/14 15/15/15
f 14/14/14 16/16/16 15/15/15
f 19/19/19 18/18/18 17/17/17
f 20/20/20 19/19/19 17/17/17
f 20/20/20 17/17/17 21/21/21
f 22/22/22 20/20/20 21/21/21
f 25/25/25 24/24/24 23/23/23
f 24/24/24 26/26/26 23/23/23
f 23/23/23 26/26/26 27/27/27
f 26/26/26 28/28/28 27/27/27
f 31/31/31 30/30/30 29/29/29
f 32/32/32 31/31/31 29/29/29
f 35/35/35 34/34/34 33/33/33
f 36/36/36 35/35/35 33/33/33
f 36/36/36 38/38/38 37/37/37
f 39/39/39 36/36/36 37/37/37
f 42/42/42 41/41/41 40/40/40
f 43/43/43 42/42/42 40/40/40
f 43/43/43 45/45/45 44/44/44
f 46/46/46 43/43/43 44/44/44
f 49/49/49 48/48/48 47/47/47
f 50/50/50 49/49/49 47/47/47
f 53/53/53 52/52/52 51/51/51
f 54/54/54 53/53/53 51/51/51
