g YvajCol
v -1.51792002 -0.12046092 3.66044378
v -1.23594069 0.111287236 6.64621067
v -1.23594069 -0.111287616 6.64621067
v -1.51792002 0.12046086 3.66044378
v -1.76606238 -0.111287422 0.309901953
v -1.76606238 0.111287422 0.309901953
v 0.292336851 0.12046098 3.48502684
v 1.80746603 0.120461069 3.24312758
v 1.73685515 0.111287296 6.19714642
v 0.380282432 0.111287311 6.48463821
v -1.51792002 0.12046086 3.66044378
v -1.23594069 0.111287236 6.64621067
v 0.292336851 0.12046098 3.48502684
v -1.76606238 0.111287422 0.309901953
v -0 0.111287422 0.309901953
v 1.80746603 0.120461069 3.24312758
v 1.7660625 0.111287422 0.309901953
v 1.80746603 0.120461069 3.24312758
v 1.73685515 -0.111287557 6.19714642
v 1.73685515 0.111287296 6.19714642
v 1.80746603 -0.120460719 3.24312758
v 1.7660625 0.111287422 0.309901953
v 1.7660625 -0.111287422 0.309901953
v -0 0.111287422 0.309901953
v 1.7660625 -0.111287422 0.309901953
v 1.7660625 0.111287422 0.309901953
v 1.41937576E-07 -0.111287422 0.309901953
v -1.76606238 0.111287422 0.309901953
v -1.76606238 -0.111287422 0.309901953
v 0.380282432 0.111287311 6.48463821
v 0.380282551 -0.111287542 6.48463821
v -1.23594069 -0.111287616 6.64621067
v -1.23594069 0.111287236 6.64621067
v 1.41937576E-07 -0.111287422 0.309901953
v -1.76606238 -0.111287422 0.309901953
v -1.51792002 -0.12046092 3.66044378
v 0.292336911 -0.120460793 3.48502684
v 1.7660625 -0.111287422 0.309901953
v 1.80746603 -0.120460719 3.24312758
v -1.23594069 -0.111287616 6.64621067
v 0.380282551 -0.111287542 6.48463821
v 1.80746603 -0.120460719 3.24312758
v 0.292336911 -0.120460793 3.48502684
v 1.73685515 -0.111287557 6.19714642
v 1.73685515 0.111287296 6.19714642
v 1.73685515 -0.111287557 6.19714642
v 0.380282551 -0.111287542 6.48463821
v 0.380282432 0.111287311 6.48463821
vt 0.544861078 0
vt 0.625 0.25
vt 0.625 0
vt 0.544861019 0.25
vt 0.375 0
vt 0.375 0.25
vt 0.544861078 0.375
vt 0.544861019 0.5
vt 0.625 0.5
vt 0.625 0.375
vt 0.544861019 0.25
vt 0.625 0.25
vt 0.544861078 0.375
vt 0.375 0.25
vt 0.375 0.375
vt 0.544861019 0.5
vt 0.375 0.5
vt 0.544861019 0.5
vt 0.625 0.75
vt 0.625 0.5
vt 0.544860959 0.75
vt 0.375 0.5
vt 0.375 0.75
vt 0.24999997 0.49999994
vt 0.375 0.75
vt 0.375 0.5
vt 0.24999997 0.74999994
vt 0.125 0.5
vt 0.125 0.75
vt 0.75 0.5
vt 0.75 0.75
vt 0.875 0.75
vt 0.875 0.5
vt 0.375 0.875
vt 0.375 1
vt 0.544860959 1
vt 0.544861078 0.87500006
vt 0.375 0.75
vt 0.544860959 0.75
vt 0.625 1
vt 0.625 0.875
vt 0.544860959 0.75
vt 0.544861078 0.87500006
vt 0.625 0.75
vt 0.625 0.5
vt 0.625 0.75
vt 0.75 0.75
vt 0.75 0.5
vn -0.995570123 0 0.094022803
vn -0.995570123 0 0.094022803
vn -0.995570123 0 0.094022803
vn -0.995570123 0 0.094022803
vn -0.997268736 0 0.0738580897
vn -0.997268736 0 0.0738580897
vn 0.000567774812 0.999995112 0.00308005325
vn 0.000567774812 0.999995112 0.00308005325
vn 0.000567774812 0.999995112 0.00308005325
vn 0.000567774812 0.999995112 0.00308005325
vn -0.000137378127 0.999996066 -0.0028001212
vn 0.000299593463 0.999995351 0.00304682017
vn -0.000220574118 0.999995589 -0.00299156131
vn -0.000137378127 0.999996066 -0.0028001212
vn -0.000220574118 0.999995589 -0.00299156131
vn -0.000220574118 0.999995589 -0.00299156131
vn -0.000220574118 0.999995589 -0.00299156131
vn 0.999714434 0 0.0238964986
vn 0.999714434 0 0.0238964986
vn 0.999714434 0 0.0238964986
vn 0.999714434 0 0.0238964986
vn 0.99990046 0 -0.0141139533
vn 0.99990046 0 -0.0141139533
vn -0 0 -1
vn -0 0 -1
vn -0 0 -1
vn -0 0 -1
vn -0 0 -1
vn -0 0 -1
vn 0.0994733498 0 0.995040238
vn 0.0994733498 0 0.995040238
vn 0.0994733498 0 0.995040238
vn 0.0994733498 0 0.995040238
vn -0.000137308816 -0.999996066 -0.00280010933
vn -0.000137308816 -0.999996066 -0.00280010933
vn 0.000299695967 -0.999995351 0.00304669049
vn 0.000299695967 -0.999995351 0.00304669049
vn -0.000220517846 -0.999995589 -0.00299147516
vn -0.000220517846 -0.999995589 -0.00299147516
vn 0.000299695967 -0.999995351 0.00304669049
vn 0.000299695967 -0.999995351 0.00304669049
vn 0.000567790587 -0.999995112 0.00307988189
vn 0.000567790587 -0.999995112 0.00307988189
vn 0.000567790587 -0.999995112 0.00307988189
vn 0.207320556 0 0.978273034
vn 0.207320556 0 0.978273034
vn 0.207320556 0 0.978273034
vn 0.207320556 0 0.978273034
g YvajCol_0
f 3/3/3 2/2/2 1/1/1
f 2/2/2 4/4/4 1/1/1
f 1/1/1 4/4/4 5/5/5
f 4/4/4 6/6/6 5/5/5
f 9/9/9 8/8/8 7/7/7
f 10/10/10 9/9/9 7/7/7
f 12/12/12 10/10/10 11/11/11
f 10/10/10 13/13/13 11/11/11
f 11/11/11 13/13/13 14/14/14
f 13/13/13 15/15/15 14/14/14
f 13/13/13 16/16/16 15/15/15
f 16/16/16 17/17/17 15/15/15
f 20/20/20 19/19/19 18/18/18
f 19/19/19 21/21/21 18/18/18
f 18/18/18 21/21/21 22/22/22
f 21/21/21 23/23/23 22/22/22
f 26/26/26 25/25/25 24/24/24
f 25/25/25 27/27/27 24/24/24
f 24/24/24 27/27/27 28/28/28
f 27/27/27 29/29/29 28/28/28
f 32/32/32 31/31/31 30/30/30
f 33/33/33 32/32/32 30/30/30
f 36/36/36 35/35/35 34/34/34
f 37/37/37 36/36/36 34/34/34
f 37/37/37 34/34/34 38/38/38
f 39/39/39 37/37/37 38/38/38
f 40/40/40 36/36/36 37/37/37
f 41/41/41 40/40/40 37/37/37
f 41/41/41 43/43/43 42/42/42
f 44/44/44 41/41/41 42/42/42
f 47/47/47 46/46/46 45/45/45
f 48/48/48 47/47/47 45/45/45
