g TzadaniCol
v -2.02817154 -0.11128781 4.17006969
v -2.02817154 0.111287035 4.17006969
v -0.897394896 0.111287341 5.90367508
v -0.897394896 -0.111287512 5.90367508
v 0.156575948 0.111287504 1.76194191
v 2.0190897 0.111287415 3.59223652
v 0.491590977 0.111287326 5.9828105
v -0.120861918 0.111287318 6.31236172
v -1.56929326 0.111287422 0.309901953
v -2.02817154 0.111287035 4.17006969
v -0 0.111287422 0.309901953
v 1.60401738 0.111287422 0.309901953
v 2.0190897 0.111287415 3.59223652
v 0.156575948 0.111287504 1.76194191
v -2.02817154 0.111287035 4.17006969
v -0.120861918 0.111287318 6.31236172
v -0.897394896 0.111287341 5.90367508
v 2.0190897 0.111287415 3.59223652
v 2.0190897 -0.11128743 3.59223652
v 0.491590977 -0.111287527 5.9828105
v 0.491590977 0.111287326 5.9828105
v 0.156575948 -0.111287341 1.76194191
v -2.02817154 -0.11128781 4.17006969
v -0.897394896 -0.111287512 5.90367508
v -0.120861858 -0.111287534 6.31236172
v 2.0190897 -0.11128743 3.59223652
v 0.156575948 -0.111287341 1.76194191
v 0.491590977 -0.111287527 5.9828105
v -0 0.111287422 0.309901953
v 1.60401738 -0.111287422 0.309901953
v 1.60401738 0.111287422 0.309901953
v 1.41937576E-07 -0.111287422 0.309901953
v -1.56929326 0.111287422 0.309901953
v -1.56929326 -0.111287422 0.309901953
v -0.120861918 0.111287318 6.31236172
v -0.120861858 -0.111287534 6.31236172
v -0.897394896 -0.111287512 5.90367508
v -0.897394896 0.111287341 5.90367508
v 1.41937576E-07 -0.111287422 0.309901953
v -1.56929326 -0.111287422 0.309901953
v -2.02817154 -0.11128781 4.17006969
v 0.156575948 -0.111287341 1.76194191
v 1.60401738 -0.111287422 0.309901953
v 1.41937576E-07 -0.111287422 0.309901953
v 2.0190897 -0.11128743 3.59223652
v 1.60401738 0.111287422 0.309901953
v 1.60401738 -0.111287422 0.309901953
v 2.0190897 -0.11128743 3.59223652
v 2.0190897 0.111287415 3.59223652
v -1.56929326 -0.111287422 0.309901953
v -1.56929326 0.111287422 0.309901953
v -2.02817154 0.111287035 4.17006969
v -2.02817154 -0.11128781 4.17006969
v 0.491590977 0.111287326 5.9828105
v 0.491590977 -0.111287527 5.9828105
v -0.120861858 -0.111287534 6.31236172
v -0.120861918 0.111287318 6.31236172
vt 0.438839078 0
vt 0.438839048 0.249999985
vt 0.625 0.25
vt 0.625 0
vt 0.438839018 0.37499997
vt 0.438839048 0.5
vt 0.625 0.5
vt 0.625 0.375
vt 0.375 0.25
vt 0.438839048 0.249999985
vt 0.375 0.375
vt 0.375 0.5
vt 0.438839048 0.5
vt 0.438839018 0.37499997
vt 0.438839048 0.249999985
vt 0.625 0.375
vt 0.625 0.25
vt 0.438839048 0.5
vt 0.438839048 0.75
vt 0.625 0.75
vt 0.625 0.5
vt 0.438839078 0.875
vt 0.438839048 1
vt 0.625 1
vt 0.625 0.875
vt 0.438839048 0.75
vt 0.438839078 0.875
vt 0.625 0.75
vt 0.24999997 0.49999994
vt 0.375 0.75
vt 0.375 0.5
vt 0.24999997 0.74999994
vt 0.125 0.5
vt 0.125 0.75
vt 0.75 0.5
vt 0.75 0.75
vt 0.875 0.75
vt 0.875 0.5
vt 0.375 0.875
vt 0.375 1
vt 0.438839048 1
vt 0.438839078 0.875
vt 0.375 0.75
vt 0.375 0.875
vt 0.438839048 0.75
vt 0.375 0.5
vt 0.375 0.75
vt 0.438839048 0.75
vt 0.438839048 0.5
vt 0.375 0
vt 0.375 0.25
vt 0.438839048 0.249999985
vt 0.438839078 0
vt 0.625 0.5
vt 0.625 0.75
vt 0.75 0.75
vt 0.75 0.5
vn -0.837574184 0 0.546323478
vn -0.837574184 0 0.546323478
vn -0.837574184 0 0.546323478
vn -0.837574184 0 0.546323478
vn -0 1 0
vn -0 1 0
vn -0 1 0
vn -0 1 0
vn -0 1 0
vn -0 1 0
vn -0 1 0
vn -0 1 0
vn -0 1 0
vn -0 1 0
vn -0 1 0
vn -0 1 0
vn -0 1 0
vn 0.842666268 0 0.538436234
vn 0.842666268 0 0.538436234
vn 0.842666268 0 0.538436234
vn 0.842666268 0 0.538436234
vn -0 -1 0
vn -0 -1 0
vn -0 -1 0
vn -0 -1 0
vn -0 -1 0
vn -0 -1 0
vn -0 -1 0
vn -0 0 -1
vn -0 0 -1
vn -0 0 -1
vn -0 0 -1
vn -0 0 -1
vn -0 0 -1
vn -0.465733021 0 0.884925306
vn -0.465733021 0 0.884925306
vn -0.465733021 0 0.884925306
vn -0.465733021 0 0.884925306
vn -0 -1 0
vn -0 -1 0
vn -0 -1 0
vn -0 -1 0
vn -0 -1 0
vn -0 -1 0
vn -0 -1 0
vn 0.992099047 0 -0.125457302
vn 0.992099047 0 -0.125457302
vn 0.992099047 0 -0.125457302
vn 0.992099047 0 -0.125457302
vn -0.993008375 0 -0.118044086
vn -0.993008375 0 -0.118044086
vn -0.993008375 0 -0.118044086
vn -0.993008375 0 -0.118044086
vn 0.473842114 0 0.88060981
vn 0.473842114 0 0.88060981
vn 0.473842114 0 0.88060981
vn 0.473842114 0 0.88060981
g TzadaniCol_0
f 3/3/3 2/2/2 1/1/1
f 4/4/4 3/3/3 1/1/1
f 7/7/7 6/6/6 5/5/5
f 8/8/8 7/7/7 5/5/5
f 10/10/10 5/5/5 9/9/9
f 5/5/5 11/11/11 9/9/9
f 13/13/13 12/12/12 11/11/11
f 14/14/14 13/13/13 11/11/11
f 16/16/16 5/5/5 15/15/15
f 17/17/17 16/16/16 15/15/15
f 20/20/20 19/19/19 18/18/18
f 21/21/21 20/20/20 18/18/18
f 24/24/24 23/23/23 22/22/22
f 25/25/25 24/24/24 22/22/22
f 25/25/25 27/27/27 26/26/26
f 28/28/28 25/25/25 26/26/26
f 31/31/31 30/30/30 29/29/29
f 30/30/30 32/32/32 29/29/29
f 29/29/29 32/32/32 33/33/33
f 32/32/32 34/34/34 33/33/33
f 37/37/37 36/36/36 35/35/35
f 38/38/38 37/37/37 35/35/35
f 41/41/41 40/40/40 39/39/39
f 42/42/42 41/41/41 39/39/39
f 42/42/42 44/44/44 43/43/43
f 45/45/45 42/42/42 43/43/43
f 48/48/48 47/47/47 46/46/46
f 49/49/49 48/48/48 46/46/46
f 52/52/52 51/51/51 50/50/50
f 53/53/53 52/52/52 50/50/50
f 56/56/56 55/55/55 54/54/54
f 57/57/57 56/56/56 54/54/54
