g Counter_col
v -1.53727567 -0.111287422 1.28704774
v -1.53727567 0.111287422 1.28704774
v -1.0044477 0.111287393 5.46559668
v -1.0044477 -0.11128746 5.46559668
v -0.132790416 0.111287422 2.37539864
v 1.27169478 0.111287422 3.46374917
v 0.787733674 0.111287393 5.49109268
v 0.0446175635 0.111287393 5.84803247
v -1.76606238 0.111287422 0.309901953
v -0 0.111287422 0.309901953
v -1.53727567 0.111287422 1.28704774
v 1.27169478 0.111287422 3.46374917
v 1.27169478 -0.111287422 3.46374917
v 0.787733674 -0.11128746 5.49109268
v 0.787733674 0.111287393 5.49109268
v -0 0.111287422 0.309901953
v 1.7660625 -0.111287422 0.309901953
v 1.7660625 0.111287422 0.309901953
v 1.41937576E-07 -0.111287422 0.309901953
v -1.76606238 0.111287422 0.309901953
v -1.76606238 -0.111287422 0.309901953
v 0.0446175635 0.111287393 5.84803247
v 0.0446176343 -0.11128746 5.84803247
v -1.0044477 -0.11128746 5.46559668
v -1.0044477 0.111287393 5.46559668
v 1.41937576E-07 -0.111287422 0.309901953
v -1.76606238 -0.111287422 0.309901953
v -1.53727567 -0.111287422 1.28704774
v -0.132790416 -0.111287422 2.37539864
v -0.132790416 -0.111287422 2.37539864
v -1.0044477 -0.11128746 5.46559668
v 0.0446176343 -0.11128746 5.84803247
v 1.7660625 -0.111287422 0.309901953
v 1.41937576E-07 -0.111287422 0.309901953
v 1.27169478 -0.111287422 3.46374917
v 1.27169478 -0.111287422 3.46374917
v -0.132790416 -0.111287422 2.37539864
v 0.787733674 -0.11128746 5.49109268
v 1.7660625 0.111287422 0.309901953
v 1.7660625 -0.111287422 0.309901953
v 1.27169478 -0.111287422 3.46374917
v 1.27169478 0.111287422 3.46374917
v -0 0.111287422 0.309901953
v 1.7660625 0.111287422 0.309901953
v 1.27169478 0.111287422 3.46374917
v -0.132790416 0.111287422 2.37539864
v -1.76606238 -0.111287422 0.309901953
v -1.76606238 0.111287422 0.309901953
v -1.53727567 0.111287422 1.28704774
v -1.53727567 -0.111287422 1.28704774
v 0.787733674 0.111287393 5.49109268
v 0.787733674 -0.11128746 5.49109268
v 0.0446176343 -0.11128746 5.84803247
v 0.0446175635 0.111287393 5.84803247
v -1.53727567 0.111287422 1.28704774
v -0.132790416 0.111287422 2.37539864
v 0.0446175635 0.111287393 5.84803247
v -1.0044477 0.111287393 5.46559668
vt 0.438839078 0
vt 0.438839048 0.249999985
vt 0.625 0.25
vt 0.625 0
vt 0.438839018 0.37499997
vt 0.438839048 0.5
vt 0.625 0.5
vt 0.625 0.375
vt 0.375 0.25
vt 0.375 0.375
vt 0.438839048 0.249999985
vt 0.438839048 0.5
vt 0.438839048 0.75
vt 0.625 0.75
vt 0.625 0.5
vt 0.24999997 0.49999994
vt 0.375 0.75
vt 0.375 0.5
vt 0.24999997 0.74999994
vt 0.125 0.5
vt 0.125 0.75
vt 0.75 0.5
vt 0.75 0.75
vt 0.875 0.75
vt 0.875 0.5
vt 0.375 0.875
vt 0.375 1
vt 0.438839048 1
vt 0.438839078 0.875
vt 0.438839078 0.875
vt 0.625 1
vt 0.625 0.875
vt 0.375 0.75
vt 0.375 0.875
vt 0.438839048 0.75
vt 0.438839048 0.75
vt 0.438839078 0.875
vt 0.625 0.75
vt 0.375 0.5
vt 0.375 0.75
vt 0.438839048 0.75
vt 0.438839048 0.5
vt 0.375 0.375
vt 0.375 0.5
vt 0.438839048 0.5
vt 0.438839018 0.37499997
vt 0.375 0
vt 0.375 0.25
vt 0.438839048 0.249999985
vt 0.438839078 0
vt 0.625 0.5
vt 0.625 0.75
vt 0.75 0.75
vt 0.75 0.5
vt 0.438839048 0.249999985
vt 0.438839018 0.37499997
vt 0.625 0.375
vt 0.625 0.25
vn -0.991967738 0 0.126490831
vn -0.991967738 0 0.126490831
vn -0.991967738 0 0.126490831
vn -0.991967738 0 0.126490831
vn -0 1 0
vn -0 1 0
vn -0 1 0
vn -0 1 0
vn -0 1 0
vn -0 1 0
vn -0 1 0
vn 0.97266984 0 0.232192725
vn 0.97266984 0 0.232192725
vn 0.97266984 0 0.232192725
vn 0.97266984 0 0.232192725
vn -0 0 -1
vn -0 0 -1
vn -0 0 -1
vn -0 0 -1
vn -0 0 -1
vn -0 0 -1
vn -0.34250018 0 0.939517736
vn -0.34250018 0 0.939517736
vn -0.34250018 0 0.939517736
vn -0.34250018 0 0.939517736
vn -0 -1 0
vn -0 -1 0
vn -0 -1 0
vn -0 -1 0
vn -0 -1 0
vn -0 -1 0
vn -0 -1 0
vn -0 -1 0
vn -0 -1 0
vn -0 -1 0
vn -0 -1 0
vn -0 -1 0
vn -0 -1 0
vn 0.987936437 0 0.154859707
vn 0.987936437 0 0.154859707
vn 0.987936437 0 0.154859707
vn 0.987936437 0 0.154859707
vn -0 1 0
vn -0 1 0
vn -0 1 0
vn -0 1 0
vn -0.973667622 0 0.227972329
vn -0.973667622 0 0.227972329
vn -0.973667622 0 0.227972329
vn -0.973667622 0 0.227972329
vn 0.432971746 0 0.90140748
vn 0.432971746 0 0.90140748
vn 0.432971746 0 0.90140748
vn 0.432971746 0 0.90140748
vn -0 1 0
vn -0 1 0
vn -0 1 0
vn -0 1 0
g Counter_col_0
f 3/3/3 2/2/2 1/1/1
f 4/4/4 3/3/3 1/1/1
f 7/7/7 6/6/6 5/5/5
f 8/8/8 7/7/7 5/5/5
f 5/5/5 10/10/10 9/9/9
f 11/11/11 5/5/5 9/9/9
f 14/14/14 13/13/13 12/12/12
f 15/15/15 14/14/14 12/12/12
f 18/18/18 17/17/17 16/16/16
f 17/17/17 19/19/19 16/16/16
f 16/16/16 19/19/19 20/20/20
f 19/19/19 21/21/21 20/20/20
f 24/24/24 23/23/23 22/22/22
f 25/25/25 24/24/24 22/22/22
f 28/28/28 27/27/27 26/26/26
f 29/29/29 28/28/28 26/26/26
f 31/31/31 28/28/28 30/30/30
f 32/32/32 31/31/31 30/30/30
f 29/29/29 34/34/34 33/33/33
f 35/35/35 29/29/29 33/33/33
f 32/32/32 37/37/37 36/36/36
f 38/38/38 32/32/32 36/36/36
f 41/41/41 40/40/40 39/39/39
f 42/42/42 41/41/41 39/39/39
f 45/45/45 44/44/44 43/43/43
f 46/46/46 45/45/45 43/43/43
f 49/49/49 48/48/48 47/47/47
f 50/50/50 49/49/49 47/47/47
f 53/53/53 52/52/52 51/51/51
f 54/54/54 53/53/53 51/51/51
f 57/57/57 56/56/56 55/55/55
f 58/58/58 57/57/57 55/55/55
