g MarksmanCol
v -0.840092957 -0.111287542 1.83705151
v -0.840092957 0.111287303 1.83705151
v -0.840008616 0.111287497 3.25767136
v -0.840008616 -0.111287355 3.25767136
v -0.311886489 0.111287594 1.20255458
v 0.813781142 0.111287422 1.46271443
v 0.918664455 0.111287616 3.46101356
v 0.225599885 0.111287579 4.34313631
v 0.813781142 0.111287422 1.46271443
v 0.918664455 -0.111287244 3.46101356
v 0.918664455 0.111287616 3.46101356
v 0.813781142 -0.111287422 1.46271443
v 0.760416329 0.111287422 0.309901953
v 0.760416329 -0.111287422 0.309901953
v -0.311886489 -0.111287251 1.20255458
v -0.840092957 -0.111287542 1.83705151
v -0.840008616 -0.111287355 3.25767136
v 0.225599945 -0.111287273 4.34313631
v 0.813781142 -0.111287422 1.46271443
v 0.918664455 -0.111287244 3.46101356
v 0.0176954102 0.111287422 0.309901953
v 0.760416329 -0.111287422 0.309901953
v 0.760416329 0.111287422 0.309901953
v 0.0176954847 -0.111287422 0.309901953
v -0.666158438 0.111287422 0.309901953
v -0.666158438 -0.111287422 0.309901953
v 0.225599885 0.111287579 4.34313631
v 0.225599945 -0.111287273 4.34313631
v -0.840008616 -0.111287355 3.25767136
v -0.840008616 0.111287497 3.25767136
v 0.0176954847 -0.111287422 0.309901953
v -0.666158438 -0.111287422 0.309901953
v -0.840092957 -0.111287542 1.83705151
v -0.311886489 -0.111287251 1.20255458
v 0.760416329 -0.111287422 0.309901953
v 0.813781142 -0.111287422 1.46271443
v 0.0176954102 0.111287422 0.309901953
v 0.760416329 0.111287422 0.309901953
v 0.813781142 0.111287422 1.46271443
v -0.311886489 0.111287594 1.20255458
v -0.666158438 -0.111287422 0.309901953
v -0.666158438 0.111287422 0.309901953
v -0.840092957 0.111287303 1.83705151
v -0.840092957 -0.111287542 1.83705151
v -0.666158438 0.111287422 0.309901953
v 0.0176954102 0.111287422 0.309901953
v -0.311886489 0.111287594 1.20255458
v -0.840092957 0.111287303 1.83705151
v 0.918664455 0.111287616 3.46101356
v 0.918664455 -0.111287244 3.46101356
v 0.225599945 -0.111287273 4.34313631
v 0.225599885 0.111287579 4.34313631
v -0.840092957 0.111287303 1.83705151
v -0.311886489 0.111287594 1.20255458
v 0.225599885 0.111287579 4.34313631
v -0.840008616 0.111287497 3.25767136
vt 0.438839078 0
vt 0.438839048 0.249999985
vt 0.625 0.25
vt 0.625 0
vt 0.438839018 0.37499997
vt 0.438839048 0.5
vt 0.625 0.5
vt 0.625 0.375
vt 0.438839048 0.5
vt 0.625 0.75
vt 0.625 0.5
vt 0.438839048 0.75
vt 0.375 0.5
vt 0.375 0.75
vt 0.438839078 0.875
vt 0.438839048 1
vt 0.625 1
vt 0.625 0.875
vt 0.438839048 0.75
vt 0.625 0.75
vt 0.24999997 0.49999994
vt 0.375 0.75
vt 0.375 0.5
vt 0.24999997 0.74999994
vt 0.125 0.5
vt 0.125 0.75
vt 0.75 0.5
vt 0.75 0.75
vt 0.875 0.75
vt 0.875 0.5
vt 0.375 0.875
vt 0.375 1
vt 0.438839048 1
vt 0.438839078 0.875
vt 0.375 0.75
vt 0.438839048 0.75
vt 0.375 0.375
vt 0.375 0.5
vt 0.438839048 0.5
vt 0.438839018 0.37499997
vt 0.375 0
vt 0.375 0.25
vt 0.438839048 0.249999985
vt 0.438839078 0
vt 0.375 0.25
vt 0.375 0.375
vt 0.438839018 0.37499997
vt 0.438839048 0.249999985
vt 0.625 0.5
vt 0.625 0.75
vt 0.75 0.75
vt 0.75 0.5
vt 0.438839048 0.249999985
vt 0.438839018 0.37499997
vt 0.625 0.375
vt 0.625 0.25
vn -1 0 5.93688565E-05
vn -1 0 5.93688565E-05
vn -1 0 5.93688565E-05
vn -1 0 5.93688565E-05
vn -0 1 0
vn -0 1 0
vn -0 1 0
vn -0 1 0
vn 0.998625398 0 -0.0524141416
vn 0.998625398 0 -0.0524141416
vn 0.998625398 0 -0.0524141416
vn 0.998625398 0 -0.0524141416
vn 0.998930275 0 -0.0462414585
vn 0.998930275 0 -0.0462414585
vn -0 -1 0
vn -0 -1 0
vn -0 -1 0
vn -0 -1 0
vn -0 -1 0
vn -0 -1 0
vn -0 0 -1
vn -0 0 -1
vn -0 0 -1
vn -0 0 -1
vn -0 0 -1
vn -0 0 -1
vn -0.713603735 0 0.700549603
vn -0.713603735 0 0.700549603
vn -0.713603735 0 0.700549603
vn -0.713603735 0 0.700549603
vn -0 -1 0
vn -0 -1 0
vn -0 -1 0
vn -0 -1 0
vn -0 -1 0
vn -0 -1 0
vn -0 1 0
vn -0 1 0
vn -0 1 0
vn -0 1 0
vn -0.993576467 0 -0.11316327
vn -0.993576467 0 -0.11316327
vn -0.993576467 0 -0.11316327
vn -0.993576467 0 -0.11316327
vn -0 1 0
vn -0 1 0
vn -0 1 0
vn -0 1 0
vn 0.78633219 0 0.617803931
vn 0.78633219 0 0.617803931
vn 0.78633219 0 0.617803931
vn 0.78633219 0 0.617803931
vn -0 1 0
vn -0 1 0
vn -0 1 0
vn -0 1 0
g MarksmanCol_0
f 3/3/3 2/2/2 1/1/1
f 4/4/4 3/3/3 1/1/1
f 7/7/7 6/6/6 5/5/5
f 8/8/8 7/7/7 5/5/5
f 11/11/11 10/10/10 9/9/9
f 10/10/10 12/12/12 9/9/9
f 9/9/9 12/12/12 13/13/13
f 12/12/12 14/14/14 13/13/13
f 17/17/17 16/16/16 15/15/15
f 18/18/18 17/17/17 15/15/15
f 18/18/18 15/15/15 19/19/19
f 20/20/20 18/18/18 19/19/19
f 23/23/23 22/22/22 21/21/21
f 22/22/22 24/24/24 21/21/21
f 21/21/21 24/24/24 25/25/25
f 24/24/24 26/26/26 25/25/25
f 29/29/29 28/28/28 27/27/27
f 30/30/30 29/29/29 27/27/27
f 33/33/33 32/32/32 31/31/31
f 34/34/34 33/33/33 31/31/31
f 34/34/34 31/31/31 35/35/35
f 36/36/36 34/34/34 35/35/35
f 39/39/39 38/38/38 37/37/37
f 40/40/40 39/39/39 37/37/37
f 43/43/43 42/42/42 41/41/41
f 44/44/44 43/43/43 41/41/41
f 47/47/47 46/46/46 45/45/45
f 48/48/48 47/47/47 45/45/45
f 51/51/51 50/50/50 49/49/49
f 52/52/52 51/51/51 49/49/49
f 55/55/55 54/54/54 53/53/53
f 56/56/56 55/55/55 53/53/53
