g TlakCol
v -1.57449353 -0.11128743 1.00666106
v -1.57449353 0.111287415 1.00666106
v -1.6780175 0.111287631 1.730667
v -1.6780175 -0.111287221 1.730667
v -0.311886489 0.111287594 1.20255458
v 3.16800737 0.111286834 5.820117
v -0.498698175 0.111287594 5.97979403
v -1.78178191 0.111287959 3.17412901
v 3.16800737 0.111286834 5.820117
v 3.16800737 -0.111288011 5.820117
v -0.498698175 -0.111287266 5.97979403
v -0.498698175 0.111287594 5.97979403
v -0.311886489 -0.111287251 1.20255458
v -1.57449353 -0.11128743 1.00666106
v -1.6780175 -0.111287221 1.730667
v -1.78178191 -0.111286893 3.17412901
v 3.16800737 -0.111288011 5.820117
v -0.311886489 -0.111287251 1.20255458
v -0.498698175 -0.111287266 5.97979403
v 0.77358067 -0.111287422 0.309901953
v 0.0176954847 -0.111287422 0.309901953
v 3.16800737 -0.111288011 5.820117
v 0.0176954847 -0.111287422 0.309901953
v -1.57449353 -0.11128743 1.00666106
v -1.66415071 -0.111287422 0.309901953
v 0.0176954102 0.111287422 0.309901953
v 0.77358067 -0.111287422 0.309901953
v 0.77358067 0.111287422 0.309901953
v 0.0176954847 -0.111287422 0.309901953
v -1.66415071 0.111287422 0.309901953
v -1.66415071 -0.111287422 0.309901953
v -1.78178191 0.111287959 3.17412901
v -1.78178191 -0.111286893 3.17412901
v -1.6780175 -0.111287221 1.730667
v -1.6780175 0.111287631 1.730667
v 0.77358067 0.111287422 0.309901953
v 0.77358067 -0.111287422 0.309901953
v 3.16800737 -0.111288011 5.820117
v 3.16800737 0.111286834 5.820117
v 0.0176954102 0.111287422 0.309901953
v 0.77358067 0.111287422 0.309901953
v 3.16800737 0.111286834 5.820117
v -0.311886489 0.111287594 1.20255458
v -1.57449353 0.111287415 1.00666106
v -1.78178191 0.111287959 3.17412901
v -1.6780175 0.111287631 1.730667
v -1.66415071 -0.111287422 0.309901953
v -1.66415071 0.111287422 0.309901953
v -1.57449353 0.111287415 1.00666106
v -1.57449353 -0.11128743 1.00666106
v -1.66415071 0.111287422 0.309901953
v 0.0176954102 0.111287422 0.309901953
v -0.311886489 0.111287594 1.20255458
v -1.57449353 0.111287415 1.00666106
v -0.498698175 0.111287594 5.97979403
v -0.498698175 -0.111287266 5.97979403
v -1.78178191 -0.111286893 3.17412901
v -1.78178191 0.111287959 3.17412901
vt 0.438839078 0
vt 0.438839048 0.249999985
vt 0.625 0.25
vt 0.625 0
vt 0.438839018 0.37499997
vt 0.438839048 0.5
vt 0.625 0.5
vt 0.625 0.375
vt 0.438839048 0.5
vt 0.438839048 0.75
vt 0.625 0.75
vt 0.625 0.5
vt 0.438839078 0.875
vt 0.438839048 1
vt 0.625 1
vt 0.625 0.875
vt 0.438839048 0.75
vt 0.438839078 0.875
vt 0.625 0.75
vt 0.375 0.75
vt 0.375 0.875
vt 0.438839048 0.75
vt 0.375 0.875
vt 0.438839048 1
vt 0.375 1
vt 0.24999997 0.49999994
vt 0.375 0.75
vt 0.375 0.5
vt 0.24999997 0.74999994
vt 0.125 0.5
vt 0.125 0.75
vt 0.75 0.5
vt 0.75 0.75
vt 0.875 0.75
vt 0.875 0.5
vt 0.375 0.5
vt 0.375 0.75
vt 0.438839048 0.75
vt 0.438839048 0.5
vt 0.375 0.375
vt 0.375 0.5
vt 0.438839048 0.5
vt 0.438839018 0.37499997
vt 0.438839048 0.249999985
vt 0.625 0.375
vt 0.625 0.25
vt 0.375 0
vt 0.375 0.25
vt 0.438839048 0.249999985
vt 0.438839078 0
vt 0.375 0.25
vt 0.375 0.375
vt 0.438839018 0.37499997
vt 0.438839048 0.249999985
vt 0.625 0.5
vt 0.625 0.75
vt 0.75 0.75
vt 0.75 0.5
vn -0.989931345 0 -0.141548038
vn -0.989931345 0 -0.141548038
vn -0.989931345 0 -0.141548038
vn -0.989931345 0 -0.141548038
vn -0 1 0
vn -0 1 0
vn -0 1 0
vn -0 1 0
vn 0.0435065851 0 0.99905318
vn 0.0435065851 0 0.99905318
vn 0.0435065851 0 0.99905318
vn 0.0435065851 0 0.99905318
vn -0 -1 0
vn -0 -1 0
vn -0 -1 0
vn -0 -1 0
vn -0 -1 0
vn -0 -1 0
vn -0 -1 0
vn -0 -1 0
vn -0 -1 0
vn -0 -1 0
vn -0 -1 0
vn -0 -1 0
vn -0 -1 0
vn -0 0 -1
vn -0 0 -1
vn -0 0 -1
vn -0 0 -1
vn -0 0 -1
vn -0 0 -1
vn -0.997426093 0 -0.0717007518
vn -0.997426093 0 -0.0717007518
vn -0.997426093 0 -0.0717007518
vn -0.997426093 0 -0.0717007518
vn 0.917150319 0 -0.39854151
vn 0.917150319 0 -0.39854151
vn 0.917150319 0 -0.39854151
vn 0.917150319 0 -0.39854151
vn -0 1 0
vn -0 1 0
vn -0 1 0
vn -0 1 0
vn -0 1 0
vn -0 1 0
vn -0 1 0
vn -0.991822422 0 0.127625182
vn -0.991822422 0 0.127625182
vn -0.991822422 0 0.127625182
vn -0.991822422 0 0.127625182
vn -0 1 0
vn -0 1 0
vn -0 1 0
vn -0 1 0
vn -0.909413934 0 0.415892214
vn -0.909413934 0 0.415892214
vn -0.909413934 0 0.415892214
vn -0.909413934 0 0.415892214
g TlakCol_0
f 3/3/3 2/2/2 1/1/1
f 4/4/4 3/3/3 1/1/1
f 7/7/7 6/6/6 5/5/5
f 8/8/8 7/7/7 5/5/5
f 11/11/11 10/10/10 9/9/9
f 12/12/12 11/11/11 9/9/9
f 15/15/15 14/14/14 13/13/13
f 16/16/16 15/15/15 13/13/13
f 16/16/16 18/18/18 17/17/17
f 19/19/19 16/16/16 17/17/17
f 13/13/13 21/21/21 20/20/20
f 22/22/22 13/13/13 20/20/20
f 13/13/13 24/24/24 23/23/23
f 24/24/24 25/25/25 23/23/23
f 28/28/28 27/27/27 26/26/26
f 27/27/27 29/29/29 26/26/26
f 26/26/26 29/29/29 30/30/30
f 29/29/29 31/31/31 30/30/30
f 34/34/34 33/33/33 32/32/32
f 35/35/35 34/34/34 32/32/32
f 38/38/38 37/37/37 36/36/36
f 39/39/39 38/38/38 36/36/36
f 42/42/42 41/41/41 40/40/40
f 43/43/43 42/42/42 40/40/40
f 45/45/45 43/43/43 44/44/44
f 46/46/46 45/45/45 44/44/44
f 49/49/49 48/48/48 47/47/47
f 50/50/50 49/49/49 47/47/47
f 53/53/53 52/52/52 51/51/51
f 54/54/54 53/53/53 51/51/51
f 57/57/57 56/56/56 55/55/55
f 58/58/58 57/57/57 55/55/55
