g Coven_col
v -1.58377039 -0.111287452 4.02571917
v -1.58377039 0.111287393 4.02571964
v -0.986972868 0.111287393 5.65681458
v -0.986972868 -0.11128746 5.65681458
v -0.164046481 0.111287393 4.22468567
v 1.60704935 0.111287393 4.12005091
v 1.43314886 0.111287393 5.73330212
v 0.223087966 0.111287393 5.93726826
v -1.58377039 0.111287393 4.02571964
v -0.164046481 0.111287393 4.22468567
v -0.986972868 0.111287393 5.65681458
v 1.60704935 0.111287393 4.12005091
v 1.60704935 -0.111287452 4.12005091
v 1.43314886 -0.11128746 5.73330212
v 1.43314886 0.111287393 5.73330212
v -0.164046481 -0.111287452 4.22468567
v -1.58377039 -0.111287452 4.02571917
v -0.986972868 -0.11128746 5.65681458
v 0.223087966 -0.11128746 5.93726826
v 1.60704935 -0.111287452 4.12005091
v -0.164046481 -0.111287452 4.22468567
v 1.43314886 -0.11128746 5.73330212
v 0.0191216879 0.111287422 0.309901953
v 1.81705403 -0.111287422 0.309901953
v 1.81705403 0.111287422 0.309901953
v 0.0191216879 -0.111287422 0.309901953
v -1.77881062 0.111287422 0.309901953
v -1.77881062 -0.111287422 0.309901953
v 0.223087966 0.111287393 5.93726826
v 0.223087966 -0.11128746 5.93726826
v -0.986972868 -0.11128746 5.65681458
v -0.986972868 0.111287393 5.65681458
v 1.81705403 0.111287422 0.309901953
v 1.81705403 -0.111287422 0.309901953
v 1.60704935 -0.111287452 4.12005091
v 1.60704935 0.111287393 4.12005091
v -1.77881062 -0.111287422 0.309901953
v -1.77881062 0.111287422 0.309901953
v -1.58377039 0.111287393 4.02571964
v -1.58377039 -0.111287452 4.02571917
v -1.77881062 0.111287422 0.309901953
v 0.0191216879 0.111287422 0.309901953
v -0.164046481 0.111287393 4.22468567
v -1.58377039 0.111287393 4.02571964
v 0.0191216879 0.111287422 0.309901953
v 1.81705403 0.111287422 0.309901953
v 1.60704935 0.111287393 4.12005091
v 1.43314886 0.111287393 5.73330212
v 1.43314886 -0.11128746 5.73330212
v 0.223087966 -0.11128746 5.93726826
v 0.223087966 0.111287393 5.93726826
v 1.81705403 -0.111287422 0.309901953
v 0.0191216879 -0.111287422 0.309901953
v -0.164046481 -0.111287452 4.22468567
v 1.60704935 -0.111287452 4.12005091
v 0.0191216879 -0.111287422 0.309901953
v -1.77881062 -0.111287422 0.309901953
v -1.58377039 -0.111287452 4.02571917
vt 0.555512011 0
vt 0.555512071 0.25
vt 0.625 0.25
vt 0.625 0
vt 0.555512071 0.375
vt 0.555512071 0.5
vt 0.625 0.5
vt 0.625 0.375
vt 0.555512071 0.25
vt 0.555512071 0.375
vt 0.625 0.25
vt 0.555512071 0.5
vt 0.555512011 0.75
vt 0.625 0.75
vt 0.625 0.5
vt 0.555512071 0.875
vt 0.555512071 1
vt 0.625 1
vt 0.625 0.875
vt 0.555512011 0.75
vt 0.555512071 0.875
vt 0.625 0.75
vt 0.25 0.5
vt 0.375 0.75
vt 0.375 0.5
vt 0.25 0.75
vt 0.125 0.5
vt 0.125 0.75
vt 0.75 0.5
vt 0.75 0.75
vt 0.875 0.75
vt 0.875 0.5
vt 0.375 0.5
vt 0.375 0.75
vt 0.555512011 0.75
vt 0.555512071 0.5
vt 0.375 0
vt 0.375 0.25
vt 0.555512071 0.25
vt 0.555512011 0
vt 0.375 0.25
vt 0.375 0.375
vt 0.555512071 0.375
vt 0.555512071 0.25
vt 0.375 0.375
vt 0.375 0.5
vt 0.555512071 0.5
vt 0.625 0.5
vt 0.625 0.75
vt 0.75 0.75
vt 0.75 0.5
vt 0.375 0.75
vt 0.375 0.875
vt 0.555512071 0.875
vt 0.555512011 0.75
vt 0.375 0.875
vt 0.375 1
vt 0.555512071 1
vn -0.939112544 0 0.343609691
vn -0.939112544 0 0.343609691
vn -0.939112544 0 0.343609691
vn -0.939112544 0 0.343609691
vn -0 1 0
vn -0 1 0
vn -0 1 0
vn -0 1 0
vn -0 1 0
vn -0 1 0
vn -0 1 0
vn 0.994240284 0 0.107174136
vn 0.994240284 0 0.107174136
vn 0.994240284 0 0.107174136
vn 0.994240284 0 0.107174136
vn -0 -1 0
vn -0 -1 0
vn -0 -1 0
vn -0 -1 0
vn -0 -1 0
vn -0 -1 0
vn -0 -1 0
vn -0 0 -1
vn -0 0 -1
vn -0 0 -1
vn -0 0 -1
vn -0 0 -1
vn -0 0 -1
vn -0.225783333 0 0.97417748
vn -0.225783333 0 0.97417748
vn -0.225783333 0 0.97417748
vn -0.225783333 0 0.97417748
vn 0.998484552 0 0.0550336652
vn 0.998484552 0 0.0550336652
vn 0.998484552 0 0.0550336652
vn 0.998484552 0 0.0550336652
vn -0.998625278 0 0.0524170212
vn -0.998625278 0 0.0524170212
vn -0.998625278 0 0.0524170212
vn -0.998625278 0 0.0524170212
vn -0 1 0
vn -0 1 0
vn -0 1 0
vn -0 1 0
vn -0 1 0
vn -0 1 0
vn -0 1 0
vn 0.166213557 0 0.986089826
vn 0.166213557 0 0.986089826
vn 0.166213557 0 0.986089826
vn 0.166213557 0 0.986089826
vn -0 -1 0
vn -0 -1 0
vn -0 -1 0
vn -0 -1 0
vn -0 -1 0
vn -0 -1 0
vn -0 -1 0
g Coven_col_0
f 3/3/3 2/2/2 1/1/1
f 4/4/4 3/3/3 1/1/1
f 7/7/7 6/6/6 5/5/5
f 8/8/8 7/7/7 5/5/5
f 8/8/8 10/10/10 9/9/9
f 11/11/11 8/8/8 9/9/9
f 14/14/14 13/13/13 12/12/12
f 15/15/15 14/14/14 12/12/12
f 18/18/18 17/17/17 16/16/16
f 19/19/19 18/18/18 16/16/16
f 19/19/19 21/21/21 20/20/20
f 22/22/22 19/19/19 20/20/20
f 25/25/25 24/24/24 23/23/23
f 24/24/24 26/26/26 23/23/23
f 23/23/23 26/26/26 27/27/27
f 26/26/26 28/28/28 27/27/27
f 31/31/31 30/30/30 29/29/29
f 32/32/32 31/31/31 29/29/29
f 35/35/35 34/34/34 33/33/33
f 36/36/36 35/35/35 33/33/33
f 39/39/39 38/38/38 37/37/37
f 40/40/40 39/39/39 37/37/37
f 43/43/43 42/42/42 41/41/41
f 44/44/44 43/43/43 41/41/41
f 46/46/46 45/45/45 43/43/43
f 47/47/47 46/46/46 43/43/43
f 50/50/50 49/49/49 48/48/48
f 51/51/51 50/50/50 48/48/48
f 54/54/54 53/53/53 52/52/52
f 55/55/55 54/54/54 52/52/52
f 57/57/57 56/56/56 54/54/54
f 58/58/58 57/57/57 54/54/54
