g HavenMidCol1
v -1.16998315 0.00772713358 0.316203892
v -1.16998315 0.00772721879 -0.398625463
v -1.2671411 0.835539699 -0.431728125
v -1.2671411 0.83553952 0.342462242
v -1.16998315 0.00772721879 -0.398625463
v -1.0722822 0.0127722584 -0.444020987
v -0.996106386 0.40062651 -0.412477255
v -1.2671411 0.835539699 -0.431728125
v -1.0722822 0.0127722584 -0.444020987
v -1.0722822 0.0127721727 0.352213234
v -0.996106386 0.400626451 0.32719171
v -0.996106386 0.40062651 -0.412477255
v -1.0722822 0.0127721727 0.352213234
v -1.16998315 0.00772713358 0.316203892
v -1.2671411 0.83553952 0.342462242
v -0.996106386 0.400626451 0.32719171
v -1.16998315 0.00772721879 -0.398625463
v -1.16998315 0.00772713358 0.316203892
v -1.0722822 0.0127721727 0.352213234
v -1.0722822 0.0127722584 -0.444020987
v -0.996106386 0.40062651 -0.412477255
v -0.996106386 0.400626451 0.32719171
v -1.2671411 0.83553952 0.342462242
v -1.2671411 0.835539699 -0.431728125
vt 0.375 0
vt 0.375 0.25
vt 0.625 0.25
vt 0.625 0
vt 0.375 0.25
vt 0.375 0.5
vt 0.625 0.5
vt 0.625 0.25
vt 0.375 0.5
vt 0.375 0.75
vt 0.625 0.75
vt 0.625 0.5
vt 0.375 0.75
vt 0.375 1
vt 0.625 1
vt 0.625 0.75
vt 0.125 0.5
vt 0.125 0.75
vt 0.375 0.75
vt 0.375 0.5
vt 0.625 0.5
vt 0.625 0.75
vt 0.875 0.75
vt 0.875 0.5
vn -0.993182838 -0.116566971 0
vn -0.993182838 -0.116566971 0
vn -0.993182838 -0.116566971 0
vn -0.993182838 -0.116566971 0
vn -0.0736838728 -0.00255063456 -0.997278392
vn -0.0736838728 -0.00255063456 -0.997278392
vn -0.0736838728 -0.00255063456 -0.997278392
vn -0.0736838728 -0.00255063456 -0.997278392
vn 0.981253564 -0.192721337 0
vn 0.981253564 -0.192721337 0
vn 0.981253564 -0.192721337 0
vn 0.981253564 -0.192721337 0
vn -0.0585080758 -0.0020255323 0.998284876
vn -0.0585080758 -0.0020255323 0.998284876
vn -0.0585080758 -0.0020255323 0.998284876
vn -0.0585080758 -0.0020255323 0.998284876
vn 0.0515688844 -0.998669386 0
vn 0.0515688844 -0.998669386 0
vn 0.0515688844 -0.998669386 0
vn 0.0515688844 -0.998669386 0
vn 0.848686874 0.528895557 0
vn 0.848686874 0.528895557 0
vn 0.848686874 0.528895557 0
vn 0.848686874 0.528895557 0
g HavenMidCol1_0
f 3/3/3 2/2/2 1/1/1
f 4/4/4 3/3/3 1/1/1
f 7/7/7 6/6/6 5/5/5
f 8/8/8 7/7/7 5/5/5
f 11/11/11 10/10/10 9/9/9
f 12/12/12 11/11/11 9/9/9
f 15/15/15 14/14/14 13/13/13
f 16/16/16 15/15/15 13/13/13
f 19/19/19 18/18/18 17/17/17
f 20/20/20 19/19/19 17/17/17
f 23/23/23 22/22/22 21/21/21
f 24/24/24 23/23/23 21/21/21
