g HavenMidCol6
v 0.440372318 0.00772734638 -1.1486572
v 0.889325082 0.00772730354 -0.849965811
v 0.963176608 0.835539877 -0.920548677
v 0.476941764 0.835539937 -1.24404395
v 0.889325082 0.00772730354 -0.849965811
v 0.83636272 0.0127722584 -0.714928687
v 0.776946604 0.400626868 -0.664139509
v 0.963176608 0.835539877 -0.920548677
v 0.83636272 0.0127722584 -0.714928687
v 0.336283058 0.0127723003 -1.04763508
v 0.312393039 0.400626898 -0.973210156
v 0.776946604 0.400626868 -0.664139509
v 0.336283058 0.0127723003 -1.04763508
v 0.440372318 0.00772734638 -1.1486572
v 0.476941764 0.835539937 -1.24404395
v 0.312393039 0.400626898 -0.973210156
v 0.889325082 0.00772730354 -0.849965811
v 0.440372318 0.00772734638 -1.1486572
v 0.336283058 0.0127723003 -1.04763508
v 0.83636272 0.0127722584 -0.714928687
v 0.776946604 0.400626868 -0.664139509
v 0.312393039 0.400626898 -0.973210156
v 0.476941764 0.835539937 -1.24404395
v 0.963176608 0.835539877 -0.920548677
vt 0.375 0
vt 0.375 0.25
vt 0.625 0.25
vt 0.625 0
vt 0.375 0.25
vt 0.375 0.5
vt 0.625 0.5
vt 0.625 0.25
vt 0.375 0.5
vt 0.375 0.75
vt 0.625 0.75
vt 0.625 0.5
vt 0.375 0.75
vt 0.375 1
vt 0.625 1
vt 0.625 0.75
vt 0.125 0.5
vt 0.125 0.75
vt 0.375 0.75
vt 0.375 0.5
vt 0.625 0.5
vt 0.625 0.75
vt 0.875 0.75
vt 0.875 0.5
vn 0.549944162 -0.119541615 -0.826602221
vn 0.549944162 -0.119541615 -0.826602221
vn 0.549944162 -0.119541615 -0.826602221
vn 0.549944162 -0.119541615 -0.826602221
vn 0.854121625 -0.00167447655 0.520070553
vn 0.854121625 -0.00167447655 0.520070553
vn 0.854121625 -0.00167447655 0.520070553
vn 0.854121625 -0.00167447655 0.520070553
vn -0.543789983 -0.190335676 0.817352355
vn -0.543789983 -0.190335676 0.817352355
vn -0.543789983 -0.190335676 0.817352355
vn -0.543789983 -0.190335676 0.817352355
vn -0.809680402 -0.00167447515 -0.586868584
vn -0.809680402 -0.00167447515 -0.586868584
vn -0.809680402 -0.00167447515 -0.586868584
vn -0.809680402 -0.00167447515 -0.586868584
vn -0.0196996834 -0.999367416 0.0296097659
vn -0.0196996834 -0.999367416 0.0296097659
vn -0.0196996834 -0.999367416 0.0296097659
vn -0.0196996834 -0.999367416 0.0296097659
vn -0.447807968 0.588578463 0.673085034
vn -0.447807968 0.588578463 0.673085034
vn -0.447807968 0.588578463 0.673085034
vn -0.447807968 0.588578463 0.673085034
g HavenMidCol6_0
f 3/3/3 2/2/2 1/1/1
f 4/4/4 3/3/3 1/1/1
f 7/7/7 6/6/6 5/5/5
f 8/8/8 7/7/7 5/5/5
f 11/11/11 10/10/10 9/9/9
f 12/12/12 11/11/11 9/9/9
f 15/15/15 14/14/14 13/13/13
f 16/16/16 15/15/15 13/13/13
f 19/19/19 18/18/18 17/17/17
f 20/20/20 19/19/19 17/17/17
f 23/23/23 22/22/22 21/21/21
f 24/24/24 23/23/23 21/21/21
