g HavenMidCol3
v -0.883048236 0.00772726117 -0.85648495
v -0.431910306 0.00772730354 -1.15186548
v -0.467777103 0.835539699 -1.24751878
v -0.95637852 0.835539699 -0.927609205
v -0.431910306 0.00772730354 -1.15186548
v -0.328566968 0.0127723431 -1.05008042
v -0.305225283 0.40062657 -0.97548151
v -0.467777103 0.835539699 -1.24751878
v -0.328566968 0.0127723431 -1.05008042
v -0.831080616 0.0127722584 -0.721062005
v -0.772039711 0.40062651 -0.669836879
v -0.305225283 0.40062657 -0.97548151
v -0.831080616 0.0127722584 -0.721062005
v -0.883048236 0.00772726117 -0.85648495
v -0.95637852 0.835539699 -0.927609205
v -0.772039711 0.40062651 -0.669836879
v -0.431910306 0.00772730354 -1.15186548
v -0.883048236 0.00772726117 -0.85648495
v -0.831080616 0.0127722584 -0.721062005
v -0.328566968 0.0127723431 -1.05008042
v -0.305225283 0.40062657 -0.97548151
v -0.772039711 0.40062651 -0.669836879
v -0.95637852 0.835539699 -0.927609205
v -0.467777103 0.835539699 -1.24751878
vt 0.375 0
vt 0.375 0.25
vt 0.625 0.25
vt 0.625 0
vt 0.375 0.25
vt 0.375 0.5
vt 0.625 0.5
vt 0.625 0.25
vt 0.375 0.5
vt 0.375 0.75
vt 0.625 0.75
vt 0.625 0.5
vt 0.375 0.75
vt 0.375 1
vt 0.625 1
vt 0.625 0.75
vt 0.125 0.5
vt 0.125 0.75
vt 0.375 0.75
vt 0.375 0.5
vt 0.625 0.5
vt 0.625 0.75
vt 0.875 0.75
vt 0.875 0.5
vn -0.543848276 -0.119541772 -0.830625534
vn -0.543848276 -0.119541772 -0.830625534
vn -0.543848276 -0.119541772 -0.830625534
vn -0.543848276 -0.119541772 -0.830625534
vn 0.813976109 -0.00167421717 -0.58089608
vn 0.813976109 -0.00167421717 -0.58089608
vn 0.813976109 -0.00167421717 -0.58089608
vn 0.813976109 -0.00167421717 -0.58089608
vn 0.537762225 -0.190336108 0.821330547
vn 0.537762225 -0.190336108 0.821330547
vn 0.537762225 -0.190336108 0.821330547
vn 0.537762225 -0.190336108 0.821330547
vn -0.857924283 -0.00167453045 0.513773263
vn -0.857924283 -0.00167453045 0.513773263
vn -0.857924283 -0.00167453045 0.513773263
vn -0.857924283 -0.00167453045 0.513773263
vn 0.0194815863 -0.999367416 0.0297542643
vn 0.0194815863 -0.999367416 0.0297542643
vn 0.0194815863 -0.999367416 0.0297542643
vn 0.0194815863 -0.999367416 0.0297542643
vn 0.442844361 0.588578582 0.676361084
vn 0.442844361 0.588578582 0.676361084
vn 0.442844361 0.588578582 0.676361084
vn 0.442844361 0.588578582 0.676361084
g HavenMidCol3_0
f 3/3/3 2/2/2 1/1/1
f 4/4/4 3/3/3 1/1/1
f 7/7/7 6/6/6 5/5/5
f 8/8/8 7/7/7 5/5/5
f 11/11/11 10/10/10 9/9/9
f 12/12/12 11/11/11 9/9/9
f 15/15/15 14/14/14 13/13/13
f 16/16/16 15/15/15 13/13/13
f 19/19/19 18/18/18 17/17/17
f 20/20/20 19/19/19 17/17/17
f 23/23/23 22/22/22 21/21/21
f 24/24/24 23/23/23 21/21/21
