g HavenMidCol15
v -0.939440429 0.0077270912 0.79422462
v -1.18886244 0.00772717642 0.316141278
v -1.28758812 0.835539699 0.34239459
v -1.01745355 0.83553952 0.860178947
v -1.18886244 0.00772717642 0.316141278
v -1.07737648 0.0127722155 0.223346427
v -1.0008384 0.400626451 0.207479745
v -1.28758812 0.835539699 0.34239459
v -1.07737648 0.0127722155 0.223346427
v -0.799550235 0.0127721308 0.755873978
v -0.742749274 0.400626361 0.702175856
v -1.0008384 0.400626451 0.207479745
v -0.799550235 0.0127721308 0.755873978
v -0.939440429 0.0077270912 0.79422462
v -1.01745355 0.83553952 0.860178947
v -0.742749274 0.400626361 0.702175856
v -1.18886244 0.00772717642 0.316141278
v -0.939440429 0.0077270912 0.79422462
v -0.799550235 0.0127721308 0.755873978
v -1.07737648 0.0127722155 0.223346427
v -1.0008384 0.400626451 0.207479745
v -0.742749274 0.400626361 0.702175856
v -1.01745355 0.83553952 0.860178947
v -1.28758812 0.835539699 0.34239459
vt 0.375 0
vt 0.375 0.25
vt 0.625 0.25
vt 0.625 0
vt 0.375 0.25
vt 0.375 0.5
vt 0.625 0.5
vt 0.625 0.25
vt 0.375 0.5
vt 0.375 0.75
vt 0.625 0.75
vt 0.625 0.5
vt 0.375 0.75
vt 0.375 1
vt 0.625 1
vt 0.625 0.75
vt 0.125 0.5
vt 0.125 0.75
vt 0.375 0.75
vt 0.375 0.5
vt 0.625 0.5
vt 0.625 0.75
vt 0.875 0.75
vt 0.875 0.5
vn -0.880236983 -0.11954201 0.459230572
vn -0.880236983 -0.11954201 0.459230572
vn -0.880236983 -0.11954201 0.459230572
vn -0.880236983 -0.11954201 0.459230572
vn -0.49774009 -0.00167399971 -0.86732465
vn -0.49774009 -0.00167399971 -0.86732465
vn -0.49774009 -0.00167399971 -0.86732465
vn -0.49774009 -0.00167399971 -0.86732465
vn 0.87038666 -0.190335959 -0.454091698
vn 0.87038666 -0.190335959 -0.454091698
vn 0.87038666 -0.190335959 -0.454091698
vn 0.87038666 -0.190335959 -0.454091698
vn 0.426607966 -0.0016744216 0.904435039
vn 0.426607966 -0.0016744216 0.904435039
vn 0.426607966 -0.0016744216 0.904435039
vn 0.426607966 -0.0016744216 0.904435039
vn 0.0315315425 -0.999367416 -0.0164505634
vn 0.0315315425 -0.999367416 -0.0164505634
vn 0.0315315425 -0.999367416 -0.0164505634
vn 0.0315315425 -0.999367416 -0.0164505634
vn 0.716758549 0.588578522 -0.37394166
vn 0.716758549 0.588578522 -0.37394166
vn 0.716758549 0.588578522 -0.37394166
vn 0.716758549 0.588578522 -0.37394166
g HavenMidCol15_0
f 3/3/3 2/2/2 1/1/1
f 4/4/4 3/3/3 1/1/1
f 7/7/7 6/6/6 5/5/5
f 8/8/8 7/7/7 5/5/5
f 11/11/11 10/10/10 9/9/9
f 12/12/12 11/11/11 9/9/9
f 15/15/15 14/14/14 13/13/13
f 16/16/16 15/15/15 13/13/13
f 19/19/19 18/18/18 17/17/17
f 20/20/20 19/19/19 17/17/17
f 23/23/23 22/22/22 21/21/21
f 24/24/24 23/23/23 21/21/21
