g HavenMidCol2
v -1.16067469 0.00772721879 -0.407645732
v -0.874825537 0.00772721879 -0.864882171
v -0.94747287 0.835539639 -0.936703742
v -1.25705957 0.835539639 -0.441497475
v -0.874825537 0.00772721879 -0.864882171
v -0.738341868 0.0127722155 -0.815767527
v -0.685889125 0.400626481 -0.757814407
v -0.94747287 0.835539639 -0.936703742
v -0.738341868 0.0127722155 -0.815767527
v -1.05674362 0.0127722155 -0.306460917
v -0.981671095 0.400626451 -0.284689635
v -0.685889125 0.400626481 -0.757814407
v -1.05674362 0.0127722155 -0.306460917
v -1.16067469 0.00772721879 -0.407645732
v -1.25705957 0.835539639 -0.441497475
v -0.981671095 0.400626451 -0.284689635
v -0.874825537 0.00772721879 -0.864882171
v -1.16067469 0.00772721879 -0.407645732
v -1.05674362 0.0127722155 -0.306460917
v -0.738341868 0.0127722155 -0.815767527
v -0.685889125 0.400626481 -0.757814407
v -0.981671095 0.400626451 -0.284689635
v -1.25705957 0.835539639 -0.441497475
v -0.94747287 0.835539639 -0.936703742
vt 0.375 0
vt 0.375 0.25
vt 0.625 0.25
vt 0.625 0
vt 0.375 0.25
vt 0.375 0.5
vt 0.625 0.5
vt 0.625 0.25
vt 0.375 0.5
vt 0.375 0.75
vt 0.625 0.75
vt 0.625 0.5
vt 0.375 0.75
vt 0.375 1
vt 0.625 1
vt 0.625 0.75
vt 0.125 0.5
vt 0.125 0.75
vt 0.375 0.75
vt 0.375 0.5
vt 0.625 0.5
vt 0.625 0.75
vt 0.875 0.75
vt 0.875 0.5
vn -0.841854155 -0.119541742 -0.526299536
vn -0.841854155 -0.119541742 -0.526299536
vn -0.841854155 -0.119541742 -0.526299536
vn -0.841854155 -0.119541742 -0.526299536
vn 0.495658219 -0.00167420309 -0.868516028
vn 0.495658219 -0.00167420309 -0.868516028
vn 0.495658219 -0.00167420309 -0.868516028
vn 0.495658219 -0.00167420309 -0.868516028
vn 0.832433522 -0.190336466 0.520410001
vn 0.832433522 -0.190336466 0.520410001
vn 0.832433522 -0.190336466 0.520410001
vn 0.832433522 -0.190336466 0.520410001
vn -0.563688099 -0.00167422998 0.825986087
vn -0.563688099 -0.00167422998 0.825986087
vn -0.563688099 -0.00167422998 0.825986087
vn -0.563688099 -0.00167422998 0.825986087
vn 0.0301564038 -0.999367416 0.0188527927
vn 0.0301564038 -0.999367416 0.0188527927
vn 0.0301564038 -0.999367416 0.0188527927
vn 0.0301564038 -0.999367416 0.0188527927
vn 0.685504138 0.588578761 0.428554654
vn 0.685504138 0.588578761 0.428554654
vn 0.685504138 0.588578761 0.428554654
vn 0.685504138 0.588578761 0.428554654
g HavenMidCol2_0
f 3/3/3 2/2/2 1/1/1
f 4/4/4 3/3/3 1/1/1
f 7/7/7 6/6/6 5/5/5
f 8/8/8 7/7/7 5/5/5
f 11/11/11 10/10/10 9/9/9
f 12/12/12 11/11/11 9/9/9
f 15/15/15 14/14/14 13/13/13
f 16/16/16 15/15/15 13/13/13
f 19/19/19 18/18/18 17/17/17
f 20/20/20 19/19/19 17/17/17
f 23/23/23 22/22/22 21/21/21
f 24/24/24 23/23/23 21/21/21
