g HavenMidCol14
v -0.452879459 0.00772704883 1.14378405
v -0.930797756 0.00772717642 0.807959437
v -1.008093 0.835539639 0.875054359
v -0.490487337 0.83553952 1.23876655
v -0.930797756 0.00772717642 0.807959437
v -0.880037487 0.0127722155 0.669835567
v -0.817518651 0.400626451 0.622250199
v -1.008093 0.835539639 0.875054359
v -0.880037487 0.0127722155 0.669835567
v -0.347693771 0.012772046 1.04390395
v -0.322993189 0.400626302 0.969744265
v -0.817518651 0.400626451 0.622250199
v -0.347693771 0.012772046 1.04390395
v -0.452879459 0.00772704883 1.14378405
v -0.490487337 0.83553952 1.23876655
v -0.322993189 0.400626302 0.969744265
v -0.930797756 0.00772717642 0.807959437
v -0.452879459 0.00772704883 1.14378405
v -0.347693771 0.012772046 1.04390395
v -0.880037487 0.0127722155 0.669835567
v -0.817518651 0.400626451 0.622250199
v -0.322993189 0.400626302 0.969744265
v -0.490487337 0.83553952 1.23876655
v -1.008093 0.835539639 0.875054359
vt 0.375 0
vt 0.375 0.25
vt 0.625 0.25
vt 0.625 0
vt 0.375 0.25
vt 0.375 0.5
vt 0.625 0.5
vt 0.625 0.25
vt 0.375 0.5
vt 0.375 0.75
vt 0.625 0.75
vt 0.625 0.5
vt 0.375 0.75
vt 0.375 1
vt 0.625 1
vt 0.625 0.75
vt 0.125 0.5
vt 0.125 0.75
vt 0.375 0.75
vt 0.375 0.5
vt 0.625 0.5
vt 0.625 0.75
vt 0.875 0.75
vt 0.875 0.5
vn -0.570839167 -0.119144246 0.812371492
vn -0.570839167 -0.119144246 0.812371492
vn -0.570839167 -0.119144246 0.812371492
vn -0.570839167 -0.119144246 0.812371492
vn -0.851870477 -0.00194911414 -0.523748815
vn -0.851870477 -0.00194911414 -0.523748815
vn -0.851870477 -0.00194911414 -0.523748815
vn -0.851870477 -0.00194911414 -0.523748815
vn 0.564510226 -0.189558312 -0.80336529
vn 0.564510226 -0.189558312 -0.80336529
vn 0.564510226 -0.189558312 -0.80336529
vn 0.564510226 -0.189558312 -0.80336529
vn 0.80322808 -0.00167482975 0.59566921
vn 0.80322808 -0.00167482975 0.59566921
vn 0.80322808 -0.00167482975 0.59566921
vn 0.80322808 -0.00167482975 0.59566921
vn 0.0203851443 -0.999371231 -0.0290109031
vn 0.0203851443 -0.999371231 -0.0290109031
vn 0.0203851443 -0.999371231 -0.0290109031
vn 0.0203851443 -0.999371231 -0.0290109031
vn 0.464913398 0.588307202 -0.661626875
vn 0.464913398 0.588307202 -0.661626875
vn 0.464913398 0.588307202 -0.661626875
vn 0.464913398 0.588307202 -0.661626875
g HavenMidCol14_0
f 3/3/3 2/2/2 1/1/1
f 4/4/4 3/3/3 1/1/1
f 7/7/7 6/6/6 5/5/5
f 8/8/8 7/7/7 5/5/5
f 11/11/11 10/10/10 9/9/9
f 12/12/12 11/11/11 9/9/9
f 15/15/15 14/14/14 13/13/13
f 16/16/16 15/15/15 13/13/13
f 19/19/19 18/18/18 17/17/17
f 20/20/20 19/19/19 17/17/17
f 23/23/23 22/22/22 21/21/21
f 24/24/24 23/23/23 21/21/21
