g HavenMidCol9
v 1.22989047 0.00772717642 -0.0266360324
v 1.12312579 0.00772713358 0.501924336
v 1.21639276 0.83553952 0.543605328
v 1.33202338 0.835539639 -0.0288479328
v 1.12312579 0.00772713358 0.501924336
v 0.978088319 0.0127722155 0.503952205
v 0.908603609 0.400626481 0.468150973
v 1.21639276 0.83553952 0.543605328
v 0.978088319 0.0127722155 0.503952205
v 1.09701121 0.0127722155 -0.0848007277
v 1.01907814 0.400626481 -0.0787763745
v 0.908603609 0.400626481 0.468150973
v 1.09701121 0.0127722155 -0.0848007277
v 1.22989047 0.00772717642 -0.0266360324
v 1.33202338 0.835539639 -0.0288479328
v 1.01907814 0.400626481 -0.0787763745
v 1.12312579 0.00772713358 0.501924336
v 1.22989047 0.00772717642 -0.0266360324
v 1.09701121 0.0127722155 -0.0848007277
v 0.978088319 0.0127722155 0.503952205
v 0.908603609 0.400626481 0.468150973
v 1.01907814 0.400626481 -0.0787763745
v 1.33202338 0.835539639 -0.0288479328
v 1.21639276 0.83553952 0.543605328
vt 0.375 0
vt 0.375 0.25
vt 0.625 0.25
vt 0.625 0
vt 0.375 0.25
vt 0.375 0.5
vt 0.625 0.5
vt 0.625 0.25
vt 0.375 0.5
vt 0.375 0.75
vt 0.625 0.75
vt 0.625 0.5
vt 0.375 0.75
vt 0.375 1
vt 0.625 1
vt 0.625 0.75
vt 0.125 0.5
vt 0.125 0.75
vt 0.375 0.75
vt 0.375 0.5
vt 0.625 0.5
vt 0.625 0.75
vt 0.875 0.75
vt 0.875 0.5
vn 0.973174572 -0.119541965 0.1965729
vn 0.973174572 -0.119541965 0.1965729
vn 0.973174572 -0.119541965 0.1965729
vn 0.973174572 -0.119541965 0.1965729
vn -0.158511281 -0.00167450332 0.987355769
vn -0.158511281 -0.00167450332 0.987355769
vn -0.158511281 -0.00167450332 0.987355769
vn -0.158511281 -0.00167450332 0.987355769
vn -0.962284327 -0.190336511 -0.194372952
vn -0.962284327 -0.190336511 -0.194372952
vn -0.962284327 -0.190336511 -0.194372952
vn -0.962284327 -0.190336511 -0.194372952
vn 0.237153947 -0.0016742961 -0.971470594
vn 0.237153947 -0.0016742961 -0.971470594
vn 0.237153947 -0.0016742961 -0.971470594
vn 0.237153947 -0.0016742961 -0.971470594
vn -0.0348609537 -0.999367416 -0.00704164756
vn -0.0348609537 -0.999367416 -0.00704164756
vn -0.0348609537 -0.999367416 -0.00704164756
vn -0.0348609537 -0.999367416 -0.00704164756
vn -0.792435586 0.588578939 -0.16006501
vn -0.792435586 0.588578939 -0.16006501
vn -0.792435586 0.588578939 -0.16006501
vn -0.792435586 0.588578939 -0.16006501
g HavenMidCol9_0
f 3/3/3 2/2/2 1/1/1
f 4/4/4 3/3/3 1/1/1
f 7/7/7 6/6/6 5/5/5
f 8/8/8 7/7/7 5/5/5
f 11/11/11 10/10/10 9/9/9
f 12/12/12 11/11/11 9/9/9
f 15/15/15 14/14/14 13/13/13
f 16/16/16 15/15/15 13/13/13
f 19/19/19 18/18/18 17/17/17
f 20/20/20 19/19/19 17/17/17
f 23/23/23 22/22/22 21/21/21
f 24/24/24 23/23/23 21/21/21
