g HavenMidCol13
v 0.00944010168 0.0077270912 1.23014307
v -0.517576277 0.0077270912 1.1159991
v -0.560556889 0.83553952 1.20867395
v 0.0102240192 0.83553952 1.33229661
v -0.517576277 0.0077270912 1.1159991
v -0.517576039 0.0127721308 0.970947504
v -0.480806828 0.400626391 0.901970029
v -0.560556889 0.83553952 1.20867395
v -0.517576039 0.0127721308 0.970947504
v 0.0694570467 0.0127721308 1.09809005
v 0.0645227656 0.400626391 1.02008033
v -0.480806828 0.400626391 0.901970029
v 0.0694570467 0.0127721308 1.09809005
v 0.00944010168 0.0077270912 1.23014307
v 0.0102240192 0.83553952 1.33229661
v 0.0645227656 0.400626391 1.02008033
v -0.517576277 0.0077270912 1.1159991
v 0.00944010168 0.0077270912 1.23014307
v 0.0694570467 0.0127721308 1.09809005
v -0.517576039 0.0127721308 0.970947504
v -0.480806828 0.400626391 0.901970029
v 0.0645227656 0.400626391 1.02008033
v 0.0102240192 0.83553952 1.33229661
v -0.560556889 0.83553952 1.20867395
vt 0.375 0
vt 0.375 0.25
vt 0.625 0.25
vt 0.625 0
vt 0.375 0.25
vt 0.375 0.5
vt 0.625 0.5
vt 0.625 0.25
vt 0.375 0.5
vt 0.375 0.75
vt 0.625 0.75
vt 0.625 0.5
vt 0.375 0.75
vt 0.375 1
vt 0.625 1
vt 0.625 0.75
vt 0.125 0.5
vt 0.125 0.75
vt 0.375 0.75
vt 0.375 0.5
vt 0.625 0.5
vt 0.625 0.75
vt 0.875 0.75
vt 0.875 0.5
vn -0.210159183 -0.11954163 0.970331371
vn -0.210159183 -0.11954163 0.970331371
vn -0.210159183 -0.11954163 0.970331371
vn -0.210159183 -0.11954163 0.970331371
vn -0.985043049 -0.00167433871 -0.172300398
vn -0.985043049 -0.00167433871 -0.172300398
vn -0.985043049 -0.00167433871 -0.172300398
vn -0.985043049 -0.00167433871 -0.172300398
vn 0.207807332 -0.19033666 -0.959472895
vn 0.207807332 -0.19033666 -0.959472895
vn 0.207807332 -0.19033666 -0.959472895
vn 0.207807332 -0.19033666 -0.959472895
vn 0.968059897 -0.0016742883 0.25071311
vn 0.968059897 -0.0016742883 0.25071311
vn 0.968059897 -0.0016742883 0.25071311
vn 0.968059897 -0.0016742883 0.25071311
vn 0.0075282813 -0.999367416 -0.0347589739
vn 0.0075282813 -0.999367416 -0.0347589739
vn 0.0075282813 -0.999367416 -0.0347589739
vn 0.0075282813 -0.999367416 -0.0347589739
vn 0.171128407 0.588578522 -0.790120482
vn 0.171128407 0.588578522 -0.790120482
vn 0.171128407 0.588578522 -0.790120482
vn 0.171128407 0.588578522 -0.790120482
g HavenMidCol13_0
f 3/3/3 2/2/2 1/1/1
f 4/4/4 3/3/3 1/1/1
f 7/7/7 6/6/6 5/5/5
f 8/8/8 7/7/7 5/5/5
f 11/11/11 10/10/10 9/9/9
f 12/12/12 11/11/11 9/9/9
f 15/15/15 14/14/14 13/13/13
f 16/16/16 15/15/15 13/13/13
f 19/19/19 18/18/18 17/17/17
f 20/20/20 19/19/19 17/17/17
f 23/23/23 22/22/22 21/21/21
f 24/24/24 23/23/23 21/21/21
