g HavenMidCol12
v 0.514572799 0.00772696361 1.11738765
v -0.0127486177 0.0077270912 1.23011231
v -0.0138070388 0.835539341 1.33226359
v 0.557304382 0.835539222 1.2101779
v -0.0127486177 0.0077270912 1.23011231
v -0.0724095628 0.0127721727 1.09789813
v -0.0672654063 0.400626004 1.01990211
v -0.0138070388 0.835539341 1.33226359
v -0.0724095628 0.0127721727 1.09789813
v 0.514963448 0.0127720032 0.972336233
v 0.478379786 0.400625885 0.903260291
v -0.0672654063 0.400626004 1.01990211
v 0.514963448 0.0127720032 0.972336233
v 0.514572799 0.00772696361 1.11738765
v 0.557304382 0.835539222 1.2101779
v 0.478379786 0.400625885 0.903260291
v -0.0127486177 0.0077270912 1.23011231
v 0.514572799 0.00772696361 1.11738765
v 0.514963448 0.0127720032 0.972336233
v -0.0724095628 0.0127721727 1.09789813
v -0.0672654063 0.400626004 1.01990211
v 0.478379786 0.400625885 0.903260291
v 0.557304382 0.835539222 1.2101779
v -0.0138070388 0.835539341 1.33226359
vt 0.375 0
vt 0.375 0.25
vt 0.625 0.25
vt 0.625 0
vt 0.375 0.25
vt 0.375 0.5
vt 0.625 0.5
vt 0.625 0.25
vt 0.375 0.5
vt 0.375 0.75
vt 0.625 0.75
vt 0.625 0.5
vt 0.375 0.75
vt 0.375 1
vt 0.625 1
vt 0.625 0.75
vt 0.125 0.5
vt 0.125 0.75
vt 0.375 0.75
vt 0.375 0.5
vt 0.625 0.5
vt 0.625 0.75
vt 0.875 0.75
vt 0.875 0.5
vn 0.207546398 -0.119541936 0.970893502
vn 0.207546398 -0.119541936 0.970893502
vn 0.207546398 -0.119541936 0.970893502
vn 0.207546398 -0.119541936 0.970893502
vn -0.968731463 -0.00167404686 0.248105779
vn -0.968731463 -0.00167404686 0.248105779
vn -0.968731463 -0.00167404686 0.248105779
vn -0.968731463 -0.00167404686 0.248105779
vn -0.205224037 -0.190336466 -0.960028708
vn -0.205224037 -0.190336466 -0.960028708
vn -0.205224037 -0.190336466 -0.960028708
vn -0.205224037 -0.190336466 -0.960028708
vn 0.985503316 -0.00167447585 -0.169647917
vn 0.985503316 -0.00167447585 -0.169647917
vn 0.985503316 -0.00167447585 -0.169647917
vn 0.985503316 -0.00167447585 -0.169647917
vn -0.00743496325 -0.999367416 -0.0347791612
vn -0.00743496325 -0.999367416 -0.0347791612
vn -0.00743496325 -0.999367416 -0.0347791612
vn -0.00743496325 -0.999367416 -0.0347791612
vn -0.169000581 0.588578582 -0.790578365
vn -0.169000581 0.588578582 -0.790578365
vn -0.169000581 0.588578582 -0.790578365
vn -0.169000581 0.588578582 -0.790578365
g HavenMidCol12_0
f 3/3/3 2/2/2 1/1/1
f 4/4/4 3/3/3 1/1/1
f 7/7/7 6/6/6 5/5/5
f 8/8/8 7/7/7 5/5/5
f 11/11/11 10/10/10 9/9/9
f 12/12/12 11/11/11 9/9/9
f 15/15/15 14/14/14 13/13/13
f 16/16/16 15/15/15 13/13/13
f 19/19/19 18/18/18 17/17/17
f 20/20/20 19/19/19 17/17/17
f 23/23/23 22/22/22 21/21/21
f 24/24/24 23/23/23 21/21/21
