g CrabCol
v -1.77975178 -0.111287445 1.42751694
v -1.77975178 0.1112874 1.42751694
v -0.136348516 0.111287557 4.25025845
v -0.136348516 -0.111287296 4.25025845
v 0.156575948 0.111287504 1.76194191
v 1.64149189 0.111287646 1.85329914
v 1.64425814 0.111287661 3.4886775
v 0.51917845 0.111287639 4.03081179
v 1.64149189 0.111287646 1.85329914
v 1.64425814 -0.111287192 3.4886775
v 1.64425814 0.111287661 3.4886775
v 1.64149189 -0.111287199 1.85329914
v 1.60401738 0.111287422 0.309901953
v 1.60401738 -0.111287422 0.309901953
v 0.156575948 -0.111287341 1.76194191
v -1.77975178 -0.111287445 1.42751694
v -0.136348516 -0.111287296 4.25025845
v 0.519178569 -0.111287214 4.03081179
v 1.64149189 -0.111287199 1.85329914
v 1.64425814 -0.111287192 3.4886775
v 0.156575948 -0.111287341 1.76194191
v 1.60401738 -0.111287422 0.309901953
v 1.41937576E-07 -0.111287422 0.309901953
v 1.64149189 -0.111287199 1.85329914
v 1.41937576E-07 -0.111287422 0.309901953
v -1.77975178 -0.111287445 1.42751694
v -1.56929326 -0.111287422 0.309901953
v -0 0.111287422 0.309901953
v 1.60401738 -0.111287422 0.309901953
v 1.60401738 0.111287422 0.309901953
v 1.41937576E-07 -0.111287422 0.309901953
v -1.56929326 0.111287422 0.309901953
v -1.56929326 -0.111287422 0.309901953
v 0.51917845 0.111287639 4.03081179
v 0.519178569 -0.111287214 4.03081179
v -0.136348516 -0.111287296 4.25025845
v -0.136348516 0.111287557 4.25025845
v -0 0.111287422 0.309901953
v 1.60401738 0.111287422 0.309901953
v 1.64149189 0.111287646 1.85329914
v 0.156575948 0.111287504 1.76194191
v -1.56929326 0.111287422 0.309901953
v 0.156575948 0.111287504 1.76194191
v -1.77975178 0.1112874 1.42751694
v -1.56929326 -0.111287422 0.309901953
v -1.56929326 0.111287422 0.309901953
v -1.77975178 0.1112874 1.42751694
v -1.77975178 -0.111287445 1.42751694
v 1.64425814 0.111287661 3.4886775
v 1.64425814 -0.111287192 3.4886775
v 0.519178569 -0.111287214 4.03081179
v 0.51917845 0.111287639 4.03081179
v -1.77975178 0.1112874 1.42751694
v 0.156575948 0.111287504 1.76194191
v 0.51917845 0.111287639 4.03081179
v -0.136348516 0.111287557 4.25025845
vt 0.438839078 0
vt 0.438839048 0.249999985
vt 0.625 0.25
vt 0.625 0
vt 0.438839018 0.37499997
vt 0.438839048 0.5
vt 0.625 0.5
vt 0.625 0.375
vt 0.438839048 0.5
vt 0.625 0.75
vt 0.625 0.5
vt 0.438839048 0.75
vt 0.375 0.5
vt 0.375 0.75
vt 0.438839078 0.875
vt 0.438839048 1
vt 0.625 1
vt 0.625 0.875
vt 0.438839048 0.75
vt 0.625 0.75
vt 0.438839078 0.875
vt 0.375 0.75
vt 0.375 0.875
vt 0.438839048 0.75
vt 0.375 0.875
vt 0.438839048 1
vt 0.375 1
vt 0.24999997 0.49999994
vt 0.375 0.75
vt 0.375 0.5
vt 0.24999997 0.74999994
vt 0.125 0.5
vt 0.125 0.75
vt 0.75 0.5
vt 0.75 0.75
vt 0.875 0.75
vt 0.875 0.5
vt 0.375 0.375
vt 0.375 0.5
vt 0.438839048 0.5
vt 0.438839018 0.37499997
vt 0.375 0.25
vt 0.438839018 0.37499997
vt 0.438839048 0.249999985
vt 0.375 0
vt 0.375 0.25
vt 0.438839048 0.249999985
vt 0.438839078 0
vt 0.625 0.5
vt 0.625 0.75
vt 0.75 0.75
vt 0.75 0.5
vt 0.438839048 0.249999985
vt 0.438839018 0.37499997
vt 0.625 0.375
vt 0.625 0.25
vn -0.864204466 0 0.503140748
vn -0.864204466 0 0.503140748
vn -0.864204466 0 0.503140748
vn -0.864204466 0 0.503140748
vn -0 1 0
vn -0 1 0
vn -0 1 0
vn -0 1 0
vn 0.999998569 0 -0.00169150298
vn 0.999998569 0 -0.00169150298
vn 0.999998569 0 -0.00169150298
vn 0.999998569 0 -0.00169150298
vn 0.999705374 0 -0.0242733825
vn 0.999705374 0 -0.0242733825
vn -0 -1 0
vn -0 -1 0
vn -0 -1 0
vn -0 -1 0
vn -0 -1 0
vn -0 -1 0
vn -0 -1 0
vn -0 -1 0
vn -0 -1 0
vn -0 -1 0
vn -0 -1 0
vn -0 -1 0
vn -0 -1 0
vn -0 0 -1
vn -0 0 -1
vn -0 0 -1
vn -0 0 -1
vn -0 0 -1
vn -0 0 -1
vn 0.317448497 0 0.948275566
vn 0.317448497 0 0.948275566
vn 0.317448497 0 0.948275566
vn 0.317448497 0 0.948275566
vn -0 1 0
vn -0 1 0
vn -0 1 0
vn -0 1 0
vn -0 1 0
vn -0 1 0
vn -0 1 0
vn -0.982727587 0 -0.185057834
vn -0.982727587 0 -0.185057834
vn -0.982727587 0 -0.185057834
vn -0.982727587 0 -0.185057834
vn 0.434094667 0 0.900867224
vn 0.434094667 0 0.900867224
vn 0.434094667 0 0.900867224
vn 0.434094667 0 0.900867224
vn -0 1 0
vn -0 1 0
vn -0 1 0
vn -0 1 0
g CrabCol_0
f 3/3/3 2/2/2 1/1/1
f 4/4/4 3/3/3 1/1/1
f 7/7/7 6/6/6 5/5/5
f 8/8/8 7/7/7 5/5/5
f 11/11/11 10/10/10 9/9/9
f 10/10/10 12/12/12 9/9/9
f 9/9/9 12/12/12 13/13/13
f 12/12/12 14/14/14 13/13/13
f 17/17/17 16/16/16 15/15/15
f 18/18/18 17/17/17 15/15/15
f 20/20/20 18/18/18 19/19/19
f 18/18/18 21/21/21 19/19/19
f 21/21/21 23/23/23 22/22/22
f 24/24/24 21/21/21 22/22/22
f 21/21/21 26/26/26 25/25/25
f 26/26/26 27/27/27 25/25/25
f 30/30/30 29/29/29 28/28/28
f 29/29/29 31/31/31 28/28/28
f 28/28/28 31/31/31 32/32/32
f 31/31/31 33/33/33 32/32/32
f 36/36/36 35/35/35 34/34/34
f 37/37/37 36/36/36 34/34/34
f 40/40/40 39/39/39 38/38/38
f 41/41/41 40/40/40 38/38/38
f 43/43/43 38/38/38 42/42/42
f 44/44/44 43/43/43 42/42/42
f 47/47/47 46/46/46 45/45/45
f 48/48/48 47/47/47 45/45/45
f 51/51/51 50/50/50 49/49/49
f 52/52/52 51/51/51 49/49/49
f 55/55/55 54/54/54 53/53/53
f 56/56/56 55/55/55 53/53/53
