g GtopCol4
v -1.17452394E-08 0.275047749 0.268699795
v -0 0.275047779 2.07655297E-08
v -0.321002305 0.000356757169 0.321002305
v -0.274353176 0.275047749 0.274353176
v -0.321002305 0.000356757169 0.321002305
v -0.274353027 0.275047779 8.77317685E-09
v -1.17452394E-08 0.275047749 0.268699795
v -0.321002305 0.000356757169 0.321002305
v -0.274353176 0.275047749 0.274353176
v -0 0.275047779 2.07655297E-08
v -0.274353027 0.275047779 8.77317685E-09
v -0.321002305 0.000356757169 0.321002305
v -1.17452394E-08 0.275047749 0.268699795
v -0.274353176 0.275047749 0.274353176
v -0.274353027 0.275047779 8.77317685E-09
v -0 0.275047779 2.07655297E-08
vt 0.375 0.75
vt 0.375 0.880805194
vt 0.625 0.75
vt 0.625 0.75
vt 0.625 0.75
vt 0.625 1
vt 0.375 0.75
vt 0.625 0.75
vt 0.625 0.75
vt 0.375 0.880805194
vt 0.375 1
vt 0.625 0.75
vt 0.375 0.75
vt 0.625 0.75
vt 0.625 1
vt 0.505805135 0.880805194
vn 0.650171936 -0.759787083 0
vn 0.650171936 -0.759787083 0
vn 0.650171936 -0.759787083 0
vn -0.985884488 0.167426869 0
vn -0.985884488 0.167426869 0
vn -0.985884488 0.167426869 0
vn 0.0203228593 0.164036781 0.986244857
vn 0.0203228593 0.164036781 0.986244857
vn 0.0203228593 0.164036781 0.986244857
vn -0 -0.759787142 -0.650171936
vn -0 -0.759787142 -0.650171936
vn -0 -0.759787142 -0.650171936
vn -0 1 0
vn -0 1 0
vn -0 1 0
vn -0 1 0
g GtopCol4_0
f 3/3/3 2/2/2 1/1/1
f 6/6/6 5/5/5 4/4/4
f 9/9/9 8/8/8 7/7/7
f 12/12/12 11/11/11 10/10/10
f 15/15/15 14/14/14 13/13/13
f 16/16/16 15/15/15 13/13/13
