g GtopCol2
v -0.304683864 0.809830546 -0.394500196
v -0.350885391 0.865169823 -0.350885421
v -0.394500166 0.809830546 -0.304683924
v -0.394500166 0.809830546 0.304683834
v -0.350885391 0.865169823 0.350885361
v -0.304683894 0.809830546 0.394500136
v 0.394500166 0.809830546 -0.304683894
v 0.350885391 0.865169823 -0.350885421
v 0.304683894 0.809830546 -0.394500196
v 0.304683864 0.809830546 0.394500136
v 0.350885391 0.865169823 0.350885361
v 0.394500166 0.809830546 0.304683864
v 0.163000345 1.11211109 0.16300033
v 0.350885391 0.865169823 0.350885361
v 0.304683864 0.809830546 0.394500136
v -0.304683894 0.809830546 0.394500136
v -0.163000345 1.11211109 0.16300033
v -0.350885391 0.865169823 0.350885361
v -0.163000345 1.11211109 -0.16300036
v 0.163000345 1.11211109 -0.16300036
v 0.163000345 1.11211109 0.16300033
v -0.163000345 1.11211109 0.16300033
v 0.304683894 0.809830546 -0.394500196
v 0.350885391 0.865169823 -0.350885421
v 0.163000345 1.11211109 -0.16300036
v -0.304683864 0.809830546 -0.394500196
v -0.163000345 1.11211109 -0.16300036
v -0.350885391 0.865169823 -0.350885421
v -0.304683864 0.809830546 -0.394500196
v -0.27419731 0.743580759 -0.364013612
v 0.27419728 0.743580759 -0.364013612
v 0.304683894 0.809830546 -0.394500196
v 0.304683864 0.809830546 0.394500136
v 0.27419731 0.743580759 0.364013553
v -0.27419728 0.743580759 0.364013553
v -0.304683894 0.809830546 0.394500136
v 0.394500166 0.809830546 -0.304683894
v 0.364013582 0.743580759 -0.27419734
v 0.364013582 0.743580759 0.274197251
v 0.394500166 0.809830546 0.304683864
v 0.350885391 0.865169823 -0.350885421
v 0.394500166 0.809830546 -0.304683894
v 0.394500166 0.809830546 0.304683864
v 0.350885391 0.865169823 0.350885361
v 0.163000345 1.11211109 -0.16300036
v 0.163000345 1.11211109 0.16300033
v -0.350885391 0.865169823 0.350885361
v -0.394500166 0.809830546 0.304683834
v -0.394500166 0.809830546 -0.304683924
v -0.350885391 0.865169823 -0.350885421
v -0.163000345 1.11211109 0.16300033
v -0.163000345 1.11211109 -0.16300036
v 0.364013582 0.743580759 -0.27419734
v 0.27419728 0.743580759 -0.364013612
v -0.27419731 0.743580759 -0.364013612
v -0.364013582 0.743580759 -0.27419731
v 0.364013582 0.743580759 0.274197251
v -0.364013582 0.743580759 0.27419728
v 0.27419731 0.743580759 0.364013553
v -0.27419728 0.743580759 0.364013553
v -0.304683864 0.809830546 -0.394500196
v -0.394500166 0.809830546 -0.304683924
v -0.364013582 0.743580759 -0.27419731
v -0.27419731 0.743580759 -0.364013612
v 0.304683864 0.809830546 0.394500136
v 0.394500166 0.809830546 0.304683864
v 0.364013582 0.743580759 0.274197251
v 0.27419731 0.743580759 0.364013553
v -0.27419728 0.743580759 0.364013553
v -0.364013582 0.743580759 0.27419728
v -0.394500166 0.809830546 0.304683834
v -0.304683894 0.809830546 0.394500136
v 0.27419728 0.743580759 -0.364013612
v 0.364013582 0.743580759 -0.27419734
v 0.394500166 0.809830546 -0.304683894
v 0.304683894 0.809830546 -0.394500196
v -0.364013582 0.743580759 -0.27419731
v -0.394500166 0.809830546 -0.304683924
v -0.394500166 0.809830546 0.304683834
v -0.364013582 0.743580759 0.27419728
vt 0.153458893 0.625
vt 0.13881965 0.625
vt 0.125 0.679782271
vt 0.596541166 0.125
vt 0.611180365 0.125
vt 0.625 0.0702177733
vt 0.403458923 0.62500006
vt 0.37500003 0.601449847
vt 0.369895786 0.689355791
vt 0.653458953 0.625
vt 0.625 0.601449907
vt 0.619895816 0.68935585
vt 0.625 0.5
vt 0.625 0.601449847
vt 0.653458893 0.625
vt 0.846541107 0.625
vt 0.875 0.5
vt 0.875 0.601449847
vt 0.375 0.25
vt 0.375 0.5
vt 0.625 0.5
vt 0.625 0.25
vt 0.346541166 0.625
vt 0.37500003 0.601449847
vt 0.375 0.5
vt 0.153458923 0.625
vt 0.125 0.5
vt 0.125 0.601449847
vt 0.153458893 0.625
vt 0.155842364 0.75
vt 0.344157636 0.75
vt 0.346541166 0.625
vt 0.653458953 0.625
vt 0.655842423 0.75
vt 0.844157577 0.75
vt 0.846541107 0.625
vt 0.403458923 0.62500006
vt 0.405842304 0.75
vt 0.594157636 0.75
vt 0.596541107 0.625
vt 0.37500003 0.601449907
vt 0.403458893 0.625
vt 0.596541107 0.625
vt 0.625 0.601449907
vt 0.375 0.5
vt 0.625 0.5
vt 0.625 0.148550108
vt 0.596541166 0.125
vt 0.403458893 0.125
vt 0.375 0.148550108
vt 0.625 0.25
vt 0.375 0.25
vt 0.405842364 0.75
vt 0.375 0.780842364
vt 0.375 0.969157636
vt 0.405842364 1
vt 0.594157696 0.75
vt 0.594157636 1
vt 0.625 0.780842364
vt 0.625 0.969157636
vt 0.153458893 0.625
vt 0.125 0.679782271
vt 0.125 0.75
vt 0.155842364 0.75
vt 0.653458953 0.625
vt 0.596541107 0.625
vt 0.594157636 0.75
vt 0.655842423 0.75
vt 0.844157577 0.75
vt 0.875 0.75
vt 0.875 0.679782212
vt 0.846541107 0.625
vt 0.344157636 0.75
vt 0.405842304 0.75
vt 0.403458923 0.62500006
vt 0.346541166 0.625
vt 0.405842364 0
vt 0.403458893 0.125
vt 0.596541166 0.125
vt 0.594157696 0
vn -0.706720889 -0.0330339186 -0.706720889
vn -0.706720889 -0.0330339186 -0.706720889
vn -0.706720889 -0.0330339186 -0.706720889
vn -0.706720352 -0.0330344215 0.706721365
vn -0.706720352 -0.0330344215 0.706721365
vn -0.706720352 -0.0330344215 0.706721365
vn 0.706720352 -0.0330344215 -0.706721365
vn 0.706720352 -0.0330344215 -0.706721365
vn 0.706720352 -0.0330344215 -0.706721365
vn 0.706720889 -0.0330339186 0.706720889
vn 0.706720889 -0.0330339186 0.706720889
vn 0.706720889 -0.0330339186 0.706720889
vn -0 0.608555734 0.793511152
vn -0 0.608555734 0.793511152
vn -0 0.608555734 0.793511152
vn -0 0.608555734 0.793511152
vn -0 0.608555734 0.793511152
vn -0 0.608555734 0.793511152
vn -0 1 0
vn -0 1 0
vn -0 1 0
vn -0 1 0
vn -0 0.608555794 -0.793511152
vn -0 0.608555794 -0.793511152
vn -0 0.608555794 -0.793511152
vn -0 0.608555794 -0.793511152
vn -0 0.608555794 -0.793511152
vn -0 0.608555794 -0.793511152
vn -0 -0.418037981 -0.908429503
vn -0 -0.418037981 -0.908429503
vn -0 -0.418037981 -0.908429503
vn -0 -0.418037981 -0.908429503
vn -0 -0.418037981 0.908429503
vn -0 -0.418037981 0.908429503
vn -0 -0.418037981 0.908429503
vn -0 -0.418037981 0.908429503
vn 0.908429623 -0.418037921 0
vn 0.908429623 -0.418037921 0
vn 0.908429623 -0.418037921 0
vn 0.908429623 -0.418037921 0
vn 0.793511152 0.608555794 0
vn 0.793511152 0.608555794 0
vn 0.793511152 0.608555794 0
vn 0.793511152 0.608555794 0
vn 0.793511152 0.608555794 0
vn 0.793511152 0.608555794 0
vn -0.793511152 0.608555794 0
vn -0.793511152 0.608555794 0
vn -0.793511152 0.608555794 0
vn -0.793511152 0.608555794 0
vn -0.793511152 0.608555794 0
vn -0.793511152 0.608555794 0
vn -0 -1 0
vn -0 -1 0
vn -0 -1 0
vn -0 -1 0
vn -0 -1 0
vn -0 -1 0
vn -0 -1 0
vn -0 -1 0
vn -0.59265554 -0.545452297 -0.592656076
vn -0.59265554 -0.545452297 -0.592656076
vn -0.59265554 -0.545452297 -0.592656076
vn -0.59265554 -0.545452297 -0.592656076
vn 0.59265554 -0.545452297 0.592656076
vn 0.59265554 -0.545452297 0.592656076
vn 0.59265554 -0.545452297 0.592656076
vn 0.59265554 -0.545452297 0.592656076
vn -0.592655778 -0.545452476 0.592655599
vn -0.592655778 -0.545452476 0.592655599
vn -0.592655778 -0.545452476 0.592655599
vn -0.592655778 -0.545452476 0.592655599
vn 0.592655778 -0.545452476 -0.592655599
vn 0.592655778 -0.545452476 -0.592655599
vn 0.592655778 -0.545452476 -0.592655599
vn 0.592655778 -0.545452476 -0.592655599
vn -0.908429623 -0.418037921 0
vn -0.908429623 -0.418037921 0
vn -0.908429623 -0.418037921 0
vn -0.908429623 -0.418037921 0
g GtopCol2_0
f 3/3/3 2/2/2 1/1/1
f 6/6/6 5/5/5 4/4/4
f 9/9/9 8/8/8 7/7/7
f 12/12/12 11/11/11 10/10/10
f 15/15/15 14/14/14 13/13/13
f 13/13/13 16/16/16 15/15/15
f 13/13/13 17/17/17 16/16/16
f 17/17/17 18/18/18 16/16/16
f 21/21/21 20/20/20 19/19/19
f 22/22/22 21/21/21 19/19/19
f 25/25/25 24/24/24 23/23/23
f 23/23/23 26/26/26 25/25/25
f 26/26/26 27/27/27 25/25/25
f 26/26/26 28/28/28 27/27/27
f 31/31/31 30/30/30 29/29/29
f 32/32/32 31/31/31 29/29/29
f 35/35/35 34/34/34 33/33/33
f 36/36/36 35/35/35 33/33/33
f 39/39/39 38/38/38 37/37/37
f 40/40/40 39/39/39 37/37/37
f 43/43/43 42/42/42 41/41/41
f 41/41/41 44/44/44 43/43/43
f 41/41/41 45/45/45 44/44/44
f 45/45/45 46/46/46 44/44/44
f 49/49/49 48/48/48 47/47/47
f 47/47/47 50/50/50 49/49/49
f 47/47/47 51/51/51 50/50/50
f 51/51/51 52/52/52 50/50/50
f 55/55/55 54/54/54 53/53/53
f 53/53/53 56/56/56 55/55/55
f 53/53/53 57/57/57 56/56/56
f 57/57/57 58/58/58 56/56/56
f 57/57/57 59/59/59 58/58/58
f 59/59/59 60/60/60 58/58/58
f 63/63/63 62/62/62 61/61/61
f 64/64/64 63/63/63 61/61/61
f 67/67/67 66/66/66 65/65/65
f 68/68/68 67/67/67 65/65/65
f 71/71/71 70/70/70 69/69/69
f 72/72/72 71/71/71 69/69/69
f 75/75/75 74/74/74 73/73/73
f 76/76/76 75/75/75 73/73/73
f 79/79/79 78/78/78 77/77/77
f 80/80/80 79/79/79 77/77/77
