g TrollsCol
v -1.86106837 -0.111287087 1.20581234
v -1.86106837 0.111287758 1.20581234
v -0.948768973 0.111287564 4.48078012
v -0.948768973 -0.111287281 4.48078012
v -1.86106837 0.111287758 1.20581234
v 2.1115284 0.11128778 1.48515773
v 0.877478361 0.111287452 4.4472599
v -0.948768973 0.111287564 4.48078012
v 2.1115284 0.11128778 1.48515773
v 2.1115284 -0.111287065 1.48515773
v 0.877478361 -0.111287393 4.4472599
v 0.877478361 0.111287452 4.4472599
v 2.1115284 -0.111287065 1.48515773
v -1.86106837 -0.111287087 1.20581234
v -0.948768973 -0.111287281 4.48078012
v 0.877478361 -0.111287393 4.4472599
v -1.70926142 0.111287415 0.309901953
v -1.70926142 -0.11128743 0.309901953
v 1.71290088 -0.11128743 0.309901953
v 1.71290088 0.111287415 0.309901953
v 0.877478361 0.111287452 4.4472599
v 0.877478361 -0.111287393 4.4472599
v -0.948768973 -0.111287281 4.48078012
v -0.948768973 0.111287564 4.48078012
v 1.71290088 -0.11128743 0.309901953
v -1.70926142 -0.11128743 0.309901953
v -1.86106837 -0.111287087 1.20581234
v 2.1115284 -0.111287065 1.48515773
v 1.71290088 0.111287415 0.309901953
v 1.71290088 -0.11128743 0.309901953
v 2.1115284 -0.111287065 1.48515773
v 2.1115284 0.11128778 1.48515773
v -1.70926142 0.111287415 0.309901953
v 1.71290088 0.111287415 0.309901953
v 2.1115284 0.11128778 1.48515773
v -1.86106837 0.111287758 1.20581234
v -1.70926142 -0.11128743 0.309901953
v -1.70926142 0.111287415 0.309901953
v -1.86106837 0.111287758 1.20581234
v -1.86106837 -0.111287087 1.20581234
vt 0.438839078 0
vt 0.438839048 0.249999985
vt 0.625 0.25
vt 0.625 0
vt 0.438839048 0.249999985
vt 0.438839048 0.5
vt 0.625 0.5
vt 0.625 0.25
vt 0.438839048 0.5
vt 0.438839048 0.75
vt 0.625 0.75
vt 0.625 0.5
vt 0.438839048 0.75
vt 0.438839048 1
vt 0.625 1
vt 0.625 0.75
vt 0.125 0.5
vt 0.125 0.75
vt 0.375 0.75
vt 0.375 0.5
vt 0.625 0.5
vt 0.625 0.75
vt 0.875 0.75
vt 0.875 0.5
vt 0.375 0.75
vt 0.375 1
vt 0.438839048 1
vt 0.438839048 0.75
vt 0.375 0.5
vt 0.375 0.75
vt 0.438839048 0.75
vt 0.438839048 0.5
vt 0.375 0.25
vt 0.375 0.5
vt 0.438839048 0.5
vt 0.438839048 0.249999985
vt 0.375 0
vt 0.375 0.25
vt 0.438839048 0.249999985
vt 0.438839078 0
vn -0.963321567 0 0.268350005
vn -0.963321567 0 0.268350005
vn -0.963321567 0 0.268350005
vn -0.963321567 0 0.268350005
vn -0 1 0
vn -0 1 0
vn -0 1 0
vn -0 1 0
vn 0.923094571 0 0.384573072
vn 0.923094571 0 0.384573072
vn 0.923094571 0 0.384573072
vn 0.923094571 0 0.384573072
vn -0 -1 0
vn -0 -1 0
vn -0 -1 0
vn -0 -1 0
vn -0 0 -1
vn -0 0 -1
vn -0 0 -1
vn -0 0 -1
vn 0.0183516983 0 0.999831557
vn 0.0183516983 0 0.999831557
vn 0.0183516983 0 0.999831557
vn 0.0183516983 0 0.999831557
vn -0 -1 0
vn -0 -1 0
vn -0 -1 0
vn -0 -1 0
vn 0.947008073 0 -0.321209669
vn 0.947008073 0 -0.321209669
vn 0.947008073 0 -0.321209669
vn 0.947008073 0 -0.321209669
vn -0 1 0
vn -0 1 0
vn -0 1 0
vn -0 1 0
vn -0.985946238 0 -0.167062998
vn -0.985946238 0 -0.167062998
vn -0.985946238 0 -0.167062998
vn -0.985946238 0 -0.167062998
g TrollsCol_0
f 3/3/3 2/2/2 1/1/1
f 4/4/4 3/3/3 1/1/1
f 7/7/7 6/6/6 5/5/5
f 8/8/8 7/7/7 5/5/5
f 11/11/11 10/10/10 9/9/9
f 12/12/12 11/11/11 9/9/9
f 15/15/15 14/14/14 13/13/13
f 16/16/16 15/15/15 13/13/13
f 19/19/19 18/18/18 17/17/17
f 20/20/20 19/19/19 17/17/17
f 23/23/23 22/22/22 21/21/21
f 24/24/24 23/23/23 21/21/21
f 27/27/27 26/26/26 25/25/25
f 28/28/28 27/27/27 25/25/25
f 31/31/31 30/30/30 29/29/29
f 32/32/32 31/31/31 29/29/29
f 35/35/35 34/34/34 33/33/33
f 36/36/36 35/35/35 33/33/33
f 39/39/39 38/38/38 37/37/37
f 40/40/40 39/39/39 37/37/37
