g TitansPirate3Col
v -0.213823512 -0.0652011186 1.84324431
v -1.30637348 -0.0652013943 0.51555419
v -1.31306672 -0.0652014762 1.243644
v -0.213823661 0.0662667379 1.84324431
v 1.57399035 0.0662671551 1.55214286
v 0.00246964209 0.066266723 3.74453974
v -1.58324838E-07 0.0662669018 0.286494732
v 1.31419122 0.0662670135 0.262096167
v 1.57399035 0.0662671551 1.55214286
v 1.57399011 -0.0652007014 1.55214286
v 1.31419122 -0.0652008429 0.262096167
v 1.67638063E-08 -0.0652009547 0.286494732
v -1.31306672 0.0662663877 1.243644
v -1.30637348 0.0662664622 0.51555419
v -0.213823661 0.0662667379 1.84324431
v 0.00246967562 -0.0652011409 3.74453974
v 1.57399011 -0.0652007014 1.55214286
v -0.213823512 -0.0652011186 1.84324431
v -0.213823512 -0.0652011186 1.84324431
v -0.681306481 -0.0652010143 0.286494732
v -1.30637348 -0.0652013943 0.51555419
v -0.681306481 0.0662668422 0.286494732
v -0.213823661 0.0662667379 1.84324431
v -1.30637348 0.0662664622 0.51555419
v 0.00246964209 0.066266723 3.74453974
v 1.57399035 0.0662671551 1.55214286
v 1.57399011 -0.0652007014 1.55214286
v 0.00246967562 -0.0652011409 3.74453974
v -1.31306672 -0.0652014762 1.243644
v -1.30637348 -0.0652013943 0.51555419
v -1.30637348 0.0662664622 0.51555419
v -1.31306672 0.0662663877 1.243644
v -0.584643304 -0.0652013645 2.90414715
v -0.584643543 0.0662664995 2.90414715
v 0.00246964209 0.066266723 3.74453974
v 0.00246967562 -0.0652011409 3.74453974
v -0.681306481 -0.0652010143 0.286494732
v -0.681306481 0.0662668422 0.286494732
v -1.30637348 0.0662664622 0.51555419
v -1.30637348 -0.0652013943 0.51555419
v -0.213823512 -0.0652011186 1.84324431
v 1.67638063E-08 -0.0652009547 0.286494732
v -0.681306481 -0.0652010143 0.286494732
v 1.57399011 -0.0652007014 1.55214286
v 1.31419122 0.0662670135 0.262096167
v 1.31419122 -0.0652008429 0.262096167
v 1.57399011 -0.0652007014 1.55214286
v 1.57399035 0.0662671551 1.55214286
v -0.681306481 0.0662668422 0.286494732
v -1.58324838E-07 0.0662669018 0.286494732
v -0.213823661 0.0662667379 1.84324431
v 1.57399035 0.0662671551 1.55214286
v -1.31306672 -0.0652014762 1.243644
v -1.31306672 0.0662663877 1.243644
v -0.584643543 0.0662664995 2.90414715
v -0.584643304 -0.0652013645 2.90414715
v 1.67638063E-08 -0.0652009547 0.286494732
v 1.31419122 -0.0652008429 0.262096167
v 1.31419122 0.0662670135 0.262096167
v -1.58324838E-07 0.0662669018 0.286494732
v -0.681306481 -0.0652010143 0.286494732
v -0.681306481 0.0662668422 0.286494732
v -0.213823512 -0.0652011186 1.84324431
v -1.31306672 -0.0652014762 1.243644
v -0.584643304 -0.0652013645 2.90414715
v 0.00246967562 -0.0652011409 3.74453974
v -0.213823661 0.0662667379 1.84324431
v 0.00246964209 0.066266723 3.74453974
v -0.584643543 0.0662664995 2.90414715
v -1.31306672 0.0662663877 1.243644
vt 0.438839018 0.37499997
vt 0.438839048 0.5
vt 0.625 0.5
vt 0.438839078 0.875
vt 0.438839048 1
vt 0.625 1
vt 0.375 0.875
vt 0.375 1
vt 0.438839048 1
vt 0.438839048 0.249999985
vt 0.375 0.25
vt 0.375 0.375
vt 0.625 0.75
vt 0.438839048 0.75
vt 0.438839078 0.875
vt 0.625 0.25
vt 0.438839048 0.249999985
vt 0.438839018 0.37499997
vt 0.438839018 0.37499997
vt 0.375 0.5
vt 0.438839048 0.5
vt 0.375 0.75
vt 0.438839078 0.875
vt 0.438839048 0.75
vt 0.625 0
vt 0.438839078 0
vt 0.438839048 0.249999985
vt 0.625 0.25
vt 0.625 0.5
vt 0.438839048 0.5
vt 0.438839048 0.75
vt 0.625 0.75
vt 0.75 0.5
vt 0.75 0.75
vt 0.875 0.75
vt 0.875 0.5
vt 0.375 0.5
vt 0.375 0.75
vt 0.438839048 0.75
vt 0.438839048 0.5
vt 0.438839018 0.37499997
vt 0.375 0.375
vt 0.375 0.5
vt 0.438839048 0.249999985
vt 0.375 0
vt 0.375 0.25
vt 0.438839048 0.249999985
vt 0.438839078 0
vt 0.375 0.75
vt 0.375 0.875
vt 0.438839078 0.875
vt 0.438839048 1
vt 0.625 0.5
vt 0.625 0.75
vt 0.75 0.75
vt 0.75 0.5
vt 0.24999997 0.49999994
vt 0.125 0.5
vt 0.125 0.75
vt 0.24999997 0.74999994
vt 0.375 0.5
vt 0.375 0.75
vt 0.438839018 0.37499997
vt 0.625 0.5
vt 0.625 0.375
vt 0.625 0.25
vt 0.438839078 0.875
vt 0.625 1
vt 0.625 0.875
vt 0.625 0.75
vn -0 -1 0
vn -0 -1 0
vn -0 -1 0
vn -0 1 0
vn -0 1 0
vn -0 1 0
vn -0 1 0
vn -0 1 0
vn -0 1 0
vn -0 -1 0
vn -0 -1 0
vn -0 -1 0
vn -0 1 0
vn -0 1 0
vn -0 1 0
vn -0 -1 0
vn -0 -1 0
vn -0 -1 0
vn -0 -1 0
vn -0 -1 0
vn -0 -1 0
vn -0 1 0
vn -0 1 0
vn -0 1 0
vn 0.812763929 0 0.582593083
vn 0.812763929 0 0.582593083
vn 0.812763929 0 0.582593083
vn 0.812763989 0 0.582593083
vn -0.9999578 0 -0.00919249374
vn -0.9999578 0 -0.00919249374
vn -0.9999578 0 -0.00919249374
vn -0.9999578 0 -0.00919249374
vn -0.819763839 0 0.572701693
vn -0.819763839 0 0.572701693
vn -0.819763839 0 0.572701693
vn -0.819764078 0 0.572701335
vn -0.34408024 0 -0.938940287
vn -0.34408024 0 -0.938940287
vn -0.34408024 0 -0.938940287
vn -0.344080091 0 -0.938940287
vn -0 -1 0
vn -0 -1 0
vn -0 -1 0
vn -0 -1 0
vn 0.980318248 0 -0.197423577
vn 0.980318248 0 -0.197423577
vn 0.980318248 0 -0.197423577
vn 0.980318248 0 -0.197423741
vn -0 1 0
vn -0 1 0
vn -0 1 0
vn -0 1 0
vn -0.915761292 0 0.401722878
vn -0.915761292 0 0.401722878
vn -0.915761292 0 0.401722878
vn -0.915761411 0 0.40172264
vn -0 0 -1
vn -0.0185623318 0 -0.999827743
vn -0.0185623318 0 -0.999827743
vn -0 0 -1
vn -0 0 -1
vn -0 0 -1
vn -0 -1 0
vn -0 -1 0
vn -0 -1 0
vn -0 -1 0
vn -0 1 0
vn -0 1 0
vn -0 1 0
vn -0 1 0
g TitansPirate3Col_0
f 3/3/3 2/2/2 1/1/1
f 6/6/6 5/5/5 4/4/4
f 9/9/9 8/8/8 7/7/7
f 12/12/12 11/11/11 10/10/10
f 15/15/15 14/14/14 13/13/13
f 18/18/18 17/17/17 16/16/16
f 21/21/21 20/20/20 19/19/19
f 24/24/24 23/23/23 22/22/22
f 27/27/27 26/26/26 25/25/25
f 28/28/28 27/27/27 25/25/25
f 31/31/31 30/30/30 29/29/29
f 32/32/32 31/31/31 29/29/29
f 35/35/35 34/34/34 33/33/33
f 36/36/36 35/35/35 33/33/33
f 39/39/39 38/38/38 37/37/37
f 40/40/40 39/39/39 37/37/37
f 43/43/43 42/42/42 41/41/41
f 41/41/41 42/42/42 44/44/44
f 47/47/47 46/46/46 45/45/45
f 48/48/48 47/47/47 45/45/45
f 51/51/51 50/50/50 49/49/49
f 51/51/51 52/52/52 50/50/50
f 55/55/55 54/54/54 53/53/53
f 56/56/56 55/55/55 53/53/53
f 59/59/59 58/58/58 57/57/57
f 60/60/60 59/59/59 57/57/57
f 60/60/60 57/57/57 61/61/61
f 62/62/62 60/60/60 61/61/61
f 65/65/65 64/64/64 63/63/63
f 65/65/65 63/63/63 66/66/66
f 69/69/69 68/68/68 67/67/67
f 69/69/69 67/67/67 70/70/70
