g HavenBottom_Collision2
v 0.397936612 0.302613586 -0.929669797
v 0.0128547102 0.302613705 -1.00626779
v -0.372226715 0.302613586 -0.929669857
v -0.69868356 0.302613765 -0.711538732
v 0.724393189 0.302613705 -0.711538672
v -0.916815162 0.302613705 -0.385082126
v 0.942524374 0.302613705 -0.385081977
v -0.993412793 0.302613705 -5.52047332E-08
v 1.019122 0.302613705 -3.66996744E-09
v -0.916815042 0.302613705 0.385081857
v 0.942524374 0.302613705 0.385081917
v -0.698683679 0.302613705 0.711538613
v 0.724393249 0.302613705 0.711538434
v 0.397936612 0.302613765 0.929669797
v -0.372226804 0.302613765 0.929669738
v 0.0128548658 0.302613765 1.00626755
v -0.340739965 0.738071024 -0.853654027
v 0.0128547195 0.738071144 -0.92398876
v 0.366449833 0.738071024 -0.853653967
v -0.640503585 0.738071203 -0.653358698
v 0.666213214 0.738071144 -0.653358638
v -0.840799332 0.738071144 -0.353595346
v 0.866508543 0.738071144 -0.353595167
v -0.911133766 0.738071144 -8.61013731E-08
v 0.936843097 0.738071144 -3.87804349E-08
v -0.840799212 0.738071144 0.353595048
v 0.866508543 0.738071144 0.353595078
v -0.640503705 0.738071144 0.653358579
v 0.666213274 0.738071144 0.653358459
v 0.366449833 0.738071203 0.853653967
v -0.340740025 0.738071203 0.853653908
v 0.012854862 0.738071203 0.92398864
v 0.724393189 0.302613705 -0.711538672
v 0.666213214 0.738071144 -0.653358638
v 0.366449833 0.738071024 -0.853653967
v 0.397936612 0.302613586 -0.929669797
v -0.698683679 0.302613705 0.711538613
v -0.640503705 0.738071144 0.653358579
v -0.340740025 0.738071203 0.853653908
v -0.372226804 0.302613765 0.929669738
v 0.942524374 0.302613705 -0.385081977
v 0.866508543 0.738071144 -0.353595167
v 0.666213214 0.738071144 -0.653358638
v 0.724393189 0.302613705 -0.711538672
v -0.916815042 0.302613705 0.385081857
v -0.840799212 0.738071144 0.353595048
v -0.640503705 0.738071144 0.653358579
v -0.698683679 0.302613705 0.711538613
v 1.019122 0.302613705 -3.66996744E-09
v 0.936843097 0.738071144 -3.87804349E-08
v 0.866508543 0.738071144 -0.353595167
v 0.942524374 0.302613705 -0.385081977
v -0.993412793 0.302613705 -5.52047332E-08
v -0.911133766 0.738071144 -8.61013731E-08
v -0.840799212 0.738071144 0.353595048
v -0.916815042 0.302613705 0.385081857
v 0.942524374 0.302613705 0.385081917
v 0.866508543 0.738071144 0.353595078
v 0.936843097 0.738071144 -3.87804349E-08
v 1.019122 0.302613705 -3.66996744E-09
v -0.916815162 0.302613705 -0.385082126
v -0.840799332 0.738071144 -0.353595346
v -0.911133766 0.738071144 -8.61013731E-08
v -0.993412793 0.302613705 -5.52047332E-08
v 0.724393249 0.302613705 0.711538434
v 0.666213274 0.738071144 0.653358459
v 0.866508543 0.738071144 0.353595078
v 0.942524374 0.302613705 0.385081917
v -0.69868356 0.302613765 -0.711538732
v -0.640503585 0.738071203 -0.653358698
v -0.840799332 0.738071144 -0.353595346
v -0.916815162 0.302613705 -0.385082126
v 0.397936612 0.302613765 0.929669797
v 0.366449833 0.738071203 0.853653967
v 0.666213274 0.738071144 0.653358459
v 0.724393249 0.302613705 0.711538434
v -0.372226715 0.302613586 -0.929669857
v -0.340739965 0.738071024 -0.853654027
v -0.640503585 0.738071203 -0.653358698
v -0.69868356 0.302613765 -0.711538732
v 0.0128548658 0.302613765 1.00626755
v 0.012854862 0.738071203 0.92398864
v 0.366449833 0.738071203 0.853653967
v 0.397936612 0.302613765 0.929669797
v 0.397936612 0.302613586 -0.929669797
v 0.366449833 0.738071024 -0.853653967
v 0.0128547195 0.738071144 -0.92398876
v 0.0128547102 0.302613705 -1.00626779
v 0.0128547102 0.302613705 -1.00626779
v 0.0128547195 0.738071144 -0.92398876
v -0.340739965 0.738071024 -0.853654027
v -0.372226715 0.302613586 -0.929669857
v -0.372226804 0.302613765 0.929669738
v -0.340740025 0.738071203 0.853653908
v 0.012854862 0.738071203 0.92398864
v 0.0128548658 0.302613765 1.00626755
vt 0.341844022 0.471731067
vt 0.25 0.49000001
vt 0.158156097 0.471731126
vt 0.0802944303 0.419705689
vt 0.419705629 0.419705629
vt 0.0282689333 0.341844052
vt 0.471731067 0.341844022
vt 0.0100000054 0.25
vt 0.49000001 0.249999985
vt 0.0282689184 0.158155948
vt 0.471731067 0.158155948
vt 0.0802944154 0.0802943259
vt 0.419705629 0.0802943856
vt 0.341844022 0.0282689184
vt 0.158156037 0.0282688886
vt 0.25000003 0.0100000054
vt 0.158156097 0.471731126
vt 0.25 0.49000001
vt 0.341844022 0.471731067
vt 0.0802944303 0.419705689
vt 0.419705629 0.419705629
vt 0.0282689333 0.341844052
vt 0.471731067 0.341844022
vt 0.0100000054 0.25
vt 0.49000001 0.249999985
vt 0.0282689184 0.158155948
vt 0.471731067 0.158155948
vt 0.0802944154 0.0802943259
vt 0.419705629 0.0802943856
vt 0.341844022 0.0282689184
vt 0.158156037 0.0282688886
vt 0.25000003 0.0100000054
vt 0.419705629 0.419705629
vt 0.419705629 0.419705629
vt 0.341844022 0.471731067
vt 0.341844022 0.471731067
vt 0.0802944154 0.0802943259
vt 0.0802944154 0.0802943259
vt 0.158156037 0.0282688886
vt 0.158156037 0.0282688886
vt 0.471731067 0.341844022
vt 0.471731067 0.341844022
vt 0.419705629 0.419705629
vt 0.419705629 0.419705629
vt 0.0282689184 0.158155948
vt 0.0282689184 0.158155948
vt 0.0802944154 0.0802943259
vt 0.0802944154 0.0802943259
vt 0.49000001 0.249999985
vt 0.49000001 0.249999985
vt 0.471731067 0.341844022
vt 0.471731067 0.341844022
vt 0.0100000054 0.25
vt 0.0100000054 0.25
vt 0.0282689184 0.158155948
vt 0.0282689184 0.158155948
vt 0.471731067 0.158155948
vt 0.471731067 0.158155948
vt 0.49000001 0.249999985
vt 0.49000001 0.249999985
vt 0.0282689333 0.341844052
vt 0.0282689333 0.341844052
vt 0.0100000054 0.25
vt 0.0100000054 0.25
vt 0.419705629 0.0802943856
vt 0.419705629 0.0802943856
vt 0.471731067 0.158155948
vt 0.471731067 0.158155948
vt 0.0802944303 0.419705689
vt 0.0802944303 0.419705689
vt 0.0282689333 0.341844052
vt 0.0282689333 0.341844052
vt 0.341844022 0.0282689184
vt 0.341844022 0.0282689184
vt 0.419705629 0.0802943856
vt 0.419705629 0.0802943856
vt 0.158156097 0.471731126
vt 0.158156097 0.471731126
vt 0.0802944303 0.419705689
vt 0.0802944303 0.419705689
vt 0.25000003 0.0100000054
vt 0.25000003 0.0100000054
vt 0.341844022 0.0282689184
vt 0.341844022 0.0282689184
vt 0.341844022 0.471731067
vt 0.341844022 0.471731067
vt 0.25 0.49000001
vt 0.25 0.49000001
vt 0.25 0.49000001
vt 0.25 0.49000001
vt 0.158156097 0.471731126
vt 0.158156097 0.471731126
vt 0.158156037 0.0282688886
vt 0.158156037 0.0282688886
vt 0.25000003 0.0100000054
vt 0.25000003 0.0100000054
vn -0 -1 0
vn -0 -1 0
vn -0 -1 0
vn -0 -1 0
vn -0 -1 0
vn -0 -1 0
vn -0 -1 0
vn -0 -1 0
vn -0 -1 0
vn -0 -1 0
vn -0 -1 0
vn -0 -1 0
vn -0 -1 0
vn -0 -1 0
vn -0 -1 0
vn -0 -1 0
vn -0 1 0
vn -0 1 0
vn -0 1 0
vn -0 1 0
vn -0 1 0
vn -0 1 0
vn -0 1 0
vn -0 1 0
vn -0 1 0
vn -0 1 0
vn -0 1 0
vn -0 1 0
vn -0 1 0
vn -0 1 0
vn -0 1 0
vn -0 1 0
vn 0.54626888 0.182215273 -0.817549944
vn 0.54626888 0.182215273 -0.817549944
vn 0.54626888 0.182215273 -0.817549944
vn 0.54626888 0.182215273 -0.817549944
vn -0.546268463 0.182215229 0.817550182
vn -0.546268463 0.182215229 0.817550182
vn -0.546268463 0.182215229 0.817550182
vn -0.546268463 0.182215229 0.817550182
vn 0.817549944 0.182215407 -0.546268821
vn 0.817549944 0.182215407 -0.546268821
vn 0.817549944 0.182215407 -0.546268821
vn 0.817549944 0.182215407 -0.546268821
vn -0.817549825 0.182215318 0.546269
vn -0.817549825 0.182215318 0.546269
vn -0.817549825 0.182215318 0.546269
vn -0.817549825 0.182215318 0.546269
vn 0.964365661 0.18221499 -0.191824481
vn 0.964365661 0.18221499 -0.191824481
vn 0.964365661 0.18221499 -0.191824481
vn 0.964365661 0.18221499 -0.191824481
vn -0.964365542 0.182215154 0.19182463
vn -0.964365542 0.182215154 0.19182463
vn -0.964365542 0.182215154 0.19182463
vn -0.964365542 0.182215154 0.19182463
vn 0.964365542 0.182215154 0.191824466
vn 0.964365542 0.182215154 0.191824466
vn 0.964365542 0.182215154 0.191824466
vn 0.964365542 0.182215154 0.191824466
vn -0.964365542 0.182215467 -0.191824228
vn -0.964365542 0.182215467 -0.191824228
vn -0.964365542 0.182215467 -0.191824228
vn -0.964365542 0.182215467 -0.191824228
vn 0.817549944 0.182215214 0.54626888
vn 0.817549944 0.182215214 0.54626888
vn 0.817549944 0.182215214 0.54626888
vn 0.817549944 0.182215214 0.54626888
vn -0.817549348 0.182215154 -0.546269774
vn -0.817549348 0.182215154 -0.546269774
vn -0.817549348 0.182215154 -0.546269774
vn -0.817549348 0.182215154 -0.546269774
vn 0.546269357 0.182215154 0.817549706
vn 0.546269357 0.182215154 0.817549706
vn 0.546269357 0.182215154 0.817549706
vn 0.546269357 0.182215154 0.817549706
vn -0.546268582 0.182215229 -0.817550123
vn -0.546268582 0.182215229 -0.817550123
vn -0.546268582 0.182215229 -0.817550123
vn -0.546268582 0.182215229 -0.817550123
vn 0.191824794 0.182215229 0.964365542
vn 0.191824794 0.182215229 0.964365542
vn 0.191824794 0.182215229 0.964365542
vn 0.191824794 0.182215229 0.964365542
vn 0.1918253 0.182215333 -0.964365304
vn 0.1918253 0.182215333 -0.964365304
vn 0.1918253 0.182215333 -0.964365304
vn 0.1918253 0.182215333 -0.964365304
vn -0.19182533 0.182215303 -0.964365304
vn -0.19182533 0.182215303 -0.964365304
vn -0.19182533 0.182215303 -0.964365304
vn -0.19182533 0.182215303 -0.964365304
vn -0.191824943 0.182215169 0.964365423
vn -0.191824943 0.182215169 0.964365423
vn -0.191824943 0.182215169 0.964365423
vn -0.191824943 0.182215169 0.964365423
g HavenBottom_Collision2_0
f 3/3/3 2/2/2 1/1/1
f 1/1/1 4/4/4 3/3/3
f 1/1/1 5/5/5 4/4/4
f 5/5/5 6/6/6 4/4/4
f 5/5/5 7/7/7 6/6/6
f 7/7/7 8/8/8 6/6/6
f 7/7/7 9/9/9 8/8/8
f 9/9/9 10/10/10 8/8/8
f 9/9/9 11/11/11 10/10/10
f 11/11/11 12/12/12 10/10/10
f 11/11/11 13/13/13 12/12/12
f 13/13/13 14/14/14 12/12/12
f 14/14/14 15/15/15 12/12/12
f 14/14/14 16/16/16 15/15/15
f 19/19/19 18/18/18 17/17/17
f 17/17/17 20/20/20 19/19/19
f 20/20/20 21/21/21 19/19/19
f 20/20/20 22/22/22 21/21/21
f 22/22/22 23/23/23 21/21/21
f 22/22/22 24/24/24 23/23/23
f 24/24/24 25/25/25 23/23/23
f 24/24/24 26/26/26 25/25/25
f 26/26/26 27/27/27 25/25/25
f 26/26/26 28/28/28 27/27/27
f 28/28/28 29/29/29 27/27/27
f 28/28/28 30/30/30 29/29/29
f 28/28/28 31/31/31 30/30/30
f 31/31/31 32/32/32 30/30/30
f 35/35/35 34/34/34 33/33/33
f 36/36/36 35/35/35 33/33/33
f 39/39/39 38/38/38 37/37/37
f 40/40/40 39/39/39 37/37/37
f 43/43/43 42/42/42 41/41/41
f 44/44/44 43/43/43 41/41/41
f 47/47/47 46/46/46 45/45/45
f 48/48/48 47/47/47 45/45/45
f 51/51/51 50/50/50 49/49/49
f 52/52/52 51/51/51 49/49/49
f 55/55/55 54/54/54 53/53/53
f 56/56/56 55/55/55 53/53/53
f 59/59/59 58/58/58 57/57/57
f 60/60/60 59/59/59 57/57/57
f 63/63/63 62/62/62 61/61/61
f 64/64/64 63/63/63 61/61/61
f 67/67/67 66/66/66 65/65/65
f 68/68/68 67/67/67 65/65/65
f 71/71/71 70/70/70 69/69/69
f 72/72/72 71/71/71 69/69/69
f 75/75/75 74/74/74 73/73/73
f 76/76/76 75/75/75 73/73/73
f 79/79/79 78/78/78 77/77/77
f 80/80/80 79/79/79 77/77/77
f 83/83/83 82/82/82 81/81/81
f 84/84/84 83/83/83 81/81/81
f 87/87/87 86/86/86 85/85/85
f 88/88/88 87/87/87 85/85/85
f 91/91/91 90/90/90 89/89/89
f 92/92/92 91/91/91 89/89/89
f 95/95/95 94/94/94 93/93/93
f 96/96/96 95/95/95 93/93/93
