g HarpoonCol
v -1.41767681 -0.111287579 2.44882655
v -1.41767681 0.111287266 2.44882655
v -0.546862721 0.111287646 3.58809495
v -0.546862721 -0.111287214 3.58809495
v 0.00224721432 0.111287437 2.25965214
v 1.00741267 0.111287586 2.25374293
v 0.641340494 0.111287691 3.28500867
v 0.225348622 0.111287676 3.71988845
v 1.00741267 0.111287586 2.25374293
v 1.00741267 -0.111287259 2.25374293
v 0.641340494 -0.111287169 3.28500867
v 0.641340494 0.111287691 3.28500867
v 0.00224722922 -0.111287408 2.25965214
v -1.41767681 -0.111287579 2.44882655
v -0.546862721 -0.111287214 3.58809495
v 0.225348681 -0.111287184 3.71988845
v 1.00741267 -0.111287259 2.25374293
v 0.00224722922 -0.111287408 2.25965214
v 0.641340494 -0.111287169 3.28500867
v -0 0.111287422 0.309901953
v 0.724343538 -0.111287422 0.309901953
v 0.724343538 0.111287422 0.309901953
v 1.41937576E-07 -0.111287422 0.309901953
v -0.830444455 0.111287422 0.309901953
v -0.830444455 -0.111287422 0.309901953
v 0.225348622 0.111287676 3.71988845
v 0.225348681 -0.111287184 3.71988845
v -0.546862721 -0.111287214 3.58809495
v -0.546862721 0.111287646 3.58809495
v 1.41937576E-07 -0.111287422 0.309901953
v -0.830444455 -0.111287422 0.309901953
v -1.41767681 -0.111287579 2.44882655
v 0.00224722922 -0.111287408 2.25965214
v 0.724343538 -0.111287422 0.309901953
v 1.41937576E-07 -0.111287422 0.309901953
v 1.00741267 -0.111287259 2.25374293
v 0.724343538 0.111287422 0.309901953
v 0.724343538 -0.111287422 0.309901953
v 1.00741267 -0.111287259 2.25374293
v 1.00741267 0.111287586 2.25374293
v -0 0.111287422 0.309901953
v 0.724343538 0.111287422 0.309901953
v 1.00741267 0.111287586 2.25374293
v 0.00224721432 0.111287437 2.25965214
v -0.830444455 -0.111287422 0.309901953
v -0.830444455 0.111287422 0.309901953
v -1.41767681 0.111287266 2.44882655
v -1.41767681 -0.111287579 2.44882655
v -0.830444455 0.111287422 0.309901953
v -0 0.111287422 0.309901953
v 0.00224721432 0.111287437 2.25965214
v -1.41767681 0.111287266 2.44882655
v 0.641340494 0.111287691 3.28500867
v 0.641340494 -0.111287169 3.28500867
v 0.225348681 -0.111287184 3.71988845
v 0.225348622 0.111287676 3.71988845
v -1.41767681 0.111287266 2.44882655
v 0.00224721432 0.111287437 2.25965214
v 0.225348622 0.111287676 3.71988845
v -0.546862721 0.111287646 3.58809495
vt 0.438839078 0
vt 0.438839048 0.249999985
vt 0.625 0.25
vt 0.625 0
vt 0.438839018 0.37499997
vt 0.438839048 0.5
vt 0.625 0.5
vt 0.625 0.375
vt 0.438839048 0.5
vt 0.438839048 0.75
vt 0.625 0.75
vt 0.625 0.5
vt 0.438839078 0.875
vt 0.438839048 1
vt 0.625 1
vt 0.625 0.875
vt 0.438839048 0.75
vt 0.438839078 0.875
vt 0.625 0.75
vt 0.24999997 0.49999994
vt 0.375 0.75
vt 0.375 0.5
vt 0.24999997 0.74999994
vt 0.125 0.5
vt 0.125 0.75
vt 0.75 0.5
vt 0.75 0.75
vt 0.875 0.75
vt 0.875 0.5
vt 0.375 0.875
vt 0.375 1
vt 0.438839048 1
vt 0.438839078 0.875
vt 0.375 0.75
vt 0.375 0.875
vt 0.438839048 0.75
vt 0.375 0.5
vt 0.375 0.75
vt 0.438839048 0.75
vt 0.438839048 0.5
vt 0.375 0.375
vt 0.375 0.5
vt 0.438839048 0.5
vt 0.438839018 0.37499997
vt 0.375 0
vt 0.375 0.25
vt 0.438839048 0.249999985
vt 0.438839078 0
vt 0.375 0.25
vt 0.375 0.375
vt 0.438839018 0.37499997
vt 0.438839048 0.249999985
vt 0.625 0.5
vt 0.625 0.75
vt 0.75 0.75
vt 0.75 0.5
vt 0.438839048 0.249999985
vt 0.438839018 0.37499997
vt 0.625 0.375
vt 0.625 0.25
vn -0.794489443 0 0.60727793
vn -0.794489443 0 0.60727793
vn -0.794489443 0 0.60727793
vn -0.794489443 0 0.60727793
vn -0 1 0
vn -0 1 0
vn -0 1 0
vn -0 1 0
vn 0.94238764 0 0.334522814
vn 0.94238764 0 0.334522814
vn 0.94238764 0 0.334522814
vn 0.94238764 0 0.334522814
vn -0 -1 0
vn -0 -1 0
vn -0 -1 0
vn -0 -1 0
vn -0 -1 0
vn -0 -1 0
vn -0 -1 0
vn -0 0 -1
vn -0 0 -1
vn -0 0 -1
vn -0 0 -1
vn -0 0 -1
vn -0 0 -1
vn -0.168237358 0 0.985746503
vn -0.168237358 0 0.985746503
vn -0.168237358 0 0.985746503
vn -0.168237358 0 0.985746503
vn -0 -1 0
vn -0 -1 0
vn -0 -1 0
vn -0 -1 0
vn -0 -1 0
vn -0 -1 0
vn -0 -1 0
vn 0.989562571 0 -0.144103676
vn 0.989562571 0 -0.144103676
vn 0.989562571 0 -0.144103676
vn 0.989562571 0 -0.144103676
vn -0 1 0
vn -0 1 0
vn -0 1 0
vn -0 1 0
vn -0.964317322 0 -0.26474908
vn -0.964317322 0 -0.26474908
vn -0.964317322 0 -0.26474908
vn -0.964317322 0 -0.26474908
vn -0 1 0
vn -0 1 0
vn -0 1 0
vn -0 1 0
vn 0.722625375 0 0.691239953
vn 0.722625375 0 0.691239953
vn 0.722625375 0 0.691239953
vn 0.722625375 0 0.691239953
vn -0 1 0
vn -0 1 0
vn -0 1 0
vn -0 1 0
g HarpoonCol_0
f 3/3/3 2/2/2 1/1/1
f 4/4/4 3/3/3 1/1/1
f 7/7/7 6/6/6 5/5/5
f 8/8/8 7/7/7 5/5/5
f 11/11/11 10/10/10 9/9/9
f 12/12/12 11/11/11 9/9/9
f 15/15/15 14/14/14 13/13/13
f 16/16/16 15/15/15 13/13/13
f 16/16/16 18/18/18 17/17/17
f 19/19/19 16/16/16 17/17/17
f 22/22/22 21/21/21 20/20/20
f 21/21/21 23/23/23 20/20/20
f 20/20/20 23/23/23 24/24/24
f 23/23/23 25/25/25 24/24/24
f 28/28/28 27/27/27 26/26/26
f 29/29/29 28/28/28 26/26/26
f 32/32/32 31/31/31 30/30/30
f 33/33/33 32/32/32 30/30/30
f 33/33/33 35/35/35 34/34/34
f 36/36/36 33/33/33 34/34/34
f 39/39/39 38/38/38 37/37/37
f 40/40/40 39/39/39 37/37/37
f 43/43/43 42/42/42 41/41/41
f 44/44/44 43/43/43 41/41/41
f 47/47/47 46/46/46 45/45/45
f 48/48/48 47/47/47 45/45/45
f 51/51/51 50/50/50 49/49/49
f 52/52/52 51/51/51 49/49/49
f 55/55/55 54/54/54 53/53/53
f 56/56/56 55/55/55 53/53/53
f 59/59/59 58/58/58 57/57/57
f 60/60/60 59/59/59 57/57/57
