g LegionaireCol
v -0.949795961 -0.111287542 1.83705151
v -0.949795961 0.111287303 1.83705151
v -0.840008616 0.111287497 2.69818616
v -0.840008616 -0.111287355 2.69818616
v -0.311886489 0.111287594 1.20255458
v 1.28550398 0.111287422 1.46271443
v 0.765080273 0.111287616 3.89982557
v -0.55329138 0.111287579 4.01402712
v 1.28550398 0.111287422 1.46271443
v 1.28550398 -0.111287422 1.46271443
v 0.765080273 -0.111287244 3.89982557
v 0.765080273 0.111287616 3.89982557
v -0.311886489 -0.111287251 1.20255458
v -0.949795961 -0.111287542 1.83705151
v -0.840008616 -0.111287355 2.69818616
v -0.553291321 -0.111287273 4.01402712
v 1.28550398 -0.111287422 1.46271443
v -0.311886489 -0.111287251 1.20255458
v 0.765080273 -0.111287244 3.89982557
v 0.0176954102 0.111287422 0.309901953
v 0.760416329 -0.111287422 0.309901953
v 0.760416329 0.111287422 0.309901953
v 0.0176954847 -0.111287422 0.309901953
v -0.666158438 0.111287422 0.309901953
v -0.666158438 -0.111287422 0.309901953
v -0.55329138 0.111287579 4.01402712
v -0.553291321 -0.111287273 4.01402712
v -0.840008616 -0.111287355 2.69818616
v -0.840008616 0.111287497 2.69818616
v 0.0176954847 -0.111287422 0.309901953
v -0.666158438 -0.111287422 0.309901953
v -0.949795961 -0.111287542 1.83705151
v -0.311886489 -0.111287251 1.20255458
v 0.760416329 -0.111287422 0.309901953
v 0.0176954847 -0.111287422 0.309901953
v 1.28550398 -0.111287422 1.46271443
v 0.760416329 0.111287422 0.309901953
v 0.760416329 -0.111287422 0.309901953
v 1.28550398 -0.111287422 1.46271443
v 1.28550398 0.111287422 1.46271443
v 0.0176954102 0.111287422 0.309901953
v 0.760416329 0.111287422 0.309901953
v 1.28550398 0.111287422 1.46271443
v -0.311886489 0.111287594 1.20255458
v -0.666158438 -0.111287422 0.309901953
v -0.666158438 0.111287422 0.309901953
v -0.949795961 0.111287303 1.83705151
v -0.949795961 -0.111287542 1.83705151
v -0.666158438 0.111287422 0.309901953
v 0.0176954102 0.111287422 0.309901953
v -0.311886489 0.111287594 1.20255458
v -0.949795961 0.111287303 1.83705151
v 0.765080273 0.111287616 3.89982557
v 0.765080273 -0.111287244 3.89982557
v -0.553291321 -0.111287273 4.01402712
v -0.55329138 0.111287579 4.01402712
v -0.949795961 0.111287303 1.83705151
v -0.311886489 0.111287594 1.20255458
v -0.55329138 0.111287579 4.01402712
v -0.840008616 0.111287497 2.69818616
vt 0.438839078 0
vt 0.438839048 0.249999985
vt 0.625 0.25
vt 0.625 0
vt 0.438839018 0.37499997
vt 0.438839048 0.5
vt 0.625 0.5
vt 0.625 0.375
vt 0.438839048 0.5
vt 0.438839048 0.75
vt 0.625 0.75
vt 0.625 0.5
vt 0.438839078 0.875
vt 0.438839048 1
vt 0.625 1
vt 0.625 0.875
vt 0.438839048 0.75
vt 0.438839078 0.875
vt 0.625 0.75
vt 0.24999997 0.49999994
vt 0.375 0.75
vt 0.375 0.5
vt 0.24999997 0.74999994
vt 0.125 0.5
vt 0.125 0.75
vt 0.75 0.5
vt 0.75 0.75
vt 0.875 0.75
vt 0.875 0.5
vt 0.375 0.875
vt 0.375 1
vt 0.438839048 1
vt 0.438839078 0.875
vt 0.375 0.75
vt 0.375 0.875
vt 0.438839048 0.75
vt 0.375 0.5
vt 0.375 0.75
vt 0.438839048 0.75
vt 0.438839048 0.5
vt 0.375 0.375
vt 0.375 0.5
vt 0.438839048 0.5
vt 0.438839018 0.37499997
vt 0.375 0
vt 0.375 0.25
vt 0.438839048 0.249999985
vt 0.438839078 0
vt 0.375 0.25
vt 0.375 0.375
vt 0.438839018 0.37499997
vt 0.438839048 0.249999985
vt 0.625 0.5
vt 0.625 0.75
vt 0.75 0.75
vt 0.75 0.5
vt 0.438839048 0.249999985
vt 0.438839018 0.37499997
vt 0.625 0.375
vt 0.625 0.25
vn -0.991970658 0 0.126467809
vn -0.991970658 0 0.126467809
vn -0.991970658 0 0.126467809
vn -0.991970658 0 0.126467809
vn -0 1 0
vn -0 1 0
vn -0 1 0
vn -0 1 0
vn 0.977951407 0 0.208832905
vn 0.977951407 0 0.208832905
vn 0.977951407 0 0.208832905
vn 0.977951407 0 0.208832905
vn -0 -1 0
vn -0 -1 0
vn -0 -1 0
vn -0 -1 0
vn -0 -1 0
vn -0 -1 0
vn -0 -1 0
vn -0 0 -1
vn -0 0 -1
vn -0 0 -1
vn -0 0 -1
vn -0 0 -1
vn -0 0 -1
vn -0.977073729 0 0.212901041
vn -0.977073729 0 0.212901041
vn -0.977073729 0 0.212901041
vn -0.977073729 0 0.212901041
vn -0 -1 0
vn -0 -1 0
vn -0 -1 0
vn -0 -1 0
vn -0 -1 0
vn -0 -1 0
vn -0 -1 0
vn 0.910044491 0 -0.414510727
vn 0.910044491 0 -0.414510727
vn 0.910044491 0 -0.414510727
vn 0.910044491 0 -0.414510727
vn -0 1 0
vn -0 1 0
vn -0 1 0
vn -0 1 0
vn -0.983186007 0 -0.182607144
vn -0.983186007 0 -0.182607144
vn -0.983186007 0 -0.182607144
vn -0.983186007 0 -0.182607144
vn -0 1 0
vn -0 1 0
vn -0 1 0
vn -0 1 0
vn 0.0863000378 0 0.996269107
vn 0.0863000378 0 0.996269107
vn 0.0863000378 0 0.996269107
vn 0.0863000378 0 0.996269107
vn -0 1 0
vn -0 1 0
vn -0 1 0
vn -0 1 0
g LegionaireCol_0
f 3/3/3 2/2/2 1/1/1
f 4/4/4 3/3/3 1/1/1
f 7/7/7 6/6/6 5/5/5
f 8/8/8 7/7/7 5/5/5
f 11/11/11 10/10/10 9/9/9
f 12/12/12 11/11/11 9/9/9
f 15/15/15 14/14/14 13/13/13
f 16/16/16 15/15/15 13/13/13
f 16/16/16 18/18/18 17/17/17
f 19/19/19 16/16/16 17/17/17
f 22/22/22 21/21/21 20/20/20
f 21/21/21 23/23/23 20/20/20
f 20/20/20 23/23/23 24/24/24
f 23/23/23 25/25/25 24/24/24
f 28/28/28 27/27/27 26/26/26
f 29/29/29 28/28/28 26/26/26
f 32/32/32 31/31/31 30/30/30
f 33/33/33 32/32/32 30/30/30
f 33/33/33 35/35/35 34/34/34
f 36/36/36 33/33/33 34/34/34
f 39/39/39 38/38/38 37/37/37
f 40/40/40 39/39/39 37/37/37
f 43/43/43 42/42/42 41/41/41
f 44/44/44 43/43/43 41/41/41
f 47/47/47 46/46/46 45/45/45
f 48/48/48 47/47/47 45/45/45
f 51/51/51 50/50/50 49/49/49
f 52/52/52 51/51/51 49/49/49
f 55/55/55 54/54/54 53/53/53
f 56/56/56 55/55/55 53/53/53
f 59/59/59 58/58/58 57/57/57
f 60/60/60 59/59/59 57/57/57
