g DugpaCol
v -1.38650739 -0.111287087 2.01603818
v -1.74742019 0.111287564 6.10123158
v -1.74742019 -0.111287281 6.10123158
v -1.38650739 0.111287758 2.01603818
v -1.25593352 -0.11128743 0.309901953
v -1.25593352 0.111287415 0.309901953
v -1.38650739 0.111287758 2.01603818
v 1.70641541 0.11128778 4.78393412
v 0.784881115 0.111287452 6.1255846
v -1.74742019 0.111287564 6.10123158
v 1.70641541 0.11128778 4.78393412
v 1.70641541 -0.111287065 4.78393412
v 0.784881115 -0.111287393 6.1255846
v 0.784881115 0.111287452 6.1255846
v 1.70641541 -0.111287065 4.78393412
v -1.38650739 -0.111287087 2.01603818
v -1.74742019 -0.111287281 6.10123158
v 0.784881115 -0.111287393 6.1255846
v -1.25593352 0.111287415 0.309901953
v -1.25593352 -0.11128743 0.309901953
v 1.25957286 -0.11128743 0.309901953
v 1.25957286 0.111287415 0.309901953
v 0.784881115 0.111287452 6.1255846
v 0.784881115 -0.111287393 6.1255846
v -1.74742019 -0.111287281 6.10123158
v -1.74742019 0.111287564 6.10123158
v 1.25957286 -0.11128743 0.309901953
v -1.25593352 -0.11128743 0.309901953
v -1.38650739 -0.111287087 2.01603818
v 1.70641541 -0.111287065 4.78393412
v 1.25957286 0.111287415 0.309901953
v 1.25957286 -0.11128743 0.309901953
v 1.70641541 -0.111287065 4.78393412
v 1.70641541 0.11128778 4.78393412
v -1.25593352 0.111287415 0.309901953
v 1.25957286 0.111287415 0.309901953
v 1.70641541 0.11128778 4.78393412
v -1.38650739 0.111287758 2.01603818
vt 0.438839078 0
vt 0.625 0.25
vt 0.625 0
vt 0.438839048 0.249999985
vt 0.375 0
vt 0.375 0.25
vt 0.438839048 0.249999985
vt 0.438839048 0.5
vt 0.625 0.5
vt 0.625 0.25
vt 0.438839048 0.5
vt 0.438839048 0.75
vt 0.625 0.75
vt 0.625 0.5
vt 0.438839048 0.75
vt 0.438839048 1
vt 0.625 1
vt 0.625 0.75
vt 0.125 0.5
vt 0.125 0.75
vt 0.375 0.75
vt 0.375 0.5
vt 0.625 0.5
vt 0.625 0.75
vt 0.875 0.75
vt 0.875 0.5
vt 0.375 0.75
vt 0.375 1
vt 0.438839048 1
vt 0.438839048 0.75
vt 0.375 0.5
vt 0.375 0.75
vt 0.438839048 0.75
vt 0.438839048 0.5
vt 0.375 0.25
vt 0.375 0.5
vt 0.438839048 0.5
vt 0.438839048 0.249999985
vn -0.996120214 0 -0.0880037919
vn -0.996120214 0 -0.0880037919
vn -0.996120214 0 -0.0880037919
vn -0.996120214 0 -0.0880037919
vn -0.9970842 0 -0.0763087571
vn -0.9970842 0 -0.0763087571
vn -0 1 0
vn -0 1 0
vn -0 1 0
vn -0 1 0
vn 0.824285865 0 0.566173911
vn 0.824285865 0 0.566173911
vn 0.824285865 0 0.566173911
vn 0.824285865 0 0.566173911
vn -0 -1 0
vn -0 -1 0
vn -0 -1 0
vn -0 -1 0
vn -0 0 -1
vn -0 0 -1
vn -0 0 -1
vn -0 0 -1
vn -0.00961648859 0 0.999953747
vn -0.00961648859 0 0.999953747
vn -0.00961648859 0 0.999953747
vn -0.00961648859 0 0.999953747
vn -0 -1 0
vn -0 -1 0
vn -0 -1 0
vn -0 -1 0
vn 0.995049536 0 -0.0993802547
vn 0.995049536 0 -0.0993802547
vn 0.995049536 0 -0.0993802547
vn 0.995049536 0 -0.0993802547
vn -0 1 0
vn -0 1 0
vn -0 1 0
vn -0 1 0
g DugpaCol_0
f 3/3/3 2/2/2 1/1/1
f 2/2/2 4/4/4 1/1/1
f 1/1/1 4/4/4 5/5/5
f 4/4/4 6/6/6 5/5/5
f 9/9/9 8/8/8 7/7/7
f 10/10/10 9/9/9 7/7/7
f 13/13/13 12/12/12 11/11/11
f 14/14/14 13/13/13 11/11/11
f 17/17/17 16/16/16 15/15/15
f 18/18/18 17/17/17 15/15/15
f 21/21/21 20/20/20 19/19/19
f 22/22/22 21/21/21 19/19/19
f 25/25/25 24/24/24 23/23/23
f 26/26/26 25/25/25 23/23/23
f 29/29/29 28/28/28 27/27/27
f 30/30/30 29/29/29 27/27/27
f 33/33/33 32/32/32 31/31/31
f 34/34/34 33/33/33 31/31/31
f 37/37/37 36/36/36 35/35/35
f 38/38/38 37/37/37 35/35/35
