g TitansPirate1Col
v -0.213823512 -0.0652011186 1.84324431
v -0.736070633 -0.0652013198 0.790398836
v -0.928284109 -0.0652013943 1.79333341
v -0.928284109 0.0662664697 1.79333341
v -0.736070633 0.0662665367 0.790398836
v -0.213823661 0.0662667379 1.84324431
v -0.213823661 0.0662667379 1.84324431
v 0.716403961 0.0662669614 0.296451807
v 0.73571384 0.0662671179 2.03312111
v 0.716403961 -0.0652008951 0.296451807
v -0.213823512 -0.0652011186 1.84324431
v 0.735713601 -0.0652007386 2.03312111
v -0.396055311 0.0662666634 3.40785551
v 0.73571384 0.0662671179 2.03312111
v 0.735713601 -0.0652007386 2.03312111
v -0.396055251 -0.0652012005 3.40785551
v -0.928284109 -0.0652013943 1.79333341
v -0.736070633 -0.0652013198 0.790398836
v -0.736070633 0.0662665367 0.790398836
v -0.928284109 0.0662664697 1.79333341
v -0.213823661 0.0662667379 1.84324431
v 0.73571384 0.0662671179 2.03312111
v -0.396055311 0.0662666634 3.40785551
v -1.05875075 0.0662664548 2.80795145
v -0.928284109 0.0662664697 1.79333341
v -1.05875051 -0.0652014166 2.80795145
v -1.05875075 0.0662664548 2.80795145
v -0.396055311 0.0662666634 3.40785551
v -0.396055251 -0.0652012005 3.40785551
v -0.213823661 0.0662667379 1.84324431
v -1.58324838E-07 0.0662669018 0.286494732
v 0.716403961 0.0662669614 0.296451807
v -0.736070633 0.0662665367 0.790398836
v -0.681306481 0.0662668422 0.286494732
v -0.681306481 -0.0652010143 0.286494732
v -0.681306481 0.0662668422 0.286494732
v -0.736070633 0.0662665367 0.790398836
v -0.736070633 -0.0652013198 0.790398836
v 1.67638063E-08 -0.0652009547 0.286494732
v -0.681306481 -0.0652010143 0.286494732
v -0.736070633 -0.0652013198 0.790398836
v -0.213823512 -0.0652011186 1.84324431
v 0.716403961 -0.0652008951 0.296451807
v 0.716403961 0.0662669614 0.296451807
v 0.716403961 -0.0652008951 0.296451807
v 0.735713601 -0.0652007386 2.03312111
v 0.73571384 0.0662671179 2.03312111
v -1.05875051 -0.0652014166 2.80795145
v -0.928284109 -0.0652013943 1.79333341
v -0.928284109 0.0662664697 1.79333341
v -1.05875075 0.0662664548 2.80795145
v 1.67638063E-08 -0.0652009547 0.286494732
v 0.716403961 -0.0652008951 0.296451807
v 0.716403961 0.0662669614 0.296451807
v -1.58324838E-07 0.0662669018 0.286494732
v -0.681306481 -0.0652010143 0.286494732
v -0.681306481 0.0662668422 0.286494732
v -0.396055251 -0.0652012005 3.40785551
v 0.735713601 -0.0652007386 2.03312111
v -0.213823512 -0.0652011186 1.84324431
v -1.05875051 -0.0652014166 2.80795145
v -0.928284109 -0.0652013943 1.79333341
vt 0.438839018 0.37499997
vt 0.438839048 0.5
vt 0.625 0.5
vt 0.625 0.75
vt 0.438839048 0.75
vt 0.438839078 0.875
vt 0.438839078 0.875
vt 0.375 1
vt 0.438839048 1
vt 0.375 0.25
vt 0.438839018 0.37499997
vt 0.438839048 0.249999985
vt 0.625 0
vt 0.438839078 0
vt 0.438839048 0.249999985
vt 0.625 0.25
vt 0.625 0.5
vt 0.438839048 0.5
vt 0.438839048 0.75
vt 0.625 0.75
vt 0.438839078 0.875
vt 0.438839048 1
vt 0.625 1
vt 0.625 0.875
vt 0.625 0.75
vt 0.75 0.5
vt 0.75 0.75
vt 0.875 0.75
vt 0.875 0.5
vt 0.438839078 0.875
vt 0.375 0.875
vt 0.375 1
vt 0.438839048 0.75
vt 0.375 0.75
vt 0.375 0.5
vt 0.375 0.75
vt 0.438839048 0.75
vt 0.438839048 0.5
vt 0.375 0.375
vt 0.375 0.5
vt 0.438839048 0.5
vt 0.438839018 0.37499997
vt 0.375 0.25
vt 0.375 0
vt 0.375 0.25
vt 0.438839048 0.249999985
vt 0.438839078 0
vt 0.75 0.5
vt 0.625 0.5
vt 0.625 0.75
vt 0.75 0.75
vt 0.24999997 0.49999994
vt 0.125 0.5
vt 0.125 0.75
vt 0.24999997 0.74999994
vt 0.375 0.5
vt 0.375 0.75
vt 0.625 0.25
vt 0.438839048 0.249999985
vt 0.438839018 0.37499997
vt 0.625 0.375
vt 0.625 0.5
vn -0 -1 0
vn -0 -1 0
vn -0 -1 0
vn -0 1 0
vn -0 1 0
vn -0 1 0
vn -0 1 0
vn -0 1 0
vn -0 1 0
vn -0 -1 0
vn -0 -1 0
vn -0 -1 0
vn 0.77203083 0 0.635585129
vn 0.77203083 0 0.635585129
vn 0.77203083 0 0.635585129
vn 0.77203095 0 0.63558495
vn -0.982125878 0 -0.188225433
vn -0.982125878 0 -0.188225433
vn -0.982125878 0 -0.188225433
vn -0.982125878 0 -0.188225478
vn -0 1 0
vn -0 1 0
vn -0 1 0
vn -0 1 0
vn -0 1 0
vn -0.671111941 0 0.741356015
vn -0.671111941 0 0.741356015
vn -0.671111941 0 0.741356015
vn -0.671111643 0 0.741356313
vn -0 1 0
vn -0 1 0
vn -0 1 0
vn -0 1 0
vn -0 1 0
vn -0.994146109 0 -0.108043499
vn -0.994146109 0 -0.108043499
vn -0.994146109 0 -0.108043499
vn -0.994146109 0 -0.108043522
vn -0 -1 0
vn -0 -1 0
vn -0 -1 0
vn -0 -1 0
vn -0 -1 0
vn 0.99993825 0 -0.0111180926
vn 0.99993825 0 -0.0111180926
vn 0.99993825 0 -0.0111180926
vn 0.99993825 0 -0.0111182313
vn -0.991833806 0 -0.127536684
vn -0.991833806 0 -0.127536684
vn -0.991833806 0 -0.127536684
vn -0.991833806 0 -0.127536833
vn -0 0 -1
vn 0.0138973659 0 -0.99990344
vn 0.0138973659 0 -0.99990344
vn -0 0 -1
vn -0 0 -1
vn -0 0 -1
vn -0 -1 0
vn -0 -1 0
vn -0 -1 0
vn -0 -1 0
vn -0 -1 0
g TitansPirate1Col_0
f 3/3/3 2/2/2 1/1/1
f 6/6/6 5/5/5 4/4/4
f 9/9/9 8/8/8 7/7/7
f 12/12/12 11/11/11 10/10/10
f 15/15/15 14/14/14 13/13/13
f 16/16/16 15/15/15 13/13/13
f 19/19/19 18/18/18 17/17/17
f 20/20/20 19/19/19 17/17/17
f 23/23/23 22/22/22 21/21/21
f 24/24/24 23/23/23 21/21/21
f 24/24/24 21/21/21 25/25/25
f 28/28/28 27/27/27 26/26/26
f 29/29/29 28/28/28 26/26/26
f 32/32/32 31/31/31 30/30/30
f 30/30/30 31/31/31 33/33/33
f 31/31/31 34/34/34 33/33/33
f 37/37/37 36/36/36 35/35/35
f 38/38/38 37/37/37 35/35/35
f 41/41/41 40/40/40 39/39/39
f 42/42/42 41/41/41 39/39/39
f 42/42/42 39/39/39 43/43/43
f 46/46/46 45/45/45 44/44/44
f 47/47/47 46/46/46 44/44/44
f 50/50/50 49/49/49 48/48/48
f 51/51/51 50/50/50 48/48/48
f 54/54/54 53/53/53 52/52/52
f 55/55/55 54/54/54 52/52/52
f 55/55/55 52/52/52 56/56/56
f 57/57/57 55/55/55 56/56/56
f 60/60/60 59/59/59 58/58/58
f 61/61/61 60/60/60 58/58/58
f 61/61/61 62/62/62 60/60/60
