g LizardRiderCol
v -1.89921784 -0.111287527 1.71637821
v -2.15897918 0.111287348 3.79521608
v -2.15897918 -0.111287504 3.79521608
v -1.89921784 0.111287318 1.71637821
v -1.66608512 -0.111287422 0.309901953
v -1.66608512 0.111287422 0.309901953
v -0.654012918 0.111287594 1.20255458
v 2.54189014 0.111287422 3.89812064
v -0.097017765 0.111287616 4.82133055
v -1.55664968 0.111287594 4.49123526
v -1.89921784 0.111287318 1.71637821
v -1.55664968 0.111287594 4.49123526
v -2.15897918 0.111287348 3.79521608
v 2.54189014 0.111287422 3.89812064
v 2.54189014 -0.111287422 3.89812064
v -0.097017765 -0.111287244 4.82133055
v -0.097017765 0.111287616 4.82133055
v -0.654012918 -0.111287251 1.20255458
v -1.89921784 -0.111287527 1.71637821
v -2.15897918 -0.111287504 3.79521608
v -1.55664968 -0.111287266 4.49123526
v 2.54189014 -0.111287422 3.89812064
v -0.654012918 -0.111287251 1.20255458
v -0.097017765 -0.111287244 4.82133055
v 0.11402797 0.111287422 0.309901953
v 1.84482694 -0.111287422 0.309901953
v 1.84482694 0.111287422 0.309901953
v 0.114028148 -0.111287422 0.309901953
v -1.66608512 0.111287422 0.309901953
v -1.66608512 -0.111287422 0.309901953
v -1.55664968 0.111287594 4.49123526
v -1.55664968 -0.111287266 4.49123526
v -2.15897918 -0.111287504 3.79521608
v -2.15897918 0.111287348 3.79521608
v 0.114028148 -0.111287422 0.309901953
v -1.66608512 -0.111287422 0.309901953
v -1.89921784 -0.111287527 1.71637821
v -0.654012918 -0.111287251 1.20255458
v 1.84482694 -0.111287422 0.309901953
v 2.54189014 -0.111287422 3.89812064
v 1.84482694 0.111287422 0.309901953
v 1.84482694 -0.111287422 0.309901953
v 2.54189014 -0.111287422 3.89812064
v 2.54189014 0.111287422 3.89812064
v 0.11402797 0.111287422 0.309901953
v 1.84482694 0.111287422 0.309901953
v 2.54189014 0.111287422 3.89812064
v -0.654012918 0.111287594 1.20255458
v -1.66608512 0.111287422 0.309901953
v 0.11402797 0.111287422 0.309901953
v -0.654012918 0.111287594 1.20255458
v -1.89921784 0.111287318 1.71637821
v -0.097017765 0.111287616 4.82133055
v -0.097017765 -0.111287244 4.82133055
v -1.55664968 -0.111287266 4.49123526
v -1.55664968 0.111287594 4.49123526
vt 0.438839078 0
vt 0.625 0.25
vt 0.625 0
vt 0.438839048 0.249999985
vt 0.375 0
vt 0.375 0.25
vt 0.438839018 0.37499997
vt 0.438839048 0.5
vt 0.625 0.5
vt 0.625 0.375
vt 0.438839048 0.249999985
vt 0.625 0.375
vt 0.625 0.25
vt 0.438839048 0.5
vt 0.438839048 0.75
vt 0.625 0.75
vt 0.625 0.5
vt 0.438839078 0.875
vt 0.438839048 1
vt 0.625 1
vt 0.625 0.875
vt 0.438839048 0.75
vt 0.438839078 0.875
vt 0.625 0.75
vt 0.24999997 0.49999994
vt 0.375 0.75
vt 0.375 0.5
vt 0.24999997 0.74999994
vt 0.125 0.5
vt 0.125 0.75
vt 0.75 0.5
vt 0.75 0.75
vt 0.875 0.75
vt 0.875 0.5
vt 0.375 0.875
vt 0.375 1
vt 0.438839048 1
vt 0.438839078 0.875
vt 0.375 0.75
vt 0.438839048 0.75
vt 0.375 0.5
vt 0.375 0.75
vt 0.438839048 0.75
vt 0.438839048 0.5
vt 0.375 0.375
vt 0.375 0.5
vt 0.438839048 0.5
vt 0.438839018 0.37499997
vt 0.375 0.25
vt 0.375 0.375
vt 0.438839018 0.37499997
vt 0.438839048 0.249999985
vt 0.625 0.5
vt 0.625 0.75
vt 0.75 0.75
vt 0.75 0.5
vn -0.992283404 0 -0.123990841
vn -0.992283404 0 -0.123990841
vn -0.992283404 0 -0.123990841
vn -0.992283404 0 -0.123990841
vn -0.986539066 0 -0.163525358
vn -0.986539066 0 -0.163525358
vn -0 1 0
vn -0 1 0
vn -0 1 0
vn -0 1 0
vn -0 1 0
vn -0 1 0
vn -0 1 0
vn 0.330220461 0 0.943903804
vn 0.330220461 0 0.943903804
vn 0.330220461 0 0.943903804
vn 0.330220461 0 0.943903804
vn -0 -1 0
vn -0 -1 0
vn -0 -1 0
vn -0 -1 0
vn -0 -1 0
vn -0 -1 0
vn -0 -1 0
vn -0 0 -1
vn -0 0 -1
vn -0 0 -1
vn -0 0 -1
vn -0 0 -1
vn -0 0 -1
vn -0.756165802 0 0.654380083
vn -0.756165802 0 0.654380083
vn -0.756165802 0 0.654380083
vn -0.756165802 0 0.654380083
vn -0 -1 0
vn -0 -1 0
vn -0 -1 0
vn -0 -1 0
vn -0 -1 0
vn -0 -1 0
vn 0.981648445 0 -0.190699354
vn 0.981648445 0 -0.190699354
vn 0.981648445 0 -0.190699354
vn 0.981648445 0 -0.190699354
vn -0 1 0
vn -0 1 0
vn -0 1 0
vn -0 1 0
vn -0 1 0
vn -0 1 0
vn -0 1 0
vn -0 1 0
vn -0.220579445 0 0.975369036
vn -0.220579445 0 0.975369036
vn -0.220579445 0 0.975369036
vn -0.220579445 0 0.975369036
g LizardRiderCol_0
f 3/3/3 2/2/2 1/1/1
f 2/2/2 4/4/4 1/1/1
f 1/1/1 4/4/4 5/5/5
f 4/4/4 6/6/6 5/5/5
f 9/9/9 8/8/8 7/7/7
f 10/10/10 9/9/9 7/7/7
f 12/12/12 7/7/7 11/11/11
f 13/13/13 12/12/12 11/11/11
f 16/16/16 15/15/15 14/14/14
f 17/17/17 16/16/16 14/14/14
f 20/20/20 19/19/19 18/18/18
f 21/21/21 20/20/20 18/18/18
f 21/21/21 23/23/23 22/22/22
f 24/24/24 21/21/21 22/22/22
f 27/27/27 26/26/26 25/25/25
f 26/26/26 28/28/28 25/25/25
f 25/25/25 28/28/28 29/29/29
f 28/28/28 30/30/30 29/29/29
f 33/33/33 32/32/32 31/31/31
f 34/34/34 33/33/33 31/31/31
f 37/37/37 36/36/36 35/35/35
f 38/38/38 37/37/37 35/35/35
f 38/38/38 35/35/35 39/39/39
f 40/40/40 38/38/38 39/39/39
f 43/43/43 42/42/42 41/41/41
f 44/44/44 43/43/43 41/41/41
f 47/47/47 46/46/46 45/45/45
f 48/48/48 47/47/47 45/45/45
f 51/51/51 50/50/50 49/49/49
f 52/52/52 51/51/51 49/49/49
f 55/55/55 54/54/54 53/53/53
f 56/56/56 55/55/55 53/53/53
