g KhaalCol
v -1.55048168 -0.111287087 3.97408366
v -1.55048168 0.111287758 3.97408366
v -1.28443396 0.111287683 5.19455051
v -1.28443396 -0.111287162 5.19455051
v -1.55048168 0.111287758 3.97408366
v 1.19520152 0.11128778 4.99613571
v 0.94885546 0.111287452 5.73011732
v -1.28443396 0.111287683 5.19455051
v 1.19520152 0.11128778 4.99613571
v 1.19520152 -0.111287065 4.99613571
v 0.94885546 -0.111287393 5.73011732
v 0.94885546 0.111287452 5.73011732
v 1.19520152 -0.111287065 4.99613571
v -1.55048168 -0.111287087 3.97408366
v -1.28443396 -0.111287162 5.19455051
v 0.94885546 -0.111287393 5.73011732
v -1.41990781 0.111287415 0.309901953
v -1.41990781 -0.11128743 0.309901953
v 1.18240845 -0.11128743 0.309901953
v 1.18240845 0.111287415 0.309901953
v 0.94885546 -0.111287393 5.73011732
v 0.10232681 -0.111287348 6.40059948
v 0.10232681 0.111287497 6.40059948
v 0.94885546 0.111287452 5.73011732
v 1.18240845 -0.11128743 0.309901953
v -1.41990781 -0.11128743 0.309901953
v -1.55048168 -0.111287087 3.97408366
v 1.19520152 -0.111287065 4.99613571
v 1.18240845 0.111287415 0.309901953
v 1.18240845 -0.11128743 0.309901953
v 1.19520152 -0.111287065 4.99613571
v 1.19520152 0.11128778 4.99613571
v -1.41990781 0.111287415 0.309901953
v 1.18240845 0.111287415 0.309901953
v 1.19520152 0.11128778 4.99613571
v -1.55048168 0.111287758 3.97408366
v -1.41990781 -0.11128743 0.309901953
v -1.41990781 0.111287415 0.309901953
v -1.55048168 0.111287758 3.97408366
v -1.55048168 -0.111287087 3.97408366
v 0.10232681 0.111287497 6.40059948
v 0.10232681 -0.111287348 6.40059948
v -0.359753907 -0.111287199 6.40872383
v -0.359753907 0.111287646 6.40872383
v -1.28443396 0.111287683 5.19455051
v -0.359753907 0.111287646 6.40872383
v -0.359753907 -0.111287199 6.40872383
v -1.28443396 -0.111287162 5.19455051
v -1.28443396 -0.111287162 5.19455051
v -0.359753907 -0.111287199 6.40872383
v 0.10232681 -0.111287348 6.40059948
v 0.94885546 -0.111287393 5.73011732
v 0.94885546 0.111287452 5.73011732
v 0.10232681 0.111287497 6.40059948
v -0.359753907 0.111287646 6.40872383
v -1.28443396 0.111287683 5.19455051
vt 0.438839078 0
vt 0.438839048 0.249999985
vt 0.625 0.25
vt 0.625 0
vt 0.438839048 0.249999985
vt 0.438839048 0.5
vt 0.625 0.5
vt 0.625 0.25
vt 0.438839048 0.5
vt 0.438839048 0.75
vt 0.625 0.75
vt 0.625 0.5
vt 0.438839048 0.75
vt 0.438839048 1
vt 0.625 1
vt 0.625 0.75
vt 0.125 0.5
vt 0.125 0.75
vt 0.375 0.75
vt 0.375 0.5
vt 0.625 0.75
vt 0.625 0.75
vt 0.625 0.5
vt 0.625 0.5
vt 0.375 0.75
vt 0.375 1
vt 0.438839048 1
vt 0.438839048 0.75
vt 0.375 0.5
vt 0.375 0.75
vt 0.438839048 0.75
vt 0.438839048 0.5
vt 0.375 0.25
vt 0.375 0.5
vt 0.438839048 0.5
vt 0.438839048 0.249999985
vt 0.375 0
vt 0.375 0.25
vt 0.438839048 0.249999985
vt 0.438839078 0
vt 0.625 0.5
vt 0.625 0.75
vt 0.875 0.75
vt 0.875 0.5
vt 0.625 0.25
vt 0.625 0.25
vt 0.625 0
vt 0.625 0
vt 0.625 1
vt 0.625 1
vt 0.625 0.75
vt 0.625 0.75
vt 0.625 0.5
vt 0.625 0.5
vt 0.625 0.25
vt 0.625 0.25
vn -0.977055073 0 0.212986767
vn -0.977055073 0 0.212986767
vn -0.977055073 0 0.212986767
vn -0.977055073 0 0.212986767
vn -0 1 0
vn -0 1 0
vn -0 1 0
vn -0 1 0
vn 0.948028147 0 0.318186402
vn 0.948028147 0 0.318186402
vn 0.948028147 0 0.318186402
vn 0.948028147 0 0.318186402
vn -0 -1 0
vn -0 -1 0
vn -0 -1 0
vn -0 -1 0
vn -0 0 -1
vn -0 0 -1
vn -0 0 -1
vn -0 0 -1
vn 0.620881319 0 0.783904612
vn 0.620881319 0 0.783904612
vn 0.620881319 0 0.783904612
vn 0.620881319 0 0.783904612
vn -0 -1 0
vn -0 -1 0
vn -0 -1 0
vn -0 -1 0
vn 0.999996305 0 -0.00272991438
vn 0.999996305 0 -0.00272991438
vn 0.999996305 0 -0.00272991438
vn 0.999996305 0 -0.00272991438
vn -0 1 0
vn -0 1 0
vn -0 1 0
vn -0 1 0
vn -0.999365747 0 -0.0356126018
vn -0.999365747 0 -0.0356126018
vn -0.999365747 0 -0.0356126018
vn -0.999365747 0 -0.0356126018
vn 0.0175794866 0 0.999845505
vn 0.0175794866 0 0.999845505
vn 0.0175794866 0 0.999845505
vn 0.0175794866 0 0.999845505
vn -0.795559406 0 0.605875731
vn -0.795559406 0 0.605875731
vn -0.795559406 0 0.605875731
vn -0.795559406 0 0.605875731
vn -0 -1 0
vn -0 -1 0
vn -0 -1 0
vn -0 -1 0
vn -0 1 0
vn -0 1 0
vn -0 1 0
vn -0 1 0
g KhaalCol_0
f 3/3/3 2/2/2 1/1/1
f 4/4/4 3/3/3 1/1/1
f 7/7/7 6/6/6 5/5/5
f 8/8/8 7/7/7 5/5/5
f 11/11/11 10/10/10 9/9/9
f 12/12/12 11/11/11 9/9/9
f 15/15/15 14/14/14 13/13/13
f 16/16/16 15/15/15 13/13/13
f 19/19/19 18/18/18 17/17/17
f 20/20/20 19/19/19 17/17/17
f 23/23/23 22/22/22 21/21/21
f 24/24/24 23/23/23 21/21/21
f 27/27/27 26/26/26 25/25/25
f 28/28/28 27/27/27 25/25/25
f 31/31/31 30/30/30 29/29/29
f 32/32/32 31/31/31 29/29/29
f 35/35/35 34/34/34 33/33/33
f 36/36/36 35/35/35 33/33/33
f 39/39/39 38/38/38 37/37/37
f 40/40/40 39/39/39 37/37/37
f 43/43/43 42/42/42 41/41/41
f 44/44/44 43/43/43 41/41/41
f 47/47/47 46/46/46 45/45/45
f 48/48/48 47/47/47 45/45/45
f 51/51/51 50/50/50 49/49/49
f 52/52/52 51/51/51 49/49/49
f 55/55/55 54/54/54 53/53/53
f 56/56/56 55/55/55 53/53/53
