g Curse01_col
v -1.66226232 -0.111287422 0.309901953
v -1.66226232 0.111287422 0.309901953
v -0.662141442 0.111287393 4.62095118
v -0.662141442 -0.11128746 4.62095118
v 1.70050573 0.111287422 0.309901953
v 0.538654566 0.111287393 4.67294502
v -0.0617433861 0.111287393 4.84268904
v 0.0191216879 0.111287422 0.309901953
v -1.66226232 0.111287422 0.309901953
v 0.0191216879 0.111287422 0.309901953
v -0.662141442 0.111287393 4.62095118
v 1.70050573 0.111287422 0.309901953
v 1.70050573 -0.111287422 0.309901953
v 0.538654566 -0.11128746 4.67294502
v 0.538654566 0.111287393 4.67294502
v 0.0191216879 0.111287422 0.309901953
v 1.70050573 -0.111287422 0.309901953
v 1.70050573 0.111287422 0.309901953
v 0.0191216879 -0.111287422 0.309901953
v -1.66226232 0.111287422 0.309901953
v -1.66226232 -0.111287422 0.309901953
v -0.0617433861 0.111287393 4.84268904
v -0.0617433861 -0.11128746 4.84268904
v -0.662141442 -0.11128746 4.62095118
v -0.662141442 0.111287393 4.62095118
v 1.70050573 -0.111287422 0.309901953
v 0.0191216879 -0.111287422 0.309901953
v -0.0617433861 -0.11128746 4.84268904
v 0.538654566 -0.11128746 4.67294502
v -0.662141442 -0.11128746 4.62095118
v 0.0191216879 -0.111287422 0.309901953
v -1.66226232 -0.111287422 0.309901953
v 0.538654566 0.111287393 4.67294502
v 0.538654566 -0.11128746 4.67294502
v -0.0617433861 -0.11128746 4.84268904
v -0.0617433861 0.111287393 4.84268904
vt 0.375 0
vt 0.375 0.25
vt 0.625 0.25
vt 0.625 0
vt 0.375 0.5
vt 0.625 0.5
vt 0.625 0.375
vt 0.375 0.375
vt 0.375 0.25
vt 0.375 0.375
vt 0.625 0.25
vt 0.375 0.5
vt 0.375 0.75
vt 0.625 0.75
vt 0.625 0.5
vt 0.25 0.5
vt 0.375 0.75
vt 0.375 0.5
vt 0.25 0.75
vt 0.125 0.5
vt 0.125 0.75
vt 0.75 0.5
vt 0.75 0.75
vt 0.875 0.75
vt 0.875 0.5
vt 0.375 0.75
vt 0.375 0.875
vt 0.625 0.875
vt 0.625 0.75
vt 0.625 1
vt 0.375 0.875
vt 0.375 1
vt 0.625 0.5
vt 0.625 0.75
vt 0.75 0.75
vt 0.75 0.5
vn -0.974129975 0 0.225988552
vn -0.974129975 0 0.225988552
vn -0.974129975 0 0.225988552
vn -0.974129975 0 0.225988552
vn -0 1 0
vn -0 1 0
vn -0 1 0
vn -0 1 0
vn -0 1 0
vn -0 1 0
vn -0 1 0
vn 0.966324627 0 0.257326216
vn 0.966324627 0 0.257326216
vn 0.966324627 0 0.257326216
vn 0.966324627 0 0.257326216
vn -0 0 -1
vn -0 0 -1
vn -0 0 -1
vn -0 0 -1
vn -0 0 -1
vn -0 0 -1
vn -0.346445978 0 0.93806994
vn -0.346445978 0 0.93806994
vn -0.346445978 0 0.93806994
vn -0.346445978 0 0.93806994
vn -0 -1 0
vn -0 -1 0
vn -0 -1 0
vn -0 -1 0
vn -0 -1 0
vn -0 -1 0
vn -0 -1 0
vn 0.272055537 0 0.962281585
vn 0.272055537 0 0.962281585
vn 0.272055537 0 0.962281585
vn 0.272055537 0 0.962281585
g Curse01_col_0
f 3/3/3 2/2/2 1/1/1
f 4/4/4 3/3/3 1/1/1
f 7/7/7 6/6/6 5/5/5
f 8/8/8 7/7/7 5/5/5
f 7/7/7 10/10/10 9/9/9
f 11/11/11 7/7/7 9/9/9
f 14/14/14 13/13/13 12/12/12
f 15/15/15 14/14/14 12/12/12
f 18/18/18 17/17/17 16/16/16
f 17/17/17 19/19/19 16/16/16
f 16/16/16 19/19/19 20/20/20
f 19/19/19 21/21/21 20/20/20
f 24/24/24 23/23/23 22/22/22
f 25/25/25 24/24/24 22/22/22
f 28/28/28 27/27/27 26/26/26
f 29/29/29 28/28/28 26/26/26
f 31/31/31 28/28/28 30/30/30
f 32/32/32 31/31/31 30/30/30
f 35/35/35 34/34/34 33/33/33
f 36/36/36 35/35/35 33/33/33
