g EliteRiderCol
v -2.1953764 -0.11128784 2.47336674
v -2.1953764 0.111287005 2.47336674
v -2.00897336 0.111287683 3.08024812
v -2.00897336 -0.111287169 3.08024812
v 0.246090904 0.111287504 2.18929529
v 1.51766372 0.111287348 2.57254815
v 1.34211636 0.111287676 4.02191019
v 0.0340664089 0.111287624 3.75976419
v -1.50895858 0.111287422 0.309901953
v 0.00589836016 0.111287422 0.309901953
v -2.1953764 0.111287005 2.47336674
v -2.1953764 0.111287005 2.47336674
v 0.246090904 0.111287504 2.18929529
v -2.00897336 0.111287683 3.08024812
v 1.51766372 0.111287348 2.57254815
v 1.51766372 -0.111287497 2.57254815
v 1.34211636 -0.111287177 4.02191019
v 1.34211636 0.111287676 4.02191019
v 0.246090904 -0.111287341 2.18929529
v -2.1953764 -0.11128784 2.47336674
v -2.00897336 -0.111287169 3.08024812
v 0.0340664238 -0.111287229 3.75976419
v 1.51766372 -0.111287497 2.57254815
v 0.246090904 -0.111287341 2.18929529
v 1.34211636 -0.111287177 4.02191019
v 0.00589836016 0.111287422 0.309901953
v 1.5556705 -0.111287422 0.309901953
v 1.5556705 0.111287422 0.309901953
v 0.00589842955 -0.111287422 0.309901953
v -1.50895858 0.111287422 0.309901953
v -1.50895858 -0.111287422 0.309901953
v 0.0340664089 0.111287624 3.75976419
v 0.0340664238 -0.111287229 3.75976419
v -2.00897336 -0.111287169 3.08024812
v -2.00897336 0.111287683 3.08024812
v 0.00589842955 -0.111287422 0.309901953
v -1.50895858 -0.111287422 0.309901953
v -2.1953764 -0.11128784 2.47336674
v 0.246090904 -0.111287341 2.18929529
v 1.5556705 -0.111287422 0.309901953
v 0.00589842955 -0.111287422 0.309901953
v 1.51766372 -0.111287497 2.57254815
v 1.5556705 0.111287422 0.309901953
v 1.5556705 -0.111287422 0.309901953
v 1.51766372 -0.111287497 2.57254815
v 1.51766372 0.111287348 2.57254815
v 0.00589836016 0.111287422 0.309901953
v 1.5556705 0.111287422 0.309901953
v 1.51766372 0.111287348 2.57254815
v 0.246090904 0.111287504 2.18929529
v -1.50895858 -0.111287422 0.309901953
v -1.50895858 0.111287422 0.309901953
v -2.1953764 0.111287005 2.47336674
v -2.1953764 -0.11128784 2.47336674
v 1.34211636 0.111287676 4.02191019
v 1.34211636 -0.111287177 4.02191019
v 0.0340664238 -0.111287229 3.75976419
v 0.0340664089 0.111287624 3.75976419
vt 0.438839078 0
vt 0.438839048 0.249999985
vt 0.625 0.25
vt 0.625 0
vt 0.438839018 0.37499997
vt 0.438839048 0.5
vt 0.625 0.5
vt 0.625 0.375
vt 0.375 0.25
vt 0.375 0.375
vt 0.438839048 0.249999985
vt 0.438839048 0.249999985
vt 0.438839018 0.37499997
vt 0.625 0.25
vt 0.438839048 0.5
vt 0.438839048 0.75
vt 0.625 0.75
vt 0.625 0.5
vt 0.438839078 0.875
vt 0.438839048 1
vt 0.625 1
vt 0.625 0.875
vt 0.438839048 0.75
vt 0.438839078 0.875
vt 0.625 0.75
vt 0.24999997 0.49999994
vt 0.375 0.75
vt 0.375 0.5
vt 0.24999997 0.74999994
vt 0.125 0.5
vt 0.125 0.75
vt 0.75 0.5
vt 0.75 0.75
vt 0.875 0.75
vt 0.875 0.5
vt 0.375 0.875
vt 0.375 1
vt 0.438839048 1
vt 0.438839078 0.875
vt 0.375 0.75
vt 0.375 0.875
vt 0.438839048 0.75
vt 0.375 0.5
vt 0.375 0.75
vt 0.438839048 0.75
vt 0.438839048 0.5
vt 0.375 0.375
vt 0.375 0.5
vt 0.438839048 0.5
vt 0.438839018 0.37499997
vt 0.375 0
vt 0.375 0.25
vt 0.438839048 0.249999985
vt 0.438839078 0
vt 0.625 0.5
vt 0.625 0.75
vt 0.75 0.75
vt 0.75 0.5
vn -0.955924869 0 0.293611348
vn -0.955924869 0 0.293611348
vn -0.955924869 0 0.293611348
vn -0.955924869 0 0.293611348
vn -0 1 0
vn -0 1 0
vn -0 1 0
vn -0 1 0
vn -0 1 0
vn -0 1 0
vn -0 1 0
vn -0 1 0
vn -0 1 0
vn -0 1 0
vn 0.992744684 0 0.120241657
vn 0.992744684 0 0.120241657
vn 0.992744684 0 0.120241657
vn 0.992744684 0 0.120241657
vn -0 -1 0
vn -0 -1 0
vn -0 -1 0
vn -0 -1 0
vn -0 -1 0
vn -0 -1 0
vn -0 -1 0
vn -0 0 -1
vn -0 0 -1
vn -0 0 -1
vn -0 0 -1
vn -0 0 -1
vn -0 0 -1
vn -0.315601856 0 0.948891699
vn -0.315601856 0 0.948891699
vn -0.315601856 0 0.948891699
vn -0.315601856 0 0.948891699
vn -0 -1 0
vn -0 -1 0
vn -0 -1 0
vn -0 -1 0
vn -0 -1 0
vn -0 -1 0
vn -0 -1 0
vn 0.999858975 0 0.0167951249
vn 0.999858975 0 0.0167951249
vn 0.999858975 0 0.0167951249
vn 0.999858975 0 0.0167951249
vn -0 1 0
vn -0 1 0
vn -0 1 0
vn -0 1 0
vn -0.953174651 0 -0.302420527
vn -0.953174651 0 -0.302420527
vn -0.953174651 0 -0.302420527
vn -0.953174651 0 -0.302420527
vn -0.196502522 0 0.980503321
vn -0.196502522 0 0.980503321
vn -0.196502522 0 0.980503321
vn -0.196502522 0 0.980503321
g EliteRiderCol_0
f 3/3/3 2/2/2 1/1/1
f 4/4/4 3/3/3 1/1/1
f 7/7/7 6/6/6 5/5/5
f 8/8/8 7/7/7 5/5/5
f 5/5/5 10/10/10 9/9/9
f 11/11/11 5/5/5 9/9/9
f 8/8/8 13/13/13 12/12/12
f 14/14/14 8/8/8 12/12/12
f 17/17/17 16/16/16 15/15/15
f 18/18/18 17/17/17 15/15/15
f 21/21/21 20/20/20 19/19/19
f 22/22/22 21/21/21 19/19/19
f 22/22/22 24/24/24 23/23/23
f 25/25/25 22/22/22 23/23/23
f 28/28/28 27/27/27 26/26/26
f 27/27/27 29/29/29 26/26/26
f 26/26/26 29/29/29 30/30/30
f 29/29/29 31/31/31 30/30/30
f 34/34/34 33/33/33 32/32/32
f 35/35/35 34/34/34 32/32/32
f 38/38/38 37/37/37 36/36/36
f 39/39/39 38/38/38 36/36/36
f 39/39/39 41/41/41 40/40/40
f 42/42/42 39/39/39 40/40/40
f 45/45/45 44/44/44 43/43/43
f 46/46/46 45/45/45 43/43/43
f 49/49/49 48/48/48 47/47/47
f 50/50/50 49/49/49 47/47/47
f 53/53/53 52/52/52 51/51/51
f 54/54/54 53/53/53 51/51/51
f 57/57/57 56/56/56 55/55/55
f 58/58/58 57/57/57 55/55/55
